<?xml version="1.0" encoding="UTF-8"?>
<svg version="1.1" xmlns="http://www.w3.org/2000/svg" width="500" height="500">
<path d="M0 0 C4.48045674 1.38578229 9.19984234 1.66852982 13.8515625 2.12890625 C18.39158075 2.92019483 21.95063604 4.09751861 25.08203125 7.5859375 C28.67506389 13.6784711 29.97775427 17.73679704 28.3125 24.75390625 C27.23857228 29.51901601 27.93752327 31.49468664 30.4375 35.75390625 C30.97445507 38.42891876 31.20257524 41.02877898 31.4375 43.75390625 C32.0975 43.42390625 32.7575 43.09390625 33.4375 42.75390625 C33.95024696 40.45691843 34.3717414 38.13933176 34.75 35.81640625 C36.46047205 26.46101269 39.14618214 18.91642934 46.7890625 12.8125 C50.98756679 10.11630411 55.6372148 10.08004918 60.4375 10.75390625 C66.08488035 12.95620182 70.44640887 16.24783562 74.4375 20.75390625 C74.72625 19.64015625 75.015 18.52640625 75.3125 17.37890625 C76.4375 13.75390625 76.4375 13.75390625 78.4375 11.75390625 C84.51831085 9.62004373 93.10390814 9.21373513 98.95703125 11.91796875 C100.96157746 13.41275464 102.69593877 14.96198662 104.4375 16.75390625 C104.96214844 17.25277344 105.48679688 17.75164062 106.02734375 18.265625 C107.19642356 19.39584343 108.32304109 20.56979366 109.4375 21.75390625 C109.95699219 21.12742188 110.47648438 20.5009375 111.01171875 19.85546875 C111.70910156 19.03820312 112.40648437 18.2209375 113.125 17.37890625 C113.80949219 16.56679687 114.49398437 15.7546875 115.19921875 14.91796875 C118.45784754 11.76739222 121.23846252 10.89225673 125.6875 10.37890625 C132.96689493 11.10684574 138.7596396 14.05276388 143.4375 19.75390625 C143.7675 20.74390625 144.0975 21.73390625 144.4375 22.75390625 C147.12042289 21.41244481 147.31454062 20.05800629 148.4375 17.31640625 C149.58459767 14.52483652 150.28368666 12.90771959 152.4375 10.75390625 C158.5437894 11.08697658 158.5437894 11.08697658 161.19433594 13.06494141 C162.4375 14.75390625 162.4375 14.75390625 161.890625 18.58984375 C161.50723398 20.10743321 161.10538314 21.62045004 160.6875 23.12890625 C160.29642529 24.63660217 159.90578917 26.14441194 159.515625 27.65234375 C159.32669678 28.36720947 159.13776855 29.0820752 158.94311523 29.81860352 C157.8061403 34.17051095 157.32072273 38.06139319 157.375 42.56640625 C157.38402344 43.54222656 157.39304687 44.51804688 157.40234375 45.5234375 C157.41394531 46.25949219 157.42554688 46.99554688 157.4375 47.75390625 C159.39367975 47.61530528 159.39367975 47.61530528 161.4375 46.75390625 C165.88302636 39.0514144 166.68033547 28.68469827 168.13085938 20.05786133 C168.36579102 18.66410278 168.36579102 18.66410278 168.60546875 17.2421875 C168.74235107 16.40212158 168.8792334 15.56205566 169.02026367 14.6965332 C169.4375 12.75390625 169.4375 12.75390625 170.4375 11.75390625 C172.36328125 11.83984375 172.36328125 11.83984375 174.75 12.12890625 C175.52988281 12.21914062 176.30976563 12.309375 177.11328125 12.40234375 C179.4375 12.75390625 179.4375 12.75390625 181.54296875 13.48046875 C182.48076172 13.61582031 182.48076172 13.61582031 183.4375 13.75390625 C183.91316406 13.27695313 184.38882813 12.8 184.87890625 12.30859375 C186.4375 10.75390625 186.4375 10.75390625 188.77734375 10.57421875 C190.06318359 10.72503906 190.06318359 10.72503906 191.375 10.87890625 C192.65697266 11.00652344 192.65697266 11.00652344 193.96484375 11.13671875 C196.82258549 11.85002553 198.32528915 12.70726292 200.4375 14.75390625 C201.50771984 17.39411841 201.8834248 19.9373573 202.4375 22.75390625 C202.94410156 21.70589844 202.94410156 21.70589844 203.4609375 20.63671875 C203.90695312 19.72664063 204.35296875 18.8165625 204.8125 17.87890625 C205.47378906 16.52152344 205.47378906 16.52152344 206.1484375 15.13671875 C207.4375 12.75390625 207.4375 12.75390625 209.4375 10.75390625 C212.1171875 10.8125 212.1171875 10.8125 215.3125 11.19140625 C219.06691234 11.62957477 221.81805188 11.76763728 225.4375 10.75390625 C232.91102426 10.1109091 238.41960619 10.05994908 244.4375 14.75390625 C249.85766137 20.06088559 252.71082073 24.80827781 252.8125 32.56640625 C252.70785679 38.25202062 251.62683432 42.08042625 248.4375 46.75390625 C247.73625 47.78515625 247.035 48.81640625 246.3125 49.87890625 C241.45777041 55.41633219 233.72440977 59.6895056 226.375 60.31640625 C219.92980562 60.3270069 215.91383392 55.94054006 211.4375 51.75390625 C211.31375 52.70265625 211.19 53.65140625 211.0625 54.62890625 C210.4375 57.75390625 210.4375 57.75390625 208.4375 59.75390625 C203.99407697 60.08925893 200.2950374 60.11129022 196.4375 57.75390625 C193.13585213 52.86257608 192.4413966 47.46839459 191.4375 41.75390625 C190.1175 47.36390625 188.7975 52.97390625 187.4375 58.75390625 C180.4375 59.75390625 180.4375 59.75390625 178.0625 58.12890625 C176.31744322 55.57843865 175.94684372 53.7600329 175.4375 50.75390625 C174.60605469 51.60275391 174.60605469 51.60275391 173.7578125 52.46875 C173.03335938 53.20222656 172.30890625 53.93570313 171.5625 54.69140625 C170.84320313 55.42230469 170.12390625 56.15320313 169.3828125 56.90625 C166.0156674 60.10436171 163.36823107 60.0928891 158.88671875 60.03515625 C153.58310891 59.42612928 149.69377461 57.07630057 146.0625 53.25390625 C144.67892142 51.12532382 143.54665112 49.03007724 142.4375 46.75390625 C142.07398438 47.3571875 141.71046875 47.96046875 141.3359375 48.58203125 C137.33870329 54.93660871 134.14622053 58.7031021 126.6875 60.81640625 C121.22716934 61.2452828 116.83904852 58.76665232 112.4375 55.75390625 C108.73579082 52.32889048 105.59168786 48.97951628 105.33984375 43.7109375 C105.37239583 41.72526042 105.40494792 39.73958333 105.4375 37.75390625 C103.1275 39.07390625 100.8175 40.39390625 98.4375 41.75390625 C98.87194493 44.68640951 99.53837941 45.87312737 101.5 48.19140625 C103.4375 50.75390625 103.4375 50.75390625 104 53.31640625 C103.4375 55.75390625 103.4375 55.75390625 101.25 58.06640625 C98.4375 59.75390625 98.4375 59.75390625 96 60.44140625 C91.82838875 59.32219347 89.83588022 56.20674673 87.4375 52.75390625 C85.5625 49.31640625 85.5625 49.31640625 84.4375 46.75390625 C84.23253906 47.60855469 84.02757812 48.46320313 83.81640625 49.34375 C83.54699219 50.44847656 83.27757812 51.55320313 83 52.69140625 C82.73316406 53.79355469 82.46632813 54.89570313 82.19140625 56.03125 C81.4375 58.75390625 81.4375 58.75390625 80.4375 59.75390625 C78.44140625 59.703125 78.44140625 59.703125 76 59.44140625 C75.19691406 59.36277344 74.39382812 59.28414062 73.56640625 59.203125 C71.4375 58.75390625 71.4375 58.75390625 69.4375 56.75390625 C69.4375 55.43390625 69.4375 54.11390625 69.4375 52.75390625 C68.91800781 53.16382813 68.39851563 53.57375 67.86328125 53.99609375 C58.69664735 61.07863158 58.69664735 61.07863158 51.9375 60.56640625 C48.12025788 60.05364238 45.70218248 58.80599238 42.4375 56.75390625 C40.27083333 56.58723958 40.27083333 56.58723958 38.4375 57.75390625 C37.98375 58.51703125 37.53 59.28015625 37.0625 60.06640625 C35.02950516 63.42866694 32.83560782 64.8424706 29.4375 66.75390625 C28.4475 66.75390625 27.4575 66.75390625 26.4375 66.75390625 C26.251875 67.37265625 26.06625 67.99140625 25.875 68.62890625 C24.10878612 71.23983111 22.49387107 71.7517017 19.46875 72.43359375 C8.8025266 74.11557513 -2.09364063 71.44770122 -11.0625 65.44140625 C-17.82896463 60.22790071 -22.19396745 54.57371396 -25.5625 46.75390625 C-25.85125 46.10421875 -26.14 45.45453125 -26.4375 44.78515625 C-30.40803599 35.16424211 -29.751542 27.62451888 -26.1875 18.06640625 C-24.5625 14.75390625 -24.5625 14.75390625 -22.4375 12.19140625 C-20.19659844 9.27823422 -19.93217867 7.37675717 -19.5625 3.75390625 C-19.0625 0.75390625 -19.0625 0.75390625 -18.5625 -2.24609375 C-12.00854756 -4.1945661 -6.16445058 -2.57266385 0 0 Z M10.4375 10.75390625 C9.4475 11.24890625 9.4475 11.24890625 8.4375 11.75390625 C8.7675 12.74390625 9.0975 13.73390625 9.4375 14.75390625 C10.0975 14.42390625 10.7575 14.09390625 11.4375 13.75390625 C11.1075 12.76390625 10.7775 11.77390625 10.4375 10.75390625 Z M56.4375 21.75390625 C50.98114524 26.30086855 49.300829 30.31262349 48.1875 37.19140625 C47.99671875 38.30386719 47.8059375 39.41632813 47.609375 40.5625 C47.42817248 43.9271014 47.94422768 45.77293353 49.4375 48.75390625 C51.4175 48.75390625 53.3975 48.75390625 55.4375 48.75390625 C56.0975 47.43390625 56.7575 46.11390625 57.4375 44.75390625 C56.6125 44.40328125 55.7875 44.05265625 54.9375 43.69140625 C54.1125 43.05203125 53.2875 42.41265625 52.4375 41.75390625 C52.125 38.06640625 52.125 38.06640625 52.4375 34.75390625 C55.7375 34.09390625 59.0375 33.43390625 62.4375 32.75390625 C61.7775 29.45390625 61.1175 26.15390625 60.4375 22.75390625 C59.1175 22.42390625 57.7975 22.09390625 56.4375 21.75390625 Z M88.4375 21.75390625 C87.24462589 25.63074712 86.4375 28.67012548 86.4375 32.75390625 C90.81249134 32.37622334 90.81249134 32.37622334 94.375 30.00390625 C95.72567074 27.14366233 95.39899354 25.71851132 94.4375 22.75390625 C93.37104885 21.45757004 93.37104885 21.45757004 90.875 21.69140625 C90.070625 21.71203125 89.26625 21.73265625 88.4375 21.75390625 Z M125.0625 23.12890625 C120.12715667 28.06424958 118.22489757 34.21841742 118 41.12890625 C118.00629627 44.99481377 118.91985262 46.82889417 121.4375 49.75390625 C123.77898231 49.87604519 123.77898231 49.87604519 126.4375 48.75390625 C131.1078229 43.10035748 132.57988537 37.92849004 132.6875 30.69140625 C132.71328125 29.64855469 132.7390625 28.60570312 132.765625 27.53125 C132.66995175 24.74214724 132.66995175 24.74214724 131.046875 22.8828125 C128.50955475 21.1029932 127.72174707 21.58934216 125.0625 23.12890625 Z M231.4375 21.75390625 C226.58220032 29.03685576 225.99416493 39.18276152 226.4375 47.75390625 C233.10789307 45.39964987 236.26662838 42.68215013 239.75 36.37890625 C240.75779801 32.53095021 240.88179816 29.75258971 240.4375 25.75390625 C238.33036554 23.1342749 238.33036554 23.1342749 235.4375 21.75390625 C234.1175 21.75390625 232.7975 21.75390625 231.4375 21.75390625 Z M-5.5625 25.75390625 C-8.40424829 28.59565454 -7.55791005 35.94424488 -7.5625 39.75390625 C-6.12574353 44.06417565 -4.04176112 46.83581627 -0.5625 49.75390625 C0.0975 49.75390625 0.7575 49.75390625 1.4375 49.75390625 C1.0458227 46.42464919 0.51228667 44.84682302 -1.625 42.19140625 C-4.46696098 37.14921742 -3.89243866 32.41785319 -3.5625 26.75390625 C-4.2225 26.42390625 -4.8825 26.09390625 -5.5625 25.75390625 Z M71.4375 29.75390625 C70.7775 31.07390625 70.1175 32.39390625 69.4375 33.75390625 C70.4275 35.23890625 70.4275 35.23890625 71.4375 36.75390625 C71.7675 34.44390625 72.0975 32.13390625 72.4375 29.75390625 C72.1075 29.75390625 71.7775 29.75390625 71.4375 29.75390625 Z " fill="#FBFBF9" transform="translate(147.5625,194.24609375)"/>
<path d="M0 0 C4.48045674 1.38578229 9.19984234 1.66852982 13.8515625 2.12890625 C18.39158075 2.92019483 21.95063604 4.09751861 25.08203125 7.5859375 C28.67506389 13.6784711 29.97775427 17.73679704 28.3125 24.75390625 C27.23857228 29.51901601 27.93752327 31.49468664 30.4375 35.75390625 C30.97445507 38.42891876 31.20257524 41.02877898 31.4375 43.75390625 C32.7575 43.09390625 34.0775 42.43390625 35.4375 41.75390625 C35.4375 42.74390625 35.4375 43.73390625 35.4375 44.75390625 C38.74076989 41.62919149 41.1972192 38.70106765 43.4375 34.75390625 C44.4275 33.76390625 44.4275 33.76390625 45.4375 32.75390625 C44.44231422 39.26189746 43.04611828 44.22069155 39.4375 49.75390625 C41.0875 48.76390625 42.7375 47.77390625 44.4375 46.75390625 C41.51529321 54.64672949 37.28381645 63.0090734 29.4375 66.75390625 C28.4475 66.75390625 27.4575 66.75390625 26.4375 66.75390625 C26.251875 67.37265625 26.06625 67.99140625 25.875 68.62890625 C24.10878612 71.23983111 22.49387107 71.7517017 19.46875 72.43359375 C8.8025266 74.11557513 -2.09364063 71.44770122 -11.0625 65.44140625 C-17.82896463 60.22790071 -22.19396745 54.57371396 -25.5625 46.75390625 C-25.85125 46.10421875 -26.14 45.45453125 -26.4375 44.78515625 C-30.40803599 35.16424211 -29.751542 27.62451888 -26.1875 18.06640625 C-24.5625 14.75390625 -24.5625 14.75390625 -22.4375 12.19140625 C-20.19659844 9.27823422 -19.93217867 7.37675717 -19.5625 3.75390625 C-19.0625 0.75390625 -19.0625 0.75390625 -18.5625 -2.24609375 C-12.00854756 -4.1945661 -6.16445058 -2.57266385 0 0 Z M10.4375 10.75390625 C9.4475 11.24890625 9.4475 11.24890625 8.4375 11.75390625 C8.7675 12.74390625 9.0975 13.73390625 9.4375 14.75390625 C10.0975 14.42390625 10.7575 14.09390625 11.4375 13.75390625 C11.1075 12.76390625 10.7775 11.77390625 10.4375 10.75390625 Z M-5.5625 25.75390625 C-8.40424829 28.59565454 -7.55791005 35.94424488 -7.5625 39.75390625 C-6.12574353 44.06417565 -4.04176112 46.83581627 -0.5625 49.75390625 C0.0975 49.75390625 0.7575 49.75390625 1.4375 49.75390625 C1.0458227 46.42464919 0.51228667 44.84682302 -1.625 42.19140625 C-4.46696098 37.14921742 -3.89243866 32.41785319 -3.5625 26.75390625 C-4.2225 26.42390625 -4.8825 26.09390625 -5.5625 25.75390625 Z " fill="#7DAE61" transform="translate(147.5625,194.24609375)"/>
<path d="M0 0 C4.48045674 1.38578229 9.19984234 1.66852982 13.8515625 2.12890625 C18.39158075 2.92019483 21.95063604 4.09751861 25.08203125 7.5859375 C28.67506389 13.6784711 29.97775427 17.73679704 28.3125 24.75390625 C27.23857228 29.51901601 27.93752327 31.49468664 30.4375 35.75390625 C30.97445507 38.42891876 31.20257524 41.02877898 31.4375 43.75390625 C32.7575 43.09390625 34.0775 42.43390625 35.4375 41.75390625 C35.4375 42.74390625 35.4375 43.73390625 35.4375 44.75390625 C38.74076989 41.62919149 41.1972192 38.70106765 43.4375 34.75390625 C44.4275 33.76390625 44.4275 33.76390625 45.4375 32.75390625 C44.56453718 39.11220259 43.26190093 43.80329094 39.36328125 48.96484375 C38.21186322 50.75612642 38.21186322 50.75612642 38.79296875 52.98046875 C39.00566406 53.56570312 39.21835938 54.1509375 39.4375 54.75390625 C33.60178915 59.70157415 30.79295113 60.93497111 23 60.94140625 C22.22333984 60.95365234 21.44667969 60.96589844 20.64648438 60.97851562 C16.72517691 60.9886482 14.77131255 60.97644795 11.4375 58.75390625 C12.4275 57.76390625 13.4175 56.77390625 14.4375 55.75390625 C13.9425 55.32078125 13.4475 54.88765625 12.9375 54.44140625 C11.4375 52.75390625 11.4375 52.75390625 11.4375 49.75390625 C11.12661632 48.08290648 10.79669668 46.41519088 10.4375 44.75390625 C11.0975 44.42390625 11.7575 44.09390625 12.4375 43.75390625 C12.2965651 41.3160324 12.14995458 38.87872772 12 36.44140625 C11.96068359 35.75111328 11.92136719 35.06082031 11.88085938 34.34960938 C11.68822585 31.2822909 11.41427283 28.68422473 10.4375 25.75390625 C13.39925123 26.36668237 14.81808783 27.00763147 17.4375 28.75390625 C17.4375 29.41390625 17.4375 30.07390625 17.4375 30.75390625 C17.1075 31.08390625 16.7775 31.41390625 16.4375 31.75390625 C17.7575 32.41390625 19.0775 33.07390625 20.4375 33.75390625 C21.0975 33.09390625 21.7575 32.43390625 22.4375 31.75390625 C24.86805758 33.87084349 26.28257109 35.28911951 27.3125 38.37890625 C27.35375 39.16265625 27.395 39.94640625 27.4375 40.75390625 C26.7775 41.41390625 26.1175 42.07390625 25.4375 42.75390625 C25.7675 43.74390625 26.0975 44.73390625 26.4375 45.75390625 C26.77977417 47.08497247 27.11501743 48.41790704 27.4375 49.75390625 C27.95395067 42.2252031 28.34175159 36.45987077 23.53125 30.33984375 C22.4375 28.75390625 22.4375 28.75390625 22.4375 25.75390625 C23.0975 25.42390625 23.7575 25.09390625 24.4375 24.75390625 C25.81687588 21.16752896 26.65592837 18.73683392 25.8125 14.94140625 C24.18746821 12.3561284 23.37722535 11.57049663 20.4375 10.75390625 C17.31756394 10.82932966 17.31756394 10.82932966 14.4375 11.75390625 C12.13078085 14.46939779 12.13078085 14.46939779 12.8125 16.94140625 C13.01875 17.53953125 13.225 18.13765625 13.4375 18.75390625 C15.0208253 17.50506355 15.0208253 17.50506355 16.4375 15.75390625 C16.4375 14.43390625 16.4375 13.11390625 16.4375 11.75390625 C19.25 11.44140625 19.25 11.44140625 22.4375 11.75390625 C24.74891604 14.60465269 25.4375 16.06785135 25.4375 19.75390625 C24.4475 20.24890625 24.4475 20.24890625 23.4375 20.75390625 C22.9425 22.23890625 22.9425 22.23890625 22.4375 23.75390625 C21.9425 25.23890625 21.9425 25.23890625 21.4375 26.75390625 C19.7875 26.75390625 18.1375 26.75390625 16.4375 26.75390625 C15.7775 25.43390625 15.1175 24.11390625 14.4375 22.75390625 C13.4475 23.41390625 12.4575 24.07390625 11.4375 24.75390625 C10.4475 24.75390625 9.4575 24.75390625 8.4375 24.75390625 C8.21835938 24.07585937 7.99921875 23.3978125 7.7734375 22.69921875 C3.51732291 10.03688232 3.51732291 10.03688232 -5.5625 0.75390625 C-7.84088529 0.15020373 -7.84088529 0.15020373 -10.1875 0.00390625 C-10.96351563 -0.0734375 -11.73953125 -0.15078125 -12.5390625 -0.23046875 C-14.63352164 -0.39979411 -14.63352164 -0.39979411 -16.5625 0.75390625 C-16.5625 1.41390625 -16.5625 2.07390625 -16.5625 2.75390625 C-15.58410156 2.63208984 -15.58410156 2.63208984 -14.5859375 2.5078125 C-7.69816121 2.01002336 -7.69816121 2.01002336 -4.7734375 3.92578125 C-3.12779471 5.77382931 -1.8525036 7.64034103 -0.5625 9.75390625 C-0.00304687 10.6459375 0.55640625 11.53796875 1.1328125 12.45703125 C4.09297416 17.49619018 5.80489882 20.79679677 5.4375 26.75390625 C1.77588422 25.53336766 1.27479526 24.38608321 -0.75 21.19140625 C-1.27980469 20.36511719 -1.80960938 19.53882813 -2.35546875 18.6875 C-2.75378906 18.04941406 -3.15210938 17.41132813 -3.5625 16.75390625 C-2.9025 17.86765625 -2.2425 18.98140625 -1.5625 20.12890625 C0.4375 23.50390625 0.4375 23.50390625 0.4375 25.75390625 C-3.61179196 24.40414226 -4.04307842 22.57232203 -6.0625 18.87890625 C-8.76616747 13.89323298 -8.76616747 13.89323298 -12.5625 9.75390625 C-13.5525 11.23890625 -13.5525 11.23890625 -14.5625 12.75390625 C-15.2225 12.42390625 -15.8825 12.09390625 -16.5625 11.75390625 C-16.5625 11.09390625 -16.5625 10.43390625 -16.5625 9.75390625 C-17.2225 10.41390625 -17.8825 11.07390625 -18.5625 11.75390625 C-19.201875 12.26953125 -19.84125 12.78515625 -20.5 13.31640625 C-25.3435002 19.04054285 -25.98803913 26.51569932 -26.5625 33.75390625 C-25.9025 33.75390625 -25.2425 33.75390625 -24.5625 33.75390625 C-23.5725 39.36390625 -22.5825 44.97390625 -21.5625 50.75390625 C-22.5525 51.24890625 -22.5525 51.24890625 -23.5625 51.75390625 C-28.86990739 39.08271591 -30.99835559 30.96824625 -26.1875 18.06640625 C-24.5625 14.75390625 -24.5625 14.75390625 -22.4375 12.19140625 C-20.19659844 9.27823422 -19.93217867 7.37675717 -19.5625 3.75390625 C-19.0625 0.75390625 -19.0625 0.75390625 -18.5625 -2.24609375 C-12.00854756 -4.1945661 -6.16445058 -2.57266385 0 0 Z M10.4375 10.75390625 C9.4475 11.24890625 9.4475 11.24890625 8.4375 11.75390625 C8.7675 12.74390625 9.0975 13.73390625 9.4375 14.75390625 C10.0975 14.42390625 10.7575 14.09390625 11.4375 13.75390625 C11.1075 12.76390625 10.7775 11.77390625 10.4375 10.75390625 Z " fill="#999F8B" transform="translate(147.5625,194.24609375)"/>
<path d="M0 0 C0.70205566 -0.0213501 1.40411133 -0.0427002 2.12744141 -0.06469727 C7.12170652 -0.09787975 7.12170652 -0.09787975 9.53515625 1.5703125 C11.49827187 4.59590288 11.6832678 6.63739644 11.625 10.25 C10.51513672 12.28735352 10.51513672 12.28735352 8.9921875 14.44140625 C8.44344971 15.23063477 7.89471191 16.01986328 7.3293457 16.83300781 C6.76691162 17.63061523 6.20447754 18.42822266 5.625 19.25 C4.63301878 20.71234069 3.64463473 22.17712907 2.66015625 23.64453125 C1.92974121 24.72855225 1.92974121 24.72855225 1.18457031 25.83447266 C-3.96055222 33.49174406 -8.88431124 41.18573498 -13.375 49.25 C-18.86247539 48.64028051 -18.86247539 48.64028051 -21.07006836 46.95922852 C-22.71110153 44.80976674 -22.71652845 43.88003303 -22.44140625 41.21484375 C-21.55776885 35.27944534 -18.52873656 30.77101785 -15.3125 25.8125 C-14.19314375 24.04516226 -13.07707706 22.2757353 -11.96484375 20.50390625 C-11.46847412 19.73377197 -10.97210449 18.9636377 -10.46069336 18.17016602 C-9.21093715 16.32747854 -9.21093715 16.32747854 -9.375 14.25 C-11.293125 14.064375 -11.293125 14.064375 -13.25 13.875 C-17.125 13.5 -17.125 13.5 -19.375 11.25 C-19.5703125 9.0859375 -19.5703125 9.0859375 -19.5 6.625 C-19.48195313 5.80773437 -19.46390625 4.99046875 -19.4453125 4.1484375 C-19.41050781 3.20871094 -19.41050781 3.20871094 -19.375 2.25 C-13.78617843 -0.54441078 -6.17235112 0.10067389 0 0 Z " fill="#FAFAF8" transform="translate(429.375,204.75)"/>
<path d="M0 0 C6.76054869 3.78590727 10.05659321 11.04285668 13 18 C13.69921875 21.9140625 13.69921875 21.9140625 14 25 C16.31 24.01 18.62 23.02 21 22 C21.495 24.475 21.495 24.475 22 27 C23.65 27 25.3 27 27 27 C27 26.01 27 25.02 27 24 C26.34 23.67 25.68 23.34 25 23 C25.99 23 26.98 23 28 23 C28 22.01 28 21.02 28 20 C28.99 20 29.98 20 31 20 C31 19.01 31 18.02 31 17 C30.34 16.67 29.68 16.34 29 16 C28.505 14.515 28.505 14.515 28 13 C26.02 13 24.04 13 22 13 C22 13.66 22 14.32 22 15 C23.65 15.33 25.3 15.66 27 16 C27 16.33 27 16.66 27 17 C24.69 17 22.38 17 20 17 C19.34 18.32 18.68 19.64 18 21 C16.67619048 15.7047619 16.67619048 15.7047619 18.0625 12.6875 C20.72253176 10.37069814 22.49140451 10.07017191 26 10 C28.75 11 28.75 11 31 13 C33.41496253 18.4599153 32.97145197 21.63326964 31 27 C30.01 26.67 29.02 26.34 28 26 C30.08088509 30.26510503 30.08088509 30.26510503 32.59375 34.28125 C34.34582672 37.66859832 34.30233551 40.02292805 34.1875 43.8125 C34.14689453 45.55466797 34.14689453 45.55466797 34.10546875 47.33203125 C34.07066406 48.21246094 34.03585938 49.09289062 34 50 C33.01 50.495 33.01 50.495 32 51 C31.690625 49.88625 31.38125 48.7725 31.0625 47.625 C30.17673517 44.2054845 30.17673517 44.2054845 29 42 C29.99 41.67 30.98 41.34 32 41 C30.73025028 36.58477891 30.73025028 36.58477891 28 33 C27.01 33.66 26.02 34.32 25 35 C24.67 34.34 24.34 33.68 24 33 C21.97536745 32.34786708 21.97536745 32.34786708 20 32 C20.495 31.01 20.495 31.01 21 30 C21.66 30.33 22.32 30.66 23 31 C20.63707344 28.47411298 19.33537489 27.11179163 16 26 C16.31453125 26.68707031 16.6290625 27.37414062 16.953125 28.08203125 C18.12567292 31.35028982 18.48187119 34.22942696 18.75 37.6875 C18.84796875 38.82574219 18.9459375 39.96398437 19.046875 41.13671875 C19 44 19 44 17 46 C17.66 48.31 18.32 50.62 19 53 C11.72727273 53.36363636 11.72727273 53.36363636 8.625 51.8125 C6.69121258 49.65558326 6.00856947 47.71053046 5 45 C4.29875 44.030625 3.5975 43.06125 2.875 42.0625 C0.79757012 38.66936452 0.62876992 36.89791588 1 33 C1.66 33 2.32 33 3 33 C3.33 30.69 3.66 28.38 4 26 C4.66 26 5.32 26 6 26 C5.62746094 25.44570312 5.25492188 24.89140625 4.87109375 24.3203125 C4.39800781 23.59585938 3.92492187 22.87140625 3.4375 22.125 C2.96183594 21.40570313 2.48617187 20.68640625 1.99609375 19.9453125 C1.66738281 19.30335938 1.33867187 18.66140625 1 18 C1.33 17.34 1.66 16.68 2 16 C2.39832031 16.54269531 2.79664063 17.08539063 3.20703125 17.64453125 C3.73683594 18.35996094 4.26664063 19.07539063 4.8125 19.8125 C5.33457031 20.52019531 5.85664063 21.22789062 6.39453125 21.95703125 C7.83128877 23.78531393 9.31815763 25.39896688 11 27 C9.65097528 19.20563497 5.68120885 8.73119095 -1 4 C-3.74243563 3.63729516 -3.74243563 3.63729516 -6.6875 3.8125 C-7.68136719 3.83957031 -8.67523438 3.86664063 -9.69921875 3.89453125 C-10.83810547 3.94673828 -10.83810547 3.94673828 -12 4 C-11.625 2.0625 -11.625 2.0625 -11 0 C-7.45862723 -1.77068638 -3.75439553 -0.87814675 0 0 Z " fill="#233618" transform="translate(142,194)"/>
<path d="M0 0 C2.96175123 0.61277612 4.38058783 1.25372522 7 3 C7 3.66 7 4.32 7 5 C6.67 5.33 6.34 5.66 6 6 C7.32 6.66 8.64 7.32 10 8 C10.66 7.34 11.32 6.68 12 6 C14.43055758 8.11693724 15.84507109 9.53521326 16.875 12.625 C16.91625 13.40875 16.9575 14.1925 17 15 C16.34 15.66 15.68 16.32 15 17 C15.33 17.99 15.66 18.98 16 20 C16.34227417 21.33106622 16.67751743 22.66400079 17 24 C17.66 23.34 18.32 22.68 19 22 C19.886875 21.79375 20.77375 21.5875 21.6875 21.375 C27.28492174 19.05154192 30.84925637 14.40155193 33.4375 9 C33.7159375 8.01 33.7159375 8.01 34 7 C35.23268696 10.69806088 34.59433466 11.84773679 33.25 15.4375 C32.90453125 16.38496094 32.5590625 17.33242187 32.203125 18.30859375 C31 21 31 21 29.33984375 23.20703125 C27.72204963 24.93377507 27.72204963 24.93377507 28.3125 27.25 C28.6528125 28.11625 28.6528125 28.11625 29 29 C23.16428915 33.9476679 20.35545113 35.18106486 12.5625 35.1875 C11.78583984 35.19974609 11.00917969 35.21199219 10.20898438 35.22460938 C6.28767691 35.23474195 4.33381255 35.2225417 1 33 C1.99 32.01 2.98 31.02 4 30 C3.2575 29.3503125 3.2575 29.3503125 2.5 28.6875 C1 27 1 27 1 24 C0.68911632 22.32900023 0.35919668 20.66128463 0 19 C0.66 18.67 1.32 18.34 2 18 C1.8590651 15.56212615 1.71245458 13.12482147 1.5625 10.6875 C1.52318359 9.99720703 1.48386719 9.30691406 1.44335938 8.59570312 C1.25072585 5.52838465 0.97677283 2.93031848 0 0 Z " fill="#1A9B5B" transform="translate(158,220)"/>
<path d="M0 0 C0.66 0.66 1.32 1.32 2 2 C3.98821313 2.39764263 5.98944339 2.73775349 8 3 C8 2.34 8 1.68 8 1 C9.32 1.66 10.64 2.32 12 3 C12 3.66 12 4.32 12 5 C12.99 5.33 13.98 5.66 15 6 C16.02804941 7.36023251 16.99999458 8.76335055 17.9375 10.1875 C23.67148322 17.75250307 31.58472417 20.80597403 40.75 22.375 C42.49747904 22.60351649 44.2468884 22.81971547 46 23 C46 22.34 46 21.68 46 21 C44.7934375 21.3403125 44.7934375 21.3403125 43.5625 21.6875 C38.94134464 22.09286451 35.14144485 21.08728821 31 19 C30.34 18.01 29.68 17.02 29 16 C30.17175781 16.02320313 31.34351563 16.04640625 32.55078125 16.0703125 C41.25464016 16.18890883 49.48739927 16.10002485 58 14 C56.65289578 18.04131267 54.61571666 18.90288434 51 21 C50.01 21 49.02 21 48 21 C47.814375 21.61875 47.62875 22.2375 47.4375 22.875 C45.67128612 25.48592486 44.05637107 25.99779545 41.03125 26.6796875 C30.3650266 28.36166888 19.46885937 25.69379497 10.5 19.6875 C5.46162568 15.8194894 0.06950805 11.56051887 -1 5 C-0.5625 2.25 -0.5625 2.25 0 0 Z " fill="#29875C" transform="translate(126,240)"/>
<path d="M0 0 C0 0.66 0 1.32 0 2 C2.64 2 5.28 2 8 2 C10.12048807 6.24097614 10.8335198 10.33400771 10 15 C7.67298831 20.50293322 4.41882901 24.34371127 -1 27 C-7.43602494 28.55710281 -10.99991724 27.67860838 -17 25 C-16.41321669 21.47930015 -15.64350079 19.28700157 -14 16 C-11.03 16.33 -8.06 16.66 -5 17 C-4.34 15.35 -3.68 13.7 -3 12 C-3.804375 11.690625 -4.60875 11.38125 -5.4375 11.0625 C-8 10 -8 10 -9 9 C-9.04092937 6.66702567 -9.04241723 4.33294775 -9 2 C-2.25 0 -2.25 0 0 0 Z " fill="#FCFBFA" transform="translate(208,227)"/>
<path d="M0 0 C4.14961321 3.53485569 7.07689549 7.91869368 9 13 C9.11658128 15.93881968 8.68467014 18.10331864 8 21 C7.34 21 6.68 21 6 21 C6 19.02 6 17.04 6 15 C3.72062363 16.65254787 2.44472622 17.64095405 1 20 C0.23369386 25.43751275 0.82110861 30.66599963 2 36 C1.44828125 35.52949219 0.8965625 35.05898437 0.328125 34.57421875 C-2.26651597 32.8197887 -4.18127415 32.33741363 -7.25 31.8125 C-8.58804688 31.57466797 -8.58804688 31.57466797 -9.953125 31.33203125 C-10.62859375 31.22246094 -11.3040625 31.11289063 -12 31 C-12.64147197 15.41460701 -12.64147197 15.41460701 -9 10 C-7.00801833 8.02001822 -4.96601656 6.25767943 -2.7421875 4.54296875 C-0.7281023 3.01853027 -0.7281023 3.01853027 0 0 Z " fill="#75BD44" transform="translate(137,206)"/>
<path d="M0 0 C2.97 0 5.94 0 9 0 C9 0.66 9 1.32 9 2 C9.61488281 1.97679687 10.22976562 1.95359375 10.86328125 1.9296875 C11.67152344 1.91164062 12.47976562 1.89359375 13.3125 1.875 C14.11300781 1.85179687 14.91351563 1.82859375 15.73828125 1.8046875 C18 2 18 2 21 4 C18.36 4.99 15.72 5.98 13 7 C12.67 9.97 12.34 12.94 12 16 C14.07977297 14.77409808 14.07977297 14.77409808 16 13 C16 11.68 16 10.36 16 9 C18.8125 8.6875 18.8125 8.6875 22 9 C24.31141604 11.85074644 25 13.3139451 25 17 C24.34 17.33 23.68 17.66 23 18 C22.67 18.99 22.34 19.98 22 21 C21.67 21.99 21.34 22.98 21 24 C19.35 24 17.7 24 16 24 C15.34 22.68 14.68 21.36 14 20 C13.01 20.66 12.02 21.32 11 22 C10.01 22 9.02 22 8 22 C7.75765625 21.28714844 7.5153125 20.57429688 7.265625 19.83984375 C4.96326806 13.24330414 4.96326806 13.24330414 1.75 7.0625 C0 4 0 4 0 0 Z M10 8 C9.01 8.495 9.01 8.495 8 9 C8.33 9.99 8.66 10.98 9 12 C9.66 11.67 10.32 11.34 11 11 C10.67 10.01 10.34 9.02 10 8 Z " fill="#81AD6D" transform="translate(148,197)"/>
<path d="M0 0 C2.96175123 0.61277612 4.38058783 1.25372522 7 3 C7 3.66 7 4.32 7 5 C6.67 5.33 6.34 5.66 6 6 C7.32 6.66 8.64 7.32 10 8 C10.66 7.34 11.32 6.68 12 6 C14.43055758 8.11693724 15.84507109 9.53521326 16.875 12.625 C16.91625 13.40875 16.9575 14.1925 17 15 C16.34 15.66 15.68 16.32 15 17 C15.33 17.99 15.66 18.98 16 20 C15 23 15 23 12 25 C11.01 24.01 10.02 23.02 9 22 C8.67 23.32 8.34 24.64 8 26 C7.67 25.67 7.34 25.34 7 25 C6.34 25.66 5.68 26.32 5 27 C4.01 26.67 3.02 26.34 2 26 C0.8125 22.4375 0.8125 22.4375 0 19 C0.66 18.67 1.32 18.34 2 18 C1.8590651 15.56212615 1.71245458 13.12482147 1.5625 10.6875 C1.52318359 9.99720703 1.48386719 9.30691406 1.44335938 8.59570312 C1.25072585 5.52838465 0.97677283 2.93031848 0 0 Z " fill="#F8FBF6" transform="translate(158,220)"/>
<path d="M0 0 C0.66 0.66 1.32 1.32 2 2 C3.98821313 2.39764263 5.98944339 2.73775349 8 3 C8 2.34 8 1.68 8 1 C9.32 1.66 10.64 2.32 12 3 C12 3.66 12 4.32 12 5 C12.99 5.33 13.98 5.66 15 6 C16.54296875 7.890625 16.54296875 7.890625 18.1875 10.25 C21.5489278 14.75345135 25.03882711 17.4356535 30 20 C29.67 20.99 29.34 21.98 29 23 C21.375 22.125 21.375 22.125 18 21 C18 20.34 18 19.68 18 19 C16.68 19 15.36 19 14 19 C14 18.34 14 17.68 14 17 C13.319375 16.979375 12.63875 16.95875 11.9375 16.9375 C6.71053582 15.26931994 3.11252998 11.07994735 0.5625 6.3125 C0 4 0 4 0 0 Z " fill="#09A054" transform="translate(126,240)"/>
<path d="M0 0 C2 2 2 2 2.08984375 4.390625 C2.03957031 5.33421875 1.98929688 6.2778125 1.9375 7.25 C1.83520799 12.83222099 2.85423479 16.24115901 6.3125 20.6875 C11.07762792 24.39371061 16.2578841 25.63746402 22 27 C22.33 27.33 22.66 27.66 23 28 C24.84891946 28.23363881 26.70488031 28.41303635 28.5625 28.5625 C29.57441406 28.64628906 30.58632812 28.73007813 31.62890625 28.81640625 C32.41136719 28.87699219 33.19382813 28.93757813 34 29 C34 29.33 34 29.66 34 30 C33.22914063 30.06058594 32.45828125 30.12117188 31.6640625 30.18359375 C30.15972656 30.30927734 30.15972656 30.30927734 28.625 30.4375 C27.12839844 30.55931641 27.12839844 30.55931641 25.6015625 30.68359375 C23.02072387 30.84965626 23.02072387 30.84965626 21 32 C21.66 32.66 22.32 33.32 23 34 C19.29856899 33.63888478 16.54046816 32.88697454 13.375 31 C10.3156725 28.95503467 10.3156725 28.95503467 7.8125 28.5 C5.09744297 27.75101875 3.78736186 26.10653362 2 24 C2 23.34 2 22.68 2 22 C1.34 22 0.68 22 0 22 C-2.66845048 15.82920827 -3.26346073 8.53283058 -0.984375 2.16015625 C-0.49710938 1.09087891 -0.49710938 1.09087891 0 0 Z " fill="#74B675" transform="translate(139,221)"/>
<path d="M0 0 C8.40280315 -1.04619881 8.40280315 -1.04619881 11.7890625 1.171875 C13.43470529 3.01992306 14.7099964 4.88643478 16 7 C16.55945313 7.89203125 17.11890625 8.7840625 17.6953125 9.703125 C20.65547416 14.74228393 22.36739882 18.04289052 22 24 C18.33838422 22.77946141 17.83729526 21.63217696 15.8125 18.4375 C15.28269531 17.61121094 14.75289062 16.78492188 14.20703125 15.93359375 C13.60955078 14.97646484 13.60955078 14.97646484 13 14 C13.66 15.11375 14.32 16.2275 15 17.375 C17 20.75 17 20.75 17 23 C13.03501685 21.67833895 12.7100899 20.12708225 10.75 16.5 C7.95319525 11.50868748 4.90880605 7.0645876 1.28515625 2.64453125 C0 1 0 1 0 0 Z " fill="#EAF1E5" transform="translate(131,197)"/>
<path d="M0 0 C2 2 2 2 2 5 C2.66 5 3.32 5 4 5 C4 5.99 4 6.98 4 8 C4.99 8 5.98 8 7 8 C7 8.66 7 9.32 7 10 C8.32 10 9.64 10 11 10 C11.33 11.65 11.66 13.3 12 15 C12.99 15.33 13.98 15.66 15 16 C14.67 16.33 14.34 16.66 14 17 C14.66 19.31 15.32 21.62 16 24 C8.72727273 24.36363636 8.72727273 24.36363636 5.625 22.8125 C3.69121258 20.65558326 3.00856947 18.71053046 2 16 C1.29875 15.030625 0.5975 14.06125 -0.125 13.0625 C-2.20242988 9.66936452 -2.37123008 7.89791588 -2 4 C-1.34 4 -0.68 4 0 4 C0 2.68 0 1.36 0 0 Z " fill="#0C2F1C" transform="translate(145,223)"/>
<path d="M0 0 C0.7528125 0.07863281 1.505625 0.15726563 2.28125 0.23828125 C4.62887164 0.71359197 6.41514781 1.52661639 8.5 2.6875 C8.5 3.3475 8.5 4.0075 8.5 4.6875 C7.324375 4.336875 6.14875 3.98625 4.9375 3.625 C0.75308347 2.55838402 -2.29891062 2.81227305 -6.5 3.6875 C-6.83 4.6775 -7.16 5.6675 -7.5 6.6875 C-6.860625 6.914375 -6.22125 7.14125 -5.5625 7.375 C-3.5 8.6875 -3.5 8.6875 -2.625 11.1875 C-2.58375 12.0125 -2.5425 12.8375 -2.5 13.6875 C-3.16 14.3475 -3.82 15.0075 -4.5 15.6875 C-5.16 15.3575 -5.82 15.0275 -6.5 14.6875 C-6.5 14.0275 -6.5 13.3675 -6.5 12.6875 C-7.16 13.3475 -7.82 14.0075 -8.5 14.6875 C-9.139375 15.203125 -9.77875 15.71875 -10.4375 16.25 C-15.2810002 21.9741366 -15.92553913 29.44929307 -16.5 36.6875 C-15.84 36.6875 -15.18 36.6875 -14.5 36.6875 C-13.51 42.2975 -12.52 47.9075 -11.5 53.6875 C-12.49 54.1825 -12.49 54.1825 -13.5 54.6875 C-18.80740739 42.01630966 -20.93585559 33.90184 -16.125 21 C-14.5 17.6875 -14.5 17.6875 -12.375 15.125 C-10.13409844 12.21182797 -9.86967867 10.31035092 -9.5 6.6875 C-9 3.6875 -9 3.6875 -8.5 0.6875 C-5.4891035 -0.2226119 -3.11935536 -0.35787125 0 0 Z " fill="#94A881" transform="translate(137.5,191.3125)"/>
<path d="M0 0 C0.33 0 0.66 0 1 0 C1.35063387 6.77892142 0.32416265 12.61170745 -1.20703125 19.2109375 C-2.30328034 24.44917207 -2.89352331 29.69863309 -3.47265625 35.015625 C-4 38 -4 38 -6 40 C-6 39.34 -6 38.68 -6 38 C-6.66 37.67 -7.32 37.34 -8 37 C-7.67 36.505 -7.34 36.01 -7 35.5 C-5.17510106 30.93775265 -5.44946459 25.65160624 -7 21 C-9.64 20.67 -12.28 20.34 -15 20 C-15 19.34 -15 18.68 -15 18 C-14.34 18 -13.68 18 -13 18 C-13.33 17.01 -13.66 16.02 -14 15 C-10.7 14.67 -7.4 14.34 -4 14 C-4 10.7 -4 7.4 -4 4 C-3.01 4.66 -2.02 5.32 -1 6 C-0.67 4.02 -0.34 2.04 0 0 Z M-4 15 C-4.66 16.32 -5.32 17.64 -6 19 C-5.01 20.485 -5.01 20.485 -4 22 C-3.67 19.69 -3.34 17.38 -3 15 C-3.33 15 -3.66 15 -4 15 Z " fill="#E9E5E3" transform="translate(223,209)"/>
<path d="M0 0 C1.71875 1.53125 1.71875 1.53125 2.328125 5.0078125 C2.39456781 6.389823 2.4406752 7.7729281 2.46875 9.15625 C2.49839844 9.86265625 2.52804688 10.5690625 2.55859375 11.296875 C2.62930357 13.04105047 2.67629035 14.78615827 2.71875 16.53125 C1.39875 16.53125 0.07875 16.53125 -1.28125 16.53125 C-1.61125 14.88125 -1.94125 13.23125 -2.28125 11.53125 C-3.60125 11.53125 -4.92125 11.53125 -6.28125 11.53125 C-6.28125 10.87125 -6.28125 10.21125 -6.28125 9.53125 C-7.27125 9.53125 -8.26125 9.53125 -9.28125 9.53125 C-9.28125 8.54125 -9.28125 7.55125 -9.28125 6.53125 C-9.94125 6.53125 -10.60125 6.53125 -11.28125 6.53125 C-11.61125 4.88125 -11.94125 3.23125 -12.28125 1.53125 C-10.70199025 1.13944892 -9.11756206 0.76844264 -7.53125 0.40625 C-6.64953125 0.19742188 -5.7678125 -0.01140625 -4.859375 -0.2265625 C-2.28125 -0.46875 -2.28125 -0.46875 0 0 Z " fill="#869886" transform="translate(158.28125,221.46875)"/>
<path d="M0 0 C-1.98 0.33 -3.96 0.66 -6 1 C-5.92458984 2.58748047 -5.92458984 2.58748047 -5.84765625 4.20703125 C-5.84897013 10.17337329 -7.20432236 15.87491888 -8.4375 21.6875 C-8.66759766 22.80189453 -8.89769531 23.91628906 -9.13476562 25.06445312 C-9.56211683 27.13184198 -9.99264288 29.19857916 -10.42749023 31.2644043 C-10.96654599 33.84014834 -11.48798227 36.4187609 -12 39 C-12.66 39 -13.32 39 -14 39 C-14.33 40.98 -14.66 42.96 -15 45 C-15.33 45 -15.66 45 -16 45 C-15.74970032 33.14489678 -14.34650798 17.69301597 -9 7 C-8.95977609 4.6670134 -8.95679753 2.33293334 -9 0 C-5.62182575 -0.84454356 -3.32534757 -1.10844919 0 0 Z " fill="#E6E1DE" transform="translate(373,207)"/>
<path d="M0 0 C0.33 0.66 0.66 1.32 1 2 C0.71511719 2.5671875 0.43023437 3.134375 0.13671875 3.71875 C-1.3080438 6.61820473 -1.69972611 9.30196366 -2.1875 12.5 C-2.36667969 13.6240625 -2.54585937 14.748125 -2.73046875 15.90625 C-2.97117204 18.66910512 -2.89386944 20.41348419 -2 23 C-0.02 23.33 1.96 23.66 4 24 C3.34 24.66 2.68 25.32 2 26 C-1.625 25.625 -1.625 25.625 -5 25 C-4.34 25.66 -3.68 26.32 -3 27 C-3.61875 27.268125 -4.2375 27.53625 -4.875 27.8125 C-7.2995233 28.95556848 -7.2995233 28.95556848 -9 32 C-9.66 31.67 -10.32 31.34 -11 31 C-10.42415568 28.61435923 -9.77772405 26.33317216 -9 24 C-10.98 24.99 -10.98 24.99 -13 26 C-12.20928784 24.24956851 -11.41739082 22.49967222 -10.625 20.75 C-10.18414062 19.77546875 -9.74328125 18.8009375 -9.2890625 17.796875 C-8.23343842 15.50649063 -7.14357963 13.24720888 -6 11 C-5.690625 10.38125 -5.38125 9.7625 -5.0625 9.125 C-4.711875 8.42375 -4.36125 7.7225 -4 7 C-3.2265625 5.4221875 -3.2265625 5.4221875 -2.4375 3.8125 C-1 1 -1 1 0 0 Z " fill="#EDF1EE" transform="translate(199,219)"/>
<path d="M0 0 C6.74264886 3.77588336 10.08987665 11.04325542 13 18 C13.1953125 20.90625 13.1953125 20.90625 13 23 C12.34 23 11.68 23 11 23 C10.55269531 22.13117188 10.10539062 21.26234375 9.64453125 20.3671875 C7.81419821 16.8782371 5.92783259 13.43586231 4 10 C3.60683594 9.27425781 3.21367187 8.54851562 2.80859375 7.80078125 C1.68038563 5.89805031 1.68038563 5.89805031 -1 4 C-4.72174955 3.53016211 -8.2721593 3.64745465 -12 4 C-11.625 2.0625 -11.625 2.0625 -11 0 C-7.45862723 -1.77068638 -3.75439553 -0.87814675 0 0 Z " fill="#223417" transform="translate(142,194)"/>
<path d="M0 0 C2.8125 -0.3125 2.8125 -0.3125 6 0 C8.31141604 2.85074644 9 4.3139451 9 8 C8.01 8.495 8.01 8.495 7 9 C6.67 9.99 6.34 10.98 6 12 C5.67 12.99 5.34 13.98 5 15 C3.35 15 1.7 15 0 15 C-0.66 13.68 -1.32 12.36 -2 11 C-2.99 11 -3.98 11 -5 11 C-5 10.34 -5 9.68 -5 9 C-4.34 9 -3.68 9 -3 9 C-2.87625 8.360625 -2.7525 7.72125 -2.625 7.0625 C-2.41875 6.381875 -2.2125 5.70125 -2 5 C-1.34 4.67 -0.68 4.34 0 4 C0 2.68 0 1.36 0 0 Z " fill="#5F6F57" transform="translate(164,206)"/>
<path d="M0 0 C0 3.56157706 -0.90403067 5.01218344 -2.6875 8.0625 C-3.18636719 8.94035156 -3.68523437 9.81820312 -4.19921875 10.72265625 C-6.90776395 14.14799649 -9.53958697 14.78104133 -13.76171875 15.4140625 C-20.18823452 15.8773894 -26.55666581 16.12829648 -33 16 C-31.18182999 18.31459868 -30.24384457 18.95377187 -27.30078125 19.51171875 C-26.31464844 19.56972656 -25.32851562 19.62773437 -24.3125 19.6875 C-23.31863281 19.75324219 -22.32476562 19.81898438 -21.30078125 19.88671875 C-20.54152344 19.92410156 -19.78226563 19.96148437 -19 20 C-19 20.66 -19 21.32 -19 22 C-25.47318764 22.42216441 -32.32696338 21.6072001 -37.75 17.7578125 C-39.125 16.4375 -39.125 16.4375 -41 14 C-41 13.34 -41 12.68 -41 12 C-35.25 11.875 -35.25 11.875 -33 13 C-29.59007313 13.29305322 -26.1710547 13.27796715 -22.75 13.3125 C-21.33654297 13.35600586 -21.33654297 13.35600586 -19.89453125 13.40039062 C-13.92565904 13.45480531 -10.53622343 12.98571087 -6 9 C-4.61131484 6.89960669 -4.61131484 6.89960669 -4 5 C-4.66 4.67 -5.32 4.34 -6 4 C-4.7934375 3.2884375 -4.7934375 3.2884375 -3.5625 2.5625 C-1.15246512 1.23099846 -1.15246512 1.23099846 0 0 Z " fill="#37A76C" transform="translate(191,241)"/>
<path d="M0 0 C6.78191615 0.16578017 10.18117497 1.18117497 15 6 C16.175625 7.0828125 16.175625 7.0828125 17.375 8.1875 C19 10 19 10 19 12 C19.94875 12.103125 20.8975 12.20625 21.875 12.3125 C25 13 25 13 27 16 C26.01 16 25.02 16 24 16 C24.66 17.32 25.32 18.64 26 20 C22.32260897 19.44477028 20.89992864 18.14656475 18.5625 15.3125 C17.96179688 14.59578125 17.36109375 13.8790625 16.7421875 13.140625 C16.16726562 12.43421875 15.59234375 11.7278125 15 11 C11.9674505 6.95504002 11.9674505 6.95504002 8 4 C8 4.66 8 5.32 8 6 C5.69 6 3.38 6 1 6 C0.67 4.02 0.34 2.04 0 0 Z " fill="#6CB168" transform="translate(126,237)"/>
<path d="M0 0 C0 0.99 0 1.98 0 3 C-15.20204296 8.96865455 -15.20204296 8.96865455 -22.16796875 7.00390625 C-24.54324356 5.70231643 -26.16908769 3.97706052 -28 2 C-26.22496094 2.03480469 -26.22496094 2.03480469 -24.4140625 2.0703125 C-16.06678888 2.18328047 -8.11236136 2.28287556 0 0 Z " fill="#139959" transform="translate(183,254)"/>
<path d="M0 0 C1.66796875 2.21484375 1.66796875 2.21484375 3.1875 4.9375 C3.69667969 5.83339844 4.20585937 6.72929687 4.73046875 7.65234375 C6.7825773 11.44716602 7.09464912 13.64614028 7 18 C3.4226828 16.80756093 2.94047158 15.84410444 0.9375 12.75 C0.43089844 11.98171875 -0.07570312 11.2134375 -0.59765625 10.421875 C-1.99574135 8.00735476 -3.03172124 5.61296278 -4 3 C-4.66 3 -5.32 3 -6 3 C-6.33 2.01 -6.66 1.02 -7 0 C-3.83462655 -1.05512448 -2.9781092 -1.2895502 0 0 Z " fill="#F8F8F6" transform="translate(146,203)"/>
<path d="M0 0 C20.49010297 0.85621468 20.49010297 0.85621468 25.72265625 5.54296875 C28.13450904 8.58633731 28.95645255 10.52097807 29.3125 14.4375 C29.209375 15.283125 29.10625 16.12875 29 17 C28.773125 16.401875 28.54625 15.80375 28.3125 15.1875 C26.56648858 12.27748097 25.12622271 11.3199607 22 10 C18.26906622 10.22247835 18.26906622 10.22247835 15 11 C14.67 10.01 14.34 9.02 14 8 C16.64 7.34 19.28 6.68 22 6 C19.70370006 4.85185003 17.92301914 4.69230191 15.375 4.4375 C14.55773437 4.35371094 13.74046875 4.26992187 12.8984375 4.18359375 C12.27195313 4.12300781 11.64546875 4.06242188 11 4 C11 3.34 11 2.68 11 2 C9.741875 2.165 8.48375 2.33 7.1875 2.5 C4.73543415 2.82158241 2.48349306 3 0 3 C0 2.01 0 1.02 0 0 Z " fill="#A2B699" transform="translate(146,195)"/>
<path d="M0 0 C1.65 0 3.3 0 5 0 C4.19335115 7.18006119 2.9821814 14.26802552 1.6875 21.375 C1.48705078 22.56222656 1.28660156 23.74945313 1.08007812 24.97265625 C0.76780273 26.66841797 0.76780273 26.66841797 0.44921875 28.3984375 C0.17597778 29.94023682 0.17597778 29.94023682 -0.1027832 31.51318359 C-1 34 -1 34 -3.09057617 35.35009766 C-3.72068604 35.56456543 -4.3507959 35.7790332 -5 36 C-4.5978125 34.2984375 -4.5978125 34.2984375 -4.1875 32.5625 C-1.81431013 21.77216906 0.52841358 11.09668508 0 0 Z " fill="#E1DBD7" transform="translate(327,208)"/>
<path d="M0 0 C1.23268696 3.69806088 0.59433466 4.84773679 -0.75 8.4375 C-1.09546875 9.38496094 -1.4409375 10.33242187 -1.796875 11.30859375 C-2.94350119 13.87361144 -4.22164429 15.83837798 -6 18 C-5.67 18.66 -5.34 19.32 -5 20 C-8.13498292 21.85776765 -10.37471432 22.20140476 -14 22 C-13.34 20.68 -12.68 19.36 -12 18 C-12.99 18 -13.98 18 -15 18 C-15 17.34 -15 16.68 -15 16 C-13.42578125 14.921875 -13.42578125 14.921875 -11.3125 13.75 C-5.66796786 10.35329039 -2.0730443 6.40759147 0 0 Z " fill="#1E9C5D" transform="translate(192,227)"/>
<path d="M0 0 C0.66 0.66 1.32 1.32 2 2 C3.98821313 2.39764263 5.98944339 2.73775349 8 3 C8 2.34 8 1.68 8 1 C9.32 1.66 10.64 2.32 12 3 C12 3.66 12 4.32 12 5 C12.99 5.33 13.98 5.66 15 6 C16.58965571 8.21701147 17.72327486 10.57862473 19 13 C18.01 12.67 17.02 12.34 16 12 C16 11.34 16 10.68 16 10 C13.525 9.01 13.525 9.01 11 8 C11 7.34 11 6.68 11 6 C7.34683329 7.24976756 6.21934164 7.67098753 4 11 C0.85041169 7.57653445 0.43820891 4.55737263 0 0 Z " fill="#2CA353" transform="translate(126,240)"/>
<path d="M0 0 C2 2 2 2 2.08984375 4.390625 C2.03957031 5.33421875 1.98929688 6.2778125 1.9375 7.25 C1.84467226 11.9718376 2.31715719 14.97573578 5 19 C5.66 19.66 6.32 20.32 7 21 C7 21.99 7 22.98 7 24 C3.625 23.375 3.625 23.375 0 22 C-2.89744456 17.08694183 -2.55108117 10.56754063 -2 5 C-0.984375 2.16015625 -0.984375 2.16015625 0 0 Z " fill="#A6BA7D" transform="translate(139,221)"/>
<path d="M0 0 C1.32 0 2.64 0 4 0 C4.66 1.32 5.32 2.64 6 4 C6.99 2.68 7.98 1.36 9 0 C10.65 0.33 12.3 0.66 14 1 C13.67 1.66 13.34 2.32 13 3 C13.60760482 5.3494053 14.27129528 7.68529088 15 10 C7.72727273 10.36363636 7.72727273 10.36363636 4.625 8.8125 C2.70488585 6.67083422 1.9052303 4.7156909 1 2 C0.67 1.34 0.34 0.68 0 0 Z " fill="#22402D" transform="translate(146,237)"/>
<path d="M0 0 C2.96175123 0.61277612 4.38058783 1.25372522 7 3 C7 3.66 7 4.32 7 5 C6.67 5.33 6.34 5.66 6 6 C6.99 6.33 7.98 6.66 9 7 C9.33 7.99 9.66 8.98 10 10 C8.35 11.65 6.7 13.3 5 15 C5.66 15.66 6.32 16.32 7 17 C6.34 17.33 5.68 17.66 5 18 C4.34 17.67 3.68 17.34 3 17 C2.40234375 14.19921875 2.40234375 14.19921875 1.9375 10.6875 C1.21510278 5.29482526 1.21510278 5.29482526 0 0 Z " fill="#ECF2E9" transform="translate(158,220)"/>
<path d="M0 0 C-0.14183696 1.75032844 -0.28863429 3.50025534 -0.4375 5.25 C-0.51871094 6.22453125 -0.59992188 7.1990625 -0.68359375 8.203125 C-0.95074584 10.56461753 -1.35371968 12.71901065 -2 15 C-2.99 15 -3.98 15 -5 15 C-5.67260351 13.23141309 -6.33788395 11.46003984 -7 9.6875 C-7.37125 8.70136719 -7.7425 7.71523437 -8.125 6.69921875 C-9 4 -9 4 -9 1 C-2.25 -1.125 -2.25 -1.125 0 0 Z M-3 1 C-3.99 1.495 -3.99 1.495 -5 2 C-4.67 2.99 -4.34 3.98 -4 5 C-3.34 4.67 -2.68 4.34 -2 4 C-2.33 3.01 -2.66 2.02 -3 1 Z " fill="#808671" transform="translate(161,204)"/>
<path d="M0 0 C1.32 0.33 2.64 0.66 4 1 C4.74926071 4.66305234 5.2380014 7.42355152 4 11 C3.34 11 2.68 11 2 11 C2 9.02 2 7.04 2 5 C-0.4456759 6.65083123 -1.57581825 7.47145275 -3 10 C-3.44894828 14.36272089 -3.28797383 18.62919727 -3 23 C-5.02352121 21.11905752 -5.96731864 20.08932904 -6.9375 17.4375 C-7.0269109 12.51990031 -5.46466001 8.24913788 -3 4 C-2.01 3.67 -1.02 3.34 0 3 C0 2.01 0 1.02 0 0 Z " fill="#7AB55A" transform="translate(141,216)"/>
<path d="M0 0 C2.64326628 1.73179515 2.95950135 2.8413803 3.75 5.9375 C3.97409129 8.68261828 3.88936059 10.43073609 3 13 C2.01 13 1.02 13 0 13 C-0.33 11.68 -0.66 10.36 -1 9 C-0.01 9 0.98 9 2 9 C2 8.01 2 7.02 2 6 C1.34 5.67 0.68 5.34 0 5 C-0.33 4.01 -0.66 3.02 -1 2 C-2.98 2 -4.96 2 -7 2 C-7 2.66 -7 3.32 -7 4 C-5.35 4.33 -3.7 4.66 -2 5 C-2 5.33 -2 5.66 -2 6 C-4.31 6 -6.62 6 -9 6 C-9.66 7.32 -10.32 8.64 -11 10 C-12.34188034 4.63247863 -12.34188034 4.63247863 -10.75 1.6875 C-7.3201025 -1.61990116 -4.35254037 -1.08813509 0 0 Z " fill="#253518" transform="translate(171,205)"/>
<path d="M0 0 C0.66 0 1.32 0 2 0 C5.31180181 3.32183758 6.88403017 6.77463207 7.32421875 11.42578125 C7.31370912 14.63121726 7.21934336 17.80246117 7 21 C6.34 21.33 5.68 21.66 5 22 C4.5359375 20.329375 4.5359375 20.329375 4.0625 18.625 C3.17673517 15.2054845 3.17673517 15.2054845 2 13 C2.99 12.67 3.98 12.34 5 12 C3.73025028 7.58477891 3.73025028 7.58477891 1 4 C0.01 4.66 -0.98 5.32 -2 6 C-2.33 5.34 -2.66 4.68 -3 4 C-5.02463255 3.34786708 -5.02463255 3.34786708 -7 3 C-6.67 2.34 -6.34 1.68 -6 1 C-4.7934375 1.0309375 -4.7934375 1.0309375 -3.5625 1.0625 C-1.06645115 1.29633621 -1.06645115 1.29633621 0 0 Z " fill="#304029" transform="translate(169,223)"/>
<path d="M0 0 C1.32 1.32 2.64 2.64 4 4 C4.66 3.34 5.32 2.68 6 2 C7.2077558 5.62326739 6.54311128 6.64146369 5 10 C3.56344146 10.08131463 2.1255517 10.13933559 0.6875 10.1875 C-0.51326172 10.23970703 -0.51326172 10.23970703 -1.73828125 10.29296875 C-4.47851584 9.93801608 -5.29171079 9.10633718 -7 7 C-6.38125 6.896875 -5.7625 6.79375 -5.125 6.6875 C-2.63473516 6.12474627 -2.63473516 6.12474627 -1 3 C-0.67 3.66 -0.34 4.32 0 5 C0 3.35 0 1.7 0 0 Z " fill="#288348" transform="translate(166,240)"/>
<path d="M0 0 C0.33 0 0.66 0 1 0 C1 5.28 1 10.56 1 16 C2.32 15.67 3.64 15.34 5 15 C6.36877454 12.23109918 6.36877454 12.23109918 7.25 8.9375 C7.75273437 7.28041016 7.75273437 7.28041016 8.265625 5.58984375 C8.50796875 4.73519531 8.7503125 3.88054687 9 3 C9.33 3 9.66 3 10 3 C9.47462276 8.0302076 8.89405214 13.01885239 8 18 C7.01 18.33 6.02 18.66 5 19 C3.33289654 20.49985609 3.33289654 20.49985609 2 22 C-0.69685575 19.30314425 -0.97837294 17.52922682 -1.1328125 13.75 C-1.13023437 12.5125 -1.12765625 11.275 -1.125 10 C-1.12886719 8.14375 -1.12886719 8.14375 -1.1328125 6.25 C-1 3 -1 3 0 0 Z " fill="#EBE9E5" transform="translate(304,226)"/>
<path d="M0 0 C2.94721162 2.74395564 5.19168608 5.38337216 7 9 C6.67 9.66 6.34 10.32 6 11 C5.34 10.67 4.68 10.34 4 10 C3.67 10.99 3.34 11.98 3 13 C3 11.68 3 10.36 3 9 C0.525 8.01 0.525 8.01 -2 7 C-4.31 8.98 -6.62 10.96 -9 13 C-7.95194342 8.80777369 -7.68038561 8.38144386 -4.5 5.9375 C-1.83347234 3.8774981 -1.10366566 3.31099698 0 0 Z " fill="#659E4A" transform="translate(137,206)"/>
<path d="M0 0 C1.22916543 3.53075707 0.73190871 5.70594013 -0.3125 9.25 C-2.33598853 16.74990245 -3.16903946 24.29650701 -4 32 C-4.99 31.67 -5.98 31.34 -7 31 C-6.67 29.783125 -6.34 28.56625 -6 27.3125 C-4.29903828 19.7003947 -4.23969932 11.60449896 -6 4 C-5.34 4.33 -4.68 4.66 -4 5 C-4 5.66 -4 6.32 -4 7 C-1.64214682 6.10664203 -1.64214682 6.10664203 -0.875 2.9375 C-0.441875 1.4834375 -0.441875 1.4834375 0 0 Z " fill="#E6E3DE" transform="translate(296,210)"/>
<path d="M0 0 C0.66 0.99 1.32 1.98 2 3 C1.649375 3.598125 1.29875 4.19625 0.9375 4.8125 C-0.33304698 7.10813214 -0.33304698 7.10813214 1 10 C0 13 0 13 -3 15 C-4.5625 13.25 -4.5625 13.25 -6 11 C-5.72146249 6.68266867 -2.97787128 2.97787128 0 0 Z " fill="#F1F5ED" transform="translate(173,230)"/>
<path d="M0 0 C0.99 0.495 0.99 0.495 2 1 C2.6328125 3.50390625 2.6328125 3.50390625 3.125 6.5625 C3.29257812 7.57441406 3.46015625 8.58632812 3.6328125 9.62890625 C3.75398438 10.41136719 3.87515625 11.19382813 4 12 C4.66 12 5.32 12 6 12 C5.88652381 13.97986082 5.7589065 15.95891598 5.625 17.9375 C5.55539062 19.03964844 5.48578125 20.14179688 5.4140625 21.27734375 C5.27742188 22.17582031 5.14078125 23.07429688 5 24 C4.34 24.33 3.68 24.66 3 25 C2.01 16.75 1.02 8.5 0 0 Z " fill="#E5DFDB" transform="translate(346,208)"/>
<path d="M0 0 C0 3.56157706 -0.90403067 5.01218344 -2.6875 8.0625 C-3.43580078 9.37927734 -3.43580078 9.37927734 -4.19921875 10.72265625 C-6.9463036 14.19673535 -9.62635189 14.78738959 -13.90234375 15.44921875 C-24.0244858 16.24387855 -24.0244858 16.24387855 -29 15 C-29 14.67 -29 14.34 -29 14 C-27.84242188 13.97421875 -26.68484375 13.9484375 -25.4921875 13.921875 C-23.95308872 13.86556651 -22.41402767 13.8082198 -20.875 13.75 C-19.73417969 13.72873047 -19.73417969 13.72873047 -18.5703125 13.70703125 C-13.30711458 13.48016927 -10.18607181 12.46255323 -6 9 C-4.61131484 6.89960669 -4.61131484 6.89960669 -4 5 C-4.66 4.67 -5.32 4.34 -6 4 C-4.7934375 3.2884375 -4.7934375 3.2884375 -3.5625 2.5625 C-1.15246512 1.23099846 -1.15246512 1.23099846 0 0 Z " fill="#45B47C" transform="translate(191,241)"/>
<path d="M0 0 C3.96 0.33 7.92 0.66 12 1 C11.67 1.99 11.34 2.98 11 4 C8.71484375 4.94921875 8.71484375 4.94921875 5.9375 5.6875 C4.55884766 6.06455078 4.55884766 6.06455078 3.15234375 6.44921875 C2.44207031 6.63097656 1.73179687 6.81273437 1 7 C-0.0625 5.1875 -0.0625 5.1875 -1 3 C-0.67 2.01 -0.34 1.02 0 0 Z " fill="#6CAF53" transform="translate(150,199)"/>
<path d="M0 0 C7.82152466 0.03408072 7.82152466 0.03408072 10.7109375 2.40234375 C12.0625 4.0625 12.0625 4.0625 14 7 C13.01 7.495 13.01 7.495 12 8 C10.68 6.68 9.36 5.36 8 4 C8 4.66 8 5.32 8 6 C5.69 6 3.38 6 1 6 C0.67 4.02 0.34 2.04 0 0 Z " fill="#45AA4D" transform="translate(126,237)"/>
<path d="M0 0 C0.33 0.66 0.66 1.32 1 2 C0.29296875 3.6640625 0.29296875 3.6640625 -0.8125 5.625 C-4.38719403 12.46622479 -5.32937058 19.37600237 -6 27 C-6.33 27 -6.66 27 -7 27 C-7 24.69 -7 22.38 -7 20 C-7.66 20 -8.32 20 -9 20 C-8.690625 19.401875 -8.38125 18.80375 -8.0625 18.1875 C-6.29930814 14.5573991 -5.88572261 11.79935892 -5.9375 7.8125 C-5.94652344 6.91144531 -5.95554688 6.01039063 -5.96484375 5.08203125 C-5.97644531 4.39496094 -5.98804688 3.70789063 -6 3 C-5.01 3.33 -4.02 3.66 -3 4 C-2.01 2.68 -1.02 1.36 0 0 Z " fill="#E1DEDC" transform="translate(260,212)"/>
<path d="M0 0 C0.66 0 1.32 0 2 0 C2.13277344 1.10859375 2.26554687 2.2171875 2.40234375 3.359375 C2.58059757 4.8229327 2.75899028 6.28647349 2.9375 7.75 C3.02451172 8.47960937 3.11152344 9.20921875 3.20117188 9.9609375 C3.62027409 13.37584442 4.117274 16.67603543 5 20 C4.34 20.33 3.68 20.66 3 21 C2.34 18.03 1.68 15.06 1 12 C0.01 15.465 0.01 15.465 -1 19 C-1.33 19 -1.66 19 -2 19 C-1.85761163 16.95809019 -1.71092972 14.91647955 -1.5625 12.875 C-1.48128906 11.73804688 -1.40007812 10.60109375 -1.31640625 9.4296875 C-1.02269035 6.2459522 -0.56875687 3.14489093 0 0 Z " fill="#E9EADF" transform="translate(338,224)"/>
<path d="M0 0 C8.92914798 0.98834081 8.92914798 0.98834081 11.5546875 3.46875 C12.625 5.125 12.625 5.125 14 8 C13.67 8.66 13.34 9.32 13 10 C12.61199219 9.52949219 12.22398437 9.05898437 11.82421875 8.57421875 C9.52497076 6.59007113 7.78688189 6.31466837 4.8125 5.8125 C3.91144531 5.65394531 3.01039063 5.49539062 2.08203125 5.33203125 C1.39496094 5.22246094 0.70789063 5.11289063 0 5 C0 3.35 0 1.7 0 0 Z " fill="#63B54A" transform="translate(125,232)"/>
<path d="M0 0 C3.30823705 3.12941343 5.7131982 6.07976834 8 10 C8.66 10.33 9.32 10.66 10 11 C10 9.68 10 8.36 10 7 C10.99 6.67 11.98 6.34 13 6 C12.67 6.99 12.34 7.98 12 9 C11.65772583 10.33106622 11.32248257 11.66400079 11 13 C8.36 13 5.72 13 3 13 C3 12.01 3 11.02 3 10 C3.66 10 4.32 10 5 10 C4.6390625 9.44570312 4.278125 8.89140625 3.90625 8.3203125 C3.4421875 7.59585938 2.978125 6.87140625 2.5 6.125 C2.0359375 5.40570313 1.571875 4.68640625 1.09375 3.9453125 C0 2 0 2 0 0 Z " fill="#394531" transform="translate(143,210)"/>
<path d="M0 0 C2.99298654 2.56541703 4.50639962 5.3726848 6 9 C6.1875 12.375 6.1875 12.375 6 15 C3 14 3 14 1.796875 12.29296875 C1.45140625 11.59816406 1.1059375 10.90335938 0.75 10.1875 C0.39421875 9.50042969 0.0384375 8.81335938 -0.328125 8.10546875 C-1.12108594 5.62055044 -0.79814993 4.4404969 0 2 C0 1.34 0 0.68 0 0 Z " fill="#E9F2E3" transform="translate(147,206)"/>
<path d="M0 0 C3.465 1.485 3.465 1.485 7 3 C6.67 4.65 6.34 6.3 6 8 C0.58657319 6.85485202 -1.9342948 5.65987191 -5 1 C-2.525 1.495 -2.525 1.495 0 2 C0 1.34 0 0.68 0 0 Z " fill="#89A968" transform="translate(146,243)"/>
<path d="M0 0 C2.80970466 4.21455699 1.87019783 7.1810743 1 12 C0.125 15.5 0.125 15.5 -1 18 C-1.99 18.33 -2.98 18.66 -4 19 C-3.566875 17.081875 -3.566875 17.081875 -3.125 15.125 C-2.00617536 10.09828073 -0.9916404 5.05314632 0 0 Z " fill="#ECE8E4" transform="translate(326,225)"/>
<path d="M0 0 C2 2 2 2 2.1953125 5.0390625 C2.17210937 6.22242188 2.14890625 7.40578125 2.125 8.625 C2.10695312 9.81351563 2.08890625 11.00203125 2.0703125 12.2265625 C2.04710937 13.14179688 2.02390625 14.05703125 2 15 C0.68 15.33 -0.64 15.66 -2 16 C-2.05449838 14.27119018 -2.09301688 12.54187288 -2.125 10.8125 C-2.14820313 9.84957031 -2.17140625 8.88664063 -2.1953125 7.89453125 C-1.9913544 4.87187222 -1.26874632 2.73230015 0 0 Z " fill="#93AD7D" transform="translate(139,221)"/>
<path d="M0 0 C0.7528125 0.07863281 1.505625 0.15726563 2.28125 0.23828125 C4.62887164 0.71359197 6.41514781 1.52661639 8.5 2.6875 C8.5 3.3475 8.5 4.0075 8.5 4.6875 C7.324375 4.336875 6.14875 3.98625 4.9375 3.625 C0.75308347 2.55838402 -2.29891062 2.81227305 -6.5 3.6875 C-6.83 4.6775 -7.16 5.6675 -7.5 6.6875 C-8.16 6.6875 -8.82 6.6875 -9.5 6.6875 C-9.17 4.7075 -8.84 2.7275 -8.5 0.6875 C-5.4891035 -0.2226119 -3.11935536 -0.35787125 0 0 Z " fill="#727C6A" transform="translate(137.5,191.3125)"/>
<path d="M0 0 C2.64 0.66 5.28 1.32 8 2 C7.33333333 4 6.66666667 6 6 8 C4.35 8 2.7 8 1 8 C0.67 5.36 0.34 2.72 0 0 Z " fill="#8FA685" transform="translate(163,213)"/>
<path d="M0 0 C0 0.99 0 1.98 0 3 C-1.76858691 3.67260351 -3.53996016 4.33788395 -5.3125 5 C-6.29863281 5.37125 -7.28476563 5.7425 -8.30078125 6.125 C-11 7 -11 7 -14 7 C-13.67 5.68 -13.34 4.36 -13 3 C-8.71 2.01 -4.42 1.02 0 0 Z " fill="#208A56" transform="translate(183,254)"/>
<path d="M0 0 C0.66 0 1.32 0 2 0 C2 2.31 2 4.62 2 7 C4.31 7.33 6.62 7.66 9 8 C8.34 9.65 7.68 11.3 7 13 C6.01 13 5.02 13 4 13 C4.66 12.01 5.32 11.02 6 10 C5.195625 9.690625 4.39125 9.38125 3.5625 9.0625 C1 8 1 8 0 7 C-0.04092937 4.66702567 -0.04241723 2.33294775 0 0 Z " fill="#E8E4E2" transform="translate(199,229)"/>
<path d="M0 0 C0.66 0 1.32 0 2 0 C2.33 1.32 2.66 2.64 3 4 C3.66 4 4.32 4 5 4 C5 3.34 5 2.68 5 2 C5.66 2 6.32 2 7 2 C7.33 1.34 7.66 0.68 8 0 C8.33 2.31 8.66 4.62 9 7 C8.34 6.67 7.68 6.34 7 6 C6.34 6.66 5.68 7.32 5 8 C4.01 7.67 3.02 7.34 2 7 C0.8125 3.4375 0.8125 3.4375 0 0 Z " fill="#DEECDA" transform="translate(158,239)"/>
<path d="M0 0 C4.62 0 9.24 0 14 0 C13.34 1.65 12.68 3.3 12 5 C11.34 5 10.68 5 10 5 C9.67 4.34 9.34 3.68 9 3 C7.13507598 2.61004898 7.13507598 2.61004898 5 2.5 C2.8125 2.34375 2.8125 2.34375 1 2 C0.67 1.34 0.34 0.68 0 0 Z " fill="#DDD7D6" transform="translate(411,216)"/>
<path d="M0 0 C3 2 3 2 3.625 4.25 C2.64717627 8.5524244 -0.56515002 10.45014963 -4 13 C-3.33333333 10.33333333 -2.66666667 7.66666667 -2 5 C-1.34 5 -0.68 5 0 5 C0 3.35 0 1.7 0 0 Z " fill="#76B25A" transform="translate(134,202)"/>
<path d="M0 0 C3.375 -0.1875 3.375 -0.1875 7 0 C7.66 0.99 8.32 1.98 9 3 C8.34 4.32 7.68 5.64 7 7 C3.17053157 5.54744301 1.87949705 3.57104439 0 0 Z " fill="#EFF5EE" transform="translate(131,197)"/>
<path d="M0 0 C2.99324263 1.0975223 3.84610901 1.67682892 5.25 4.625 C5.4975 5.40875 5.745 6.1925 6 7 C3.36 7 0.72 7 -2 7 C-2.33 6.01 -2.66 5.02 -3 4 C-2.01 3.34 -1.02 2.68 0 2 C0 1.34 0 0.68 0 0 Z " fill="#0E3419" transform="translate(155,240)"/>
<path d="M0 0 C0.33 0.66 0.66 1.32 1 2 C0.35077986 3.34191484 -0.31918746 4.67383391 -1 6 C-1.57847517 8.54288045 -2.00445781 11.08896825 -2.4375 13.66015625 C-3 16 -3 16 -5 19 C-5.33860515 12.79223894 -4.57960021 7.70351973 -2 2 C-1.34 1.34 -0.68 0.68 0 0 Z " fill="#DEE0DB" transform="translate(199,219)"/>
<path d="M0 0 C0.66 0 1.32 0 2 0 C2.99 5.61 3.98 11.22 5 17 C4.34 17.33 3.68 17.66 3 18 C1.15433468 14.01606389 0.63977171 10.55623317 0.375 6.1875 C0.30023438 5.02605469 0.22546875 3.86460937 0.1484375 2.66796875 C0.09945312 1.78753906 0.05046875 0.90710938 0 0 Z " fill="#7EA274" transform="translate(121,228)"/>
<path d="M0 0 C3.34252724 -0.07427838 5.8035914 -0.06546953 9 1 C8.67 2.32 8.34 3.64 8 5 C5.69 5 3.38 5 1 5 C0.67 3.35 0.34 1.7 0 0 Z " fill="#AEB8AB" transform="translate(146,223)"/>
<path d="M0 0 C0.66 0.99 1.32 1.98 2 3 C3.78663639 5.0465858 5.61188913 7.0542151 7.44140625 9.0625 C9 11 9 11 10 14 C6.91140053 12.64664405 4.992036 11.19113751 2.8125 8.625 C2.04873047 7.74714844 2.04873047 7.74714844 1.26953125 6.8515625 C-0.08744866 4.8724595 -0.66244134 3.36794881 -1 1 C-0.67 0.67 -0.34 0.34 0 0 Z " fill="#498D67" transform="translate(126,244)"/>
<path d="M0 0 C1.98 0.495 1.98 0.495 4 1 C4.74926071 4.66305234 5.2380014 7.42355152 4 11 C3.34 11 2.68 11 2 11 C2 9.02 2 7.04 2 5 C1.01 5.66 0.02 6.32 -1 7 C-0.67 4.69 -0.34 2.38 0 0 Z " fill="#7B8E6D" transform="translate(141,216)"/>
<path d="M0 0 C1.32 0 2.64 0 4 0 C4.33 1.32 4.66 2.64 5 4 C4.34 4 3.68 4 3 4 C2.67 5.98 2.34 7.96 2 10 C1.01 9.67 0.02 9.34 -1 9 C-1.33 7.35 -1.66 5.7 -2 4 C-1.34 3.67 -0.68 3.34 0 3 C0 2.01 0 1.02 0 0 Z " fill="#072C17" transform="translate(152,233)"/>
<path d="M0 0 C0.66 0 1.32 0 2 0 C5 3.46153846 5 3.46153846 5 6 C3.68 5.34 2.36 4.68 1 4 C0.01 4.66 -0.98 5.32 -2 6 C-2.33 5.34 -2.66 4.68 -3 4 C-5.02463255 3.34786708 -5.02463255 3.34786708 -7 3 C-6.67 2.34 -6.34 1.68 -6 1 C-4.7934375 1.0309375 -4.7934375 1.0309375 -3.5625 1.0625 C-1.06645115 1.29633621 -1.06645115 1.29633621 0 0 Z " fill="#515C46" transform="translate(169,223)"/>
<path d="M0 0 C1 2 1 2 1 5 C0.01 5.495 0.01 5.495 -1 6 C-1.65555119 8.52733235 -1.65555119 8.52733235 -2 11 C-3.32 11.33 -4.64 11.66 -6 12 C-4.81819916 6.97734643 -3.55007718 3.9050849 0 0 Z " fill="#F2F1EF" transform="translate(191,210)"/>
<path d="M0 0 C1.98 0 3.96 0 6 0 C6.66 1.32 7.32 2.64 8 4 C5.36 4 2.72 4 0 4 C0 2.68 0 1.36 0 0 Z " fill="#F0F7ED" transform="translate(164,206)"/>
<path d="M0 0 C0 0.66 0 1.32 0 2 C-1.65 2 -3.3 2 -5 2 C-4.67 2.99 -4.34 3.98 -4 5 C-4.99 5.99 -5.98 6.98 -7 8 C-8.4606285 5.35261084 -9 4.10551666 -9 1 C-2.25 -1.125 -2.25 -1.125 0 0 Z " fill="#8AA479" transform="translate(161,204)"/>
<path d="M0 0 C2.46800047 1.15173355 4.04783565 2.04783565 6 4 C3.64031256 6.09749995 2.45383006 6.96905704 -0.75 7.1875 C-1.86375 7.0946875 -1.86375 7.0946875 -3 7 C-1.125 2.25 -1.125 2.25 0 0 Z " fill="#168F50" transform="translate(176,242)"/>
<path d="M0 0 C0.33 0.66 0.66 1.32 1 2 C-0.21484375 4.6015625 -0.21484375 4.6015625 -1.9375 7.625 C-2.78634766 9.12933594 -2.78634766 9.12933594 -3.65234375 10.6640625 C-4.09707031 11.43492187 -4.54179687 12.20578125 -5 13 C-5.33 13 -5.66 13 -6 13 C-6.3125 9.8125 -6.3125 9.8125 -6 6 C-3.5625 3.125 -3.5625 3.125 -1 1 C-0.67 0.67 -0.34 0.34 0 0 Z " fill="#F5F7E9" transform="translate(422,240)"/>
<path d="M0 0 C0.33 0 0.66 0 1 0 C1.33 5.61 1.66 11.22 2 17 C-1.16693144 12.77742475 -1.7346597 11.12991255 -2 6 C-1.0625 2.5625 -1.0625 2.5625 0 0 Z " fill="#98AD84" transform="translate(120,220)"/>
<path d="M0 0 C-1.45255699 3.82946843 -3.42895561 5.12050295 -7 7 C-7.33 5.35 -7.66 3.7 -8 2 C-2.25 0 -2.25 0 0 0 Z " fill="#149458" transform="translate(187,247)"/>
<path d="M0 0 C0.33 0.99 0.66 1.98 1 3 C3.31 3.33 5.62 3.66 8 4 C8 4.33 8 4.66 8 5 C5.69 5 3.38 5 1 5 C0.34 6.32 -0.32 7.64 -1 9 C-1.625 6.1875 -1.625 6.1875 -2 3 C-1.34 2.01 -0.68 1.02 0 0 Z " fill="#14200C" transform="translate(161,206)"/>
<path d="M0 0 C4.29 0.33 8.58 0.66 13 1 C13.33 1.99 13.66 2.98 14 4 C13.01 4 12.02 4 11 4 C11 3.34 11 2.68 11 2 C9.741875 2.165 8.48375 2.33 7.1875 2.5 C4.73543415 2.82158241 2.48349306 3 0 3 C0 2.01 0 1.02 0 0 Z " fill="#9CB087" transform="translate(146,195)"/>
<path d="M0 0 C0.33 0 0.66 0 1 0 C1.33 2.64 1.66 5.28 2 8 C2.99 8 3.98 8 5 8 C4.67 8.99 4.34 9.98 4 11 C2.35 11 0.7 11 -1 11 C-0.67 7.37 -0.34 3.74 0 0 Z " fill="#E6DEDA" transform="translate(373,233)"/>
<path d="M0 0 C2.31 0 4.62 0 7 0 C7.33 0.66 7.66 1.32 8 2 C7.01 2.495 7.01 2.495 6 3 C6.66 3.66 7.32 4.32 8 5 C5.03 4.505 5.03 4.505 2 4 C2 3.34 2 2.68 2 2 C1.34 2 0.68 2 0 2 C0 1.34 0 0.68 0 0 Z " fill="#57AC64" transform="translate(154,250)"/>
<path d="M0 0 C0.33 0 0.66 0 1 0 C0.36927957 9.98278206 0.36927957 9.98278206 -3 14 C-3.99 14 -4.98 14 -6 14 C-5.65066406 13.32453125 -5.30132812 12.6490625 -4.94140625 11.953125 C-4.48636719 11.06109375 -4.03132812 10.1690625 -3.5625 9.25 C-3.11003906 8.36828125 -2.65757812 7.4865625 -2.19140625 6.578125 C-1.16544602 4.35801434 -0.48491397 2.38555381 0 0 Z " fill="#C9F9E4" transform="translate(192,230)"/>
<path d="M0 0 C0.33 0 0.66 0 1 0 C1 2.64 1 5.28 1 8 C1.99 8 2.98 8 4 8 C3.34 9.32 2.68 10.64 2 12 C1.34 12 0.68 12 0 12 C-1.28571429 3.42857143 -1.28571429 3.42857143 0 0 Z " fill="#DFF2E7" transform="translate(183,227)"/>
<path d="M0 0 C0.86625 0.556875 0.86625 0.556875 1.75 1.125 C0.1 2.775 -1.55 4.425 -3.25 6.125 C-3.91 5.465 -4.57 4.805 -5.25 4.125 C-4.92 3.795 -4.59 3.465 -4.25 3.125 C-4.91 2.465 -5.57 1.805 -6.25 1.125 C-2.80384615 -1.09038462 -2.80384615 -1.09038462 0 0 Z " fill="#697763" transform="translate(158.25,221.875)"/>
<path d="M0 0 C0.33 0 0.66 0 1 0 C2.33500455 5.34001821 1.512545 8.83955235 0 14 C-0.66 14 -1.32 14 -2 14 C-2.85712696 11.60004452 -3.22584094 10.48394488 -2.125 8.125 C-1.75375 7.42375 -1.3825 6.7225 -1 6 C-0.61709538 4.00889599 -0.27395385 2.00899487 0 0 Z " fill="#788266" transform="translate(175,208)"/>
<path d="M0 0 C0 3.67034745 -1.0752892 5.0999431 -3 8.1875 C-3.556875 9.08855469 -4.11375 9.98960937 -4.6875 10.91796875 C-5.120625 11.60503906 -5.55375 12.29210937 -6 13 C-6.66 12.34 -7.32 11.68 -8 11 C-7.525625 10.566875 -7.05125 10.13375 -6.5625 9.6875 C-4.76313043 7.97690387 -4.76313043 7.97690387 -4 5 C-4.66 4.67 -5.32 4.34 -6 4 C-4.7934375 3.2884375 -4.7934375 3.2884375 -3.5625 2.5625 C-1.15246512 1.23099846 -1.15246512 1.23099846 0 0 Z " fill="#569678" transform="translate(191,241)"/>
<path d="M0 0 C1.4800841 0.11362262 2.95910074 0.24122908 4.4375 0.375 C5.26121094 0.44460937 6.08492187 0.51421875 6.93359375 0.5859375 C7.95646484 0.79089844 7.95646484 0.79089844 9 1 C9.33 1.66 9.66 2.32 10 3 C7.36 3 4.72 3 2 3 C1.67 3.99 1.34 4.98 1 6 C0.67 4.02 0.34 2.04 0 0 Z " fill="#4FB14E" transform="translate(126,237)"/>
<path d="M0 0 C1.21236328 0.02707031 1.21236328 0.02707031 2.44921875 0.0546875 C3.37154297 0.08949219 3.37154297 0.08949219 4.3125 0.125 C4.3125 0.455 4.3125 0.785 4.3125 1.125 C2.6625 1.125 1.0125 1.125 -0.6875 1.125 C-0.6875 1.785 -0.6875 2.445 -0.6875 3.125 C-2.5 3.75 -2.5 3.75 -4.6875 4.125 C-5.6775 3.465 -6.6675 2.805 -7.6875 2.125 C-4.48369983 -0.01086678 -3.66810033 -0.10632175 0 0 Z " fill="#2F9A58" transform="translate(166.6875,250.875)"/>
<path d="M0 0 C1.65 0 3.3 0 5 0 C5.33 0.66 5.66 1.32 6 2 C5.01 2 4.02 2 3 2 C3.66 3.32 4.32 4.64 5 6 C3.125 5.6875 3.125 5.6875 1 5 C0.34 4.01 -0.32 3.02 -1 2 C-0.67 1.34 -0.34 0.68 0 0 Z " fill="#48AB65" transform="translate(147,251)"/>
<path d="M0 0 C1.31223496 3.93670488 0.24296256 6.12488144 -1 10 C-2.65 10.33 -4.3 10.66 -6 11 C-5.566875 10.29875 -5.13375 9.5975 -4.6875 8.875 C-2.98498914 5.97442594 -1.47551433 3.02129125 0 0 Z " fill="#529175" transform="translate(192,227)"/>
<path d="M0 0 C0.66 0 1.32 0 2 0 C3.71767682 3.98188718 5.41037341 7.96479403 7 12 C4 11 4 11 2.83203125 9.2578125 C2.49558594 8.55398437 2.15914062 7.85015625 1.8125 7.125 C1.46832031 6.42632812 1.12414062 5.72765625 0.76953125 5.0078125 C0 3 0 3 0 0 Z " fill="#D4DBC9" transform="translate(141,208)"/>
<path d="M0 0 C0.33 0 0.66 0 1 0 C1.33 3.96 1.66 7.92 2 12 C1.01 11.67 0.02 11.34 -1 11 C-1.33 9.35 -1.66 7.7 -2 6 C-1.34 6 -0.68 6 0 6 C-0.2784375 4.7934375 -0.2784375 4.7934375 -0.5625 3.5625 C-0.706875 2.716875 -0.85125 1.87125 -1 1 C-0.67 0.67 -0.34 0.34 0 0 Z " fill="#2B3925" transform="translate(159,226)"/>
<path d="M0 0 C0.71484375 1.765625 0.71484375 1.765625 1 4 C-0.43359375 5.921875 -0.43359375 5.921875 -2.4375 7.75 C-3.09621094 8.36359375 -3.75492187 8.9771875 -4.43359375 9.609375 C-4.95050781 10.06828125 -5.46742188 10.5271875 -6 11 C-6.99 10.67 -7.98 10.34 -9 10 C-8.071875 9.278125 -7.14375 8.55625 -6.1875 7.8125 C-3.41165004 5.51569743 -1.6617322 3.23114595 0 0 Z " fill="#E7E6E1" transform="translate(387,230)"/>
<path d="M0 0 C0.66 0.33 1.32 0.66 2 1 C1.34 5.29 0.68 9.58 0 14 C-0.33 14 -0.66 14 -1 14 C-1 11.69 -1 9.38 -1 7 C-1.66 7 -2.32 7 -3 7 C-2.690625 6.401875 -2.38125 5.80375 -2.0625 5.1875 C-0.89790296 2.91043228 -0.89790296 2.91043228 0 0 Z " fill="#ECE9E6" transform="translate(254,225)"/>
<path d="M0 0 C0.33 0 0.66 0 1 0 C1 4.29 1 8.58 1 13 C-2 10 -2 10 -2.1875 6.8125 C-2.125625 5.884375 -2.06375 4.95625 -2 4 C-1.34 4 -0.68 4 0 4 C0 2.68 0 1.36 0 0 Z " fill="#28402F" transform="translate(145,223)"/>
<path d="M0 0 C0.92538169 3.70152678 1.08174162 4.63458162 0 8 C1.65 8 3.3 8 5 8 C2 10 2 10 -2 10 C-1.34 6.7 -0.68 3.4 0 0 Z " fill="#E7E6E6" transform="translate(234,219)"/>
<path d="M0 0 C1.32 1.32 2.64 2.64 4 4 C3.67 4.99 3.34 5.98 3 7 C1.35 7 -0.3 7 -2 7 C-1.67 5.68 -1.34 4.36 -1 3 C-0.67 3.66 -0.34 4.32 0 5 C0 3.35 0 1.7 0 0 Z " fill="#234022" transform="translate(166,240)"/>
<path d="M0 0 C0.66 0.33 1.32 0.66 2 1 C1.67 2.98 1.34 4.96 1 7 C0.01 6.67 -0.98 6.34 -2 6 C-1.49396008 3.83125748 -1.00016187 2.00032373 0 0 Z M2 1 C3.32 1.33 4.64 1.66 6 2 C4.68 2.33 3.36 2.66 2 3 C2 2.34 2 1.68 2 1 Z " fill="#E0F5ED" transform="translate(190,244)"/>
<path d="M0 0 C1.65 0 3.3 0 5 0 C4.01 0.495 4.01 0.495 3 1 C3 1.66 3 2.32 3 3 C3.66 3 4.32 3 5 3 C5 3.66 5 4.32 5 5 C3.02 5 1.04 5 -1 5 C-1 4.34 -1 3.68 -1 3 C-0.34 3 0.32 3 1 3 C0.67 2.01 0.34 1.02 0 0 Z " fill="#ECE5E2" transform="translate(209,224)"/>
<path d="M0 0 C1.32 0 2.64 0 4 0 C4.0825 0.61875 4.165 1.2375 4.25 1.875 C4.81258459 4.18437567 4.81258459 4.18437567 7.0625 5.25 C7.701875 5.4975 8.34125 5.745 9 6 C5.21213403 5.4739075 2.82847776 4.61896089 0 2 C0 1.34 0 0.68 0 0 Z " fill="#2E885E" transform="translate(136,257)"/>
<path d="M0 0 C-0.99 1.485 -0.99 1.485 -2 3 C-6.75 2.25 -6.75 2.25 -9 0 C-5.52176885 -1.15941038 -3.54104422 -0.70820884 0 0 Z " fill="#55955B" transform="translate(168,247)"/>
<path d="M0 0 C0.33 0 0.66 0 1 0 C1 1.98 1 3.96 1 6 C-0.98 6.99 -0.98 6.99 -3 8 C-2.25 2.25 -2.25 2.25 0 0 Z " fill="#E6E1DE" transform="translate(325,236)"/>
<path d="M0 0 C2.64 0 5.28 0 8 0 C5 1.5 5 1.5 2 3 C1.67 3.99 1.34 4.98 1 6 C0.34 6 -0.32 6 -1 6 C-0.67 4.02 -0.34 2.04 0 0 Z " fill="#6B765E" transform="translate(129,192)"/>
<path d="M0 0 C-1.07401108 2.91517292 -1.77810176 4.77810176 -4 7 C-4.33 5.02 -4.66 3.04 -5 1 C-2 0 -2 0 0 0 Z " fill="#259162" transform="translate(190,237)"/>
<path d="M0 0 C0.66 1.32 1.32 2.64 2 4 C-2.75 7 -2.75 7 -5 7 C-5 6.34 -5 5.68 -5 5 C-4.01 5 -3.02 5 -2 5 C-1.7834375 4.0409375 -1.7834375 4.0409375 -1.5625 3.0625 C-1 1 -1 1 0 0 Z " fill="#80B18F" transform="translate(182,236)"/>
<path d="M0 0 C2.64 0.66 5.28 1.32 8 2 C7.67 2.99 7.34 3.98 7 5 C4.69 4.01 2.38 3.02 0 2 C0 1.34 0 0.68 0 0 Z " fill="#BFD2B5" transform="translate(163,213)"/>
<path d="M0 0 C0.33 0 0.66 0 1 0 C1.125 3.375 1.125 3.375 1 7 C0.34 7.66 -0.32 8.32 -1 9 C-1 8.34 -1 7.68 -1 7 C-1.66 6.67 -2.32 6.34 -3 6 C-2.01 4.02 -1.02 2.04 0 0 Z " fill="#E4E0DF" transform="translate(218,240)"/>
<path d="M0 0 C1.20628008 2.33214148 2.1654738 4.49642139 3 7 C1.68 7.33 0.36 7.66 -1 8 C-1.125 2.25 -1.125 2.25 0 0 Z " fill="#8E9A82" transform="translate(177,234)"/>
<path d="M0 0 C2.96175123 0.61277612 4.38058783 1.25372522 7 3 C7 3.66 7 4.32 7 5 C4.0625 4.1875 4.0625 4.1875 1 3 C0.67 2.01 0.34 1.02 0 0 Z " fill="#AEBEA5" transform="translate(158,220)"/>
<path d="M0 0 C2 2 2 2 2.125 5.125 C2.08375 6.07375 2.0425 7.0225 2 8 C1.01 7.67 0.02 7.34 -1 7 C-1.33 6.01 -1.66 5.02 -2 4 C-1.34 4 -0.68 4 0 4 C0 2.68 0 1.36 0 0 Z " fill="#DDEAD4" transform="translate(151,213)"/>
<path d="M0 0 C0.99 0.66 1.98 1.32 3 2 C3 3.32 3 4.64 3 6 C1.35 6.33 -0.3 6.66 -2 7 C-2 6.34 -2 5.68 -2 5 C-1.34 5 -0.68 5 0 5 C0 3.35 0 1.7 0 0 Z " fill="#72915E" transform="translate(134,202)"/>
<path d="M0 0 C1.98 0 3.96 0 6 0 C6 0.66 6 1.32 6 2 C3.69 2.66 1.38 3.32 -1 4 C-0.67 2.68 -0.34 1.36 0 0 Z " fill="#1A280B" transform="translate(131,194)"/>
<path d="M0 0 C2.97 1.65 5.94 3.3 9 5 C5 6 5 6 2.8125 5.3125 C1 4 1 4 0 0 Z " fill="#169957" transform="translate(146,254)"/>
<path d="M0 0 C2.64 0 5.28 0 8 0 C5.64031256 2.09749995 4.45383006 2.96905704 1.25 3.1875 C0.13625 3.0946875 0.13625 3.0946875 -1 3 C-0.67 2.01 -0.34 1.02 0 0 Z " fill="#2EA96E" transform="translate(179,246)"/>
<path d="M0 0 C2 2 2 2 2 6 C1.01 5.67 0.02 5.34 -1 5 C-1.66 5 -2.32 5 -3 5 C-3 4.01 -3 3.02 -3 2 C-2.01 1.34 -1.02 0.68 0 0 Z " fill="#129254" transform="translate(184,239)"/>
<path d="M0 0 C0.66 1.32 1.32 2.64 2 4 C0.68 4.99 -0.64 5.98 -2 7 C-2.66 6.01 -3.32 5.02 -4 4 C-2.68 2.68 -1.36 1.36 0 0 Z " fill="#D8E5D3" transform="translate(172,238)"/>
<path d="M0 0 C1.98 0.99 1.98 0.99 4 2 C4 3.32 4 4.64 4 6 C2.68 5.34 1.36 4.68 0 4 C0 2.68 0 1.36 0 0 Z " fill="#14350B" transform="translate(147,202)"/>
<path d="M0 0 C1.32 0.33 2.64 0.66 4 1 C4 1.99 4 2.98 4 4 C3.01 4.33 2.02 4.66 1 5 C0.67 3.35 0.34 1.7 0 0 Z " fill="#848876" transform="translate(129,198)"/>
</svg>
