<?xml version="1.0" encoding="UTF-8"?>
<svg version="1.1" xmlns="http://www.w3.org/2000/svg" width="500" height="500">
<path d="M0 0 C0.87785156 0.20109375 1.75570312 0.4021875 2.66015625 0.609375 C5.0625 1.25 5.0625 1.25 7.9375 2.25 C10.97131001 3.2208192 13.79275412 3.71185719 16.9375 4.1875 C30.07712427 6.3665961 30.07712427 6.3665961 34.5625 12.4375 C37.70891863 17.70711169 37.72099192 21.31368166 36.7109375 27.3515625 C35.91056728 32.32130317 36.42415578 34.08953411 39.0625 38.25 C39.61433554 41.23699972 39.87108171 44.22031047 40.0625 47.25 C40.7225 46.92 41.3825 46.59 42.0625 46.25 C42.57524696 43.95301218 42.9967414 41.63542551 43.375 39.3125 C45.27383545 28.81525855 48.81136178 21.14954077 57.375 14.4375 C61.86203454 12.45485683 65.78027687 12.53051949 70.3671875 13.9765625 C75.33131764 16.03241438 79.12529622 18.61565805 83.0625 22.25 C83.26875 21.13625 83.475 20.0225 83.6875 18.875 C85.0625 15.25 85.0625 15.25 87.7109375 14.046875 C94.58833433 12.41168974 102.12009314 11.9078495 108.625 14.875 C111.35768034 17.53761161 113.71051133 20.24468114 116.0625 23.25 C117.0525 24.24 117.0525 24.24 118.0625 25.25 C118.44921875 24.70730469 118.8359375 24.16460937 119.234375 23.60546875 C120.01554687 22.53232422 120.01554687 22.53232422 120.8125 21.4375 C121.32296875 20.72980469 121.8334375 20.02210938 122.359375 19.29296875 C124.94491604 16.19150553 127.23028668 14.52740444 131.0625 13.25 C137.4700707 12.70698553 141.68522845 13.68050497 147.0625 17.25 C149.91803431 19.79515015 151.94323945 22.07110917 154.0625 25.25 C156.0425 21.29 158.0225 17.33 160.0625 13.25 C167.5390274 13.86283011 167.5390274 13.86283011 169.73803711 15.48925781 C171.0625 17.25 171.0625 17.25 170.95996094 19.41967773 C170.6317334 20.66406616 170.6317334 20.66406616 170.296875 21.93359375 C169.95112427 23.31780518 169.95112427 23.31780518 169.59838867 24.72998047 C169.33904541 25.70596191 169.07970215 26.68194336 168.8125 27.6875 C166.84637719 35.59710058 165.25224273 43.07381328 165.0625 51.25 C167.53284965 50.48418241 167.53284965 50.48418241 170.0625 49.25 C174.78878282 39.61565426 176.19661059 28.26652236 177.6328125 17.734375 C178.0625 15.25 178.0625 15.25 179.0625 14.25 C182.12978639 14.21944934 185.08079701 14.53009333 188.0625 15.25 C190.125 17.3125 190.125 17.3125 191.0625 19.25 C192.0525 17.27 193.0425 15.29 194.0625 13.25 C195.81341019 13.33754551 197.56329551 13.44573373 199.3125 13.5625 C200.28703125 13.62050781 201.2615625 13.67851562 202.265625 13.73828125 C205.43600371 14.31833657 206.86690249 14.89176563 209.0625 17.25 C209.671875 19.94921875 209.671875 19.94921875 209.8125 22.9375 C209.86921875 23.93136719 209.9259375 24.92523438 209.984375 25.94921875 C210.02304687 27.08810547 210.02304687 27.08810547 210.0625 28.25 C210.7225 28.25 211.3825 28.25 212.0625 28.25 C212.18367187 27.58613281 212.30484375 26.92226562 212.4296875 26.23828125 C212.68105469 24.91376953 212.68105469 24.91376953 212.9375 23.5625 C213.18113281 22.25732422 213.18113281 22.25732422 213.4296875 20.92578125 C214.06830048 18.22547329 214.97034485 15.79683238 216.0625 13.25 C216.9803125 13.34539062 217.898125 13.44078125 218.84375 13.5390625 C226.67791638 14.41884939 226.67791638 14.41884939 234.375 13.25 C239.7230799 11.79967325 244.2647574 11.75049048 249.234375 14.4140625 C254.66121747 18.22917356 258.9342312 22.86519359 261.0625 29.25 C261.96089167 37.68204755 261.07456634 44.29400139 256.0625 51.25 C249.92955757 58.22803292 243.0029885 62.0619023 233.9375 63.875 C229.55530356 62.9223486 226.24553493 60.36840478 223.0625 57.25 C223.0625 56.59 223.0625 55.93 223.0625 55.25 C222.4025 55.25 221.7425 55.25 221.0625 55.25 C220.670625 56.384375 220.27875 57.51875 219.875 58.6875 C218.0625 62.25 218.0625 62.25 215.9375 63.375 C211.52532145 63.18316615 207.76215051 62.82832787 204.0625 60.25 C202.30116863 56.69892869 201.65329413 53.14818626 201.0625 49.25 C200.7325 47.27 200.4025 45.29 200.0625 43.25 C198.7425 49.52 197.4225 55.79 196.0625 62.25 C192.0625 63.25 192.0625 63.25 188.375 62.3125 C185.0625 60.25 185.0625 60.25 184.390625 58.265625 C184.125 56.0625 184.125 56.0625 184.0625 52.25 C183.52625 53.1575 182.99 54.065 182.4375 55 C179.37544806 59.52883906 175.57811763 62.18244631 170.1875 63.25 C165.4188592 63.62383226 161.88885501 62.00300917 158.0625 59.25 C155.2851295 56.549974 153.20867847 53.4692677 151.0625 50.25 C150.65 50.85328125 150.2375 51.4565625 149.8125 52.078125 C145.98579184 57.37401576 142.58528196 61.59804777 136.0625 63.25 C129.74298817 63.88082471 125.04140833 61.67463549 120.015625 57.984375 C116.5263769 54.88592268 114.33088506 51.83832375 113.83203125 47.02734375 C113.81503621 45.10010574 113.92758177 43.17258478 114.0625 41.25 C111.4225 42.57 108.7825 43.89 106.0625 45.25 C106.68125 46.36375 107.3 47.4775 107.9375 48.625 C108.45957031 49.56472656 108.45957031 49.56472656 108.9921875 50.5234375 C110.07147274 52.4112614 110.07147274 52.4112614 112.0625 54.25 C111.90668468 57.28839874 111.43894136 58.81564458 109.4375 61.125 C105.79391743 62.85090753 103.86682011 62.5181067 100.0625 61.25 C96.69913418 57.45520767 94.87212377 52.9337321 93.0625 48.25 C92.85753906 49.17683594 92.65257812 50.10367188 92.44140625 51.05859375 C92.17199219 52.25613281 91.90257812 53.45367187 91.625 54.6875 C91.35816406 55.88246094 91.09132813 57.07742187 90.81640625 58.30859375 C90.0625 61.25 90.0625 61.25 89.0625 62.25 C82.90360672 62.71482213 82.90360672 62.71482213 79.6875 60.9375 C78.0625 59.25 78.0625 59.25 77.0625 56.25 C76.24845703 56.88228516 76.24845703 56.88228516 75.41796875 57.52734375 C74.70253906 58.07519531 73.98710937 58.62304688 73.25 59.1875 C72.54230469 59.73277344 71.83460938 60.27804688 71.10546875 60.83984375 C67.17161289 63.55518211 63.7255853 63.56087235 59.0625 63.25 C56.69727442 62.32796291 54.35848193 61.33301035 52.0625 60.25 C50.73973944 59.87691369 49.41017923 59.51953585 48.0625 59.25 C47.25232422 60.60351562 47.25232422 60.60351562 46.42578125 61.984375 C42.32052964 68.12691412 35.18081358 71.93702586 28.5 74.75 C17.43582913 76.35933395 7.0949073 75.10277234 -2.25 68.5 C-11.32234994 61.01201055 -17.73756187 51.89859326 -19.9375 40.25 C-20.73080377 31.83906841 -20.56918704 24.51261131 -15.9375 17.25 C-15.23625 16.46625 -14.535 15.6825 -13.8125 14.875 C-11.27199403 11.31829164 -11.13525487 7.97029365 -10.72265625 3.67578125 C-9.9375 1.25 -9.9375 1.25 -7.6796875 -0.12890625 C-4.70611606 -0.80240747 -2.95029833 -0.68980119 0 0 Z M18.0625 14.25 C19.0625 16.25 19.0625 16.25 19.0625 16.25 Z M65.0625 24.25 C59.67235827 28.87012148 57.71107311 32.79623707 56.8125 39.6875 C56.6578125 40.69006836 56.6578125 40.69006836 56.5 41.71289062 C55.99094979 45.48959401 55.76636336 48.09571129 58.0625 51.25 C59.83963532 52.50695267 59.83963532 52.50695267 62.0625 52.25 C64.83372275 49.89573501 64.83372275 49.89573501 67.0625 47.25 C64.5875 46.26 64.5875 46.26 62.0625 45.25 C61.68186779 42.9239143 61.34980055 40.58944736 61.0625 38.25 C62.87548005 36.43701995 65.67431698 36.57444995 68.125 36.1875 C69.22972656 36.01089844 70.33445312 35.83429688 71.47265625 35.65234375 C72.32730469 35.51957031 73.18195313 35.38679688 74.0625 35.25 C73.7325 34.59 73.4025 33.93 73.0625 33.25 C72.0725 33.25 71.0825 33.25 70.0625 33.25 C69.7325 30.61 69.4025 27.97 69.0625 25.25 C67.33773089 24.29497842 67.33773089 24.29497842 65.0625 24.25 Z M97.0625 24.25 C95.86962589 28.12684087 95.0625 31.16621923 95.0625 35.25 C99.22973328 34.80357925 99.22973328 34.80357925 102.9375 33 C104.47326449 30.61103301 104.41956738 29.03512559 104.0625 26.25 C102.22366119 23.96271266 102.22366119 23.96271266 99.4375 24.125 C98.65375 24.16625 97.87 24.2075 97.0625 24.25 Z M131.0625 28.25 C128.14722007 33.24762274 126.91759474 37.50482061 126.8125 43.25 C126.78671875 44.095625 126.7609375 44.94125 126.734375 45.8125 C127.12612479 48.72264128 128.14671954 50.0720601 130.0625 52.25 C133.23501999 51.67317818 135.42289682 51.1725429 137.31640625 48.44140625 C139.85357466 43.33898269 141.22805979 38.99193421 141.3125 33.25 C141.33828125 32.198125 141.3640625 31.14625 141.390625 30.0625 C141.29854643 27.24260728 141.29854643 27.24260728 139.671875 25.375 C136.0016363 22.80939625 133.89306603 25.62654856 131.0625 28.25 Z M239.0625 24.25 C238.22409002 28.01972318 237.3926451 31.7909489 236.5625 35.5625 C236.32402344 36.63435547 236.08554687 37.70621094 235.83984375 38.81054688 C235.61425781 39.83857422 235.38867188 40.86660156 235.15625 41.92578125 C234.84204102 43.3475769 234.84204102 43.3475769 234.52148438 44.7980957 C233.97050051 47.32571418 233.97050051 47.32571418 234.0625 50.25 C239.36009331 49.92893374 242.61778022 47.02643353 246.0625 43.25 C249.02053015 38.09730231 249.82317861 34.05017443 249.0625 28.25 C247.01368716 25.61073642 247.01368716 25.61073642 244.0625 24.25 C241.4451463 24.12469035 241.4451463 24.12469035 239.0625 24.25 Z M2.0625 30.25 C1.84075067 31.70635371 1.63551302 33.16522956 1.4375 34.625 C1.32148438 35.43710938 1.20546875 36.24921875 1.0859375 37.0859375 C1.07820313 37.80007812 1.07046875 38.51421875 1.0625 39.25 C1.7225 39.91 2.3825 40.57 3.0625 41.25 C3.3925 37.62 3.7225 33.99 4.0625 30.25 C3.4025 30.25 2.7425 30.25 2.0625 30.25 Z M80.0625 32.25 C80.0625 32.91 80.0625 33.57 80.0625 34.25 C78.7425 34.58 77.4225 34.91 76.0625 35.25 C77.3825 36.9 78.7025 38.55 80.0625 40.25 C80.3925 37.61 80.7225 34.97 81.0625 32.25 C80.7325 32.25 80.4025 32.25 80.0625 32.25 Z M4.0625 42.25 C4.60973683 45.62462715 5.1174 47.33235 7.0625 50.25 C8.0525 49.92 9.0425 49.59 10.0625 49.25 C8.7071674 46.71326712 8.7071674 46.71326712 7.0625 44.25 C6.4025 44.25 5.7425 44.25 5.0625 44.25 C4.7325 43.59 4.4025 42.93 4.0625 42.25 Z " fill="#040304" transform="translate(138.9375,191.75)"/>
<path d="M0 0 C0.87785156 0.20109375 1.75570312 0.4021875 2.66015625 0.609375 C5.0625 1.25 5.0625 1.25 7.9375 2.25 C10.97131001 3.2208192 13.79275412 3.71185719 16.9375 4.1875 C30.07712427 6.3665961 30.07712427 6.3665961 34.5625 12.4375 C37.70891863 17.70711169 37.72099192 21.31368166 36.7109375 27.3515625 C35.91056728 32.32130317 36.42415578 34.08953411 39.0625 38.25 C39.61433554 41.23699972 39.87108171 44.22031047 40.0625 47.25 C44.0083331 46.41530454 46.48607496 45.82642504 49.375 42.9375 C50.95669792 40.41849961 52.09959163 38.05848275 53.0625 35.25 C54.30908899 38.98976697 53.59465629 40.13991627 52.1875 43.75 C51.81882812 44.7090625 51.45015625 45.668125 51.0703125 46.65625 C50.73773438 47.5121875 50.40515625 48.368125 50.0625 49.25 C49.7325 50.24 49.4025 51.23 49.0625 52.25 C50.3825 51.26 51.7025 50.27 53.0625 49.25 C48.68625041 60.60404848 42.79255747 67.89230745 31.73828125 73.41015625 C22.69223277 76.90189848 13.77814111 75.80626403 4.8515625 72.5078125 C-5.60748311 67.79098801 -13.46570461 58.55537259 -17.84375 48.08203125 C-20.84390324 39.56770748 -21.7545258 29.64684972 -18.1875 21.1875 C-16.90095505 18.69196778 -15.70363348 16.98861978 -13.8125 14.875 C-11.27199403 11.31829164 -11.13525487 7.97029365 -10.72265625 3.67578125 C-9.9375 1.25 -9.9375 1.25 -7.6796875 -0.12890625 C-4.70611606 -0.80240747 -2.95029833 -0.68980119 0 0 Z M18.0625 14.25 C19.0625 16.25 19.0625 16.25 19.0625 16.25 Z M2.0625 30.25 C1.84075067 31.70635371 1.63551302 33.16522956 1.4375 34.625 C1.32148438 35.43710938 1.20546875 36.24921875 1.0859375 37.0859375 C1.07820313 37.80007812 1.07046875 38.51421875 1.0625 39.25 C1.7225 39.91 2.3825 40.57 3.0625 41.25 C3.3925 37.62 3.7225 33.99 4.0625 30.25 C3.4025 30.25 2.7425 30.25 2.0625 30.25 Z M4.0625 42.25 C4.60973683 45.62462715 5.1174 47.33235 7.0625 50.25 C8.0525 49.92 9.0425 49.59 10.0625 49.25 C8.7071674 46.71326712 8.7071674 46.71326712 7.0625 44.25 C6.4025 44.25 5.7425 44.25 5.0625 44.25 C4.7325 43.59 4.4025 42.93 4.0625 42.25 Z " fill="#525A43" transform="translate(138.9375,191.75)"/>
<path d="M0 0 C7.46392437 -1.04494941 7.46392437 -1.04494941 10.72265625 1.171875 C12.37422129 3.02162785 13.68358375 4.89663519 15 7 C15.56074219 7.89203125 16.12148437 8.7840625 16.69921875 9.703125 C19.65361935 14.74420016 21.36735955 18.04352737 21 24 C17.33838422 22.77946141 16.83729526 21.63217696 14.8125 18.4375 C14.28269531 17.61121094 13.75289062 16.78492188 13.20703125 15.93359375 C12.80871094 15.29550781 12.41039062 14.65742188 12 14 C12.66 15.11375 13.32 16.2275 14 17.375 C16 20.75 16 20.75 16 23 C15.01 22.67 14.02 22.34 13 22 C12.67 22.66 12.34 23.32 12 24 C12.66 24 13.32 24 14 24 C13.67 24.94875 13.34 25.8975 13 26.875 C11.51277252 32.09091924 10.78517351 38.24795076 13.015625 43.30078125 C13.34046875 43.86152344 13.6653125 44.42226562 14 45 C15.32 45 16.64 45 18 45 C18.61875 45.66 19.2375 46.32 19.875 47 C21.91068044 49.3350339 21.91068044 49.3350339 25.25 49.25 C26.1575 49.1675 27.065 49.085 28 49 C27.34 46.69 26.68 44.38 26 42 C26.66 41.67 27.32 41.34 28 41 C27.67 36.38 27.34 31.76 27 27 C27.99 27 28.98 27 30 27 C30.66 27.66 31.32 28.32 32 29 C33.31747324 29.69748583 34.64914193 30.36959957 36 31 C36.66 30.34 37.32 29.68 38 29 C40.43055758 31.11693724 41.84507109 32.53521326 42.875 35.625 C42.91625 36.40875 42.9575 37.1925 43 38 C42.34 38.66 41.68 39.32 41 40 C41.33 40.99 41.66 41.98 42 43 C41 46 41 46 38 48 C37.01 47.01 36.02 46.02 35 45 C34.67 46.32 34.34 47.64 34 49 C33.67 48.67 33.34 48.34 33 48 C32.505 48.99 32.505 48.99 32 50 C33.32 50.33 34.64 50.66 36 51 C35.67 51.33 35.34 51.66 35 52 C37.97 52.495 37.97 52.495 41 53 C41 53.33 41 53.66 41 54 C36.05 54.33 31.1 54.66 26 55 C27.32 55.99 28.64 56.98 30 58 C24.94744036 57.36843005 20.70406799 55.86540627 16 54 C16.26676204 55.98491642 16.26676204 55.98491642 17 58 C18.485 58.495 18.485 58.495 20 59 C19.01 59.495 19.01 59.495 18 60 C16.17826343 58.76350005 14.36785436 57.51029833 12.5625 56.25 C11.55316406 55.55390625 10.54382813 54.8578125 9.50390625 54.140625 C7.00288207 52.00246392 6.28144987 51.20419855 6 48 C4.63875 48.061875 4.63875 48.061875 3.25 48.125 C0.1217954 48.00468444 -1.38614006 47.6085292 -4 46 C-3.67 48.31 -3.34 50.62 -3 53 C-6.5892312 51.8035896 -7.2990621 50.39428201 -9.015625 47.1328125 C-13.17204512 38.12723557 -14.96391691 28.00967266 -12.23828125 18.28125 C-10.42461685 13.98006962 -8.04956093 10.5414256 -5 7 C-3.9731657 5.3497306 -2.96432076 3.68756133 -2 2 C-1.01 2.33 -0.02 2.66 1 3 C0.67 2.01 0.34 1.02 0 0 Z M9 25 C8.77825067 26.45635371 8.57301302 27.91522956 8.375 29.375 C8.25898438 30.18710938 8.14296875 30.99921875 8.0234375 31.8359375 C8.01570313 32.55007812 8.00796875 33.26421875 8 34 C8.66 34.66 9.32 35.32 10 36 C10.33 32.37 10.66 28.74 11 25 C10.34 25 9.68 25 9 25 Z " fill="#74BD44" transform="translate(132,197)"/>
<path d="M0 0 C1.24658899 3.73976697 0.53215629 4.88991627 -0.875 8.5 C-1.24367187 9.4590625 -1.61234375 10.418125 -1.9921875 11.40625 C-2.32476562 12.2621875 -2.65734375 13.118125 -3 14 C-3.33 14.99 -3.66 15.98 -4 17 C-2.68 16.01 -1.36 15.02 0 14 C-4.37624959 25.35404848 -10.26994253 32.64230745 -21.32421875 38.16015625 C-30.37016148 41.65185766 -39.27898233 40.55343148 -48.20703125 37.26171875 C-55.32162465 34.04771362 -60.24650519 29.08591381 -65 23 C-64.67 22.67 -64.34 22.34 -64 22 C-63.95919217 20.00041636 -63.95745644 17.99954746 -64 16 C-60.7 16.33 -57.4 16.66 -54 17 C-53.938125 17.78375 -53.87625 18.5675 -53.8125 19.375 C-53.544375 20.24125 -53.27625 21.1075 -53 22 C-50.73774618 23.07254351 -50.73774618 23.07254351 -48 24 C-45.88503026 25.55892136 -43.97212608 27.25719091 -42 29 C-42.66 28.01 -43.32 27.02 -44 26 C-44 25.34 -44 24.68 -44 24 C-40.97580475 24.58803797 -37.98241547 25.22678118 -35 26 C-34.67 25.34 -34.34 24.68 -34 24 C-31.93734178 23.6088062 -29.90556733 23.49325481 -27.8125 23.34375 C-27.214375 23.2303125 -26.61625 23.116875 -26 23 C-25.67 22.34 -25.34 21.68 -25 21 C-25.99 20.67 -26.98 20.34 -28 20 C-27.67 18.68 -27.34 17.36 -27 16 C-26.505 16.99 -26.505 16.99 -26 18 C-26 16.35 -26 14.7 -26 13 C-24.68 14.32 -23.36 15.64 -22 17 C-19.94729537 15.15811388 -19.94729537 15.15811388 -19 13 C-19.89163577 10.88316159 -19.89163577 10.88316159 -21 9 C-20.01 8.67 -19.02 8.34 -18 8 C-18 6.02 -18 4.04 -18 2 C-16 4 -16 4 -15.8046875 6.6015625 C-15.82789063 7.59929687 -15.85109375 8.59703125 -15.875 9.625 C-15.89304688 10.62789062 -15.91109375 11.63078125 -15.9296875 12.6640625 C-15.95289063 13.43492187 -15.97609375 14.20578125 -16 15 C-14.01508358 14.73323796 -14.01508358 14.73323796 -12 14 C-11.67 13.01 -11.34 12.02 -11 11 C-10.2575 10.938125 -9.515 10.87625 -8.75 10.8125 C-5.09267905 9.7319279 -4.07473911 8.14788003 -2 5 C-0.75983331 2.3205355 -0.75983331 2.3205355 0 0 Z " fill="#29A166" transform="translate(192,227)"/>
<path d="M0 0 C0.84949219 -0.020625 1.69898438 -0.04125 2.57421875 -0.0625 C3.79818359 -0.07023438 3.79818359 -0.07023438 5.046875 -0.078125 C5.78260742 -0.0874707 6.51833984 -0.09681641 7.27636719 -0.10644531 C9.8492527 0.35822723 10.68453602 1.18272814 12.25 3.25 C13.54603835 8.22761341 13.91059453 10.07378613 11.36328125 14.609375 C10.44840034 15.7547837 9.51341142 16.88432279 8.5625 18 C3.74705639 24.06289836 -0.3854549 30.32709368 -4.3125 37 C-5.08049927 38.30469238 -5.08049927 38.30469238 -5.86401367 39.63574219 C-6.77799417 41.19238203 -7.68906495 42.75073761 -8.59594727 44.31152344 C-9.59512843 45.98986032 -10.66653296 47.62479943 -11.75 49.25 C-14.93935755 49.83751323 -16.34603672 49.49450409 -19.125 47.8125 C-21.25741261 44.44984934 -20.87718383 42.5926062 -20.36474609 38.74389648 C-19.2719248 34.3105488 -16.87007833 30.77460568 -14.375 27 C-13.6325 25.83597656 -13.6325 25.83597656 -12.875 24.6484375 C-11.92715257 23.16330758 -10.97338678 21.68193205 -10.01269531 20.20507812 C-8.53617301 17.91892371 -7.12938925 15.59590009 -5.75 13.25 C-6.44867188 13.27320313 -7.14734375 13.29640625 -7.8671875 13.3203125 C-8.77726562 13.33835938 -9.68734375 13.35640625 -10.625 13.375 C-11.98238281 13.40980469 -11.98238281 13.40980469 -13.3671875 13.4453125 C-15.75 13.25 -15.75 13.25 -17.75 11.25 C-17.98046875 9.12109375 -17.98046875 9.12109375 -17.9375 6.6875 C-17.93105469 5.88183594 -17.92460937 5.07617188 -17.91796875 4.24609375 C-17.75 2.25 -17.75 2.25 -16.75 1.25 C-11.16699182 0.2161096 -5.66830279 0.0350436 0 0 Z " fill="#040304" transform="translate(427.75,204.75)"/>
<path d="M0 0 C0.99 0.33 1.98 0.66 3 1 C3 2.32 3 3.64 3 5 C3.66 5 4.32 5 5 5 C4.67 5.94875 4.34 6.8975 4 7.875 C2.51277252 13.09091924 1.78517351 19.24795076 4.015625 24.30078125 C4.50289062 25.14189453 4.50289062 25.14189453 5 26 C6.32 26 7.64 26 9 26 C9.61875 26.66 10.2375 27.32 10.875 28 C12.91068044 30.3350339 12.91068044 30.3350339 16.25 30.25 C17.1575 30.1675 18.065 30.085 19 30 C18.34 27.69 17.68 25.38 17 23 C17.66 22.67 18.32 22.34 19 22 C18.67 17.38 18.34 12.76 18 8 C18.99 8 19.98 8 21 8 C21.66 8.66 22.32 9.32 23 10 C24.31747324 10.69748583 25.64914193 11.36959957 27 12 C27.66 11.34 28.32 10.68 29 10 C31.43055758 12.11693724 32.84507109 13.53521326 33.875 16.625 C33.91625 17.40875 33.9575 18.1925 34 19 C33.34 19.66 32.68 20.32 32 21 C32.495 22.485 32.495 22.485 33 24 C32 27 32 27 29 29 C28.01 28.01 27.02 27.02 26 26 C25.67 27.32 25.34 28.64 25 30 C24.67 29.67 24.34 29.34 24 29 C23.67 29.66 23.34 30.32 23 31 C24.32 31.33 25.64 31.66 27 32 C26.67 32.33 26.34 32.66 26 33 C27.98 33.33 29.96 33.66 32 34 C32 34.33 32 34.66 32 35 C27.05 35.33 22.1 35.66 17 36 C18.32 36.99 19.64 37.98 21 39 C15.94744036 38.36843005 11.70406799 36.86540627 7 35 C7.26676204 36.98491642 7.26676204 36.98491642 8 39 C8.99 39.33 9.98 39.66 11 40 C10.01 40.495 10.01 40.495 9 41 C3.53484111 36.93290501 -1.0026203 32.48087499 -2.53125 25.61328125 C-2.81926736 23.0651277 -2.94174271 20.56332088 -3 18 C-3.05027344 17.14921875 -3.10054687 16.2984375 -3.15234375 15.421875 C-3.3774828 9.55024851 -2.38496428 5.36616963 0 0 Z M0 6 C-0.22174933 7.45635371 -0.42698698 8.91522956 -0.625 10.375 C-0.74101562 11.18710938 -0.85703125 11.99921875 -0.9765625 12.8359375 C-0.98429688 13.55007812 -0.99203125 14.26421875 -1 15 C-0.34 15.66 0.32 16.32 1 17 C1.33 13.37 1.66 9.74 2 6 C1.34 6 0.68 6 0 6 Z " fill="#75B066" transform="translate(141,216)"/>
<path d="M0 0 C0.12375 0.54011719 0.2475 1.08023438 0.375 1.63671875 C1.4395072 5.6618866 3.92652488 9.09156174 6.1171875 12.60351562 C8.62345405 16.79739596 9.60028104 20.12217956 10 25 C10.99 24.34 11.98 23.68 13 23 C13 20.96981156 12.99459549 18.93842156 12.90625 16.91015625 C13 15 13 15 14.5 13 C14.995 12.67 15.49 12.34 16 12 C16 13.65 16 15.3 16 17 C16.33 17 16.66 17 17 17 C17.33 16.34 17.66 15.68 18 15 C20.64 15.33 23.28 15.66 26 16 C25.505 14.02 25.505 14.02 25 12 C28 14 28 14 28.75 16.875 C28.97200751 19.65009386 28.89796012 21.40589299 28 24 C27.01 24 26.02 24 25 24 C25 23.01 25 22.02 25 21 C22.69 20.67 20.38 20.34 18 20 C18 22.31 18 24.62 18 27 C19.65 27 21.3 27 23 27 C23.33 26.34 23.66 25.68 24 25 C23.505 27.475 23.505 27.475 23 30 C21.25 30.75 21.25 30.75 19 31 C16.9375 29.125 16.9375 29.125 15 27 C14.01 26.67 13.02 26.34 12 26 C11.67 26.66 11.34 27.32 11 28 C8.24921116 28.91692961 6.64051087 29.10886083 3.8125 29.0625 C2.554375 29.041875 1.29625 29.02125 0 29 C0 28.34 0 27.68 0 27 C-0.66 27 -1.32 27 -2 27 C-1.67 25.68 -1.34 24.36 -1 23 C-0.01 23.99 0.98 24.98 2 26 C1.62746094 25.44570312 1.25492188 24.89140625 0.87109375 24.3203125 C0.39800781 23.59585938 -0.07507813 22.87140625 -0.5625 22.125 C-1.03816406 21.40570313 -1.51382813 20.68640625 -2.00390625 19.9453125 C-2.33261719 19.30335938 -2.66132813 18.66140625 -3 18 C-2.67 17.34 -2.34 16.68 -2 16 C-1.60167969 16.54269531 -1.20335937 17.08539063 -0.79296875 17.64453125 C-0.26316406 18.35996094 0.26664063 19.07539063 0.8125 19.8125 C1.33457031 20.52019531 1.85664063 21.22789062 2.39453125 21.95703125 C3.83128877 23.78531393 5.31815763 25.39896688 7 27 C5.62104203 19.0326873 1.64299259 9.02355659 -5 4 C-7.27161255 3.42676193 -7.27161255 3.42676193 -9.6875 3.3125 C-10.49574219 3.24675781 -11.30398437 3.18101562 -12.13671875 3.11328125 C-12.75160156 3.07589844 -13.36648437 3.03851563 -14 3 C-13.34 4.65 -12.68 6.3 -12 8 C-13.32 7.34 -14.64 6.68 -16 6 C-16.66 6.66 -17.32 7.32 -18 8 C-17.67 5.03 -17.34 2.06 -17 -1 C-11.76238935 -4.14256639 -5.25778167 -2.62889084 0 0 Z " fill="#1E3313" transform="translate(146,194)"/>
<path d="M0 0 C20.09378408 0.91335382 20.09378408 0.91335382 24.76171875 5.87109375 C26.53713657 8.92346823 26.19946839 11.54254798 26 15 C24.700625 14.979375 23.40125 14.95875 22.0625 14.9375 C20.70834367 14.91600546 19.35243917 14.92851801 18 15 C17.67 15.33 17.34 15.66 17 16 C18.11375 15.95875 19.2275 15.9175 20.375 15.875 C24 16 24 16 26 18 C22.7 17.67 19.4 17.34 16 17 C15.67 15.35 15.34 13.7 15 12 C14.30710631 15.72430357 13.88855404 19.21083746 14 23 C12.68 23.33 11.36 23.66 10 24 C9.67128906 22.98292969 9.67128906 22.98292969 9.3359375 21.9453125 C7.2434784 15.80403009 4.73149732 10.52129294 1.171875 5.09375 C0 3 0 3 0 0 Z M11 11 C12 13 12 13 12 13 Z " fill="#8DA981" transform="translate(146,195)"/>
<path d="M0 0 C1.24658899 3.73976697 0.53215629 4.88991627 -0.875 8.5 C-1.42800781 9.93859375 -1.42800781 9.93859375 -1.9921875 11.40625 C-2.32476562 12.2621875 -2.65734375 13.118125 -3 14 C-3.33 14.99 -3.66 15.98 -4 17 C-2.68 16.01 -1.36 15.02 0 14 C-1.45431839 18.12056877 -3.23301613 21.60056268 -6 25 C-8.75 25.375 -8.75 25.375 -11 25 C-11 25.66 -11 26.32 -11 27 C-15.62 27 -20.24 27 -25 27 C-25 26.34 -25 25.68 -25 25 C-23.68 24.67 -22.36 24.34 -21 24 C-22.65 23.67 -24.3 23.34 -26 23 C-25.67 22.34 -25.34 21.68 -25 21 C-25.99 20.67 -26.98 20.34 -28 20 C-27.67 18.68 -27.34 17.36 -27 16 C-26.67 16.66 -26.34 17.32 -26 18 C-26 16.35 -26 14.7 -26 13 C-24.68 14.32 -23.36 15.64 -22 17 C-19.94729537 15.15811388 -19.94729537 15.15811388 -19 13 C-19.89163577 10.88316159 -19.89163577 10.88316159 -21 9 C-20.01 8.67 -19.02 8.34 -18 8 C-18 6.02 -18 4.04 -18 2 C-16 4 -16 4 -15.8046875 6.6015625 C-15.82789063 7.59929687 -15.85109375 8.59703125 -15.875 9.625 C-15.89304688 10.62789062 -15.91109375 11.63078125 -15.9296875 12.6640625 C-15.96449219 13.82035156 -15.96449219 13.82035156 -16 15 C-14.01508358 14.73323796 -14.01508358 14.73323796 -12 14 C-11.67 13.01 -11.34 12.02 -11 11 C-10.2575 10.938125 -9.515 10.87625 -8.75 10.8125 C-5.09267905 9.7319279 -4.07473911 8.14788003 -2 5 C-0.75983331 2.3205355 -0.75983331 2.3205355 0 0 Z " fill="#1E8C55" transform="translate(192,227)"/>
<path d="M0 0 C1.65 1.65 3.3 3.3 5 5 C4.67 5.66 4.34 6.32 4 7 C4.99 7.66 5.98 8.32 7 9 C6.01 9 5.02 9 4 9 C3.9175 9.5775 3.835 10.155 3.75 10.75 C3 13 3 13 1 14.5625 C-1.79899752 17.97377823 -1.54865629 20.94376634 -1.7890625 25.25390625 C-2.05204637 28.67756663 -2.99259805 31.72594367 -4 35 C-4.36950465 37.32787927 -4.71352467 39.66045145 -5 42 C-5.99 42 -6.98 42 -8 42 C-11.41145324 33.75565467 -12.6845617 25.02122821 -10.23828125 16.27734375 C-8.4226812 11.97874916 -6.04857618 8.54028201 -3 5 C-1.9731657 3.3497306 -0.96432076 1.68756133 0 0 Z " fill="#7CAF5D" transform="translate(130,199)"/>
<path d="M0 0 C3.3 0.33 6.6 0.66 10 1 C10.061875 1.78375 10.12375 2.5675 10.1875 3.375 C10.455625 4.24125 10.72375 5.1075 11 6 C13.26225382 7.07254351 13.26225382 7.07254351 16 8 C17.40445682 9.2084861 18.80841961 10.41756639 20.20703125 11.6328125 C26.07717027 16.10895337 32.84117494 18.54172082 40 20 C40 20.33 40 20.66 40 21 C32.90565767 21.09733092 26.01805857 21.10087193 19 20 C19 19.34 19 18.68 19 18 C18.113125 18.061875 17.22625 18.12375 16.3125 18.1875 C10.16217661 17.83936849 7.13286358 14.23883445 3 10 C1.68824014 8.97186389 0.3630107 7.95915568 -1 7 C-0.67 6.67 -0.34 6.34 0 6 C0.04080783 4.00041636 0.04254356 1.99954746 0 0 Z " fill="#0B9D54" transform="translate(128,243)"/>
<path d="M0 0 C0.5775 0.45375 1.155 0.9075 1.75 1.375 C3.7800333 2.84113516 5.73539843 3.94857784 8 5 C8.66 4.34 9.32 3.68 10 3 C12.43055758 5.11693724 13.84507109 6.53521326 14.875 9.625 C14.91625 10.40875 14.9575 11.1925 15 12 C14.34 12.66 13.68 13.32 13 14 C13.33 14.99 13.66 15.98 14 17 C13 20 13 20 10 22 C9.01 21.01 8.02 20.02 7 19 C6.67 20.32 6.34 21.64 6 23 C5.67 22.67 5.34 22.34 5 22 C4.34 22.66 3.68 23.32 3 24 C2.01 23.67 1.02 23.34 0 23 C-1.1875 19.4375 -1.1875 19.4375 -2 16 C-1.34 15.67 -0.68 15.34 0 15 C-0.08378906 14.00097656 -0.16757813 13.00195312 -0.25390625 11.97265625 C-0.35574219 10.68230469 -0.45757812 9.39195312 -0.5625 8.0625 C-0.66691406 6.77472656 -0.77132812 5.48695313 -0.87890625 4.16015625 C-0.91886719 3.11730469 -0.95882812 2.07445312 -1 1 C-0.67 0.67 -0.34 0.34 0 0 Z " fill="#F3F6F0" transform="translate(160,223)"/>
<path d="M0 0 C7.46392437 -1.04494941 7.46392437 -1.04494941 10.72265625 1.171875 C12.37422129 3.02162785 13.68358375 4.89663519 15 7 C15.56074219 7.89203125 16.12148437 8.7840625 16.69921875 9.703125 C19.65361935 14.74420016 21.36735955 18.04352737 21 24 C17.33838422 22.77946141 16.83729526 21.63217696 14.8125 18.4375 C14.28269531 17.61121094 13.75289062 16.78492188 13.20703125 15.93359375 C12.60955078 14.97646484 12.60955078 14.97646484 12 14 C12.66 15.11375 13.32 16.2275 14 17.375 C16 20.75 16 20.75 16 23 C12.02202305 21.67400768 11.66575787 20.07112768 9.6875 16.4375 C7.1047948 11.82709647 4.38517665 7.63074082 1.06640625 3.5234375 C0 2 0 2 0 0 Z " fill="#EDF2E8" transform="translate(132,197)"/>
<path d="M0 0 C2 2 2 2 2 5 C2.66 5 3.32 5 4 5 C4 5.99 4 6.98 4 8 C4.99 8 5.98 8 7 8 C7 8.66 7 9.32 7 10 C8.32 10 9.64 10 11 10 C11.33 11.65 11.66 13.3 12 15 C12.99 15.33 13.98 15.66 15 16 C14.67 16.33 14.34 16.66 14 17 C14.66 19.31 15.32 21.62 16 24 C11.64931982 24.42653727 9.70611288 24.57772872 6.25 21.75 C5.5075 20.8425 4.765 19.935 4 19 C3.401875 18.278125 2.80375 17.55625 2.1875 16.8125 C1 15 1 15 1 13 C0.34 13 -0.32 13 -1 13 C-2.39457694 10.21084611 -2.1821922 8.09726736 -2 5 C-1 2.125 -1 2.125 0 0 Z " fill="#11341F" transform="translate(145,223)"/>
<path d="M0 0 C0.33 0 0.66 0 1 0 C1.25394531 0.95261719 1.50789062 1.90523437 1.76953125 2.88671875 C2.11371094 4.14097656 2.45789063 5.39523438 2.8125 6.6875 C3.14894531 7.92886719 3.48539063 9.17023438 3.83203125 10.44921875 C4.89521866 13.6814507 6.12056345 16.18353777 8 19 C5.5625 18.25 5.5625 18.25 3 17 C2.1875 14.875 2.1875 14.875 2 13 C1.0925 13.04125 0.185 13.0825 -0.75 13.125 C-3.8782046 13.00468444 -5.38614006 12.6085292 -8 11 C-7.67 13.31 -7.34 15.62 -7 18 C-10 17 -10 17 -11.16796875 15.15234375 C-11.67263672 14.05599609 -11.67263672 14.05599609 -12.1875 12.9375 C-12.53167969 12.20402344 -12.87585938 11.47054687 -13.23046875 10.71484375 C-13.48441406 10.14894531 -13.73835938 9.58304688 -14 9 C-13.01 9 -12.02 9 -11 9 C-11 6.69 -11 4.38 -11 2 C-10.28972656 1.93941406 -9.57945313 1.87882813 -8.84765625 1.81640625 C-7.46900391 1.69072266 -7.46900391 1.69072266 -6.0625 1.5625 C-5.14597656 1.48128906 -4.22945312 1.40007812 -3.28515625 1.31640625 C-1.03840268 1.23955024 -1.03840268 1.23955024 0 0 Z " fill="#61B846" transform="translate(136,232)"/>
<path d="M0 0 C2.98704569 0.49784095 4.39324263 1.26216175 7 3 C7 3.66 7 4.32 7 5 C4.525 4.505 4.525 4.505 2 4 C2.33 8.62 2.66 13.24 3 18 C1.68 18 0.36 18 -1 18 C-1.33 16.35 -1.66 14.7 -2 13 C-3.32 13 -4.64 13 -6 13 C-6 12.34 -6 11.68 -6 11 C-6.99 11 -7.98 11 -9 11 C-9 10.01 -9 9.02 -9 8 C-9.66 8 -10.32 8 -11 8 C-11.33 6.35 -11.66 4.7 -12 3 C-10.82630859 2.80083984 -10.82630859 2.80083984 -9.62890625 2.59765625 C-8.61699219 2.42105469 -7.60507813 2.24445313 -6.5625 2.0625 C-5.55316406 1.88847656 -4.54382813 1.71445313 -3.50390625 1.53515625 C-1.0712562 1.25248903 -1.0712562 1.25248903 0 0 Z " fill="#7D8E7B" transform="translate(158,220)"/>
<path d="M0 0 C2.94956528 1.36944102 5.52468811 2.87830409 8 5 C8 5.66 8 6.32 8 7 C11.65079826 8.61064629 15.0507432 9.44894091 19 10 C19 10.66 19 11.32 19 12 C27.25 12 35.5 12 44 12 C44 11.34 44 10.68 44 10 C43.34 9.67 42.68 9.34 42 9 C42.66 9 43.32 9 44 9 C44 8.34 44 7.68 44 7 C48.29 5.35 52.58 3.7 57 2 C53.58140116 8.83719767 46.36478174 12.58324979 39.4375 15.5 C28.28846343 17.12167805 17.9404194 15.82351386 8.5625 9.125 C5.24143638 6.40713583 2.59662595 3.40807155 0 0 Z " fill="#1F8856" transform="translate(128,251)"/>
<path d="M0 0 C0.99 0.33 1.98 0.66 3 1 C3 2.32 3 3.64 3 5 C3.66 5 4.32 5 5 5 C4.67 5.94875 4.34 6.8975 4 7.875 C2.68165679 12.4797845 2.40912481 17.24693043 3 22 C3.66 22.66 4.32 23.32 5 24 C5.28875 24.804375 5.5775 25.60875 5.875 26.4375 C7.14106224 29.32130844 8.37684406 30.3386679 11 32 C8 33 8 33 5.95703125 32.22265625 C4.89548828 31.64837891 4.89548828 31.64837891 3.8125 31.0625 C3.09707031 30.68222656 2.38164062 30.30195313 1.64453125 29.91015625 C1.10183594 29.60980469 0.55914062 29.30945313 0 29 C0 28.34 0 27.68 0 27 C-0.66 27 -1.32 27 -2 27 C-3.25745715 17.25470708 -4.06430377 9.14468349 0 0 Z M0 6 C-0.22174933 7.45635371 -0.42698698 8.91522956 -0.625 10.375 C-0.74101562 11.18710938 -0.85703125 11.99921875 -0.9765625 12.8359375 C-0.98429688 13.55007812 -0.99203125 14.26421875 -1 15 C-0.34 15.66 0.32 16.32 1 17 C1.33 13.37 1.66 9.74 2 6 C1.34 6 0.68 6 0 6 Z " fill="#A0A56A" transform="translate(141,216)"/>
<path d="M0 0 C8.03967347 0.04850482 15.44678191 1.28902556 23 4 C23 4.99 23 5.98 23 7 C22.05125 6.9175 21.1025 6.835 20.125 6.75 C14.99204922 6.70784024 10.60135505 8.92614984 6 11 C3.3513141 7.80331012 1.06007659 4.60513403 -1 1 C-0.67 0.67 -0.34 0.34 0 0 Z " fill="#85A46D" transform="translate(146,195)"/>
<path d="M0 0 C0.0825 0.61875 0.165 1.2375 0.25 1.875 C0.8129497 4.13280834 0.8129497 4.13280834 2.8125 5.25 C5.24521396 6.21621622 5.24521396 6.21621622 9 6 C6.69 5.67 4.38 5.34 2 5 C2.33 4.34 2.66 3.68 3 3 C5.64 3.33 8.28 3.66 11 4 C10.67 2.68 10.34 1.36 10 0 C13 2 13 2 13.75 4.875 C13.97200751 7.65009386 13.89796012 9.40589299 13 12 C12.01 12 11.02 12 10 12 C10 11.01 10 10.02 10 9 C7.69 8.67 5.38 8.34 3 8 C3 10.31 3 12.62 3 15 C4.65 15 6.3 15 8 15 C8.33 14.34 8.66 13.68 9 13 C8.67 14.65 8.34 16.3 8 18 C6.25 18.75 6.25 18.75 4 19 C1.9375 17.125 1.9375 17.125 0 15 C-0.99 14.67 -1.98 14.34 -3 14 C-3.33 14.66 -3.66 15.32 -4 16 C-4.99 15.67 -5.98 15.34 -7 15 C-6.175 14.505 -5.35 14.01 -4.5 13.5 C-1.84785818 11.35310657 -1.84785818 11.35310657 -1.73828125 9.05859375 C-1.80896889 7.03841542 -1.90385111 5.01912669 -2 3 C-1.34 2.01 -0.68 1.02 0 0 Z " fill="#203015" transform="translate(161,206)"/>
<path d="M0 0 C0.66 0.66 1.32 1.32 2 2 C1.58306863 6.73101287 0.54122598 11.30925054 -0.5 15.9375 C-1.37415898 19.89866485 -2.16172638 23.77561661 -2.5625 27.8125 C-2.706875 28.864375 -2.85125 29.91625 -3 31 C-3.66 31.33 -4.32 31.66 -5 32 C-5.66 28.37 -6.32 24.74 -7 21 C-9.31 20.34 -11.62 19.68 -14 19 C-13.01 18.34 -12.02 17.68 -11 17 C-11.99 16.34 -12.98 15.68 -14 15 C-11.03 15 -8.06 15 -5 15 C-4.67 11.37 -4.34 7.74 -4 4 C-3.01 4.33 -2.02 4.66 -1 5 C-0.67 3.35 -0.34 1.7 0 0 Z M-4 15 C-4 15.66 -4 16.32 -4 17 C-5.32 17.33 -6.64 17.66 -8 18 C-6.68 19.65 -5.36 21.3 -4 23 C-3.67 20.36 -3.34 17.72 -3 15 C-3.33 15 -3.66 15 -4 15 Z " fill="#191317" transform="translate(223,209)"/>
<path d="M0 0 C1.65 1.65 3.3 3.3 5 5 C4.67 5.66 4.34 6.32 4 7 C4.99 7.66 5.98 8.32 7 9 C6.01 9 5.02 9 4 9 C3.9175 9.5775 3.835 10.155 3.75 10.75 C2.78645193 13.64064422 1.23383989 14.96923646 -1 17 C-1.66 17.66 -2.32 18.32 -3 19 C-3.33 17.35 -3.66 15.7 -4 14 C-5.32 13.67 -6.64 13.34 -8 13 C-6.53181332 9.89257577 -4.79975 7.09528261 -2.875 4.25 C-2.33617188 3.45078125 -1.79734375 2.6515625 -1.2421875 1.828125 C-0.62730469 0.92320312 -0.62730469 0.92320312 0 0 Z M-3 10 C-2 13 -2 13 -2 13 Z " fill="#7FAA63" transform="translate(130,199)"/>
<path d="M0 0 C2.71534532 2.71534532 2.42575277 4.52360156 2.6875 8.3125 C2.77386719 9.44300781 2.86023438 10.57351562 2.94921875 11.73828125 C2.99527489 14.69650227 2.71313422 17.14210122 2 20 C2.66 20.33 3.32 20.66 4 21 C-0.25566547 22.16063604 -3.6835078 21.76173392 -8 21 C-7.67 20.34 -7.34 19.68 -7 19 C-7.99 18.67 -8.98 18.34 -10 18 C-9.67 16.68 -9.34 15.36 -9 14 C-8.67 14.66 -8.34 15.32 -8 16 C-8 14.35 -8 12.7 -8 11 C-6.68 12.32 -5.36 13.64 -4 15 C-1.94729537 13.15811388 -1.94729537 13.15811388 -1 11 C-1.89163577 8.88316159 -1.89163577 8.88316159 -3 7 C-2.01 6.67 -1.02 6.34 0 6 C0 4.02 0 2.04 0 0 Z " fill="#288A51" transform="translate(174,229)"/>
<path d="M0 0 C0.99 0.99 1.98 1.98 3 3 C3.66 2.34 4.32 1.68 5 1 C4.105358 7.84636565 2.7431325 14.5845153 1.37304688 21.34960938 C0.46112591 25.9960638 -0.1126815 30.24484082 0 35 C-0.33 35.66 -0.66 36.32 -1 37 C-2.32 36.67 -3.64 36.34 -5 36 C-4.731875 34.741875 -4.46375 33.48375 -4.1875 32.1875 C-3.13726962 26.91368126 -2.23775492 21.61959478 -1.375 16.3125 C-1.23989014 15.50514404 -1.10478027 14.69778809 -0.96557617 13.8659668 C-0.21695651 9.177345 0.13982059 4.74754458 0 0 Z " fill="#160F11" transform="translate(327,208)"/>
<path d="M0 0 C-3.26545761 1.88391785 -6.28111761 2.49287967 -10 3 C-9.96261719 4.12535156 -9.92523438 5.25070313 -9.88671875 6.41015625 C-9.88991672 11.24655692 -10.75314856 15.73397959 -11.8125 20.4375 C-11.97814453 21.25154297 -12.14378906 22.06558594 -12.31445312 22.90429688 C-12.76941159 24.96276934 -13.37369673 26.98703197 -14 29 C-14.99 29.33 -15.98 29.66 -17 30 C-17.226552 24.57691141 -16.45721286 20.08355139 -15 14.875 C-13.802312 10.54551974 -12.71754814 6.53688294 -13 2 C-4.57142857 -0.28571429 -4.57142857 -0.28571429 0 0 Z " fill="#130E11" transform="translate(377,205)"/>
<path d="M0 0 C4.29 0 8.58 0 13 0 C11.68 0.33 10.36 0.66 9 1 C9 1.66 9 2.32 9 3 C13.62 3 18.24 3 23 3 C23 2.34 23 1.68 23 1 C24.32 0.67 25.64 0.34 27 0 C27.33 0.66 27.66 1.32 28 2 C21.46131388 6.17749391 13.82135716 6.445825 6.25 5.5625 C5.5075 5.376875 4.765 5.19125 4 5 C4 4.34 4 3.68 4 3 C2.35 2.67 0.7 2.34 -1 2 C-0.67 1.34 -0.34 0.68 0 0 Z " fill="#36A46E" transform="translate(158,251)"/>
<path d="M0 0 C0 0.66 0 1.32 0 2 C0.99 2 1.98 2 3 2 C4.65 4.97 6.3 7.94 8 11 C5.5625 10.25 5.5625 10.25 3 9 C2.1875 6.875 2.1875 6.875 2 5 C1.0925 5.04125 0.185 5.0825 -0.75 5.125 C-3.8782046 5.00468444 -5.38614006 4.6085292 -8 3 C-7.67 5.31 -7.34 7.62 -7 10 C-10 9 -10 9 -11.16796875 7.15234375 C-11.50441406 6.42144531 -11.84085937 5.69054687 -12.1875 4.9375 C-12.53167969 4.20402344 -12.87585938 3.47054687 -13.23046875 2.71484375 C-13.48441406 2.14894531 -13.73835938 1.58304688 -14 1 C-9.32798795 -0.20568053 -4.78503708 -0.09382426 0 0 Z " fill="#3CA750" transform="translate(136,240)"/>
<path d="M0 0 C0.33 0 0.66 0 1 0 C0.85866501 1.77119803 0.71176792 3.54195287 0.5625 5.3125 C0.48128906 6.29863281 0.40007812 7.28476563 0.31640625 8.30078125 C0 11 0 11 -1 14 C4.19664844 11.74223284 7.74787687 9.81796019 11 5 C11.86625 3.8553125 11.86625 3.8553125 12.75 2.6875 C13.1625 2.130625 13.575 1.57375 14 1 C13.47289246 5.38207315 11.95723739 7.79084617 9.1875 11.1875 C8.50042969 12.04730469 7.81335938 12.90710938 7.10546875 13.79296875 C5.09840678 15.89684633 3.59576773 16.81191542 1 18 C0.67 18.66 0.34 19.32 0 20 C0 19.34 0 18.68 0 18 C-0.66 17.67 -1.32 17.34 -2 17 C-3.36799103 12.85117476 -2.70143979 9.83324085 -1.5625 5.6875 C-1.27503906 4.61886719 -0.98757813 3.55023438 -0.69140625 2.44921875 C-0.46324219 1.64097656 -0.23507812 0.83273438 0 0 Z " fill="#130E0E" transform="translate(374,228)"/>
<path d="M0 0 C0 0.99 0 1.98 0 3 C-7.25622038 9.72726226 -15.11142499 14.10987851 -25.0625 14.1875 C-26.361875 14.125625 -27.66125 14.06375 -29 14 C-29 13.67 -29 13.34 -29 13 C-26.36 13 -23.72 13 -21 13 C-21 12.34 -21 11.68 -21 11 C-16.545 10.505 -16.545 10.505 -12 10 C-12 9.34 -12 8.68 -12 8 C-12.66 7.67 -13.32 7.34 -14 7 C-13.34 7 -12.68 7 -12 7 C-12 6.34 -12 5.68 -12 5 C-8.04 3.35 -4.08 1.7 0 0 Z " fill="#3A7357" transform="translate(184,253)"/>
<path d="M0 0 C1.32 0 2.64 0 4 0 C4.8353125 0.99 4.8353125 0.99 5.6875 2 C8.80009743 4.69197615 10.82841709 4.26450232 14.8046875 4.07421875 C17.32578264 3.988986 19.56230225 4.37091671 22 5 C21.67 5.66 21.34 6.32 21 7 C23.97 7.495 23.97 7.495 27 8 C27 8.33 27 8.66 27 9 C17.71362263 9.58343732 9.62624971 8.67797068 1.6875 3.48828125 C1.130625 2.99714844 0.57375 2.50601563 0 2 C0 1.34 0 0.68 0 0 Z " fill="#74B87A" transform="translate(146,242)"/>
<path d="M0 0 C0.33 1.65 0.66 3.3 1 5 C-0.299375 4.979375 -1.59875 4.95875 -2.9375 4.9375 C-4.29165633 4.91600546 -5.64756083 4.92851801 -7 5 C-7.33 5.33 -7.66 5.66 -8 6 C-6.88625 5.95875 -5.7725 5.9175 -4.625 5.875 C-1 6 -1 6 1 8 C-0.64666203 7.8864371 -2.29236082 7.75882619 -3.9375 7.625 C-4.85402344 7.55539063 -5.77054688 7.48578125 -6.71484375 7.4140625 C-7.84599609 7.20910156 -7.84599609 7.20910156 -9 7 C-10.33332095 4.3333581 -9.67102033 2.83319697 -9 0 C-5.52176885 -1.15941038 -3.54104422 -0.70820884 0 0 Z " fill="#78866D" transform="translate(171,205)"/>
<path d="M0 0 C0.99 0.33 1.98 0.66 3 1 C3 2.32 3 3.64 3 5 C3.66 5 4.32 5 5 5 C4.690625 5.99 4.38125 6.98 4.0625 8 C2.91566793 11.97731122 2.43287644 15.88767379 2 20 C1.34 20 0.68 20 0 20 C-0.33 18.68 -0.66 17.36 -1 16 C-0.67 16 -0.34 16 0 16 C0.66 12.7 1.32 9.4 2 6 C1.34 6 0.68 6 0 6 C0 7.65 0 9.3 0 11 C-0.66 11 -1.32 11 -2 11 C-2.19622241 6.78121808 -1.80230168 3.82989106 0 0 Z " fill="#86936F" transform="translate(141,216)"/>
<path d="M0 0 C6.75 -0.125 6.75 -0.125 9 1 C10.01977381 4.45154212 10.24532343 6.36504525 8.9375 9.75 C6.49009957 12.59214244 4.62732406 13.18570276 1 14 C-0.32 14 -1.64 14 -3 14 C-2.48594831 9.03083364 -1.76615118 4.70973649 0 0 Z M1 1 C-0.19287411 4.87684087 -1 7.91621923 -1 12 C3.16723328 11.55357925 3.16723328 11.55357925 6.875 9.75 C8.41076449 7.36103301 8.35706738 5.78512559 8 3 C6.16116119 0.71271266 6.16116119 0.71271266 3.375 0.875 C2.59125 0.91625 1.8075 0.9575 1 1 Z " fill="#100E0F" transform="translate(235,215)"/>
<path d="M0 0 C0.66 0.33 1.32 0.66 2 1 C2.97118637 4.88474549 3.36603478 7.15812 1.75 10.875 C0 13 0 13 -3 14 C-2.34 14.66 -1.68 15.32 -1 16 C-1.375 18.125 -1.375 18.125 -2 20 C-2.33 19.01 -2.66 18.02 -3 17 C-6.51190809 15.77030122 -6.51190809 15.77030122 -10 15 C-9.01 14.34 -8.02 13.68 -7 13 C-7.99 12.34 -8.98 11.68 -10 11 C-7.03 11 -4.06 11 -1 11 C-0.67 7.37 -0.34 3.74 0 0 Z " fill="#1D121B" transform="translate(219,213)"/>
<path d="M0 0 C3.30823705 3.12941343 5.7131982 6.07976834 8 10 C8.66 10.33 9.32 10.66 10 11 C10 9.68 10 8.36 10 7 C10.66 7 11.32 7 12 7 C12.33 6.34 12.66 5.68 13 5 C13.20086443 8.71599191 13.1519437 9.77208445 11 13 C9.0546875 13.29296875 9.0546875 13.29296875 6.875 13.1875 C5.59625 13.125625 4.3175 13.06375 3 13 C3 12.34 3 11.68 3 11 C2.34 11 1.68 11 1 11 C1.33 9.68 1.66 8.36 2 7 C2.99 7.99 3.98 8.98 5 10 C4.6390625 9.44570312 4.278125 8.89140625 3.90625 8.3203125 C3.4421875 7.59585938 2.978125 6.87140625 2.5 6.125 C2.0359375 5.40570313 1.571875 4.68640625 1.09375 3.9453125 C0 2 0 2 0 0 Z " fill="#3B4733" transform="translate(143,210)"/>
<path d="M0 0 C0 0.99 0 1.98 0 3 C-0.99 3 -1.98 3 -3 3 C-3 3.66 -3 4.32 -3 5 C-7.62 5 -12.24 5 -17 5 C-17 4.34 -17 3.68 -17 3 C-14.73194205 2.30190555 -12.46133393 1.61628983 -10.1875 0.9375 C-9.54490234 0.73833984 -8.90230469 0.53917969 -8.24023438 0.33398438 C-3.33984375 -1.11328125 -3.33984375 -1.11328125 0 0 Z " fill="#0E9757" transform="translate(184,249)"/>
<path d="M0 0 C1.67542976 0.28604898 3.34385343 0.61781233 5 1 C4.85769192 2.41702513 4.71099254 3.8336096 4.5625 5.25 C4.48128906 6.03890625 4.40007812 6.8278125 4.31640625 7.640625 C4.02365007 9.82364639 3.57935581 11.8773182 3 14 C2.01 14 1.02 14 0 14 C-0.85380428 11.03878992 -1.13517764 8.3912356 -1.125 5.3125 C-1.12757813 4.52488281 -1.13015625 3.73726562 -1.1328125 2.92578125 C-1 1 -1 1 0 0 Z M1 1 C2 3 2 3 2 3 Z " fill="#727660" transform="translate(156,205)"/>
<path d="M0 0 C0 0.66 0 1.32 0 2 C-0.87011719 1.76603516 -0.87011719 1.76603516 -1.7578125 1.52734375 C-6.52516927 0.33943802 -10.12820288 -0.24917875 -15 1 C-14.67 1.598125 -14.34 2.19625 -14 2.8125 C-13 5 -13 5 -13 8 C-13.99 7.34 -14.98 6.68 -16 6 C-16.66 6.66 -17.32 7.32 -18 8 C-17.67 5.03 -17.34 2.06 -17 -1 C-11.76238935 -4.14256639 -5.25778167 -2.62889084 0 0 Z " fill="#414635" transform="translate(146,194)"/>
<path d="M0 0 C1.32 0.66 2.64 1.32 4 2 C3.0022242 4.99332739 2.2477975 5.94766315 0 8 C0.66 8 1.32 8 2 8 C2 7.34 2 6.68 2 6 C2.66 6 3.32 6 4 6 C4.33 5.34 4.66 4.68 5 4 C5.33 6.31 5.66 8.62 6 11 C5.34 10.67 4.68 10.34 4 10 C3.34 10.66 2.68 11.32 2 12 C1.01 11.67 0.02 11.34 -1 11 C-2.1875 7.4375 -2.1875 7.4375 -3 4 C-2.34 3.67 -1.68 3.34 -1 3 C-0.67 2.01 -0.34 1.02 0 0 Z " fill="#E7F3E7" transform="translate(161,235)"/>
<path d="M0 0 C2 2 2 2 2.125 5.125 C2.08375 6.07375 2.0425 7.0225 2 8 C2.66 8 3.32 8 4 8 C4.33 7.01 4.66 6.02 5 5 C4.88630789 7.45933991 4.75957349 9.9167909 4.625 12.375 C4.5940625 13.07367188 4.563125 13.77234375 4.53125 14.4921875 C4.2265625 19.7734375 4.2265625 19.7734375 2 22 C1.66198848 19.45887768 1.32946621 16.91723254 1 14.375 C0.90460938 13.66214844 0.80921875 12.94929687 0.7109375 12.21484375 C0.18393899 8.11178391 -0.10466984 4.14754258 0 0 Z " fill="#1B0E16" transform="translate(347,212)"/>
<path d="M0 0 C4.95 0.33 9.9 0.66 15 1 C15 1.66 15 2.32 15 3 C14.40832031 3.12117187 13.81664062 3.24234375 13.20703125 3.3671875 C8.96196415 4.26744643 4.97560339 5.20456621 1 7 C-0.0625 5.1875 -0.0625 5.1875 -1 3 C-0.67 2.01 -0.34 1.02 0 0 Z " fill="#6DAE53" transform="translate(150,199)"/>
<path d="M0 0 C2 2 2 2 2 5 C2.66 5 3.32 5 4 5 C4 5.99 4 6.98 4 8 C4.66 8 5.32 8 6 8 C6 8.66 6 9.32 6 10 C5.360625 10.12375 4.72125 10.2475 4.0625 10.375 C3.381875 10.58125 2.70125 10.7875 2 11 C1.67 11.66 1.34 12.32 1 13 C0.34 13 -0.32 13 -1 13 C-2.39457694 10.21084611 -2.1821922 8.09726736 -2 5 C-1 2.125 -1 2.125 0 0 Z " fill="#1D3922" transform="translate(145,223)"/>
<path d="M0 0 C0 3.41321235 -0.66867466 4.39472885 -2.5 7.1875 C-2.9640625 7.90292969 -3.428125 8.61835938 -3.90625 9.35546875 C-4.44765625 10.16951172 -4.44765625 10.16951172 -5 11 C-5.43957031 10.50886719 -5.87914062 10.01773438 -6.33203125 9.51171875 C-7.95842292 7.72458275 -7.95842292 7.72458275 -10.6875 7.8125 C-11.8321875 7.9053125 -11.8321875 7.9053125 -13 8 C-12.34 6.35 -11.68 4.7 -11 3 C-10.34 3.33 -9.68 3.66 -9 4 C-9.33 4.66 -9.66 5.32 -10 6 C-9.34 6 -8.68 6 -8 6 C-7.67 5.01 -7.34 4.02 -7 3 C-5.68 3 -4.36 3 -3 3 C-1.2488427 1.5833253 -1.2488427 1.5833253 0 0 Z " fill="#2DA469" transform="translate(191,241)"/>
<path d="M0 0 C0.66 0 1.32 0 2 0 C2 4.29 2 8.58 2 13 C2.66 13 3.32 13 4 13 C4.66 15.97 5.32 18.94 6 22 C5.01 22 4.02 22 3 22 C-0.0517291 14.49783264 -0.33608711 8.05364285 0 0 Z " fill="#839E68" transform="translate(119,219)"/>
<path d="M0 0 C2.99298654 2.56541703 4.50639962 5.3726848 6 9 C6.1875 12.375 6.1875 12.375 6 15 C3 14 3 14 1.796875 12.29296875 C1.45140625 11.59816406 1.1059375 10.90335938 0.75 10.1875 C0.39421875 9.50042969 0.0384375 8.81335938 -0.328125 8.10546875 C-1.12108594 5.62055044 -0.79814993 4.4404969 0 2 C0 1.34 0 0.68 0 0 Z " fill="#E4EFDE" transform="translate(147,206)"/>
<path d="M0 0 C4.12172083 3.76843047 7.63068221 7.88904305 10 13 C9.67 13.66 9.34 14.32 9 15 C8.34 14.67 7.68 14.34 7 14 C6.67 14.99 6.34 15.98 6 17 C5.81824219 16.37351563 5.63648438 15.74703125 5.44921875 15.1015625 C5.07216797 13.87566406 5.07216797 13.87566406 4.6875 12.625 C4.32205078 11.40683594 4.32205078 11.40683594 3.94921875 10.1640625 C3.08631815 7.66815371 3.08631815 7.66815371 0 6 C0 4 0 2 0 0 Z " fill="#5F824C" transform="translate(134,202)"/>
<path d="M0 0 C2.31 0 4.62 0 7 0 C9 6.75 9 6.75 9 9 C7.125 8.8125 7.125 8.8125 5 8 C3.75 5.4375 3.75 5.4375 3 3 C2.34 3 1.68 3 1 3 C0.67 2.01 0.34 1.02 0 0 Z " fill="#F7F9F6" transform="translate(139,203)"/>
<path d="M0 0 C1.98 0 3.96 0 6 0 C5.57316368 1.27445454 5.13302798 2.54445882 4.6875 3.8125 C4.44386719 4.52019531 4.20023437 5.22789062 3.94921875 5.95703125 C2.93275742 8.14472373 1.79179406 9.40896718 0 11 C0 9.68 0 8.36 0 7 C-0.66 6.67 -1.32 6.34 -2 6 C-1.34 4.02 -0.68 2.04 0 0 Z " fill="#87AB5B" transform="translate(121,212)"/>
<path d="M0 0 C1.65 1.65 3.3 3.3 5 5 C4.67 5.66 4.34 6.32 4 7 C3.01 7 2.02 7 1 7 C1 7.66 1 8.32 1 9 C-0.65 8.67 -2.3 8.34 -4 8 C-2.68 5.36 -1.36 2.72 0 0 Z " fill="#8CA07A" transform="translate(130,199)"/>
<path d="M0 0 C2.64 0.66 5.28 1.32 8 2 C7.33333333 4 6.66666667 6 6 8 C4.35 8 2.7 8 1 8 C0.67 5.36 0.34 2.72 0 0 Z " fill="#8FA586" transform="translate(163,213)"/>
<path d="M0 0 C3.3 0.33 6.6 0.66 10 1 C10 2.32 10 3.64 10 5 C9.67 4.34 9.34 3.68 9 3 C6.69 3 4.38 3 2 3 C3.19899698 6.0831351 4.47700477 9.06279492 6 12 C2.535 10.02 2.535 10.02 -1 8 C-0.67 7.34 -0.34 6.68 0 6 C0.039992 4.00039988 0.04346799 1.99952758 0 0 Z " fill="#269A4F" transform="translate(128,243)"/>
<path d="M0 0 C0.33 0.99 0.66 1.98 1 3 C1.66 3.33 2.32 3.66 3 4 C2.98839844 4.81984375 2.97679687 5.6396875 2.96484375 6.484375 C2.95582031 7.56203125 2.94679687 8.6396875 2.9375 9.75 C2.92589844 10.81734375 2.91429687 11.8846875 2.90234375 12.984375 C2.98489913 15.53368501 3.25382442 17.57933591 4 20 C3.01 19.67 2.02 19.34 1 19 C0.17648136 12.61773055 -0.12086218 6.43255401 0 0 Z " fill="#A2B783" transform="translate(138,224)"/>
<path d="M0 0 C0.93423645 3.01031744 1.04449911 3.86650268 0 7 C-0.02933829 9.5482404 0.06542341 12.07858128 0.16015625 14.625 C0 17 0 17 -2 20 C-4.49055871 16.23564408 -4.03090984 13.13382623 -3.625 8.75 C-3.51414063 7.48671875 -3.40328125 6.2234375 -3.2890625 4.921875 C-3.19367188 3.95765625 -3.09828125 2.9934375 -3 2 C-2.01 2 -1.02 2 0 2 C0 1.34 0 0.68 0 0 Z " fill="#82B65E" transform="translate(139,217)"/>
<path d="M0 0 C3 2 3 2 3.75 4.875 C3.97200751 7.65009386 3.89796012 9.40589299 3 12 C2.01 12 1.02 12 0 12 C-0.33 10.68 -0.66 9.36 -1 8 C-0.34 7.67 0.32 7.34 1 7 C-3.455 6.01 -3.455 6.01 -8 5 C-7.67 4.34 -7.34 3.68 -7 3 C-4.36 3.33 -1.72 3.66 1 4 C0.67 2.68 0.34 1.36 0 0 Z " fill="#1B2413" transform="translate(171,206)"/>
<path d="M0 0 C-2.68092691 2.68092691 -4.39167363 2.38670257 -8.125 2.625 C-9.22070312 2.69976562 -10.31640625 2.77453125 -11.4453125 2.8515625 C-12.28835937 2.90054688 -13.13140625 2.94953125 -14 3 C-13.67 1.68 -13.34 0.36 -13 -1 C-8.05632546 -2.20577428 -4.79137588 -1.6290678 0 0 Z " fill="#202D13" transform="translate(144,195)"/>
<path d="M0 0 C2.92846676 1.42731993 5.51417063 2.86928912 8 5 C8 5.66 8 6.32 8 7 C8.721875 7.268125 9.44375 7.53625 10.1875 7.8125 C12.97590126 8.98982498 15.44095724 10.39145884 18 12 C15 13 15 13 12.94921875 12.03125 C7.74791296 8.50981326 3.86621235 4.9566825 0 0 Z " fill="#3F845F" transform="translate(128,251)"/>
<path d="M0 0 C0.33 0 0.66 0 1 0 C1.19392201 5.52677733 0.7479503 9.75614911 -1 15 C-1.66 15 -2.32 15 -3 15 C-3.33 12.03 -3.66 9.06 -4 6 C-2.68 5.67 -1.36 5.34 0 5 C0 3.35 0 1.7 0 0 Z " fill="#7BB752" transform="translate(127,219)"/>
<path d="M0 0 C3.34252724 -0.07427838 5.8035914 -0.06546953 9 1 C8.67 2.32 8.34 3.64 8 5 C5.69 5 3.38 5 1 5 C0.67 3.35 0.34 1.7 0 0 Z " fill="#AEB9AC" transform="translate(146,223)"/>
<path d="M0 0 C0.99 0 1.98 0 3 0 C7.22323462 9.41002278 7.22323462 9.41002278 9 14 C5.23193471 12.74397824 4.78753493 11.48987433 2.8125 8.125 C2.28269531 7.24070313 1.75289062 6.35640625 1.20703125 5.4453125 C0 3 0 3 0 0 Z " fill="#DAE2D2" transform="translate(139,206)"/>
<path d="M0 0 C7.75 0.875 7.75 0.875 10 2 C10 2.66 10 3.32 10 4 C10.66 4.33 11.32 4.66 12 5 C10.35 5.33 8.7 5.66 7 6 C6.67 5.01 6.34 4.02 6 3 C5.01 3 4.02 3 3 3 C2.67 3.99 2.34 4.98 2 6 C0 3 0 3 0 0 Z " fill="#16A451" transform="translate(129,245)"/>
<path d="M0 0 C0.99 0.33 1.98 0.66 3 1 C3.33 3.97 3.66 6.94 4 10 C4.66 10 5.32 10 6 10 C5.67 10.99 5.34 11.98 5 13 C3.68 13 2.36 13 1 13 C0.67 8.71 0.34 4.42 0 0 Z " fill="#5F6D58" transform="translate(175,229)"/>
<path d="M0 0 C2 0 2 0 4.0625 1.875 C6 4 6 4 7 6 C6.01 6.33 5.02 6.66 4 7 C3.67 6.01 3.34 5.02 3 4 C1.35 4.66 -0.3 5.32 -2 6 C-2.33 5.34 -2.66 4.68 -3 4 C-5.02463255 3.34786708 -5.02463255 3.34786708 -7 3 C-6.67 2.34 -6.34 1.68 -6 1 C-4.7934375 1.0309375 -4.7934375 1.0309375 -3.5625 1.0625 C-1.06645115 1.29633621 -1.06645115 1.29633621 0 0 Z " fill="#4E5844" transform="translate(169,223)"/>
<path d="M0 0 C2.77042109 2.77042109 2.39796106 4.76533805 2.625 8.625 C2.69976562 9.81351563 2.77453125 11.00203125 2.8515625 12.2265625 C2.92503906 13.59941406 2.92503906 13.59941406 3 15 C2.01 15.33 1.02 15.66 0 16 C-0.185625 14.88625 -0.185625 14.88625 -0.375 13.75 C-0.95486701 11.19858515 -1.73708739 9.2732427 -3 7 C-2.01 6.67 -1.02 6.34 0 6 C0 4.02 0 2.04 0 0 Z " fill="#283B24" transform="translate(174,229)"/>
<path d="M0 0 C4.62 0 9.24 0 14 0 C13.34 1.65 12.68 3.3 12 5 C11.34 4.67 10.68 4.34 10 4 C10.33 3.34 10.66 2.68 11 2 C7.7 2 4.4 2 1 2 C0.67 1.34 0.34 0.68 0 0 Z " fill="#130F10" transform="translate(411,216)"/>
<path d="M0 0 C0 0.99 0 1.98 0 3 C-3.74071102 6.74071102 -8.91361421 7.27337346 -14 8 C-13.34 7.67 -12.68 7.34 -12 7 C-12 6.34 -12 5.68 -12 5 C-8.04 3.35 -4.08 1.7 0 0 Z " fill="#25794C" transform="translate(184,253)"/>
<path d="M0 0 C1.60495567 0.11442461 3.20898119 0.24194694 4.8125 0.375 C5.70582031 0.44460938 6.59914062 0.51421875 7.51953125 0.5859375 C10 1 10 1 13 3 C12.34 3.66 11.68 4.32 11 5 C6.94233489 4.84971611 4.6991052 4.59155055 1.5625 1.9375 C1.046875 1.298125 0.53125 0.65875 0 0 Z " fill="#0E9655" transform="translate(155,256)"/>
<path d="M0 0 C4.29 0 8.58 0 13 0 C13 0.33 13 0.66 13 1 C11.35 1 9.7 1 8 1 C8 1.66 8 2.32 8 3 C5.21176345 4.0326802 4.1322726 4.04509293 1.25 3.0625 C0.5075 2.711875 -0.235 2.36125 -1 2 C-0.67 1.34 -0.34 0.68 0 0 Z " fill="#349C58" transform="translate(158,251)"/>
<path d="M0 0 C1.98 0 3.96 0 6 0 C6.66 1.32 7.32 2.64 8 4 C5.36 4 2.72 4 0 4 C0 2.68 0 1.36 0 0 Z " fill="#F2F7EC" transform="translate(164,206)"/>
<path d="M0 0 C0.33 0 0.66 0 1 0 C1.66 3.3 2.32 6.6 3 10 C2.01 10 1.02 10 0 10 C0 9.34 0 8.68 0 8 C-0.66 8 -1.32 8 -2 8 C-2.125 5.125 -2.125 5.125 -2 2 C-1.34 1.34 -0.68 0.68 0 0 Z " fill="#68AC58" transform="translate(136,232)"/>
<path d="M0 0 C2.25245881 2.68841859 3.88213958 4.64641875 5 8 C3.02 8 1.04 8 -1 8 C-1.04241723 5.66705225 -1.04092937 3.33297433 -1 1 C-0.67 0.67 -0.34 0.34 0 0 Z " fill="#0A3016" transform="translate(156,239)"/>
<path d="M0 0 C1.32 0.33 2.64 0.66 4 1 C3.67 1.99 3.34 2.98 3 4 C3 3.34 3 2.68 3 2 C2.2575 2.763125 1.515 3.52625 0.75 4.3125 C-1.4263323 6.4393702 -3.52167796 8.2559956 -6 10 C-5.49477778 5.62140745 -2.82172778 3.18348776 0 0 Z " fill="#71B652" transform="translate(134,209)"/>
<path d="M0 0 C0.33 0.66 0.66 1.32 1 2 C1.66 2.33 2.32 2.66 3 3 C3.125 8.75 3.125 8.75 2 11 C0.68 10.67 -0.64 10.34 -2 10 C-1.34 6.7 -0.68 3.4 0 0 Z " fill="#10080E" transform="translate(324,234)"/>
<path d="M0 0 C0.66 0 1.32 0 2 0 C2.21755666 5.4389165 2.10428384 9.87080814 0 15 C-0.33 15 -0.66 15 -1 15 C-1.10251672 9.87416389 -1.03590199 5.05002222 0 0 Z " fill="#1F1B1C" transform="translate(338,224)"/>
<path d="M0 0 C-0.96355353 10.55808656 -0.96355353 10.55808656 -2 15 C-2.33 15 -2.66 15 -3 15 C-2.98839844 14.24074219 -2.97679687 13.48148438 -2.96484375 12.69921875 C-2.95582031 11.70535156 -2.94679688 10.71148437 -2.9375 9.6875 C-2.92009766 8.20830078 -2.92009766 8.20830078 -2.90234375 6.69921875 C-2.87670138 3.90036151 -2.87670138 3.90036151 -4 1 C-1 0 -1 0 0 0 Z " fill="#171112" transform="translate(295,217)"/>
<path d="M0 0 C6.75 1.75 6.75 1.75 9 4 C4.545 4.495 4.545 4.495 0 5 C0 3.35 0 1.7 0 0 Z " fill="#52B04D" transform="translate(125,236)"/>
<path d="M0 0 C-0.66 0.66 -1.32 1.32 -2 2 C-1.34 2.66 -0.68 3.32 0 4 C-0.375 6.125 -0.375 6.125 -1 8 C-1.33 7.01 -1.66 6.02 -2 5 C-5.51190809 3.77030122 -5.51190809 3.77030122 -9 3 C-6.38997624 -0.48003168 -4.1689578 -0.27793052 0 0 Z " fill="#291E28" transform="translate(218,225)"/>
<path d="M0 0 C0 3.41321235 -0.66867466 4.39472885 -2.5 7.1875 C-2.9640625 7.90292969 -3.428125 8.61835938 -3.90625 9.35546875 C-4.2671875 9.89816406 -4.628125 10.44085938 -5 11 C-5.66 10.34 -6.32 9.68 -7 9 C-6.67 8.01 -6.34 7.02 -6 6 C-5.34 6 -4.68 6 -4 6 C-3.71125 5.38125 -3.4225 4.7625 -3.125 4.125 C-2 2 -2 2 0 0 Z " fill="#2E6F51" transform="translate(191,241)"/>
<path d="M0 0 C0.66 0.33 1.32 0.66 2 1 C2 2.65 2 4.3 2 6 C0.68 6.33 -0.64 6.66 -2 7 C-2.33 5.02 -2.66 3.04 -3 1 C-2.01 0.67 -1.02 0.34 0 0 Z " fill="#9AA48D" transform="translate(158,212)"/>
<path d="M0 0 C-0.639375 0.20625 -1.27875 0.4125 -1.9375 0.625 C-4.34925077 1.89538209 -4.34925077 1.89538209 -4.75 5.125 C-4.8325 6.07375 -4.915 7.0225 -5 8 C-8 4.375 -8 4.375 -8 1 C-4.93251126 -0.86240388 -3.40254489 -1.2151946 0 0 Z " fill="#86A975" transform="translate(160,204)"/>
<path d="M0 0 C1.98 0 3.96 0 6 0 C6.33 1.98 6.66 3.96 7 6 C2.32307692 4.52307692 2.32307692 4.52307692 0.6875 1.875 C0.460625 1.25625 0.23375 0.6375 0 0 Z " fill="#F4F9F0" transform="translate(132,197)"/>
<path d="M0 0 C5.94 1.485 5.94 1.485 12 3 C12 3.33 12 3.66 12 4 C8.37 4 4.74 4 1 4 C0.67 2.68 0.34 1.36 0 0 Z " fill="#189559" transform="translate(156,260)"/>
<path d="M0 0 C2.76276177 0.52268466 5.3260876 1.10869587 8 2 C8 2.66 8 3.32 8 4 C5.69 4 3.38 4 1 4 C0.67 2.68 0.34 1.36 0 0 Z " fill="#3DA057" transform="translate(148,251)"/>
<path d="M0 0 C0.33 0 0.66 0 1 0 C1.33 3.96 1.66 7.92 2 12 C1.01 11.67 0.02 11.34 -1 11 C-1.33 9.35 -1.66 7.7 -2 6 C-1.34 6 -0.68 6 0 6 C-0.2784375 4.7934375 -0.2784375 4.7934375 -0.5625 3.5625 C-0.706875 2.716875 -0.85125 1.87125 -1 1 C-0.67 0.67 -0.34 0.34 0 0 Z " fill="#2B3924" transform="translate(159,226)"/>
<path d="M0 0 C0.99 0.33 1.98 0.66 3 1 C3.1953125 7.0546875 3.1953125 7.0546875 3 9 C2.34 9.66 1.68 10.32 1 11 C0.67 7.37 0.34 3.74 0 0 Z " fill="#251D1F" transform="translate(348,223)"/>
<path d="M0 0 C2 3 2 3 1.625 5.1875 C1.41875 5.785625 1.2125 6.38375 1 7 C0.67 6.67 0.34 6.34 0 6 C-0.66 6.66 -1.32 7.32 -2 8 C-2.66 8 -3.32 8 -4 8 C-3.33333333 6 -2.66666667 4 -2 2 C-1.34 2 -0.68 2 0 2 C0 1.34 0 0.68 0 0 Z " fill="#DAE7D4" transform="translate(165,239)"/>
<path d="M0 0 C4.8 2.46153846 4.8 2.46153846 5.8125 5.1875 C5.874375 5.785625 5.93625 6.38375 6 7 C5.01 6.67 4.02 6.34 3 6 C2.67 6.99 2.34 7.98 2 9 C1.34 6.03 0.68 3.06 0 0 Z " fill="#67934E" transform="translate(138,210)"/>
<path d="M0 0 C1.32 1.32 2.64 2.64 4 4 C3.67 4.99 3.34 5.98 3 7 C1.35 7 -0.3 7 -2 7 C-1.67 5.68 -1.34 4.36 -1 3 C-0.67 3.66 -0.34 4.32 0 5 C0 3.35 0 1.7 0 0 Z " fill="#234022" transform="translate(166,240)"/>
<path d="M0 0 C0.66 1.32 1.32 2.64 2 4 C0.02 6.64 -1.96 9.28 -4 12 C-4.33 11.34 -4.66 10.68 -5 10 C-4.00390625 7.6171875 -4.00390625 7.6171875 -2.5625 4.875 C-1.85287109 3.50988281 -1.85287109 3.50988281 -1.12890625 2.1171875 C-0.75636719 1.41851562 -0.38382813 0.71984375 0 0 Z " fill="#00270A" transform="translate(191,234)"/>
<path d="M0 0 C1.9375 0.625 1.9375 0.625 4 2 C4.75 5.125 4.75 5.125 5 8 C2.5 5.6875 2.5 5.6875 0 3 C0 2.01 0 1.02 0 0 Z " fill="#818972" transform="translate(170,220)"/>
<path d="M0 0 C0.66 0 1.32 0 2 0 C2 0.66 2 1.32 2 2 C2.99 2 3.98 2 5 2 C5.103125 2.639375 5.20625 3.27875 5.3125 3.9375 C5.539375 4.618125 5.76625 5.29875 6 6 C6.99 6.33 7.98 6.66 9 7 C8.01 7.495 8.01 7.495 7 8 C1.125 3.375 1.125 3.375 0 0 Z " fill="#52B473" transform="translate(143,249)"/>
<path d="M0 0 C-0.99 1.485 -0.99 1.485 -2 3 C-6.75 2.25 -6.75 2.25 -9 0 C-5.52176885 -1.15941038 -3.54104422 -0.70820884 0 0 Z " fill="#55955B" transform="translate(168,247)"/>
<path d="M0 0 C1.32 0 2.64 0 4 0 C6.25 2.5 6.25 2.5 8 5 C5.125 4.75 5.125 4.75 2 4 C0.625 1.9375 0.625 1.9375 0 0 Z " fill="#697953" transform="translate(146,242)"/>
<path d="M0 0 C2.31 0 4.62 0 7 0 C6.01 0.66 5.02 1.32 4 2 C5.32 2.99 6.64 3.98 8 5 C5.03 4.505 5.03 4.505 2 4 C2 3.34 2 2.68 2 2 C1.34 2 0.68 2 0 2 C0 1.34 0 0.68 0 0 Z " fill="#5DB067" transform="translate(154,250)"/>
<path d="M0 0 C-1.36944102 2.94956528 -2.87830409 5.52468811 -5 8 C-5.66 8 -6.32 8 -7 8 C-7 5 -7 5 -4.625 2.3125 C-2 0 -2 0 0 0 Z " fill="#011C0A" transform="translate(191,230)"/>
<path d="M0 0 C1.98 0.99 1.98 0.99 4 2 C3.34099246 5.07536854 2.46132217 7.07735566 1 10 C0.67 6.7 0.34 3.4 0 0 Z " fill="#110E0F" transform="translate(254,216)"/>
<path d="M0 0 C2 3 2 3 1.625 6.1875 C1.41875 7.115625 1.2125 8.04375 1 9 C0.01 9 -0.98 9 -2 9 C-2.625 7.125 -2.625 7.125 -3 5 C-2.34 4.34 -1.68 3.68 -1 3 C-0.67 2.01 -0.34 1.02 0 0 Z " fill="#142105" transform="translate(173,209)"/>
<path d="M0 0 C2.64 0.66 5.28 1.32 8 2 C7.67 2.99 7.34 3.98 7 5 C4.69 4.01 2.38 3.02 0 2 C0 1.34 0 0.68 0 0 Z " fill="#BFD3B5" transform="translate(163,213)"/>
<path d="M0 0 C1.31223496 3.93670488 0.24296256 6.12488144 -1 10 C-1.66 10 -2.32 10 -3 10 C-3.33 9.01 -3.66 8.02 -4 7 C-2.625 4.4375 -2.625 4.4375 -1 2 C-0.67 1.34 -0.34 0.68 0 0 Z " fill="#31644D" transform="translate(192,227)"/>
<path d="M0 0 C2.96175123 0.61277612 4.38058783 1.25372522 7 3 C7 3.66 7 4.32 7 5 C4.0625 4.1875 4.0625 4.1875 1 3 C0.67 2.01 0.34 1.02 0 0 Z " fill="#AFBEA5" transform="translate(158,220)"/>
<path d="M0 0 C2.475 0.495 2.475 0.495 5 1 C5 1.99 5 2.98 5 4 C3.68 4.33 2.36 4.66 1 5 C0.67 3.35 0.34 1.7 0 0 Z " fill="#14954F" transform="translate(175,244)"/>
<path d="M0 0 C0.66 0.66 1.32 1.32 2 2 C1.67 2.99 1.34 3.98 1 5 C-0.65 5 -2.3 5 -4 5 C-2.68 3.35 -1.36 1.7 0 0 Z " fill="#329D5B" transform="translate(170,245)"/>
<path d="M0 0 C0.99 0 1.98 0 3 0 C3.99 2.64 4.98 5.28 6 8 C2.24623848 6.74874616 1.75926711 5.4347596 0 2 C0 1.34 0 0.68 0 0 Z " fill="#588F64" transform="translate(123,242)"/>
<path d="M0 0 C0.66 1.32 1.32 2.64 2 4 C0.68 4.99 -0.64 5.98 -2 7 C-2.66 6.01 -3.32 5.02 -4 4 C-2.68 2.68 -1.36 1.36 0 0 Z " fill="#D8E5D3" transform="translate(172,238)"/>
<path d="M0 0 C0.33 0 0.66 0 1 0 C1 1.65 1 3.3 1 5 C2.32 5.33 3.64 5.66 5 6 C3.02 6.33 1.04 6.66 -1 7 C-0.67 4.69 -0.34 2.38 0 0 Z " fill="#231E20" transform="translate(233,222)"/>
<path d="M0 0 C2.31 0.66 4.62 1.32 7 2 C4 4 4 4 0.8125 3.625 C-0.115625 3.41875 -1.04375 3.2125 -2 3 C-1.34 2.01 -0.68 1.02 0 0 Z " fill="#14220A" transform="translate(137,193)"/>
</svg>
