<?xml version="1.0" encoding="UTF-8"?>
<svg version="1.1" xmlns="http://www.w3.org/2000/svg" width="300" height="100">
<path d="M0 0 C6.74418027 -0.12686439 13.48805244 -0.21437811 20.2331543 -0.2746582 C22.52721658 -0.29978928 24.8211989 -0.33389969 27.11499023 -0.37719727 C30.41410049 -0.43790832 33.71215146 -0.46622437 37.01171875 -0.48828125 C38.03585373 -0.51408768 39.05998871 -0.5398941 40.11515808 -0.56648254 C47.23647608 -0.5692822 47.23647608 -0.5692822 51.14770508 2.34692383 C53 5 53 5 53.625 7.9375 C52.32513516 14.3068377 47.89218579 17.18806393 42.8046875 20.69140625 C41.90476074 21.31345947 41.00483398 21.9355127 40.07763672 22.57641602 C39.3920166 23.04619873 38.70639648 23.51598145 38 24 C38.55488098 24.00364563 39.10976196 24.00729126 39.68145752 24.01104736 C45.45684694 24.0528584 51.2314406 24.12219341 57.00634766 24.20751953 C59.16154013 24.23574499 61.31683643 24.25695165 63.47216797 24.27099609 C66.5705283 24.29240347 69.66763827 24.3390432 72.765625 24.390625 C73.72929993 24.39185364 74.69297485 24.39308228 75.68585205 24.39434814 C82.38452061 24.54101026 82.38452061 24.54101026 85.58105469 26.92480469 C87.92433819 30.35183665 87.92433819 30.35183665 88 33 C85.95640031 39.87015018 82.25953769 42.58611949 76.4375 46.5 C75.63135254 47.06098389 74.82520508 47.62196777 73.99462891 48.19995117 C72.39851368 49.3086944 70.79770905 50.4107227 69.19189453 51.50537109 C66.39760171 53.4107688 63.63726312 55.36103066 60.875 57.3125 C59.58438453 58.20984712 58.29323541 59.10643282 57 60 C63.24963589 66.45123705 70.06053065 72.30607643 77 78 C76.72271151 82.5752601 74.68931698 85.39051724 71.6640625 88.65234375 C70 90 70 90 67.1875 90.4375 C63.21127011 88.64429829 60.54932287 86.18698957 57.390625 83.2109375 C53.78708294 79.87824991 49.90262912 76.97343171 46 74 C45.505 79.94 45.505 79.94 45 86 C41.7 86 38.4 86 35 86 C34.98582031 84.45828125 34.97164062 82.9165625 34.95703125 81.328125 C34.91013144 79.30205336 34.86188406 77.27601261 34.8125 75.25 C34.80669922 74.23421875 34.80089844 73.2184375 34.79492188 72.171875 C34.74881798 66.12839891 34.74881798 66.12839891 31.44921875 61.296875 C30.64097656 60.86890625 29.83273438 60.4409375 29 60 C29.33 58.02 29.66 56.04 30 54 C29.45472656 53.57589844 28.90945312 53.15179688 28.34765625 52.71484375 C26.76246476 51.48191704 25.1806613 50.24462673 23.6015625 49.00390625 C21.89205402 47.68712269 20.15774115 46.40181917 18.3984375 45.15234375 C17.18027344 44.27255859 17.18027344 44.27255859 15.9375 43.375 C15.18339844 42.84648438 14.42929687 42.31796875 13.65234375 41.7734375 C12 40 12 40 11.41015625 37.578125 C12.28945839 33.73481765 14.34393433 32.66544572 17.5 30.375 C18.35404419 29.74682373 18.35404419 29.74682373 19.2253418 29.10595703 C21.13485201 27.71428444 23.06353564 26.35389777 25 25 C25.7213916 24.4946875 26.4427832 23.989375 27.18603516 23.46875 C31.76585541 20.27375876 36.37785371 17.13502096 41 14 C30.77 13.67 20.54 13.34 10 13 C10.01160156 16.45339844 10.02320313 19.90679688 10.03515625 23.46484375 C10.04294569 26.79418852 10.04902309 30.12353229 10.05493164 33.45288086 C10.05997333 35.77417451 10.06680651 38.09546497 10.07543945 40.41674805 C10.08751225 43.74528795 10.09322979 47.07378602 10.09765625 50.40234375 C10.10281754 51.44712387 10.10797882 52.49190399 10.11329651 53.56834412 C10.11337204 54.52926468 10.11344757 55.49018524 10.11352539 56.48022461 C10.115746 57.33071884 10.11796661 58.18121307 10.12025452 59.05747986 C10 61 10 61 9 62 C7.1875 62.1328125 7.1875 62.1328125 5 62.125 C4.278125 62.12757812 3.55625 62.13015625 2.8125 62.1328125 C1 62 1 62 0 61 C-0.09391296 59.09756238 -0.11743658 57.19161541 -0.11352539 55.28686523 C-0.11344986 54.0656749 -0.11337433 52.84448456 -0.11329651 51.58628845 C-0.10818911 50.24372314 -0.10297311 48.90115825 -0.09765625 47.55859375 C-0.09579199 46.19238842 -0.09436813 44.82618243 -0.09336853 43.4599762 C-0.08954394 39.85798305 -0.07971417 36.25603 -0.06866455 32.65405273 C-0.05844916 28.98096255 -0.05387064 25.30786591 -0.04882812 21.63476562 C-0.03809184 14.42315877 -0.02101614 7.211585 0 0 Z M26.9375 31 C26.27427734 31.47695313 25.61105469 31.95390625 24.92773438 32.4453125 C23.28364504 33.62811058 21.64162953 34.81379027 20 36 C21.288972 39.866916 23.166985 41.06692555 26.3125 43.625 C27.27800781 44.42164062 28.24351563 45.21828125 29.23828125 46.0390625 C31.6654952 47.7624874 33.10499384 48.60116305 36 49 C36 46.43002129 35.91198024 43.8976122 35.78125 41.33203125 C35.73613281 40.43935547 35.69101563 39.54667969 35.64453125 38.62695312 C35.59683594 37.69818359 35.54914063 36.76941406 35.5 35.8125 C35.45230469 34.87212891 35.40460938 33.93175781 35.35546875 32.96289062 C35.23765156 30.64189202 35.11913586 28.32093123 35 26 C32.38771177 26 29.10097029 29.43502638 26.9375 31 Z M45 38 C45 42.62 45 47.24 45 52 C49.17920669 56.17264685 49.17920669 56.17264685 51.890625 56.04296875 C55.08175597 54.46513177 57.89617224 52.41984218 60.75 50.3125 C61.36891113 49.86205322 61.98782227 49.41160645 62.62548828 48.94750977 C64.42140275 47.63756797 66.21094499 46.3192858 68 45 C68.88945313 44.35289063 69.77890625 43.70578125 70.6953125 43.0390625 C72.48628564 41.7231145 74.24758952 40.36688018 76 39 C76 38.67 76 38.34 76 38 C65.77 38 55.54 38 45 38 Z " fill="#1A1919" transform="translate(44,5)"/>
<path d="M0 0 C1.65 0 3.3 0 5 0 C6.98 4.62 8.96 9.24 11 14 C11.33 11.03 11.66 8.06 12 5 C15.25049988 4.91903736 18.49898234 4.85951885 21.75 4.8125 C23.13058594 4.77479492 23.13058594 4.77479492 24.5390625 4.73632812 C25.42851562 4.72666016 26.31796875 4.71699219 27.234375 4.70703125 C28.05131836 4.6913208 28.86826172 4.67561035 29.70996094 4.65942383 C32.51240627 5.07620541 33.88847021 6.16195148 36 8 C36.515625 7.505 37.03125 7.01 37.5625 6.5 C40.90028661 4.44597747 43.14399755 4.58685688 47 5 C49.4375 6.5 49.4375 6.5 51 8 C51.33 7.01 51.66 6.02 52 5 C53.77049689 4.94589313 55.54146849 4.90715881 57.3125 4.875 C58.29863281 4.85179688 59.28476563 4.82859375 60.30078125 4.8046875 C63 5 63 5 66 7 C66.66 6.34 67.32 5.68 68 5 C71.125 4.875 71.125 4.875 74 5 C74.33 3.68 74.66 2.36 75 1 C75.99 1 76.98 1 78 1 C78 2.32 78 3.64 78 5 C80.64 5 83.28 5 86 5 C86.495 6.98 86.495 6.98 87 9 C87.515625 8.34 88.03125 7.68 88.5625 7 C91 5 91 5 94.4375 4.5625 C98.10882431 5.01336439 100.03986458 5.84717424 103 8 C103 7.34 103 6.68 103 6 C105.79870027 4.60064987 107.90498792 4.74734595 111 5 C112.875 6.3125 112.875 6.3125 114 8 C114 8.99 114 9.98 114 11 C113.34 11.33 112.68 11.66 112 12 C112.99 12.99 112.99 12.99 114 14 C113.75 17.0625 113.75 17.0625 113 20 C110.2201184 21.3899408 108.0813674 21.18488204 105 21 C102.625 20 102.625 20 101 19 C100.01 19.66 99.02 20.32 98 21 C94.5625 21.375 94.5625 21.375 91 21 C88.5625 19 88.5625 19 87 17 C86.67 18.32 86.34 19.64 86 21 C84.56344146 21.08131463 83.1255517 21.13933559 81.6875 21.1875 C80.48673828 21.23970703 80.48673828 21.23970703 79.26171875 21.29296875 C77 21 77 21 75.21875 19.78125 C73.64327068 17.47862638 73.69234728 16.07601256 73.8125 13.3125 C73.85310547 12.10013672 73.85310547 12.10013672 73.89453125 10.86328125 C73.94673828 9.94095703 73.94673828 9.94095703 74 9 C73.34 9 72.68 9 72 9 C72.01160156 9.78246094 72.02320313 10.56492187 72.03515625 11.37109375 C72.04417969 12.38300781 72.05320312 13.39492187 72.0625 14.4375 C72.07410156 15.44683594 72.08570313 16.45617187 72.09765625 17.49609375 C72 20 72 20 71 21 C67.5625 21.1875 67.5625 21.1875 64 21 C61.60236815 18.60236815 61.65719414 17.66726502 61.375 14.375 C61.26285156 13.14910156 61.26285156 13.14910156 61.1484375 11.8984375 C61.09945312 11.27195312 61.05046875 10.64546875 61 10 C59.68 10.33 58.36 10.66 57 11 C56.67 14.3 56.34 17.6 56 21 C54.68 21 53.36 21 52 21 C51.505 19.515 51.505 19.515 51 18 C50.484375 18.495 49.96875 18.99 49.4375 19.5 C46.1690558 21.51135028 43.77743211 21.20604175 40 21 C39.01 21 38.02 21 37 21 C32.2 20.2 32.2 20.2 31 19 C30.76807135 17.48530552 30.58784762 15.96245438 30.4375 14.4375 C30.35371094 13.61121094 30.26992187 12.78492187 30.18359375 11.93359375 C30.12300781 11.29550781 30.06242187 10.65742187 30 10 C29.01 10 28.02 10 27 10 C26.67 13.3 26.34 16.6 26 20 C24.68 20.33 23.36 20.66 22 21 C20.33657163 19.33657163 20.63951903 17.2174291 20.4375 14.9375 C20.31181641 13.55884766 20.31181641 13.55884766 20.18359375 12.15234375 C20.12300781 11.44207031 20.06242187 10.73179688 20 10 C18.68 10 17.36 10 16 10 C16 13.63 16 17.26 16 21 C13.36 21 10.72 21 8 21 C7.34 19.68 6.68 18.36 6 17 C3.69 17 1.38 17 -1 17 C-1.66 18.32 -2.32 19.64 -3 21 C-4.32 21 -5.64 21 -7 21 C-6.38169051 15.97525707 -4.87023224 11.75279506 -2.9375 7.125 C-2.65583984 6.43664062 -2.37417969 5.74828125 -2.08398438 5.0390625 C-1.39484734 3.35710091 -0.69819202 1.67822303 0 0 Z M2 7 C1.67 8.65 1.34 10.3 1 12 C2.32 11.67 3.64 11.34 5 11 C4.01 9.68 3.02 8.36 2 7 Z M42 9 C41.67 9.66 41.34 10.32 41 11 C42.98 11 44.96 11 47 11 C46.34 10.34 45.68 9.68 45 9 C44.01 9 43.02 9 42 9 Z M78 9 C78 11.31 78 13.62 78 16 C79.32 16.33 80.64 16.66 82 17 C82 14.36 82 11.72 82 9 C80.68 9 79.36 9 78 9 Z M93 9 C92.67 9.66 92.34 10.32 92 11 C93.98 11 95.96 11 98 11 C97.34 10.34 96.68 9.68 96 9 C95.01 9 94.02 9 93 9 Z M107 9 C107 9.66 107 10.32 107 11 C107.66 11 108.32 11 109 11 C109 10.34 109 9.68 109 9 C108.34 9 107.68 9 107 9 Z M103 13 C103 13.66 103 14.32 103 15 C103.99 14.67 104.98 14.34 106 14 C105.01 13.67 104.02 13.34 103 13 Z M41 15 C41.33 15.66 41.66 16.32 42 17 C43.65 16.67 45.3 16.34 47 16 C47 15.67 47 15.34 47 15 C45.02 15 43.04 15 41 15 Z M92 15 C92.33 15.66 92.66 16.32 93 17 C94.65 16.67 96.3 16.34 98 16 C98 15.67 98 15.34 98 15 C96.02 15 94.04 15 92 15 Z M106 15 C106.33 15.66 106.66 16.32 107 17 C107.66 17 108.32 17 109 17 C109 16.34 109 15.68 109 15 C108.01 15 107.02 15 106 15 Z " fill="#010101" transform="translate(142,72)"/>
<path d="M0 0 C7.24649688 2.26453027 12.965568 7.75251025 18.26171875 12.99609375 C20.03001308 14.27455654 20.03001308 14.27455654 22.42578125 13.49609375 C25 13 25 13 27.28125 14.0390625 C28.0134375 14.56242187 28.745625 15.08578125 29.5 15.625 C30.27988281 16.181875 31.05976562 16.73875 31.86328125 17.3125 C34.45070763 19.35595192 36.70166212 21.63954488 39 24 C39.90363281 24.59683594 40.80726562 25.19367188 41.73828125 25.80859375 C45.21663051 28.14554457 48.33377979 30.70372079 51.5 33.4375 C52.59356513 34.37391385 53.68731423 35.31011291 54.78125 36.24609375 C55.30976562 36.69968262 55.83828125 37.15327148 56.3828125 37.62060547 C58.90286355 39.77010554 61.45107718 41.88485471 64 44 C63.72271151 48.5752601 61.68931698 51.39051724 58.6640625 54.65234375 C57 56 57 56 54.1875 56.4375 C50.21127011 54.64429829 47.54932287 52.18698957 44.390625 49.2109375 C40.78708294 45.87824991 36.90262912 42.97343171 33 40 C32.67 43.96 32.34 47.92 32 52 C28.7 52 25.4 52 22 52 C21.98582031 50.45828125 21.97164062 48.9165625 21.95703125 47.328125 C21.91013144 45.30205336 21.86188406 43.27601261 21.8125 41.25 C21.80669922 40.23421875 21.80089844 39.2184375 21.79492188 38.171875 C21.74881798 32.12839891 21.74881798 32.12839891 18.44921875 27.296875 C17.64097656 26.86890625 16.83273438 26.4409375 16 26 C16.33 24.02 16.66 22.04 17 20 C16.45472656 19.57589844 15.90945312 19.15179688 15.34765625 18.71484375 C13.76246476 17.48191704 12.1806613 16.24462673 10.6015625 15.00390625 C8.89205402 13.68712269 7.15774115 12.40181917 5.3984375 11.15234375 C4.58632813 10.56582031 3.77421875 9.97929688 2.9375 9.375 C2.18339844 8.84648438 1.42929687 8.31796875 0.65234375 7.7734375 C-1 6 -1 6 -1.30859375 3.3515625 C-1 1 -1 1 0 0 Z " fill="#DF2D2C" transform="translate(57,39)"/>
<path d="M0 0 C1.3743291 1.29103643 2.70896357 2.6256709 4 4 C7.09201771 5.03067257 9.84982059 4.982288 13.0625 4.875 C17.03295665 5.00104624 18.26332814 5.26332814 21 8 C21.515625 7.505 22.03125 7.01 22.5625 6.5 C25.9238388 4.43148382 28.11959911 4.51494989 32 5 C34.4375 6.5 34.4375 6.5 36 9 C36.80414661 13.04560357 36.63828902 15.97873756 34.4375 19.5 C31.05111671 21.58392818 28.90614682 21.55802097 25 21 C22.5625 19 22.5625 19 21 17 C20.29875 17.66 19.5975 18.32 18.875 19 C15.56539771 21.30233203 13.93774177 21.36630156 10 21 C9.01 23.475 9.01 23.475 8 26 C6.68 25.67 5.36 25.34 4 25 C3.67 23.02 3.34 21.04 3 19 C2.01 19.66 1.02 20.32 0 21 C-6.17322835 21.5511811 -6.17322835 21.5511811 -8.875 19.75 C-10.10506663 17.83656302 -10.61502006 16.23288365 -11 14 C-9.35 14 -7.7 14 -6 14 C-5.67 14.66 -5.34 15.32 -5 16 C-3.68 16 -2.36 16 -1 16 C-1 15.34 -1 14.68 -1 14 C-2.11375 13.54625 -3.2275 13.0925 -4.375 12.625 C-8 11 -8 11 -10 9 C-10.375 6.0625 -10.375 6.0625 -10 3 C-7.1012774 -0.34467992 -4.26951578 -0.62263772 0 0 Z M-4 4 C-4.99 4.495 -4.99 4.495 -6 5 C-6 5.66 -6 6.32 -6 7 C-1.05 8.98 -1.05 8.98 4 11 C4 9.68 4 8.36 4 7 C1.34771188 5.92474806 -1.28368454 4.90543849 -4 4 Z M11 9 C10.34 9.66 9.68 10.32 9 11 C9.32041397 13.60280568 9.32041397 13.60280568 10 16 C11.89179203 16.6814823 11.89179203 16.6814823 14 17 C16.28728734 15.16116119 16.28728734 15.16116119 16.125 12.375 C16.08375 11.59125 16.0425 10.8075 16 10 C13.60280568 9.32041397 13.60280568 9.32041397 11 9 Z " fill="#010101" transform="translate(146,46)"/>
<path d="M0 0 C1.32 0 2.64 0 4 0 C4 1.32 4 2.64 4 4 C4.84304687 3.97679687 5.68609375 3.95359375 6.5546875 3.9296875 C8.19824219 3.90261719 8.19824219 3.90261719 9.875 3.875 C11.51082031 3.84019531 11.51082031 3.84019531 13.1796875 3.8046875 C16 4 16 4 18 6 C17.71395102 7.67542976 17.38218767 9.34385343 17 11 C17.33 11.33 17.66 11.66 18 12 C18.1875 14.9375 18.1875 14.9375 18 18 C15.22190605 20.77809395 13.43244797 20.29955703 9.5625 20.3125 C7.83193359 20.33763672 7.83193359 20.33763672 6.06640625 20.36328125 C3 20 3 20 1.1015625 18.7734375 C-0.32517916 16.47648461 -0.30419708 14.99653277 -0.1875 12.3125 C-0.16042969 11.50425781 -0.13335937 10.69601563 -0.10546875 9.86328125 C-0.07066406 9.24839844 -0.03585938 8.63351563 0 8 C-1.65 8.66 -3.3 9.32 -5 10 C-5.33 13.3 -5.66 16.6 -6 20 C-7.32 20 -8.64 20 -10 20 C-10 14.72 -10 9.44 -10 4 C-6.7 4 -3.4 4 0 4 C0 2.68 0 1.36 0 0 Z M4 8 C4 10.31 4 12.62 4 15 C4.99 15.33 5.98 15.66 7 16 C7 15.34 7 14.68 7 14 C7.99 13.67 8.98 13.34 10 13 C9.34 12.67 8.68 12.34 8 12 C7.375 9.9375 7.375 9.9375 7 8 C6.01 8 5.02 8 4 8 Z M11 8 C11.33 8.66 11.66 9.32 12 10 C12.66 10 13.32 10 14 10 C14 9.34 14 8.68 14 8 C13.01 8 12.02 8 11 8 Z M11 14 C11 14.66 11 15.32 11 16 C11.99 16 12.98 16 14 16 C14 15.34 14 14.68 14 14 C13.01 14 12.02 14 11 14 Z " fill="#010101" transform="translate(193,47)"/>
<path d="M0 0 C1.875 1.1875 1.875 1.1875 3 3 C2.6875 5.5625 2.6875 5.5625 2 8 C2 8.66 2 9.32 2 10 C3.32 10 4.64 10 6 10 C6 12.31 6 14.62 6 17 C6.66 17 7.32 17 8 17 C8 18.32 8 19.64 8 21 C5.75106046 21.10823773 3.50062425 21.18569645 1.25 21.25 C-0.62945312 21.31960937 -0.62945312 21.31960937 -2.546875 21.390625 C-6 21 -6 21 -8.4296875 19.171875 C-10.53710954 16.25713208 -10.44086164 14.52689312 -10 11 C-9.36729133 9.65022151 -8.69937532 8.31647119 -8 7 C-7.835 5.948125 -7.67 4.89625 -7.5 3.8125 C-7.335 2.884375 -7.17 1.95625 -7 1 C-4.45132831 -0.27433584 -2.82594567 -0.27570202 0 0 Z M-4 4 C-3.34 4.66 -2.68 5.32 -2 6 C-2 5.34 -2 4.68 -2 4 C-2.66 4 -3.32 4 -4 4 Z M-5 12 C-5 13.32 -5 14.64 -5 16 C-3.35 16.33 -1.7 16.66 0 17 C-1.65 15.35 -3.3 13.7 -5 12 Z " fill="#010101" transform="translate(226,46)"/>
<path d="M0 0 C3.4375 0.5625 3.4375 0.5625 5.875 2.0625 C8.07578902 5.58376244 8.24164661 8.51689643 7.4375 12.5625 C5.875 15.0625 5.875 15.0625 3.4375 16.5625 C0 17.125 0 17.125 -3.5625 16.5625 C-6.94371991 14.11651113 -8.33186783 12.66953441 -9.1875 8.5625 C-8.06378731 3.1686791 -5.3834601 0.85002002 0 0 Z " fill="#DD2D2C" transform="translate(174.5625,50.4375)"/>
<path d="M0 0 C8 4 8 4 10 8 C10.07116382 10.37402501 10.08409085 12.75000677 10.0625 15.125 C10.05347656 16.40632813 10.04445313 17.68765625 10.03515625 19.0078125 C10.02355469 19.99523437 10.01195313 20.98265625 10 22 C6.7 22 3.4 22 0 22 C0 14.74 0 7.48 0 0 Z " fill="#1B1919" transform="translate(79,69)"/>
<path d="M0 0 C0.99 0.33 1.98 0.66 3 1 C3 2.32 3 3.64 3 5 C1.35 5 -0.3 5 -2 5 C-2 3.68 -2 2.36 -2 1 C-1.34 0.67 -0.68 0.34 0 0 Z " fill="#010101" transform="translate(211,71)"/>
<path d="M0 0 C0.99 0.33 1.98 0.66 3 1 C2.67 2.32 2.34 3.64 2 5 C0.68 5 -0.64 5 -2 5 C-2 3.68 -2 2.36 -2 1 C-1.34 0.67 -0.68 0.34 0 0 Z " fill="#020202" transform="translate(226,71)"/>
</svg>
