<svg width="202" height="42" viewBox="0 0 202 42" fill="none" xmlns="http://www.w3.org/2000/svg">
<path d="M152.16 10.4614L151.131 11.4912H147.047V5.3479L148.077 4.34177H146.905V3.31198H150.255L151.284 4.34177V5.7977L150.562 6.51974H151.284L152.16 7.39566V10.4614ZM150.113 6.51974V4.34177H148.219V7.39566L149.083 6.51974H150.113ZM150.988 10.4614V7.39566H148.219V10.4614H150.988Z" fill="#AAF40C"/>
<path d="M157.932 11.4912H156.76V10.6153L155.885 11.4912H154.713L153.695 10.4614V8.42546L154.713 7.39566H156.642L155.671 8.41362H154.855V10.4614H156.76V6.3777H153.541L154.417 5.3479H156.914L157.932 6.3777V11.4912Z" fill="#AAF40C"/>
<path d="M164.016 11.4912H162.856V10.6153L162.004 11.4912H160.809L159.791 10.4614V6.3777L160.809 5.3479H162.856V3.30014L164.016 2.14014V11.4912ZM162.856 10.4614V5.48994L161.957 6.3777H160.963V10.4614H162.856Z" fill="#AAF40C"/>
<path d="M173.089 11.4912H171.917V6.3777H170.165V11.4912H168.994V6.3777H167.254V11.4912H166.082V5.3479H167.254V6.23566L168.118 5.3479H169.289L170.012 6.09361L170.745 5.3479H172.059L173.089 6.3777V11.4912Z" fill="#AAF40C"/>
<path d="M176.235 4.34177H175.063V3.16994H176.235V4.34177ZM176.235 11.4912H175.063V6.24749L176.235 5.06382V11.4912Z" fill="#AAF40C"/>
<path d="M182.503 11.4912H181.343V6.3777H179.449V11.4912H178.277V5.3479H179.449V6.23566L180.313 5.3479H181.485L182.503 6.3777V11.4912Z" fill="#AAF40C"/>
<path d="M187.479 5.3479L186.449 6.3777H185.715V10.4614H187.171V11.4912H185.573L184.543 10.4614V6.3777H183.087L184.117 5.3479H184.543V4.48382L185.715 3.31198V5.3479H187.479Z" fill="#AAF40C"/>
<path d="M192.464 10.4614L191.446 11.4912H189.256L188.238 10.4614V6.3777L189.256 5.3479H191.446L192.464 6.3777V10.4614ZM191.304 10.4614V6.3777H189.41V10.4614H191.304Z" fill="#AAF40C"/>
<path d="M198.628 11.4912H197.468V6.3777H195.574V11.4912H194.402V5.3479H195.574V6.23566L196.438 5.3479H197.61L198.628 6.3777V11.4912Z" fill="#AAF40C"/>
<path d="M46.8926 15.822H51.314C54.1681 15.822 56.0957 15.953 57.097 16.215C58.1076 16.477 58.8749 16.9074 59.399 17.5063C59.923 18.1052 60.2505 18.7743 60.3815 19.5135C60.5125 20.2434 60.578 21.6845 60.578 23.8367V31.7953C60.578 33.8353 60.4798 35.2015 60.2832 35.8939C60.0961 36.577 59.7639 37.1151 59.2867 37.5081C58.8094 37.8918 58.2199 38.1631 57.5181 38.3222C56.8163 38.4719 55.7589 38.5468 54.3459 38.5468H46.8926V15.822ZM52.8019 19.71V34.6587C53.6534 34.6587 54.1774 34.4903 54.3739 34.1534C54.5705 33.8072 54.6687 32.8761 54.6687 31.3602V22.5313C54.6687 21.502 54.636 20.8423 54.5705 20.5522C54.505 20.2621 54.3552 20.0516 54.1213 19.9206C53.8874 19.7802 53.4475 19.71 52.8019 19.71Z" fill="#192335"/>
<path d="M68.284 19.9206L68.0594 22.3629C68.8828 20.613 70.0759 19.6866 71.6386 19.5837V26.1387C70.6 26.1387 69.8373 26.279 69.3507 26.5598C68.8641 26.8405 68.5647 27.2335 68.4524 27.7388C68.3401 28.2348 68.284 29.3857 68.284 31.1918V38.5468H62.6133V19.9206H68.284Z" fill="#192335"/>
<path d="M85.7592 29.5635H78.4182V33.592C78.4182 34.4341 78.479 34.9769 78.6007 35.2202C78.7223 35.4635 78.9563 35.5851 79.3025 35.5851C79.7329 35.5851 80.0183 35.426 80.1587 35.1079C80.3084 34.7804 80.3833 34.1534 80.3833 33.227V30.7707H85.7592V32.1462C85.7592 33.2972 85.6843 34.1815 85.5346 34.7991C85.3943 35.4167 85.0574 36.0764 84.524 36.7782C83.9906 37.48 83.3122 38.0087 82.4887 38.3643C81.6746 38.7105 80.65 38.8837 79.4148 38.8837C78.217 38.8837 77.1596 38.7105 76.2426 38.3643C75.3255 38.0181 74.6097 37.5455 74.095 36.9466C73.5897 36.3384 73.2388 35.674 73.0423 34.9535C72.8458 34.2236 72.7475 33.1662 72.7475 31.7813V26.3492C72.7475 24.721 72.9674 23.439 73.4072 22.5033C73.847 21.5581 74.5676 20.8376 75.5688 20.3417C76.5701 19.8364 77.7211 19.5837 79.0218 19.5837C80.6125 19.5837 81.9226 19.8878 82.9519 20.4961C83.9906 21.0949 84.7158 21.895 85.1276 22.8963C85.5487 23.8882 85.7592 25.2871 85.7592 27.0931V29.5635ZM80.0745 26.5317V25.1702C80.0745 24.2063 80.023 23.5841 79.9201 23.3033C79.8172 23.0226 79.6066 22.8822 79.2884 22.8822C78.8954 22.8822 78.6521 23.0039 78.5586 23.2472C78.465 23.4811 78.4182 24.1221 78.4182 25.1702V26.5317H80.0745Z" fill="#192335"/>
<path d="M92.6931 27.1353H87.3734V25.886C87.3734 24.445 87.5371 23.3361 87.8646 22.5594C88.2015 21.7734 88.8706 21.0809 89.8718 20.482C90.8731 19.8831 92.1738 19.5837 93.7739 19.5837C95.6922 19.5837 97.138 19.9253 98.1112 20.6084C99.0844 21.2821 99.6692 22.1149 99.8657 23.1068C100.062 24.0894 100.16 26.12 100.16 29.1986V38.5468H94.6442V36.8905C94.298 37.5549 93.8488 38.0555 93.2967 38.3924C92.754 38.7199 92.1036 38.8837 91.3457 38.8837C90.3538 38.8837 89.4414 38.6076 88.6086 38.0555C87.7851 37.4941 87.3734 36.2729 87.3734 34.392V32.8621C87.3734 31.4678 87.5933 30.518 88.0331 30.0127C88.4729 29.5074 89.563 28.9179 91.3036 28.2441C93.1657 27.5142 94.1623 27.023 94.2933 26.7703C94.4243 26.5177 94.4898 26.003 94.4898 25.2263C94.4898 24.2531 94.4149 23.6215 94.2652 23.3314C94.1249 23.032 93.8862 22.8822 93.5494 22.8822C93.1657 22.8822 92.9271 23.0086 92.8335 23.2612C92.7399 23.5045 92.6931 24.1455 92.6931 25.1842V27.1353ZM94.4898 29.6899C93.5821 30.3542 93.0534 30.911 92.9037 31.3602C92.7633 31.8094 92.6931 32.455 92.6931 33.2972C92.6931 34.261 92.754 34.8833 92.8756 35.164C93.0066 35.4448 93.2593 35.5851 93.6336 35.5851C93.9892 35.5851 94.2184 35.4775 94.3214 35.2623C94.4337 35.0377 94.4898 34.4575 94.4898 33.5218V29.6899Z" fill="#192335"/>
<path d="M107.712 19.9206L107.614 21.6892C108.054 20.9873 108.578 20.4633 109.186 20.1171C109.794 19.7615 110.487 19.5837 111.263 19.5837C112.779 19.5837 113.972 20.2855 114.842 21.6892C115.32 20.9873 115.858 20.4633 116.457 20.1171C117.056 19.7615 117.72 19.5837 118.45 19.5837C119.414 19.5837 120.209 19.8176 120.836 20.2855C121.472 20.7534 121.879 21.3289 122.057 22.012C122.235 22.6857 122.324 23.7852 122.324 25.3105V38.5468H116.822V26.4054C116.822 24.8146 116.765 23.832 116.653 23.4577C116.55 23.0741 116.302 22.8822 115.909 22.8822C115.507 22.8822 115.245 23.0694 115.123 23.4437C115.011 23.818 114.955 24.8052 114.955 26.4054V38.5468H109.453V26.7142C109.453 24.8894 109.406 23.7946 109.312 23.4297C109.228 23.0647 108.985 22.8822 108.582 22.8822C108.33 22.8822 108.114 22.9805 107.937 23.177C107.759 23.3642 107.661 23.5981 107.642 23.8788C107.623 24.1502 107.614 24.735 107.614 25.6334V38.5468H102.112V19.9206H107.712Z" fill="#192335"/>
<path d="M138.043 22.6998H132.555V21.0154C132.555 20.2294 132.485 19.7287 132.344 19.5135C132.204 19.2983 131.97 19.1907 131.642 19.1907C131.287 19.1907 131.015 19.3357 130.828 19.6258C130.65 19.9159 130.562 20.3557 130.562 20.9452C130.562 21.7032 130.664 22.274 130.87 22.6577C131.067 23.0413 131.624 23.5045 132.541 24.0473C135.17 25.61 136.826 26.892 137.51 27.8932C138.193 28.8945 138.534 30.5086 138.534 32.7357C138.534 34.3546 138.342 35.5477 137.959 36.315C137.584 37.0823 136.854 37.728 135.769 38.252C134.684 38.7667 133.42 39.024 131.979 39.024C130.398 39.024 129.046 38.7246 127.923 38.1257C126.809 37.5268 126.079 36.7642 125.733 35.8378C125.387 34.9114 125.214 33.5966 125.214 31.8936V30.4057H130.702V33.1709C130.702 34.0224 130.777 34.5698 130.926 34.8131C131.086 35.0564 131.362 35.1781 131.755 35.1781C132.148 35.1781 132.438 35.0237 132.625 34.7149C132.821 34.4061 132.92 33.9476 132.92 33.3393C132.92 32.0012 132.737 31.1262 132.372 30.7145C131.998 30.3028 131.076 29.615 129.607 28.6512C128.138 27.678 127.165 26.9715 126.688 26.5317C126.21 26.0919 125.813 25.4836 125.494 24.707C125.186 23.9303 125.031 22.9384 125.031 21.7313C125.031 19.9908 125.251 18.7181 125.691 17.9134C126.14 17.1086 126.861 16.4817 127.853 16.0325C128.844 15.574 130.042 15.3447 131.446 15.3447C132.98 15.3447 134.286 15.5927 135.362 16.0887C136.447 16.5846 137.163 17.2116 137.51 17.9695C137.865 18.7181 138.043 19.9954 138.043 21.8014V22.6998Z" fill="#192335"/>
<path d="M146.002 19.9206L145.903 21.5628C146.409 20.8984 146.965 20.4025 147.574 20.075C148.182 19.7475 148.846 19.5837 149.567 19.5837C150.446 19.5837 151.204 19.8223 151.841 20.2996C152.486 20.7674 152.889 21.3102 153.048 21.9278C153.207 22.5454 153.286 23.5934 153.286 25.0719V32.9182C153.286 34.6119 153.183 35.8191 152.978 36.5396C152.781 37.2508 152.369 37.8216 151.742 38.252C151.125 38.6731 150.376 38.8837 149.497 38.8837C148.795 38.8837 148.144 38.7199 147.546 38.3924C146.947 38.0649 146.399 37.5783 145.903 36.9326V41.1997H140.233V19.9206H146.002ZM147.616 25.3386C147.616 24.1876 147.574 23.4905 147.489 23.2472C147.405 23.0039 147.171 22.8822 146.788 22.8822C146.413 22.8822 146.17 23.0226 146.058 23.3033C145.955 23.5841 145.903 24.2625 145.903 25.3386V33.0586C145.903 34.1815 145.959 34.8833 146.072 35.164C146.184 35.4448 146.427 35.5851 146.802 35.5851C147.167 35.5851 147.391 35.4588 147.475 35.2061C147.569 34.9441 147.616 34.3172 147.616 33.3253V25.3386Z" fill="#192335"/>
<path d="M167.996 26.4615V31.0233C167.996 32.6983 167.912 33.9288 167.744 34.7149C167.575 35.4916 167.215 36.2214 166.663 36.9045C166.111 37.5783 165.4 38.0789 164.529 38.4064C163.669 38.7246 162.677 38.8837 161.554 38.8837C160.3 38.8837 159.238 38.748 158.368 38.4766C157.497 38.1959 156.819 37.7795 156.332 37.2274C155.855 36.6659 155.513 35.9922 155.308 35.2061C155.102 34.4107 154.999 33.2223 154.999 31.6409V26.8686C154.999 25.1374 155.186 23.7852 155.56 22.8121C155.935 21.8389 156.608 21.0575 157.581 20.468C158.555 19.8785 159.799 19.5837 161.315 19.5837C162.588 19.5837 163.678 19.7755 164.586 20.1592C165.503 20.5335 166.209 21.0248 166.705 21.633C167.201 22.2412 167.538 22.8682 167.716 23.5139C167.903 24.1595 167.996 25.1421 167.996 26.4615ZM162.326 25.0579C162.326 24.1034 162.274 23.5045 162.171 23.2612C162.068 23.0086 161.849 22.8822 161.512 22.8822C161.175 22.8822 160.95 23.0086 160.838 23.2612C160.726 23.5045 160.669 24.1034 160.669 25.0579V33.4656C160.669 34.3452 160.726 34.9207 160.838 35.1921C160.95 35.4541 161.17 35.5851 161.498 35.5851C161.835 35.5851 162.054 35.4635 162.157 35.2202C162.27 34.9769 162.326 34.4529 162.326 33.6481V25.0579Z" fill="#192335"/>
<path d="M175.548 19.9206L175.323 22.3629C176.147 20.613 177.34 19.6866 178.903 19.5837V26.1387C177.864 26.1387 177.101 26.279 176.615 26.5598C176.128 26.8405 175.829 27.2335 175.716 27.7388C175.604 28.2348 175.548 29.3857 175.548 31.1918V38.5468H169.877V19.9206H175.548Z" fill="#192335"/>
<path d="M186.693 17.4361V20.3697H188.223V23.3174H186.693V33.2832C186.693 34.509 186.754 35.1921 186.875 35.3325C187.006 35.4728 187.535 35.543 188.461 35.543V38.5468H186.174C184.882 38.5468 183.96 38.4953 183.408 38.3924C182.856 38.2801 182.37 38.0321 181.949 37.6485C181.527 37.2554 181.265 36.811 181.163 36.315C181.06 35.8097 181.008 34.6307 181.008 32.7779V23.3174H179.787V20.3697H181.008V17.4361H186.693Z" fill="#192335"/>
<path d="M201.052 25.872H196.027V24.8614C196.027 24.0005 195.976 23.4577 195.873 23.2331C195.779 22.9992 195.536 22.8822 195.143 22.8822C194.825 22.8822 194.586 22.9899 194.427 23.2051C194.268 23.4109 194.188 23.7244 194.188 24.1455C194.188 24.7163 194.226 25.1374 194.301 25.4088C194.385 25.6708 194.623 25.9609 195.016 26.279C195.419 26.5972 196.238 27.0604 197.473 27.6686C199.12 28.4734 200.2 29.2313 200.715 29.9425C201.23 30.6537 201.487 31.6877 201.487 33.0445C201.487 34.5605 201.291 35.7068 200.898 36.4834C200.505 37.2508 199.845 37.845 198.919 38.2661C198.001 38.6778 196.893 38.8837 195.592 38.8837C194.151 38.8837 192.916 38.6591 191.886 38.2099C190.866 37.7608 190.165 37.1525 189.781 36.3852C189.397 35.6179 189.205 34.4575 189.205 32.9042V32.0059H194.23V33.1849C194.23 34.1862 194.291 34.8365 194.413 35.136C194.544 35.4354 194.797 35.5851 195.171 35.5851C195.573 35.5851 195.854 35.4869 196.013 35.2904C196.172 35.0845 196.252 34.6587 196.252 34.0131C196.252 33.1241 196.149 32.5673 195.943 32.3427C195.728 32.1182 194.628 31.4538 192.644 30.3496C190.979 29.4138 189.963 28.567 189.598 27.809C189.233 27.0417 189.051 26.134 189.051 25.0859C189.051 23.5981 189.247 22.5033 189.64 21.8014C190.034 21.0903 190.698 20.5429 191.634 20.1592C192.579 19.7755 193.674 19.5837 194.918 19.5837C196.153 19.5837 197.201 19.7428 198.062 20.0609C198.933 20.3697 199.597 20.7815 200.055 21.2961C200.523 21.8108 200.804 22.288 200.898 22.7278C201.001 23.1676 201.052 23.8554 201.052 24.7912V25.872Z" fill="#192335"/>
<mask id="mask0_2943_10684" style="mask-type:alpha" maskUnits="userSpaceOnUse" x="0" y="0" width="43" height="42">
<path d="M0.5 1H41.8312V41H0.5V1Z" fill="#D9D9D9" stroke="#23B33A"/>
</mask>
<g mask="url(#mask0_2943_10684)">
<path d="M35.2703 27.0249L27.6826 35.145L30.8774 38.2733L34.5104 39.4448L38.2623 36.9612C39.2996 33.687 38.4093 30.1077 35.9589 27.7012L35.2703 27.0249Z" fill="#AAF40C" stroke="#AAF40C"/>
<path d="M1.73245 25.1965C1.78144 25.2756 5.06913 26.5752 9.89536 28.4105C14.3369 30.1079 19.8213 32.2446 22.0749 33.1606C25.9005 34.7155 26.1894 34.8468 26.192 35.0222C26.1963 35.3171 29.1722 38.2078 30.0332 38.7534C30.7334 39.2056 31.4553 39.5061 32.2472 39.6859C32.919 39.8276 34.4335 39.8056 35.1009 39.6444C36.6499 39.2552 38.0236 38.3263 38.867 37.1102C40.2336 35.137 40.4355 32.5749 39.4002 30.4612C38.9484 29.5429 38.5103 29.0231 36.8283 27.3972C35.656 26.2741 35.2119 25.8899 35.0604 25.8921C34.8851 25.8947 34.7454 25.6097 33.088 21.8308C32.1069 19.6047 29.8037 14.1849 27.9778 9.78657C25.7224 4.35805 24.6087 1.78311 24.5122 1.72871C23.9498 1.43392 22.7314 2.08147 21.6956 3.22067C20.7775 4.2306 20.341 5.46474 20.3631 6.98721C20.3824 8.31837 20.7446 9.65252 21.4583 11.0294C22.6392 13.2924 25.2022 15.7427 28.8884 18.1287L30.3693 19.0878L31.7543 22.2249L27.5832 26.519L26.2974 25.2701C25.0601 24.0682 25.0115 24.0131 24.9094 23.5761C24.7477 22.8689 23.8001 20.2038 23.3715 19.2454C20.8245 13.5022 17.5543 10.1135 13.6985 9.22075C12.7625 9.00315 11.2312 8.96162 10.3487 9.1339C9.38663 9.31531 9.10164 9.45499 8.94755 9.82397C8.5785 10.7621 8.55248 12.8115 8.90684 14.1537C9.80978 17.5848 12.6983 20.4927 17.4831 22.7672C19.2814 23.626 22.1344 24.6369 23.6059 24.9504C24.0137 25.0322 24.1025 25.1026 25.3155 26.2809L26.6013 27.5299L24.5117 29.673L22.4302 31.824L19.2542 30.5308L18.2525 29.0783C15.8419 25.5894 13.2531 23.012 11.0527 21.9198C9.57519 21.1919 8.2469 20.8604 6.86792 20.8804C5.81574 20.8957 5.02131 21.0906 4.20655 21.533C2.69579 22.3602 1.28304 24.4457 1.73245 25.1965ZM3.65734 23.7893C4.45601 22.7891 5.33442 22.3378 6.64074 22.255C9.45266 22.0866 12.2998 23.7913 15.3024 27.423C15.7813 28.006 16.9439 29.5518 16.9447 29.6076C16.9455 29.6634 3.23582 24.4093 3.23501 24.3535C3.23466 24.3296 3.42238 24.0797 3.65734 23.7893ZM10.0929 10.7322C10.1615 10.5159 10.3202 10.4658 11.2839 10.3959C14.0714 10.196 16.8438 11.6944 19.1107 14.6193C20.8494 16.8583 22.2051 19.6291 23.432 23.4062C23.4488 23.4618 23.4252 23.486 23.3692 23.4709C20.4627 22.6202 18.2573 21.7274 16.3277 20.6154C12.8141 18.5856 10.8111 16.2627 10.1402 13.4422C10.0048 12.902 9.97899 11.1245 10.0929 10.7322ZM21.8894 5.58575C22.1338 4.84871 22.5709 4.20454 23.1774 3.69344C23.4609 3.45014 23.7132 3.25513 23.7371 3.25478C23.769 3.25432 23.9996 3.76122 24.2478 4.37949C24.504 5.0056 25.7682 8.05672 27.0649 11.1552C28.3618 14.2616 29.3953 16.8059 29.3635 16.8063C29.2519 16.8079 26.7209 14.9153 25.9296 14.2252C23.2087 11.8809 21.7693 9.39047 21.7259 6.95146C21.7081 6.27403 21.7441 6.01041 21.8894 5.58575ZM25.7101 30.3891L27.5717 28.4725L29.9169 30.7505L28.503 32.2061C27.7253 33.0067 27.0572 33.6622 27.0173 33.6628C26.8978 33.6646 23.8419 32.4094 23.8412 32.3616C23.8408 32.3297 24.681 31.4485 25.7101 30.3891ZM31.3979 31.1675L34.9327 27.5284L36.3724 28.9425C37.9336 30.4825 38.1856 30.8217 38.4963 31.9014C38.7312 32.7033 38.7472 33.8033 38.5357 34.6116C38.2941 35.5399 37.9753 36.0947 37.2212 36.871C36.1845 37.9544 35.1387 38.4081 33.6561 38.4297C32.7554 38.4428 32.1556 38.3159 31.3367 37.9292C30.815 37.6896 30.5487 37.4703 29.2956 36.2766C28.5112 35.5147 27.8641 34.8783 27.8638 34.8544C27.8633 34.8225 29.4577 33.1649 31.3979 31.1675ZM32.3327 23.6197C32.3805 23.619 33.7239 26.6371 33.7256 26.7566C33.7262 26.7965 33.0904 27.4834 32.3127 28.284L30.8988 29.7396L28.5536 27.4616L30.4153 25.5451C31.4443 24.4857 32.3008 23.6202 32.3327 23.6197Z" fill="#192335"/>
<path d="M46.4787 13.4335H51.6554C54.997 13.4335 57.254 13.5869 58.4263 13.8937C59.6095 14.2004 60.5079 14.7044 61.1215 15.4056C61.735 16.1068 62.1185 16.8901 62.2719 17.7557C62.4252 18.6102 62.5019 20.2975 62.5019 22.8174V32.1355C62.5019 34.5239 62.3869 36.1235 62.1568 36.9342C61.9377 37.734 61.5487 38.364 60.99 38.8241C60.4312 39.2733 59.741 39.591 58.9193 39.7773C58.0976 39.9526 56.8596 40.0402 55.2052 40.0402H46.4787V13.4335ZM53.3975 17.9857V35.488C54.3945 35.488 55.008 35.2908 55.2381 34.8964C55.4682 34.491 55.5832 33.4009 55.5832 31.626V21.289C55.5832 20.0838 55.5448 19.3114 55.4681 18.9718C55.3915 18.6321 55.2162 18.3856 54.9423 18.2323C54.6684 18.0679 54.1534 17.9857 53.3975 17.9857Z" fill="#192335"/>
<path d="M71.5242 18.2323L71.2613 21.0918C72.2254 19.043 73.6223 17.9583 75.452 17.8378V25.5125C74.2358 25.5125 73.3429 25.6769 72.7732 26.0056C72.2035 26.3342 71.8529 26.7944 71.7214 27.386C71.59 27.9667 71.5242 29.3143 71.5242 31.4288V40.0402H64.8849V18.2323H71.5242Z" fill="#192335"/>
<path d="M91.9846 29.5224H83.3896V34.239C83.3896 35.2251 83.4608 35.8605 83.6032 36.1454C83.7457 36.4302 84.0196 36.5727 84.425 36.5727C84.9289 36.5727 85.2631 36.3864 85.4274 36.0139C85.6027 35.6304 85.6904 34.8964 85.6904 33.8117V30.9358H91.9846V32.5463C91.9846 33.8939 91.897 34.9293 91.7217 35.6524C91.5573 36.3755 91.1629 37.1478 90.5384 37.9696C89.9139 38.7913 89.1196 39.4103 88.1555 39.8266C87.2023 40.232 86.0026 40.4347 84.5564 40.4347C83.1541 40.4347 81.916 40.232 80.8423 39.8266C79.7686 39.4212 78.9305 38.8679 78.3279 38.1668C77.7363 37.4546 77.3254 36.6767 77.0954 35.8331C76.8653 34.9786 76.7502 33.7405 76.7502 32.119V25.759C76.7502 23.8527 77.0077 22.3517 77.5227 21.2561C78.0376 20.1496 78.8812 19.3059 80.0535 18.7253C81.2258 18.1336 82.5734 17.8378 84.0963 17.8378C85.9588 17.8378 87.4927 18.1939 88.6978 18.906C89.9139 19.6072 90.763 20.544 91.2451 21.7163C91.7381 22.8776 91.9846 24.5155 91.9846 26.6301V29.5224ZM85.3288 25.9727V24.3786C85.3288 23.2501 85.2686 22.5215 85.1481 22.1929C85.0275 21.8642 84.781 21.6998 84.4085 21.6998C83.9484 21.6998 83.6635 21.8423 83.554 22.1271C83.4444 22.401 83.3896 23.1515 83.3896 24.3786V25.9727H85.3288Z" fill="#192335"/>
<path d="M100.103 26.6794H93.8745V25.2167C93.8745 23.5295 94.0663 22.2312 94.4497 21.3219C94.8441 20.4015 95.6275 19.5908 96.7998 18.8896C97.9721 18.1884 99.495 17.8378 101.368 17.8378C103.614 17.8378 105.307 18.2377 106.447 19.0375C107.586 19.8264 108.271 20.8014 108.501 21.9628C108.731 23.1132 108.846 25.4906 108.846 29.0952V40.0402H102.387V38.101C101.982 38.8789 101.456 39.4651 100.81 39.8595C100.174 40.2429 99.4128 40.4347 98.5254 40.4347C97.364 40.4347 96.2958 40.1115 95.3207 39.465C94.3566 38.8077 93.8745 37.3779 93.8745 35.1758V33.3844C93.8745 31.752 94.132 30.64 94.6469 30.0483C95.1619 29.4567 96.4382 28.7665 98.4761 27.9776C100.656 27.1231 101.823 26.5479 101.977 26.2521C102.13 25.9563 102.207 25.3537 102.207 24.4443C102.207 23.3049 102.119 22.5654 101.944 22.2257C101.779 21.8751 101.5 21.6998 101.106 21.6998C100.656 21.6998 100.377 21.8477 100.267 22.1436C100.158 22.4284 100.103 23.1789 100.103 24.395V26.6794ZM102.207 29.6704C101.144 30.4482 100.525 31.1001 100.35 31.626C100.185 32.1519 100.103 32.9079 100.103 33.8939C100.103 35.0224 100.174 35.751 100.317 36.0796C100.47 36.4083 100.766 36.5727 101.204 36.5727C101.62 36.5727 101.889 36.4467 102.009 36.1947C102.141 35.9317 102.207 35.2525 102.207 34.1569V29.6704Z" fill="#192335"/>
<path d="M117.687 18.2323L117.572 20.3029C118.087 19.4812 118.701 18.8677 119.413 18.4623C120.125 18.046 120.936 17.8378 121.845 17.8378C123.62 17.8378 125.017 18.6595 126.036 20.3029C126.595 19.4812 127.225 18.8677 127.926 18.4623C128.627 18.046 129.405 17.8378 130.26 17.8378C131.388 17.8378 132.319 18.1117 133.053 18.6595C133.798 19.2073 134.275 19.8811 134.483 20.6809C134.691 21.4698 134.795 22.7571 134.795 24.5429V40.0402H128.353V25.8248C128.353 23.9623 128.287 22.8119 128.156 22.3736C128.035 21.9244 127.745 21.6998 127.285 21.6998C126.814 21.6998 126.507 21.919 126.365 22.3572C126.233 22.7954 126.167 23.9513 126.167 25.8248V40.0402H119.725V26.1863C119.725 24.0499 119.671 22.768 119.561 22.3408C119.462 21.9135 119.178 21.6998 118.706 21.6998C118.411 21.6998 118.159 21.8149 117.95 22.045C117.742 22.2641 117.627 22.538 117.605 22.8667C117.583 23.1844 117.572 23.8691 117.572 24.9209V40.0402H111.13V18.2323H117.687Z" fill="#192335"/>
<path d="M150.654 25.2003H144.771V24.017C144.771 23.0091 144.711 22.3736 144.59 22.1107C144.48 21.8368 144.196 21.6998 143.735 21.6998C143.363 21.6998 143.084 21.8258 142.897 22.0778C142.711 22.3189 142.618 22.6859 142.618 23.1789C142.618 23.8472 142.662 24.3402 142.749 24.658C142.848 24.9647 143.127 25.3044 143.588 25.6769C144.059 26.0494 145.017 26.5917 146.464 27.3039C148.392 28.2461 149.657 29.1335 150.26 29.9662C150.862 30.7988 151.164 32.0095 151.164 33.5981C151.164 35.373 150.934 36.7151 150.473 37.6244C150.013 38.5228 149.241 39.2185 148.156 39.7116C147.083 40.1936 145.784 40.4347 144.261 40.4347C142.574 40.4347 141.128 40.1717 139.923 39.6458C138.729 39.1199 137.907 38.4078 137.458 37.5094C137.008 36.611 136.784 35.2525 136.784 33.4338V32.382H142.667V33.7624C142.667 34.9347 142.738 35.6962 142.881 36.0468C143.034 36.3974 143.33 36.5727 143.768 36.5727C144.239 36.5727 144.568 36.4576 144.754 36.2275C144.941 35.9865 145.034 35.488 145.034 34.732C145.034 33.6912 144.913 33.0393 144.672 32.7764C144.42 32.5134 143.133 31.7356 140.81 30.4428C138.86 29.3472 137.671 28.3556 137.244 27.4682C136.817 26.5698 136.603 25.5071 136.603 24.28C136.603 22.538 136.833 21.2561 137.293 20.4344C137.753 19.6018 138.531 18.9608 139.627 18.5116C140.734 18.0624 142.015 17.8378 143.473 17.8378C144.919 17.8378 146.146 18.0241 147.154 18.3966C148.173 18.7581 148.951 19.2402 149.487 19.8428C150.035 20.4454 150.364 21.0041 150.473 21.5191C150.594 22.034 150.654 22.8393 150.654 23.9349V25.2003Z" fill="#192335"/>
<path d="M159.693 18.2323L159.578 20.155C160.17 19.3772 160.821 18.7965 161.534 18.413C162.246 18.0296 163.024 17.8378 163.867 17.8378C164.897 17.8378 165.785 18.1172 166.53 18.676C167.285 19.2238 167.757 19.8592 167.943 20.5823C168.129 21.3054 168.222 22.5325 168.222 24.2635V33.4502C168.222 35.4332 168.102 36.8466 167.861 37.6902C167.631 38.5228 167.149 39.1912 166.414 39.6951C165.691 40.1882 164.815 40.4347 163.785 40.4347C162.963 40.4347 162.202 40.2429 161.501 39.8595C160.799 39.476 160.159 38.9063 159.578 38.1503V43.1463H152.939V18.2323H159.693ZM161.583 24.5758C161.583 23.2282 161.534 22.412 161.435 22.1271C161.336 21.8423 161.062 21.6998 160.613 21.6998C160.175 21.6998 159.89 21.8642 159.759 22.1929C159.638 22.5215 159.578 23.3159 159.578 24.5758V33.6145C159.578 34.9293 159.644 35.751 159.775 36.0796C159.907 36.4083 160.191 36.5727 160.63 36.5727C161.057 36.5727 161.32 36.4248 161.419 36.1289C161.528 35.8222 161.583 35.0881 161.583 33.9268V24.5758Z" fill="#192335"/>
<path d="M185.445 25.8905V31.2316C185.445 33.1927 185.346 34.6334 185.149 35.5537C184.952 36.4631 184.53 37.3177 183.884 38.1175C183.237 38.9063 182.405 39.4924 181.386 39.8759C180.378 40.2484 179.217 40.4347 177.902 40.4347C176.434 40.4347 175.19 40.2758 174.171 39.9581C173.152 39.6294 172.358 39.1418 171.788 38.4954C171.23 37.8381 170.83 37.0492 170.589 36.1289C170.348 35.1977 170.227 33.8063 170.227 31.9547V26.3671C170.227 24.3402 170.446 22.7571 170.885 21.6177C171.323 20.4782 172.112 19.5634 173.251 18.8732C174.39 18.1829 175.848 17.8378 177.622 17.8378C179.113 17.8378 180.389 18.0624 181.452 18.5116C182.525 18.9499 183.352 19.5251 183.933 20.2372C184.514 20.9493 184.908 21.6834 185.116 22.4394C185.336 23.1953 185.445 24.3457 185.445 25.8905ZM178.806 24.2471C178.806 23.1296 178.745 22.4284 178.625 22.1436C178.504 21.8477 178.247 21.6998 177.853 21.6998C177.458 21.6998 177.195 21.8477 177.064 22.1436C176.932 22.4284 176.867 23.1296 176.867 24.2471V34.0911C176.867 35.121 176.932 35.7948 177.064 36.1125C177.195 36.4193 177.453 36.5727 177.836 36.5727C178.231 36.5727 178.488 36.4302 178.609 36.1454C178.74 35.8605 178.806 35.247 178.806 34.3048V24.2471Z" fill="#192335"/>
<path d="M194.287 18.2323L194.024 21.0918C194.988 19.043 196.385 17.9583 198.214 17.8378V25.5125C196.998 25.5125 196.105 25.6769 195.536 26.0056C194.966 26.3342 194.615 26.7944 194.484 27.386C194.352 27.9667 194.287 29.3143 194.287 31.4288V40.0402H187.647V18.2323H194.287Z" fill="#192335"/>
<path d="M207.335 15.3234V18.7581H209.127V22.2093H207.335V33.8775C207.335 35.3127 207.406 36.1125 207.549 36.2768C207.702 36.4412 208.321 36.5234 209.406 36.5234V40.0402H206.727C205.215 40.0402 204.136 39.98 203.49 39.8595C202.843 39.728 202.274 39.4377 201.781 38.9885C201.288 38.5283 200.981 38.0079 200.86 37.4272C200.74 36.8356 200.679 35.4551 200.679 33.2858V22.2093H199.25V18.7581H200.679V15.3234H207.335Z" fill="#192335"/>
<path d="M224.147 25.2003H218.264V24.017C218.264 23.0091 218.204 22.3736 218.083 22.1107C217.974 21.8368 217.689 21.6998 217.229 21.6998C216.856 21.6998 216.577 21.8258 216.39 22.0778C216.204 22.3189 216.111 22.6859 216.111 23.1789C216.111 23.8472 216.155 24.3402 216.243 24.658C216.341 24.9647 216.62 25.3044 217.081 25.6769C217.552 26.0494 218.51 26.5917 219.957 27.3039C221.885 28.2461 223.15 29.1335 223.753 29.9662C224.355 30.7988 224.657 32.0095 224.657 33.5981C224.657 35.373 224.427 36.7151 223.967 37.6244C223.506 38.5228 222.734 39.2185 221.649 39.7116C220.576 40.1936 219.277 40.4347 217.754 40.4347C216.067 40.4347 214.621 40.1717 213.416 39.6458C212.222 39.1199 211.4 38.4078 210.951 37.5094C210.502 36.611 210.277 35.2525 210.277 33.4338V32.382H216.16V33.7624C216.16 34.9347 216.232 35.6962 216.374 36.0468C216.527 36.3974 216.823 36.5727 217.261 36.5727C217.733 36.5727 218.061 36.4576 218.247 36.2275C218.434 35.9865 218.527 35.488 218.527 34.732C218.527 33.6912 218.406 33.0393 218.165 32.7764C217.913 32.5134 216.626 31.7356 214.303 30.4428C212.353 29.3472 211.164 28.3556 210.737 27.4682C210.31 26.5698 210.096 25.5071 210.096 24.28C210.096 22.538 210.326 21.2561 210.786 20.4344C211.247 19.6018 212.024 18.9608 213.12 18.5116C214.227 18.0624 215.508 17.8378 216.966 17.8378C218.412 17.8378 219.639 18.0241 220.647 18.3966C221.666 18.7581 222.444 19.2402 222.98 19.8428C223.528 20.4454 223.857 21.0041 223.967 21.5191C224.087 22.034 224.147 22.8393 224.147 23.9349V25.2003Z" fill="#192335"/>
</g>
</svg>
