<svg width="157" height="41" viewBox="0 0 157 41" fill="none" xmlns="http://www.w3.org/2000/svg">
<path d="M40.1776 21.2487C40.529 21.6131 40.9255 21.8674 41.3656 22.0125C41.8056 22.1576 42.238 22.2311 42.6634 22.2311C43.1616 22.2311 43.6272 22.1083 44.0601 21.8627C44.492 21.6171 44.87 21.2858 45.1931 20.8669C45.5151 20.4485 45.768 19.9709 45.9519 19.4345C46.1352 18.8981 46.2271 18.3293 46.2271 17.7295V16.5286H43.9834V17.4839C43.9834 17.8651 43.9394 18.1843 43.8518 18.4386C43.7637 18.6937 43.6533 18.8934 43.5216 19.0391C43.3748 19.1848 43.2171 19.2894 43.049 19.3528C42.8798 19.4169 42.7226 19.4486 42.5763 19.4486C42.0629 19.4486 41.7071 19.2577 41.5092 18.8758C41.3117 18.494 41.2122 18.021 41.2122 17.4569V7.52611C41.2122 6.87165 41.3035 6.33054 41.4874 5.90279C41.6707 5.4757 42.0411 5.26183 42.5981 5.26183C43.0234 5.26183 43.3601 5.46222 43.6098 5.86164C43.8589 6.26173 43.984 6.73469 43.984 7.28052V8.20822H46.2276V7.11656C46.2276 6.44321 46.1357 5.82048 45.9524 5.24766C45.7686 4.67484 45.5157 4.17961 45.1937 3.76062C44.5328 2.90579 43.6756 2.47803 42.6198 2.47803C42.0775 2.47803 41.5826 2.59205 41.1355 2.81875C40.6878 3.04612 40.3027 3.36053 39.9807 3.76062C39.6576 4.16072 39.4085 4.63369 39.2328 5.17952C39.0566 5.72535 38.9685 6.31637 38.9685 6.95261V17.6479C38.9685 18.5392 39.0822 19.2712 39.3095 19.844C39.5358 20.4162 39.8257 20.8844 40.1776 21.2487Z" fill="#192335"/>
<path d="M57.9278 21.0308C58.2792 21.4309 58.679 21.7311 59.1266 21.9309C59.5732 22.1306 60.0241 22.2311 60.4788 22.2311C60.9335 22.2311 61.3839 22.1312 61.8315 21.9309C62.2781 21.7311 62.6849 21.4309 63.0521 21.0308C63.404 20.6489 63.6901 20.1672 63.9098 19.5843C64.1296 19.0027 64.2395 18.3023 64.2395 17.4839V7.22519C64.2395 6.44322 64.1296 5.75166 63.9098 5.15185C63.6901 4.55205 63.404 4.05143 63.0521 3.65133C62.6849 3.26945 62.2781 2.97798 61.8315 2.77827C61.3839 2.57856 60.9335 2.47803 60.4788 2.47803C60.0241 2.47803 59.5732 2.57789 59.1266 2.77827C58.679 2.97798 58.2792 3.26945 57.9278 3.65133C57.5607 4.05143 57.2675 4.55138 57.0477 5.15185C56.828 5.75233 56.7181 6.44322 56.7181 7.22519V17.4839C56.7181 18.3023 56.828 19.0027 57.0477 19.5843C57.2675 20.1665 57.5607 20.6483 57.9278 21.0308ZM58.9613 7.22519C58.9613 6.55185 59.1114 6.05661 59.4122 5.73816C59.7124 5.42038 60.0681 5.26048 60.4788 5.26048C60.8895 5.26048 61.2446 5.4197 61.5454 5.73816C61.8462 6.05661 61.9963 6.55185 61.9963 7.22519V17.4839C61.9963 18.1573 61.8462 18.6525 61.5454 18.971C61.2446 19.2894 60.8895 19.4486 60.4788 19.4486C60.0681 19.4486 59.7124 19.2901 59.4122 18.971C59.1114 18.6532 58.9613 18.1573 58.9613 17.4839V7.22519Z" fill="#192335"/>
<path d="M80.098 12.9273H80.0545L77.1734 2.6416H75.0178V22.0674H77.2609V10.2535H77.3045L79.5046 18.6022H80.6262L82.8476 10.2535H82.8916V22.0674H85.1353V2.6416H82.958L80.098 12.9273Z" fill="#192335"/>
<path d="M102.313 4.00584C101.931 3.49712 101.507 3.14223 101.037 2.94185C100.568 2.74146 100.025 2.6416 99.4098 2.6416H96.0446V22.0674H98.2877V14.4832H99.4315C100.268 14.4832 100.942 14.3057 101.455 13.9509C101.968 13.596 102.379 13.1007 102.687 12.4638C102.951 11.9362 103.124 11.3722 103.204 10.7724C103.284 10.1719 103.325 9.43579 103.325 8.56273C103.325 7.39888 103.251 6.4759 103.106 5.79378C102.959 5.11099 102.694 4.51523 102.313 4.00584ZM101.18 9.92629C101.158 10.3264 101.088 10.6631 100.971 10.9363C100.854 11.2271 100.67 11.4545 100.421 11.6184C100.172 11.7824 99.8204 11.8633 99.3657 11.8633H98.2882V5.26144H99.4544C99.8944 5.26144 100.231 5.34309 100.466 5.50704C100.7 5.67099 100.876 5.90713 100.994 6.21614C101.111 6.52515 101.177 6.88477 101.191 7.29363C101.206 7.70317 101.213 8.13565 101.213 8.58973C101.213 9.0809 101.202 9.52687 101.18 9.92629Z" fill="#192335"/>
<path d="M115.466 2.6416L111.969 22.0674H114.213L114.872 17.8931H117.93L118.59 22.0674H120.833L117.336 2.6416H115.466ZM115.268 15.2739L116.368 8.23483H116.412L117.511 15.2739H115.268Z" fill="#192335"/>
<path d="M130.643 22.0674H132.886V10.3898H132.931L136.362 22.0674H138.473V2.6416H136.229V14.3462H136.186L132.798 2.6416H130.643V22.0674Z" fill="#192335"/>
<path d="M151.384 22.0674H153.627V13.855L156.707 2.6416H154.332L152.528 10.3628H152.484L150.68 2.6416H148.305L151.384 13.855V22.0674Z" fill="#192335"/>
<path d="M40.8489 35.0214V30.1441H42.0934V29.3823H38.9131V30.1441H40.157V35.0214H40.8489Z" fill="#192335"/>
<path d="M46.1938 35.0214L46.543 33.7604H48.2672L48.6197 35.0214H49.3464L47.6934 29.3823H47.1163L45.4639 35.0214H46.1938ZM47.4002 30.5381H47.4127L48.0709 33.0021H46.7426L47.4002 30.5381Z" fill="#192335"/>
<path d="M53.5024 33.8114C53.5291 33.889 53.5596 33.9699 53.5927 34.0549C53.7032 34.3154 53.8794 34.5448 54.1231 34.7431C54.3619 34.9496 54.6605 35.0582 55.0184 35.0677C55.4823 35.0575 55.8669 34.8632 56.172 34.4841C56.4755 34.1029 56.6316 33.6292 56.6398 33.0645V31.9155H55.0243V32.7238H55.9501V33.0179C55.9457 33.3715 55.8565 33.6562 55.6825 33.8728C55.5079 34.0995 55.286 34.2128 55.0178 34.2128C54.8552 34.2128 54.7165 34.1703 54.5995 34.0853C54.4804 34.0131 54.3858 33.9193 54.3129 33.8033C54.2237 33.6818 54.1644 33.5233 54.1356 33.3276C54.1018 33.1313 54.085 32.7562 54.085 32.2016C54.085 31.6476 54.1018 31.2691 54.1356 31.0687C54.1644 30.8778 54.2237 30.7219 54.3129 30.6005C54.3863 30.4845 54.481 30.388 54.5995 30.3104C54.7165 30.2355 54.8552 30.1957 55.0178 30.1903C55.2381 30.1957 55.4252 30.274 55.5791 30.4264C55.7265 30.5863 55.8288 30.7793 55.8848 31.0067H56.6142C56.5419 30.5351 56.3673 30.139 56.0904 29.8192C55.8141 29.5021 55.4562 29.3408 55.0178 29.3354C54.6605 29.3402 54.3618 29.4461 54.1225 29.6526C53.8794 29.8563 53.7032 30.0884 53.5922 30.3489C53.5237 30.4858 53.4725 30.6646 53.4394 30.8866C53.4084 31.1079 53.3926 31.5471 53.3926 32.2016C53.3926 32.8466 53.4084 33.2824 53.4394 33.5091C53.4568 33.6306 53.4774 33.7311 53.5024 33.8114Z" fill="#192335"/>
<path d="M61.2758 29.3823V35.0214H64.1787V34.2131H61.9649V29.3823H61.2758Z" fill="#192335"/>
<path d="M69.3486 29.3823H68.6589V35.0214H69.3486V29.3823Z" fill="#192335"/>
<path d="M74.1372 29.3823V35.0214H74.8264V31.0144H74.8389L76.8943 35.0214H77.5454V29.3823H76.8568V33.3887H76.8443L74.7861 29.3823H74.1372Z" fill="#192335"/>
<path d="M85.2408 30.1906V29.3823H82.3379V35.0214H85.2408V34.2131H83.0265V32.5581H84.9161V31.7998H83.0265V30.1906H85.2408Z" fill="#192335"/>
<path d="M95.1276 30.3495C95.0591 30.4865 95.0079 30.6653 94.9753 30.8873C94.9438 31.1086 94.928 31.5478 94.928 32.2022C94.928 32.8472 94.9438 33.2831 94.9753 33.5098C94.9911 33.6312 95.0123 33.7318 95.0373 33.8114C95.0645 33.889 95.0939 33.9699 95.1276 34.0549C95.2375 34.3154 95.4142 34.5448 95.6579 34.7431C95.8967 34.9496 96.1948 35.0582 96.5532 35.0677C97.0166 35.0575 97.4012 34.8632 97.7069 34.4841C98.0109 34.1029 98.1665 33.6292 98.1741 33.0645V31.9155H96.5592V32.7238H97.4849V33.0179C97.4806 33.3715 97.3914 33.6562 97.2168 33.8728C97.0427 34.0995 96.8208 34.2128 96.5527 34.2128C96.39 34.2128 96.2508 34.1703 96.1344 34.0853C96.0158 34.0131 95.9201 33.9193 95.8478 33.8033C95.7585 33.6818 95.6992 33.5233 95.6699 33.3276C95.6367 33.1313 95.6198 32.7562 95.6198 32.2016C95.6198 31.6476 95.6367 31.2691 95.6699 31.0687C95.6992 30.8778 95.7585 30.7219 95.8478 30.6005C95.9206 30.4845 96.0164 30.388 96.1344 30.3104C96.2508 30.2355 96.39 30.1957 96.5527 30.1903C96.7724 30.1957 96.9601 30.274 97.1135 30.4264C97.2609 30.5863 97.3631 30.7793 97.4197 31.0067H98.1496C98.0762 30.5351 97.9021 30.139 97.6258 29.8192C97.349 29.5021 96.9916 29.3408 96.5527 29.3354C96.1948 29.3402 95.8967 29.4461 95.6574 29.6526C95.4148 29.857 95.2375 30.0891 95.1276 30.3495Z" fill="#192335"/>
<path d="M102.854 30.3495C102.785 30.4865 102.734 30.6653 102.702 30.8873C102.67 31.1086 102.654 31.5478 102.654 32.2022C102.654 32.8472 102.67 33.2831 102.702 33.5098C102.717 33.6312 102.739 33.7318 102.764 33.8114C102.791 33.889 102.82 33.9699 102.854 34.0549C102.964 34.3154 103.14 34.5448 103.384 34.7431C103.623 34.9496 103.921 35.0582 104.28 35.0677C104.641 35.0575 104.943 34.9489 105.184 34.7431C105.422 34.5448 105.595 34.3154 105.701 34.0549C105.779 33.918 105.831 33.7365 105.86 33.5091C105.887 33.2824 105.9 32.8466 105.9 32.2016C105.9 31.5471 105.887 31.1079 105.86 30.8866C105.831 30.6646 105.779 30.4858 105.701 30.3489C105.595 30.0884 105.422 29.8563 105.184 29.6526C104.943 29.4461 104.641 29.3408 104.28 29.3354C103.922 29.3402 103.624 29.4461 103.384 29.6526C103.141 29.857 102.964 30.0891 102.854 30.3495ZM103.396 31.0694C103.426 30.8785 103.484 30.7226 103.574 30.6012C103.647 30.4851 103.743 30.3887 103.861 30.3111C103.977 30.2362 104.116 30.1964 104.279 30.191C104.443 30.1964 104.585 30.2362 104.706 30.3111C104.82 30.3887 104.912 30.4845 104.98 30.6012C105.069 30.7226 105.131 30.8785 105.164 31.0694C105.196 31.2698 105.211 31.6483 105.211 32.2022C105.211 32.7568 105.196 33.132 105.164 33.3283C105.131 33.524 105.069 33.6825 104.98 33.804C104.912 33.92 104.82 34.0138 104.706 34.086C104.585 34.171 104.443 34.2135 104.279 34.2135C104.116 34.2135 103.977 34.171 103.861 34.086C103.742 34.0138 103.646 33.92 103.574 33.804C103.484 33.6825 103.426 33.524 103.396 33.3283C103.363 33.132 103.346 32.7568 103.346 32.2022C103.347 31.6476 103.364 31.2698 103.396 31.0694Z" fill="#192335"/>
<path d="M110.536 35.0214H113.44V34.2131H111.226V32.5581H113.116V31.7998H111.226V30.1906H113.44V29.3823H110.536V35.0214Z" fill="#192335"/>
<path d="M119.267 34.2134C118.769 34.2087 118.338 34.0218 117.976 33.6528L117.525 34.2951C118.009 34.8112 118.588 35.0683 119.262 35.0683C120.303 35.0534 120.835 34.5063 120.858 33.4288C120.858 33.0293 120.757 32.6785 120.555 32.3762C120.352 32.0699 120.037 31.8803 119.611 31.8075C119.395 31.7744 119.224 31.7447 119.099 31.7191C118.875 31.6671 118.712 31.5747 118.61 31.4404C118.508 31.3095 118.457 31.1618 118.457 30.9999C118.461 30.7293 118.538 30.5255 118.685 30.3893C118.827 30.257 119.003 30.1916 119.216 30.1916C119.625 30.2024 120 30.3461 120.341 30.6254L120.725 29.9217C120.306 29.5472 119.815 29.3529 119.25 29.3374C118.78 29.3421 118.417 29.4946 118.161 29.7935C117.897 30.0958 117.765 30.4932 117.765 30.9857C117.765 31.3952 117.87 31.7434 118.08 32.0301C118.284 32.3088 118.581 32.4876 118.972 32.5672C119.19 32.6056 119.391 32.6407 119.573 32.6717C119.972 32.7568 120.17 33.0098 120.166 33.4301C120.157 33.9415 119.858 34.2033 119.267 34.2134Z" fill="#192335"/>
<path d="M130.779 29.3823V35.0214H131.468V32.5581H133.267V35.0214H133.957V29.3823H133.267V31.7998H131.468V29.3823H130.779Z" fill="#192335"/>
<path d="M141.651 34.2131H139.438V32.5581H141.328V31.7998H139.438V30.1906H141.651V29.3823H138.749V35.0214H141.651V34.2131Z" fill="#192335"/>
<path d="M146.821 32.6121H147.7L148.639 35.0214H149.459L148.405 32.519C148.983 32.2423 149.276 31.7215 149.284 30.9557C149.272 30.4348 149.121 30.0341 148.832 29.7534C148.593 29.5058 148.284 29.3823 147.906 29.3823H146.131V35.0214H146.821V32.6121ZM146.821 30.1441H147.9C148.12 30.1441 148.289 30.2021 148.405 30.3175C148.553 30.449 148.629 30.6622 148.633 30.9557C148.633 31.2013 148.569 31.4071 148.443 31.5751C148.313 31.7559 148.12 31.8483 147.863 31.8537H146.821V30.1441Z" fill="#192335"/>
<path d="M156.761 30.1906V29.3823H153.858V35.0214H156.761V34.2131H154.547V32.5581H156.437V31.7998H154.547V30.1906H156.761Z" fill="#192335"/>
<path d="M19.6071 23.3249V29.8944H6.23487C5.88459 29.8944 5.54408 29.8546 5.21338 29.775C5.16606 29.7629 5.11874 29.7494 5.07142 29.7372C4.32571 29.5355 3.63874 29.1435 3.04097 28.6037C1.68606 27.3765 0.802734 25.3956 0.802734 23.161V0.422363C3.48916 2.31893 5.21338 5.8955 5.21338 9.8175V20.5769C5.21338 22.7008 6.60419 24.426 8.31645 24.426H17.4369C18.2805 24.4253 19.0469 24.0057 19.6071 23.3249Z" fill="#192335"/>
<path d="M24.9488 0.421875V13.1149C23.9991 11.3729 22.5137 10.1011 20.7541 9.68544C20.6844 9.66925 20.6143 9.65239 20.5425 9.64092C20.5909 5.78706 22.3037 2.29011 24.9488 0.421875Z" fill="#192335"/>
<path d="M24.9487 17.6873V40.4212C22.2634 38.5246 20.5402 34.948 20.5402 31.0253V20.266C20.5402 18.1441 19.1473 16.4168 17.4372 16.4168H8.31674C7.47257 16.4168 6.70618 16.8372 6.14648 17.5173V10.9478H19.5182C19.8685 10.9478 20.2095 10.9876 20.5402 11.0672C23.0472 11.6623 24.9487 14.4035 24.9487 17.6873Z" fill="#097E52"/>
<path d="M5.21169 31.2017C5.16274 35.0555 3.45048 38.5532 0.803223 40.4214V27.7236C1.22313 28.4935 1.7529 29.1789 2.37406 29.7396C3.11161 30.4089 3.93893 30.8711 4.82824 31.1126L4.8587 31.1221C4.90602 31.1335 4.95333 31.1457 4.99848 31.1572C5.0681 31.1734 5.13989 31.1895 5.21169 31.2017Z" fill="#097E52"/>
</svg>
