<svg width="157" height="41" viewBox="0 0 157 41" fill="none" xmlns="http://www.w3.org/2000/svg">
<path d="M10.9053 14.1308L22.961 0.421875L18.1697 1.91312C13.1844 3.46389 8.98248 6.15221 5.68292 9.90336L1.96655 14.1308C3.20055 15.5333 4.81799 16.2354 6.43595 16.2354C8.0539 16.2354 9.67084 15.5333 10.9053 14.1308ZM6.88407 11.2697C9.65132 8.12205 13.1105 5.7705 17.1806 4.2635L9.70419 12.765C8.83105 13.7572 7.67098 14.3047 6.43544 14.3047C5.79226 14.3047 5.16807 14.1553 4.59419 13.8728L6.88407 11.2697Z" fill="#097E52"/>
<path d="M9.26624 34.977L12.9831 39.2033C14.2171 37.7996 14.8341 35.9611 14.8341 34.1208C14.8341 32.2811 14.2171 30.4426 12.9831 29.0389L0.927002 15.3306L2.238 20.7784C3.60186 26.4475 5.96719 31.2258 9.26624 34.977ZM11.782 30.4046C13.1607 31.9723 13.4846 34.2912 12.7547 36.2126L10.4664 33.6107C7.69911 30.4636 5.63047 26.5309 4.30561 21.9025L11.782 30.4046Z" fill="#192335"/>
<path d="M30.581 24.6089C28.9635 24.6089 27.3456 25.311 26.1111 26.7141L14.0549 40.4219L18.8462 38.9318C23.8314 37.381 28.0329 34.6915 31.333 30.9404L35.0493 26.7141C34.4328 26.0132 33.7198 25.4861 32.9581 25.1348C32.1984 24.7846 31.3899 24.6089 30.581 24.6089ZM30.1323 29.5752C27.3646 32.7229 23.9059 35.075 19.8353 36.5808L27.3127 28.0793C28.1853 27.0865 29.3465 26.5396 30.581 26.5396C31.2247 26.5396 31.8483 26.689 32.4212 26.9715L30.1323 29.5752Z" fill="#097E52"/>
<path d="M24.0334 11.8059L36.0896 25.5136L34.7791 20.0658C33.4147 14.3967 31.0499 9.6195 27.7508 5.86835L24.034 1.64209C21.5649 4.44889 21.5649 8.99907 24.0334 11.8059ZM24.2624 4.63216L26.5502 7.23351C29.3175 10.3812 31.3866 14.3133 32.711 18.9417L25.2351 10.4407C23.8564 8.87359 23.5319 6.55356 24.2624 4.63216Z" fill="#192335"/>
<path d="M45.8963 21.0283C46.2315 21.3458 46.6087 21.5681 47.0271 21.6954C47.4459 21.822 47.8576 21.8856 48.2626 21.8856C48.7369 21.8856 49.1809 21.7782 49.5921 21.564C50.0032 21.3498 50.3636 21.0604 50.6706 20.695C50.9775 20.3296 51.2183 19.9135 51.3933 19.4448C51.5668 18.9767 51.6546 18.4806 51.6546 17.9571V16.9094H49.5192V17.7428C49.5192 18.0761 49.4771 18.3539 49.3934 18.5763C49.3093 18.7987 49.2051 18.9732 49.0793 19.0999C48.9392 19.2277 48.7888 19.3187 48.6286 19.3736C48.4679 19.4296 48.3181 19.4576 48.1789 19.4576C47.6898 19.4576 47.352 19.2907 47.1631 18.9574C46.9747 18.6242 46.8808 18.2121 46.8808 17.7195V9.0528C46.8808 8.4814 46.9675 8.00922 47.1426 7.63627C47.3161 7.26273 47.6692 7.07713 48.1995 7.07713C48.6045 7.07713 48.9253 7.25164 49.163 7.60066C49.4001 7.94969 49.5192 8.36234 49.5192 8.8386V9.64813H51.6546V8.69618C51.6546 8.10903 51.5673 7.56506 51.3933 7.06487C51.2183 6.56526 50.977 6.13277 50.6706 5.76682C50.0423 5.02091 49.2261 4.64795 48.2205 4.64795C47.7041 4.64795 47.2329 4.74776 46.8074 4.94561C46.3808 5.14406 46.0148 5.41837 45.7079 5.76682C45.4004 6.11643 45.1627 6.52907 44.9959 7.00534C44.8286 7.48102 44.7444 7.99755 44.7444 8.55261V17.8858C44.7444 18.6639 44.8522 19.3024 45.0683 19.8026C45.2854 20.3022 45.5606 20.7107 45.8963 21.0283Z" fill="#097E52"/>
<path d="M68.8033 8.79025C68.8033 8.10796 68.6991 7.50446 68.4891 6.98092C68.2802 6.45679 68.0082 6.02022 67.673 5.67178C67.3239 5.33792 66.9359 5.08462 66.5108 4.90952C66.0843 4.73559 65.6552 4.64746 65.2229 4.64746C64.7902 4.64746 64.3606 4.73559 63.9351 4.90952C63.5095 5.08462 63.1291 5.33792 62.794 5.67178C62.4449 6.02022 62.1657 6.45679 61.9562 6.98092C61.7468 7.50446 61.6421 8.10796 61.6421 8.79025V17.7424C61.6421 18.4568 61.7468 19.0678 61.9562 19.5756C62.1662 20.084 62.4454 20.5042 62.794 20.8375C63.1291 21.1871 63.5095 21.4486 63.9351 21.6231C64.3606 21.7976 64.7902 21.8852 65.2229 21.8852C65.6552 21.8852 66.0843 21.7976 66.5108 21.6231C66.9359 21.4486 67.3239 21.1865 67.673 20.8375C68.0082 20.5048 68.2802 20.084 68.4891 19.5756C68.6991 19.0678 68.8033 18.4568 68.8033 17.7424V8.79025ZM66.6679 17.7429C66.6679 18.3301 66.5242 18.7632 66.2383 19.0404C65.9524 19.3182 65.6136 19.4571 65.2229 19.4571C64.8318 19.4571 64.493 19.3182 64.2071 19.0404C63.9212 18.7632 63.7775 18.3301 63.7775 17.7429V8.79025C63.7775 8.20309 63.9212 7.7706 64.2071 7.49278C64.493 7.21496 64.8318 7.07664 65.2229 7.07664C65.6136 7.07664 65.9518 7.21555 66.2383 7.49278C66.5242 7.7706 66.6679 8.20309 66.6679 8.79025V17.7429Z" fill="#097E52"/>
<path d="M83.9012 13.7636H83.8591L81.116 4.7876H79.0632V21.7399H81.1996V11.4302H81.2417L83.335 18.7165H84.4032L86.518 11.4302H86.5601V21.7399H88.696V4.7876H86.6233L83.9012 13.7636Z" fill="#097E52"/>
<path d="M105.05 5.97825C104.687 5.53351 104.283 5.22417 103.836 5.04966C103.389 4.87514 102.873 4.7876 102.286 4.7876H99.0823V21.7399H101.219V15.1212H102.307C103.103 15.1212 103.745 14.966 104.233 14.6566C104.723 14.3473 105.113 13.9154 105.407 13.3592C105.658 12.8987 105.822 12.4066 105.899 11.8831C105.975 11.3596 106.014 10.7164 106.014 9.9547C106.014 8.93856 105.944 8.13311 105.805 7.5372C105.664 6.94245 105.413 6.423 105.05 5.97825ZM103.972 11.1448C103.951 11.4944 103.885 11.7874 103.773 12.0255C103.662 12.28 103.486 12.4778 103.25 12.6214C103.012 12.7638 102.676 12.8356 102.244 12.8356H101.219V7.07378H102.328C102.747 7.07378 103.068 7.14498 103.291 7.28798C103.515 7.43097 103.683 7.63759 103.794 7.90723C103.906 8.17747 103.969 8.49089 103.982 8.8475C103.996 9.2047 104.004 9.58233 104.004 9.97863C104.003 10.4065 103.993 10.7957 103.972 11.1448Z" fill="#097E52"/>
<path d="M117.573 4.7876L114.243 21.7399H116.379L117.007 18.0967H119.918L120.546 21.7399H122.682L119.352 4.7876H117.573ZM117.383 15.8117L118.431 9.66929H118.473L119.52 15.8117H117.383Z" fill="#097E52"/>
<path d="M139.474 21.7399V4.7876H137.338V15.0016H137.296L134.072 4.7876H132.02V21.7399H134.156V11.5498H134.197L137.464 21.7399H139.474Z" fill="#097E52"/>
<path d="M148.835 4.7876L151.766 14.5738V21.7399H153.902V14.5738L156.833 4.7876H154.571L152.854 11.5259H152.813L151.096 4.7876H148.835Z" fill="#097E52"/>
<path d="M45.8771 33.0474H46.5357V28.7913H47.7199V28.126H44.6924V28.7913H45.8771V33.0474Z" fill="#097E52"/>
<path d="M53.5969 31.9466L53.9321 33.0474H54.6241L53.0508 28.126H52.5015L50.9282 33.0474H51.6238L51.9554 31.9466H53.5969ZM52.772 29.1351H52.7839L53.4101 31.2853H52.1458L52.772 29.1351Z" fill="#097E52"/>
<path d="M59.353 29.1887C59.4228 29.0872 59.5136 29.0031 59.6265 28.9354C59.7369 28.8701 59.8699 28.8356 60.0244 28.8304C60.2343 28.8351 60.4119 28.9033 60.5587 29.0358C60.6989 29.1759 60.7964 29.3446 60.8492 29.5424H61.5443C61.4755 29.1304 61.3092 28.7854 61.0459 28.5065C60.7825 28.2298 60.4417 28.0891 60.0249 28.0845C59.6846 28.0891 59.4007 28.1808 59.1728 28.3611C58.9413 28.5386 58.7724 28.7411 58.6682 28.9687C58.6035 29.0884 58.5537 29.2448 58.5224 29.438C58.4932 29.6317 58.4783 30.014 58.4783 30.5854C58.4783 31.1481 58.4932 31.5286 58.5224 31.7265C58.5383 31.8327 58.5583 31.9203 58.582 31.9897C58.6076 32.0574 58.6353 32.128 58.6682 32.2027C58.7724 32.4298 58.9413 32.63 59.1728 32.8033C59.4002 32.9837 59.6846 33.0782 60.0249 33.087C60.4663 33.0776 60.8318 32.9078 61.1234 32.5769C61.4124 32.2442 61.5607 31.831 61.5684 31.3384V30.3356H60.0305V31.0413H60.9124V31.2981C60.9078 31.6062 60.8226 31.8549 60.6563 32.0434C60.4905 32.2418 60.2795 32.3405 60.0244 32.3405C59.8699 32.3405 59.7369 32.3037 59.6265 32.2296C59.5131 32.166 59.4228 32.0837 59.353 31.9833C59.2683 31.8776 59.2118 31.7387 59.1836 31.5683C59.1517 31.3973 59.1363 31.0699 59.1363 30.5854C59.1363 30.1016 59.1517 29.7724 59.1836 29.5967C59.2118 29.4304 59.2683 29.2944 59.353 29.1887Z" fill="#097E52"/>
<path d="M65.9814 28.126V33.0474H68.7451V32.3417H66.6374V28.126H65.9814Z" fill="#097E52"/>
<path d="M73.6663 28.126H73.0103V33.0474H73.6663V28.126Z" fill="#097E52"/>
<path d="M78.2258 28.126V33.0474H78.8818V29.5501H78.8936L80.8504 33.0474H81.4705V28.126H80.815V31.6227H80.8032L78.8433 28.126H78.2258Z" fill="#097E52"/>
<path d="M88.7966 28.8316V28.126H86.033V33.0474H88.7966V32.3417H86.6885V30.8972H88.4876V30.2359H86.6885V28.8316H88.7966Z" fill="#097E52"/>
<path d="M98.209 28.9692C98.1443 29.0888 98.095 29.2453 98.0637 29.4385C98.0339 29.6322 98.019 30.0145 98.019 30.5859C98.019 31.1486 98.0339 31.5291 98.0637 31.727C98.0796 31.8332 98.0996 31.9208 98.1232 31.9902C98.1489 32.0579 98.1777 32.1285 98.209 32.2032C98.3147 32.4303 98.4826 32.6305 98.7136 32.8038C98.9415 32.9842 99.2253 33.0787 99.5662 33.0875C100.007 33.0781 100.373 32.9083 100.664 32.5774C100.954 32.2447 101.101 31.8314 101.11 31.3388V30.3361H99.5718V31.0418H100.454V31.2986C100.45 31.6067 100.365 31.8554 100.199 32.0439C100.032 32.2423 99.8218 32.341 99.5667 32.341C99.4122 32.341 99.2797 32.3042 99.1683 32.2301C99.0559 32.1665 98.9651 32.0842 98.8953 31.9838C98.8106 31.8781 98.7536 31.7392 98.7259 31.5688C98.6946 31.3978 98.6781 31.0704 98.6781 30.5859C98.6781 30.1021 98.6946 29.7729 98.7259 29.5972C98.7536 29.4303 98.8106 29.2943 98.8953 29.1892C98.9646 29.0877 99.0559 29.0036 99.1683 28.9359C99.2797 28.8706 99.4122 28.8361 99.5667 28.8309C99.7766 28.8355 99.9547 28.9038 100.101 29.0363C100.241 29.1764 100.338 29.3451 100.392 29.5429H101.087C101.017 29.1309 100.851 28.7859 100.587 28.5069C100.324 28.2303 99.984 28.0896 99.5667 28.085C99.2258 28.0896 98.942 28.1813 98.7141 28.3616C98.4826 28.539 98.3142 28.7422 98.209 28.9692Z" fill="#097E52"/>
<path d="M105.564 28.9692C105.499 29.0888 105.451 29.2453 105.419 29.4385C105.389 29.6322 105.375 30.0145 105.375 30.5859C105.375 31.1486 105.389 31.5291 105.419 31.727C105.434 31.8332 105.454 31.9208 105.478 31.9902C105.504 32.0579 105.533 32.1285 105.564 32.2032C105.67 32.4303 105.838 32.6305 106.069 32.8038C106.296 32.9842 106.581 33.0787 106.921 33.0875C107.266 33.0781 107.553 32.9836 107.782 32.8038C108.01 32.6311 108.174 32.4303 108.275 32.2032C108.348 32.0836 108.398 31.9248 108.426 31.727C108.452 31.5291 108.464 31.1486 108.464 30.5859C108.464 30.0145 108.452 29.6322 108.426 29.4385C108.398 29.2453 108.348 29.0888 108.275 28.9692C108.174 28.7422 108.009 28.5396 107.782 28.3616C107.553 28.1813 107.266 28.0896 106.921 28.085C106.581 28.0896 106.297 28.1813 106.069 28.3616C105.838 28.539 105.67 28.7422 105.564 28.9692ZM106.082 29.5966C106.109 29.4297 106.166 29.2937 106.251 29.1887C106.32 29.0871 106.411 29.0031 106.524 28.9353C106.634 28.87 106.767 28.8355 106.922 28.8303C107.078 28.835 107.213 28.87 107.328 28.9353C107.437 29.0025 107.524 29.0865 107.589 29.1887C107.675 29.2943 107.733 29.4303 107.765 29.5966C107.795 29.7723 107.809 30.1021 107.809 30.5853C107.809 31.0698 107.794 31.3966 107.765 31.5682C107.732 31.7386 107.674 31.8776 107.589 31.9832C107.524 32.0842 107.437 32.1659 107.328 32.2295C107.213 32.3036 107.078 32.3404 106.922 32.3404C106.767 32.3404 106.634 32.3036 106.524 32.2295C106.411 32.1659 106.32 32.0836 106.251 31.9832C106.166 31.8776 106.109 31.7386 106.082 31.5682C106.05 31.3972 106.033 31.0698 106.033 30.5853C106.033 30.1021 106.05 29.7729 106.082 29.5966Z" fill="#097E52"/>
<path d="M112.878 33.0474H115.643V32.3417H113.534V30.8972H115.334V30.2359H113.534V28.8316H115.643V28.126H112.878V33.0474Z" fill="#097E52"/>
<path d="M121.191 32.3419C120.716 32.3378 120.306 32.1744 119.961 31.8528L119.531 32.4131C119.992 32.8631 120.543 33.0884 121.185 33.0884C122.177 33.0749 122.683 32.5975 122.704 31.6572C122.704 31.3082 122.608 31.0018 122.416 30.7391C122.222 30.4712 121.923 30.3061 121.517 30.243C121.311 30.2133 121.149 30.1882 121.03 30.1654C120.816 30.1205 120.661 30.0393 120.564 29.9226C120.467 29.8076 120.419 29.6792 120.419 29.538C120.422 29.3016 120.495 29.1242 120.635 29.0045C120.77 28.8895 120.938 28.8323 121.14 28.8323C121.53 28.8417 121.887 28.9672 122.212 29.2105L122.577 28.596C122.179 28.2697 121.711 28.0998 121.173 28.0864C120.725 28.0911 120.38 28.2236 120.136 28.4845C119.885 28.7483 119.759 29.0944 119.759 29.5245C119.759 29.8823 119.86 30.1858 120.059 30.4356C120.253 30.679 120.537 30.8349 120.908 30.9049C121.116 30.9387 121.307 30.9685 121.481 30.996C121.861 31.0701 122.049 31.2901 122.045 31.6572C122.038 32.1049 121.753 32.3331 121.191 32.3419Z" fill="#097E52"/>
<path d="M135.175 33.0474V28.126H134.519V30.2359H132.806V28.126H132.15V33.0474H132.806V30.8972H134.519V33.0474H135.175Z" fill="#097E52"/>
<path d="M142.501 28.8316V28.126H139.737V33.0474H142.501V32.3417H140.394V30.8972H142.192V30.2359H140.394V28.8316H142.501Z" fill="#097E52"/>
<path d="M149.767 29.4999C149.755 29.0452 149.612 28.695 149.337 28.4499C149.11 28.2334 148.816 28.126 148.455 28.126H146.765V33.0474H147.422V30.9444H148.259L149.152 33.0474H149.933L148.929 30.8639C149.48 30.6229 149.759 30.1682 149.767 29.4999ZM148.966 30.0404C148.843 30.1974 148.658 30.2791 148.414 30.2832H147.422V28.7913H148.449C148.658 28.7913 148.819 28.8421 148.93 28.9431C149.07 29.0575 149.143 29.2437 149.147 29.5005C149.147 29.7135 149.087 29.8939 148.966 30.0404Z" fill="#097E52"/>
<path d="M156.886 28.8316V28.126H154.122V33.0474H156.886V32.3417H154.778V30.8972H156.576V30.2359H154.778V28.8316H156.886Z" fill="#097E52"/>
</svg>
