<svg width="195" height="41" viewBox="0 0 195 41" fill="none" xmlns="http://www.w3.org/2000/svg">
<path d="M24.9016 9.11532L29.6528 16.3826C30.1892 16.3738 30.7283 16.3702 31.2707 16.3702C32.6609 16.3702 34.033 16.3974 35.3837 16.4512L24.9023 0.421875L13.385 18.0358C15.3853 17.6332 17.5067 17.2961 19.7253 17.033L24.9016 9.11532ZM16.3737 16.139L24.9016 3.09619L32.7124 15.0422C32.2316 15.0351 31.7495 15.0322 31.2707 15.0322C31.0229 15.0322 30.7738 15.0333 30.5213 15.0351L26.2135 8.44601L24.9016 6.43983L23.5891 8.44601L18.7824 15.7973C17.9701 15.9007 17.1652 16.0148 16.3737 16.139Z" fill="#192335"/>
<path d="M17.8381 40.4218C11.8976 38.117 8.26744 35.0317 8.26744 31.6426C8.26744 30.515 8.66923 29.4212 9.42527 28.3776H43.1816L37.0316 18.9728C39.3713 18.8014 41.7941 18.7109 44.2758 18.7109C47.6181 18.7109 50.8545 18.8747 53.9248 19.181C53.748 19.1307 53.5659 19.0822 53.3857 19.0332C53.5659 19.0822 53.7487 19.1301 53.9248 19.1804C54.1311 19.2011 54.336 19.2218 54.5409 19.2437C53.9991 19.1224 53.4494 19.0071 52.8882 18.8966L52.8869 18.896C47.8725 17.9086 42.1035 17.3439 35.9635 17.3374C35.9266 17.3374 35.8905 17.3374 35.8537 17.3374C34.4561 17.3374 33.078 17.3664 31.7233 17.4231C31.2719 17.4421 30.8226 17.4639 30.3766 17.4888C26.0982 17.7253 22.0763 18.2367 18.4582 18.9687C18.1455 19.032 17.8361 19.097 17.5294 19.1633C15.3845 19.6292 13.3916 20.1743 11.5835 20.7881C4.91384 23.0485 0.761353 26.2325 0.761353 29.76C0.760683 34.2885 7.60718 38.2512 17.8381 40.4218ZM31.7058 19.5216L34.6536 24.0306H15.1642C19.2919 21.9984 25.0301 20.4138 31.7058 19.5216Z" fill="#097E52"/>
<path d="M65.5956 18.6623C66.0918 18.4619 66.525 18.1911 66.8953 17.8487C67.2657 17.507 67.5556 17.1173 67.7666 16.6786C67.9768 16.2405 68.082 15.7763 68.082 15.2862V14.3053H65.5072V15.0852C65.5072 15.3973 65.4569 15.6575 65.3558 15.865C65.2547 16.0732 65.1288 16.2363 64.9775 16.3552C64.8094 16.4746 64.6279 16.5598 64.4344 16.6118C64.2408 16.6638 64.06 16.6899 63.8913 16.6899C63.3027 16.6899 62.8949 16.5338 62.6672 16.2216C62.4402 15.9094 62.3263 15.5233 62.3263 15.0627V6.95045C62.3263 6.41535 62.4308 5.97368 62.6417 5.62365C62.8513 5.27539 63.2766 5.10037 63.9161 5.10037C64.4042 5.10037 64.7906 5.26416 65.0773 5.59113C65.3632 5.9181 65.5065 6.3042 65.5065 6.75002V7.50744H68.0813V6.6164C68.0813 6.06652 67.9762 5.55743 67.7659 5.08974C67.5556 4.62145 67.265 4.21642 66.8947 3.87526C66.138 3.17697 65.1529 2.82812 63.9415 2.82812C63.3187 2.82812 62.7509 2.92096 62.2379 3.10662C61.7243 3.29228 61.283 3.54888 60.9127 3.87526C60.5424 4.20223 60.2564 4.58833 60.0542 5.03415C59.8526 5.47996 59.7509 5.96304 59.7509 6.48276V15.2188C59.7509 15.9466 59.8814 16.545 60.1426 17.0127C60.4031 17.481 60.7359 17.8635 61.1397 18.1603C61.5435 18.4578 61.9975 18.6653 62.5024 18.7841C63.0074 18.903 63.5029 18.9627 63.9917 18.9627C64.5643 18.9633 65.0987 18.8628 65.5956 18.6623Z" fill="#192335"/>
<path d="M88.7533 6.70579C88.7533 6.06663 88.6274 5.50255 88.375 5.01238C88.1225 4.52163 87.7944 4.11306 87.3906 3.78609C86.97 3.4739 86.5033 3.2368 85.9903 3.07302C85.4767 2.90983 84.9591 2.82764 84.4381 2.82764C83.9164 2.82764 83.3988 2.90924 82.8858 3.07302C82.3722 3.2368 81.9142 3.4739 81.5104 3.78609C81.0898 4.11306 80.753 4.52163 80.5005 5.01238C80.2481 5.50255 80.1222 6.06722 80.1222 6.70579V15.0853C80.1222 15.754 80.2481 16.3263 80.5005 16.8011C80.753 17.2771 81.0892 17.6703 81.5104 17.9819C81.9142 18.3089 82.3722 18.5542 82.8858 18.718C83.3988 18.8812 83.9164 18.9634 84.4381 18.9634C84.9597 18.9634 85.4767 18.8812 85.9903 18.718C86.5033 18.5548 86.97 18.3095 87.3906 17.9819C87.7944 17.6703 88.1225 17.2771 88.375 16.8011C88.6274 16.3257 88.7533 15.754 88.7533 15.0853V6.70579ZM86.1785 15.0858C86.1785 15.6357 86.0057 16.0402 85.6615 16.3003C85.3167 16.5605 84.9082 16.6906 84.4374 16.6906C83.966 16.6906 83.5582 16.5605 83.2133 16.3003C82.8684 16.0402 82.6963 15.6351 82.6963 15.0858V6.70637C82.6963 6.15708 82.8684 5.75206 83.2133 5.49191C83.5582 5.23234 83.9667 5.10167 84.4374 5.10167C84.9082 5.10167 85.3167 5.23234 85.6615 5.49191C86.0064 5.75206 86.1785 6.15708 86.1785 6.70637V15.0858Z" fill="#192335"/>
<path d="M106.952 11.3634H106.901L103.595 2.96143H101.121V18.8293H103.696V9.17921H103.746L106.27 15.9989H107.558L110.107 9.17921H110.157V18.8293H112.732V2.96143H110.233L106.952 11.3634Z" fill="#192335"/>
<path d="M132.445 4.07596C132.007 3.66029 131.519 3.37057 130.98 3.20679C130.442 3.0436 129.82 2.96143 129.112 2.96143H125.251V18.8293H127.825V12.6334H129.138C130.097 12.6334 130.871 12.4885 131.46 12.1988C132.049 11.9091 132.52 11.5047 132.873 10.9844C133.177 10.5533 133.374 10.0927 133.467 9.60257C133.559 9.11181 133.606 8.51048 133.606 7.79682C133.606 6.84665 133.521 6.09219 133.353 5.53463C133.185 4.97824 132.883 4.49221 132.445 4.07596ZM131.145 8.91196C131.119 9.23894 131.04 9.51387 130.905 9.73678C130.771 9.97447 130.56 10.1595 130.274 10.2938C129.988 10.428 129.585 10.4942 129.063 10.4942H127.826V5.10063H129.163C129.668 5.10063 130.055 5.16745 130.325 5.30108C130.593 5.43471 130.795 5.62863 130.93 5.88051C131.064 6.13358 131.14 6.42686 131.157 6.76092C131.174 7.09499 131.182 7.44856 131.182 7.81928C131.183 8.22076 131.17 8.58499 131.145 8.91196Z" fill="#192335"/>
<path d="M147.539 2.96143L143.525 18.8293H146.1L146.858 15.4195H150.366L151.123 18.8293H153.697L149.684 2.96143H147.539ZM147.312 13.2797L148.574 7.52957H148.624L149.886 13.2797H147.312Z" fill="#192335"/>
<path d="M173.941 18.8293V2.96143H171.366V12.5223H171.316L167.429 2.96143H164.955V18.8293H167.529V9.29037H167.58L171.517 18.8293H173.941Z" fill="#192335"/>
<path d="M191.33 18.8293V12.1208L194.865 2.96143H192.139L190.069 9.2685H190.018L187.949 2.96143H185.222L188.757 12.1208V18.8293H191.33Z" fill="#192335"/>
<path d="M61.9118 29.4114V25.4268H63.3389V24.8042H59.6899V25.4268H61.1176V29.4114H61.9118Z" fill="#192335"/>
<path d="M69.1038 24.8042L67.2074 29.4114H68.0445L68.4449 28.3814H70.4237L70.8282 29.4114H71.6619L69.7648 24.8042H69.1038ZM68.6739 27.7617L69.4286 25.749H69.4433L70.198 27.7617H68.6739Z" fill="#192335"/>
<path d="M77.3613 25.8005C77.445 25.7059 77.5542 25.6267 77.6908 25.5634C77.8241 25.5019 77.9841 25.4694 78.1703 25.4653C78.4234 25.4694 78.6377 25.5339 78.8145 25.658C78.9839 25.7887 79.1011 25.9466 79.1647 26.1316H80.0018C79.918 25.7467 79.7178 25.4233 79.4011 25.162C79.0837 24.903 78.6739 24.7711 78.1703 24.7676C77.7598 24.7717 77.4176 24.858 77.143 25.0265C76.8638 25.1927 76.6609 25.3825 76.5343 25.5948C76.456 25.7065 76.3977 25.8531 76.3595 26.0341C76.3234 26.2156 76.3053 26.5733 76.3053 27.1078C76.3053 27.6346 76.3234 27.9906 76.3595 28.1762C76.3783 28.275 76.4024 28.3578 76.4312 28.4228C76.462 28.4855 76.4968 28.5523 76.5343 28.6215C76.6609 28.8343 76.8644 29.0218 77.143 29.1838C77.4176 29.3523 77.7598 29.4404 78.1703 29.4493C78.702 29.4404 79.1433 29.2813 79.4942 28.9721C79.8424 28.6605 80.0218 28.2732 80.0305 27.8126V26.8743H78.177V27.5347H79.2397V27.7748C79.235 28.0633 79.1326 28.2957 78.9323 28.4731C78.7314 28.6581 78.4776 28.751 78.1696 28.751C77.9834 28.751 77.8234 28.7161 77.6901 28.6469C77.5535 28.5878 77.4444 28.5109 77.3607 28.4157C77.2582 28.317 77.1899 28.1869 77.1571 28.0272C77.1189 27.867 77.1002 27.5601 77.1002 27.1072C77.1002 26.6549 77.1189 26.3457 77.1571 26.1819C77.1912 26.027 77.2595 25.8993 77.3613 25.8005Z" fill="#192335"/>
<path d="M85.3516 24.8042V29.4114H88.6831V28.7503H86.1424V24.8042H85.3516Z" fill="#192335"/>
<path d="M94.6153 24.8042H93.8245V29.4114H94.6153V24.8042Z" fill="#192335"/>
<path d="M100.111 24.8042V29.4114H100.902V26.1381H100.916L103.275 29.4114H104.022V24.8042H103.232V28.0781H103.217L100.855 24.8042H100.111Z" fill="#192335"/>
<path d="M112.853 25.4647V24.8042H109.521V29.4114H112.853V28.7503H110.312V27.3981H112.481V26.779H110.312V25.4647H112.853Z" fill="#192335"/>
<path d="M124.199 25.5945C124.12 25.7062 124.061 25.8529 124.023 26.0338C123.988 26.2153 123.969 26.573 123.969 27.1075C123.969 27.6344 123.988 27.9903 124.023 28.176C124.042 28.2747 124.066 28.3575 124.095 28.4225C124.126 28.4852 124.16 28.552 124.199 28.6212C124.325 28.834 124.527 29.0215 124.807 29.1835C125.081 29.352 125.423 29.4401 125.834 29.449C126.365 29.4401 126.807 29.2811 127.158 28.9718C127.506 28.6602 127.685 28.2729 127.694 27.8123V26.874H125.841V27.5344H126.904V27.7745C126.899 28.063 126.796 28.2954 126.597 28.4728C126.396 28.6579 126.142 28.7507 125.834 28.7507C125.648 28.7507 125.488 28.7158 125.355 28.6466C125.219 28.5875 125.109 28.5106 125.026 28.4154C124.923 28.3167 124.855 28.1866 124.821 28.027C124.783 27.8667 124.764 27.5599 124.764 27.107C124.764 26.6546 124.783 26.3454 124.821 26.1816C124.855 26.0255 124.923 25.8984 125.026 25.7991C125.109 25.7045 125.219 25.6252 125.355 25.562C125.488 25.5005 125.648 25.4679 125.834 25.4638C126.087 25.4679 126.302 25.5324 126.479 25.6566C126.647 25.7872 126.765 25.9451 126.829 26.1302H127.667C127.583 25.7453 127.383 25.4218 127.065 25.1605C126.748 24.9015 126.338 24.7697 125.834 24.7661C125.424 24.7703 125.082 24.8566 124.807 25.0251C124.528 25.1924 124.325 25.3822 124.199 25.5945Z" fill="#192335"/>
<path d="M133.065 25.5948C132.987 25.7065 132.928 25.8531 132.891 26.0341C132.854 26.2156 132.836 26.5733 132.836 27.1078C132.836 27.6346 132.854 27.9906 132.891 28.1762C132.909 28.275 132.933 28.3578 132.962 28.4228C132.993 28.4855 133.028 28.5523 133.065 28.6215C133.192 28.8343 133.395 29.0218 133.674 29.1838C133.949 29.3523 134.291 29.4404 134.701 29.4493C135.116 29.4404 135.462 29.3523 135.739 29.1838C136.014 29.0218 136.211 28.8343 136.333 28.6215C136.422 28.5103 136.483 28.3613 136.516 28.1762C136.547 27.9906 136.562 27.6346 136.562 27.1078C136.562 26.5727 136.547 26.215 136.516 26.0341C136.483 25.8531 136.422 25.7065 136.333 25.5948C136.211 25.3825 136.014 25.1927 135.739 25.0265C135.462 24.858 135.116 24.7717 134.701 24.7676C134.291 24.7717 133.949 24.858 133.674 25.0265C133.395 25.1927 133.192 25.3825 133.065 25.5948ZM133.688 26.1831C133.722 26.027 133.789 25.8998 133.892 25.8005C133.976 25.7059 134.085 25.6267 134.222 25.5634C134.355 25.5019 134.515 25.4694 134.701 25.4653C134.889 25.4694 135.054 25.5019 135.191 25.5634C135.323 25.6261 135.428 25.7059 135.506 25.8005C135.609 25.8993 135.679 26.027 135.717 26.1831C135.753 26.3468 135.771 26.6561 135.771 27.1084C135.771 27.5613 135.753 27.8682 135.717 28.0284C135.679 28.1881 135.609 28.3182 135.506 28.4169C135.428 28.5121 135.323 28.5889 135.191 28.6481C135.054 28.7173 134.889 28.7521 134.701 28.7521C134.515 28.7521 134.355 28.7173 134.222 28.6481C134.085 28.5889 133.976 28.5121 133.892 28.4169C133.79 28.3182 133.722 28.1881 133.688 28.0284C133.65 27.8682 133.631 27.5613 133.631 27.1084C133.631 26.6561 133.65 26.3468 133.688 26.1831Z" fill="#192335"/>
<path d="M141.882 29.4114H145.213V28.7503H142.673V27.3981H144.841V26.779H142.673V25.4647H145.213V24.8042H141.882V29.4114Z" fill="#192335"/>
<path d="M151.9 28.7506C151.327 28.7464 150.834 28.5939 150.419 28.2929L149.9 28.8174C150.455 29.2384 151.12 29.4494 151.893 29.4494C153.089 29.437 153.699 28.99 153.725 28.1096C153.725 27.7827 153.61 27.4965 153.378 27.2499C153.144 26.9992 152.782 26.8443 152.294 26.7858C152.045 26.758 151.85 26.7338 151.707 26.7131C151.45 26.6711 151.262 26.5948 151.145 26.4854C151.029 26.3778 150.97 26.2578 150.97 26.1253C150.974 25.9042 151.062 25.7381 151.231 25.6257C151.394 25.5181 151.596 25.4649 151.84 25.4649C152.31 25.4732 152.74 25.5914 153.131 25.8191L153.571 25.2438C153.092 24.9381 152.527 24.779 151.878 24.7666C151.339 24.7707 150.924 24.8949 150.63 25.1391C150.327 25.3857 150.176 25.7103 150.176 26.1123C150.176 26.447 150.296 26.7314 150.537 26.9655C150.771 27.1932 151.112 27.3392 151.56 27.4049C151.811 27.4362 152.041 27.4646 152.251 27.49C152.71 27.5598 152.936 27.7655 152.931 28.109C152.922 28.5283 152.578 28.7423 151.9 28.7506Z" fill="#192335"/>
<path d="M168.757 29.4114V24.8042H167.966V26.779H165.902V24.8042H165.111V29.4114H165.902V27.3981H167.966V29.4114H168.757Z" fill="#192335"/>
<path d="M177.588 25.4647V24.8042H174.256V29.4114H177.588V28.7503H175.047V27.3981H177.215V26.779H175.047V25.4647H177.588Z" fill="#192335"/>
<path d="M185.338 27.3668C186.001 27.1415 186.337 26.7158 186.347 26.0902C186.333 25.6645 186.16 25.3375 185.828 25.1075C185.554 24.9053 185.2 24.8042 184.766 24.8042H182.73V29.4114H183.52V27.4424H184.53L185.606 29.4114H186.548L185.338 27.3668ZM183.52 26.8234V25.4268H184.758C185.011 25.4268 185.204 25.4741 185.338 25.5693C185.506 25.6769 185.594 25.8507 185.599 26.0908C185.599 26.2906 185.526 26.4592 185.381 26.5963C185.233 26.7442 185.011 26.8192 184.715 26.824L183.52 26.8234Z" fill="#192335"/>
<path d="M194.927 25.4647V24.8042H191.596V29.4114H194.927V28.7503H192.386V27.3981H194.555V26.779H192.386V25.4647H194.927Z" fill="#192335"/>
</svg>
