<svg width="157" height="41" viewBox="0 0 157 41" fill="none" xmlns="http://www.w3.org/2000/svg">
<path d="M51.1379 22.9812C51.457 23.2987 51.8162 23.5211 52.2145 23.6483C52.6132 23.7749 53.0051 23.8386 53.3907 23.8386C53.8423 23.8386 54.265 23.7312 54.6564 23.517C55.0478 23.3028 55.3909 23.0133 55.6831 22.6479C55.9754 22.2825 56.2046 21.8664 56.3712 21.3977C56.5364 20.9296 56.6199 20.4335 56.6199 19.9099V18.8622H54.587V19.6957C54.587 20.029 54.5469 20.3068 54.4673 20.5292C54.3871 20.7516 54.2879 20.9261 54.1682 21.0527C54.0348 21.1806 53.8916 21.2716 53.7391 21.3265C53.5862 21.3825 53.4435 21.4105 53.3111 21.4105C52.8453 21.4105 52.5238 21.2436 52.3439 20.9103C52.1646 20.577 52.0752 20.165 52.0752 19.6724V11.0055C52.0752 10.4341 52.1578 9.96192 52.3244 9.58896C52.4896 9.21541 52.8258 9.0298 53.3306 9.0298C53.7162 9.0298 54.0216 9.20432 54.2479 9.55335C54.4736 9.90238 54.587 10.315 54.587 10.7913V11.6009H56.6199V10.6489C56.6199 10.0617 56.5369 9.51775 56.3712 9.01754C56.2046 8.51793 55.9749 8.08543 55.6831 7.71947C55.085 6.97355 54.308 6.60059 53.3506 6.60059C52.859 6.60059 52.4104 6.70039 52.0053 6.89826C51.5992 7.0967 51.2508 7.37102 50.9585 7.71947C50.6658 8.06909 50.4395 8.48174 50.2807 8.95801C50.1214 9.4337 50.0413 9.95024 50.0413 10.5053V19.8387C50.0413 20.6167 50.1439 21.2553 50.3496 21.7555C50.5563 22.2551 50.8183 22.6636 51.1379 22.9812Z" fill="#097E52"/>
<path d="M72.9461 10.743C72.9461 10.0607 72.8469 9.45714 72.647 8.93359C72.4481 8.40946 72.1891 7.97288 71.87 7.62443C71.5377 7.29057 71.1682 7.03726 70.7636 6.86216C70.3575 6.68823 69.949 6.6001 69.5375 6.6001C69.1255 6.6001 68.7165 6.68823 68.3114 6.86216C67.9063 7.03726 67.5441 7.29057 67.225 7.62443C66.8927 7.97288 66.6269 8.40946 66.4275 8.93359C66.2281 9.45714 66.1284 10.0607 66.1284 10.743V19.6952C66.1284 20.4096 66.2281 21.0207 66.4275 21.5285C66.6274 22.0369 66.8932 22.4571 67.225 22.7904C67.5441 23.14 67.9063 23.4015 68.3114 23.576C68.7165 23.7505 69.1255 23.8381 69.5375 23.8381C69.949 23.8381 70.3575 23.7505 70.7636 23.576C71.1682 23.4015 71.5377 23.1394 71.87 22.7904C72.1891 22.4577 72.4481 22.0369 72.647 21.5285C72.8469 21.0207 72.9461 20.4096 72.9461 19.6952V10.743ZM70.9131 19.6958C70.9131 20.283 70.7763 20.716 70.5041 20.9933C70.2319 21.2711 69.9094 21.41 69.5375 21.41C69.1651 21.41 68.8426 21.2711 68.5704 20.9933C68.2982 20.716 68.1614 20.283 68.1614 19.6958V10.743C68.1614 10.1558 68.2982 9.72329 68.5704 9.44547C68.8426 9.16764 69.1651 9.02932 69.5375 9.02932C69.9094 9.02932 70.2314 9.16823 70.5041 9.44547C70.7763 9.72329 70.9131 10.1558 70.9131 10.743V19.6958Z" fill="#097E52"/>
<path d="M87.32 15.7189H87.2799L84.6684 6.74268H82.7141V23.6952H84.748V13.3854H84.7881L86.7809 20.6719H87.7979L89.8113 13.3854H89.8514V23.6952H91.8848V6.74268H89.9115L87.32 15.7189Z" fill="#097E52"/>
<path d="M107.454 7.93335C107.108 7.4886 106.723 7.17926 106.298 7.00474C105.873 6.83022 105.381 6.74268 104.823 6.74268H101.772V23.6952H103.806V17.0765H104.843C105.6 17.0765 106.211 16.9212 106.676 16.6119C107.142 16.3025 107.513 15.8706 107.793 15.3144C108.033 14.8539 108.189 14.3618 108.261 13.8383C108.334 13.3147 108.371 12.6715 108.371 11.9099C108.371 10.8937 108.305 10.0882 108.172 9.49232C108.039 8.89757 107.8 8.3781 107.454 7.93335ZM106.427 13.1C106.407 13.4496 106.344 13.7426 106.238 13.9807C106.132 14.2352 105.965 14.4331 105.74 14.5766C105.514 14.719 105.194 14.7908 104.783 14.7908H103.806V9.02889H104.862C105.261 9.02889 105.567 9.1001 105.779 9.2431C105.992 9.3861 106.152 9.59271 106.258 9.86236C106.365 10.1326 106.425 10.446 106.437 10.8026C106.45 11.1599 106.458 11.5375 106.458 11.9338C106.457 12.3616 106.447 12.7509 106.427 13.1Z" fill="#097E52"/>
<path d="M119.376 6.74268L116.206 23.6952H118.239L118.837 20.052H121.609L122.207 23.6952H124.24L121.07 6.74268H119.376ZM119.196 17.767L120.193 11.6245H120.233L121.229 17.767H119.196Z" fill="#097E52"/>
<path d="M140.227 23.6952V6.74268H138.193V16.9568H138.153L135.084 6.74268H133.129V23.6952H135.164V13.505H135.203L138.313 23.6952H140.227Z" fill="#097E52"/>
<path d="M149.139 6.74268L151.93 16.529V23.6952H153.962V16.529L156.753 6.74268H154.6L152.966 13.4811H152.926L151.291 6.74268H149.139Z" fill="#097E52"/>
<path d="M51.1201 35.0006H51.7471V30.7445H52.8745V30.0791H49.9922V30.7445H51.1201V35.0006Z" fill="#097E52"/>
<path d="M58.4691 33.8998L58.7883 35.0006H59.447L57.9492 30.0791H57.4263L55.9285 35.0006H56.5906L56.9063 33.8998H58.4691ZM57.6838 31.0883H57.6951L58.2913 33.2385H57.0876L57.6838 31.0883Z" fill="#097E52"/>
<path d="M63.9494 31.1424C64.0159 31.0408 64.1024 30.9568 64.2099 30.8891C64.315 30.8237 64.4415 30.7893 64.5886 30.784C64.7885 30.7887 64.9576 30.857 65.0973 30.9895C65.2308 31.1295 65.3236 31.2982 65.3739 31.4961H66.0356C65.9701 31.084 65.8118 30.7391 65.5611 30.4601C65.3104 30.1834 64.9859 30.0428 64.5891 30.0381C64.2651 30.0428 63.9949 30.1344 63.7779 30.3147C63.5575 30.4922 63.3967 30.6947 63.2975 30.9223C63.2359 31.042 63.1885 31.1984 63.1587 31.3916C63.1309 31.5854 63.1167 31.9677 63.1167 32.5391C63.1167 33.1017 63.1309 33.4823 63.1587 33.6802C63.1739 33.7864 63.1929 33.8739 63.2154 33.9434C63.2398 34.0111 63.2662 34.0817 63.2975 34.1564C63.3967 34.3835 63.5575 34.5837 63.7779 34.757C63.9944 34.9374 64.2651 35.0319 64.5891 35.0407C65.0094 35.0313 65.3573 34.8615 65.6349 34.5306C65.91 34.1979 66.0512 33.7846 66.0586 33.292V32.2893H64.5945V32.9949H65.434V33.2517C65.4296 33.5599 65.3485 33.8086 65.1902 33.9971C65.0324 34.1955 64.8315 34.2942 64.5886 34.2942C64.4415 34.2942 64.315 34.2574 64.2099 34.1833C64.1019 34.1197 64.0159 34.0374 63.9494 33.937C63.8688 33.8313 63.815 33.6924 63.7881 33.522C63.7579 33.351 63.7432 33.0235 63.7432 32.5391C63.7432 32.0552 63.7579 31.726 63.7881 31.5504C63.815 31.384 63.8688 31.248 63.9494 31.1424Z" fill="#097E52"/>
<path d="M70.2598 30.0791V35.0006H72.8908V34.2949H70.8843V30.0791H70.2598Z" fill="#097E52"/>
<path d="M77.5759 30.0791H76.9514V35.0006H77.5759V30.0791Z" fill="#097E52"/>
<path d="M81.9165 30.0791V35.0006H82.541V31.5032H82.5523L84.4152 35.0006H85.0055V30.0791H84.3814V33.5758H84.3702L82.5044 30.0791H81.9165Z" fill="#097E52"/>
<path d="M91.9804 30.7848V30.0791H89.3494V35.0006H91.9804V34.2949H89.9734V32.8503H91.6863V32.1891H89.9734V30.7848H91.9804Z" fill="#097E52"/>
<path d="M100.941 30.9228C100.879 31.0425 100.832 31.1989 100.803 31.3921C100.774 31.5859 100.76 31.9682 100.76 32.5396C100.76 33.1022 100.774 33.4828 100.803 33.6807C100.818 33.7869 100.837 33.8744 100.859 33.9439C100.884 34.0116 100.911 34.0822 100.941 34.1569C101.041 34.384 101.201 34.5842 101.421 34.7575C101.638 34.9379 101.908 35.0324 102.233 35.0412C102.653 35.0318 103.001 34.862 103.278 34.5311C103.554 34.1984 103.695 33.7851 103.702 33.2925V32.2898H102.238V32.9954H103.078V33.2522C103.074 33.5604 102.993 33.8091 102.835 33.9976C102.676 34.196 102.476 34.2947 102.233 34.2947C102.086 34.2947 101.96 34.2579 101.854 34.1838C101.747 34.1202 101.661 34.0379 101.594 33.9375C101.514 33.8318 101.459 33.6929 101.433 33.5225C101.403 33.3515 101.387 33.024 101.387 32.5396C101.387 32.0557 101.403 31.7265 101.433 31.5509C101.459 31.3839 101.514 31.2479 101.594 31.1429C101.66 31.0413 101.747 30.9573 101.854 30.8896C101.96 30.8242 102.086 30.7898 102.233 30.7845C102.433 30.7892 102.603 30.8575 102.742 30.99C102.876 31.13 102.968 31.2987 103.019 31.4966H103.68C103.614 31.0845 103.456 30.7396 103.205 30.4606C102.955 30.1839 102.631 30.0432 102.233 30.0386C101.909 30.0432 101.639 30.1349 101.422 30.3152C101.201 30.4927 101.041 30.6958 100.941 30.9228Z" fill="#097E52"/>
<path d="M107.944 30.9228C107.882 31.0425 107.836 31.1989 107.806 31.3921C107.777 31.5859 107.763 31.9682 107.763 32.5396C107.763 33.1022 107.777 33.4828 107.806 33.6807C107.82 33.7869 107.839 33.8744 107.862 33.9439C107.886 34.0116 107.914 34.0822 107.944 34.1569C108.044 34.384 108.204 34.5842 108.424 34.7575C108.64 34.9379 108.912 35.0324 109.236 35.0412C109.564 35.0318 109.837 34.9373 110.055 34.7575C110.272 34.5847 110.428 34.384 110.524 34.1569C110.594 34.0373 110.642 33.8785 110.668 33.6807C110.693 33.4828 110.705 33.1022 110.705 32.5396C110.705 31.9682 110.693 31.5859 110.668 31.3921C110.642 31.1989 110.594 31.0425 110.524 30.9228C110.428 30.6958 110.271 30.4932 110.055 30.3152C109.837 30.1349 109.564 30.0432 109.236 30.0386C108.912 30.0432 108.641 30.1349 108.424 30.3152C108.204 30.4927 108.044 30.6958 107.944 30.9228ZM108.436 31.5503C108.462 31.3833 108.516 31.2473 108.597 31.1423C108.663 31.0407 108.749 30.9567 108.857 30.889C108.962 30.8236 109.089 30.7892 109.236 30.7839C109.385 30.7886 109.514 30.8236 109.623 30.889C109.727 30.9561 109.809 31.0401 109.871 31.1423C109.953 31.2479 110.008 31.3839 110.039 31.5503C110.067 31.7259 110.081 32.0557 110.081 32.539C110.081 33.0234 110.066 33.3503 110.039 33.5219C110.008 33.6923 109.952 33.8312 109.871 33.9369C109.81 34.0379 109.727 34.1196 109.623 34.1832C109.514 34.2573 109.385 34.2941 109.236 34.2941C109.089 34.2941 108.962 34.2573 108.857 34.1832C108.749 34.1196 108.663 34.0373 108.597 33.9369C108.516 33.8312 108.462 33.6923 108.436 33.5219C108.406 33.3509 108.39 33.0234 108.39 32.539C108.39 32.0557 108.406 31.7265 108.436 31.5503Z" fill="#097E52"/>
<path d="M114.907 35.0006H117.539V34.2949H115.532V32.8503H117.245V32.1891H115.532V30.7848H117.539V30.0791H114.907V35.0006Z" fill="#097E52"/>
<path d="M122.82 34.2951C122.368 34.291 121.978 34.1275 121.65 33.8059L121.24 34.3663C121.679 34.8163 122.204 35.0416 122.815 35.0416C123.759 35.0281 124.241 34.5507 124.261 33.6104C124.261 33.2614 124.169 32.955 123.987 32.6923C123.802 32.4244 123.517 32.2592 123.13 32.1962C122.935 32.1664 122.781 32.1413 122.667 32.1186C122.464 32.0736 122.316 31.9925 122.223 31.8758C122.131 31.7608 122.085 31.6324 122.085 31.4911C122.089 31.2547 122.158 31.0773 122.291 30.9577C122.419 30.8427 122.58 30.7855 122.772 30.7855C123.143 30.7948 123.483 30.9203 123.792 31.1637L124.14 30.5491C123.761 30.2228 123.315 30.053 122.803 30.0396C122.377 30.0442 122.049 30.1767 121.816 30.4376C121.577 30.7014 121.458 31.0475 121.458 31.4777C121.458 31.8355 121.553 32.139 121.743 32.3888C121.928 32.6322 122.198 32.788 122.551 32.8581C122.749 32.8919 122.931 32.9217 123.097 32.9491C123.458 33.0232 123.638 33.2433 123.633 33.6104C123.626 34.0581 123.355 34.2863 122.82 34.2951Z" fill="#097E52"/>
<path d="M136.134 35.0006V30.0791H135.509V32.1891H133.879V30.0791H133.254V35.0006H133.879V32.8503H135.509V35.0006H136.134Z" fill="#097E52"/>
<path d="M143.108 30.7848V30.0791H140.477V35.0006H143.108V34.2949H141.102V32.8503H142.814V32.1891H141.102V30.7848H143.108Z" fill="#097E52"/>
<path d="M150.026 31.4531C150.015 30.9984 149.878 30.6482 149.617 30.403C149.4 30.1865 149.12 30.0791 148.777 30.0791H147.168V35.0006H147.793V32.8976H148.591L149.441 35.0006H150.184L149.229 32.8171C149.753 32.576 150.018 32.1213 150.026 31.4531ZM149.263 31.9935C149.146 32.1505 148.97 32.2322 148.738 32.2363H147.793V30.7445H148.771C148.97 30.7445 149.123 30.7953 149.229 30.8962C149.363 31.0106 149.432 31.1968 149.435 31.4536C149.435 31.6667 149.378 31.847 149.263 31.9935Z" fill="#097E52"/>
<path d="M156.803 30.7848V30.0791H154.172V35.0006H156.803V34.2949H154.796V32.8503H156.509V32.1891H154.796V30.7848H156.803Z" fill="#097E52"/>
<path d="M37.0199 4.3942C34.4485 1.83334 31.0281 0.421875 27.3913 0.421875C23.754 0.421875 20.3348 1.83276 17.7622 4.39483C15.7524 6.39643 14.4476 8.91433 13.9741 11.6483C13.9261 11.9255 13.8866 12.2033 13.8568 12.4823C13.8264 12.7577 13.8046 13.0362 13.7912 13.3158C13.7796 13.5373 13.7742 13.76 13.7742 13.984L13.7754 15.827V16.6568L13.7742 17.4867V27.5455L23.8743 27.5443H24.7069H25.5402C25.5535 27.3185 25.5614 27.0903 25.562 26.8609V25.0385L24.7306 25.0373H16.2915L16.2921 17.46V15.8052L16.2915 13.9834C16.2921 13.7528 16.2988 13.5246 16.3133 13.2988C16.3298 13.0198 16.3577 12.7444 16.396 12.4714C16.4343 12.19 16.4835 11.9146 16.5437 11.6428C17.0007 9.53289 18.0667 7.64507 19.5466 6.17065C21.5564 4.16844 24.332 2.92889 27.392 2.92889C33.512 2.92889 38.4912 7.88838 38.4925 13.984C38.4912 17.0315 37.2466 19.7957 35.2362 21.7967C33.7563 23.2711 31.8607 24.3322 29.7409 24.7867V25.0167L29.7403 26.8609C29.7403 27.0238 29.7385 27.186 29.733 27.3458C32.4794 26.8755 35.0095 25.576 37.0199 23.5738C39.5925 21.0123 41.0085 17.6065 41.0085 13.984C41.0085 10.3615 39.5931 6.95628 37.0199 4.3942Z" fill="#097E52"/>
<path d="M16.2919 15.8069H17.1227H17.9535H25.5619L25.5625 23.3854V24.2116V25.0396V26.862C25.5619 27.0914 25.554 27.3196 25.5406 27.5454C25.5236 27.8244 25.4963 28.101 25.4574 28.374C25.4203 28.6536 25.3717 28.929 25.3115 29.2002C24.8533 31.3113 23.7873 33.2003 22.3074 34.6735C20.2976 36.6763 17.522 37.9159 14.462 37.9159C8.34202 37.9159 3.36275 32.957 3.36153 26.8614C3.36275 23.8127 4.6074 21.0497 6.61722 19.0481C8.09769 17.5737 9.99266 16.5132 12.1125 16.0569V13.9844C12.1125 13.8204 12.1149 13.6576 12.1204 13.4978C9.37458 13.9681 6.84453 15.2682 4.83289 17.2711C2.26091 19.8331 0.844238 23.2383 0.844238 26.8614C0.844238 30.4827 2.2603 33.8885 4.83289 36.45C7.40488 39.0114 10.8247 40.4223 14.462 40.4223C18.0988 40.4223 21.5186 39.012 24.0912 36.45C26.5033 34.0465 27.8999 30.8997 28.0628 27.5296C28.0683 27.4207 28.0719 27.3135 28.0756 27.2052C28.0768 27.1465 28.0774 27.0878 28.0786 27.0285C28.0786 26.9728 28.0792 26.9177 28.0792 26.862L28.0786 26.8608V25.0178L28.0792 13.2993L17.9791 13.2999L17.1464 13.3005H16.3138C16.2992 13.5263 16.2926 13.7545 16.2919 13.9851V15.8069Z" fill="#192335"/>
</svg>
