<svg width="16" height="16" viewBox="0 0 16 16" fill="none" xmlns="http://www.w3.org/2000/svg">
<path d="M2.89264 0.514396C2.64912 0.570592 2.50863 0.748547 2.50863 1.00767C2.50863 1.195 2.5617 1.323 2.68034 1.41666C2.75214 1.46973 2.76151 1.49783 2.75214 1.62583C2.74278 1.76945 2.73966 1.77257 2.60853 1.81003C2.53673 1.83189 2.44306 1.87247 2.40248 1.89745C2.33379 1.94428 2.32443 1.94116 2.2214 1.83189C2.12774 1.7351 2.10589 1.68827 2.09652 1.55091C2.06842 1.26368 1.88422 1.09821 1.58763 1.09821C1.37221 1.09821 1.22548 1.18875 1.13182 1.37607C0.969472 1.71325 1.1724 2.06604 1.54705 2.10038C1.68441 2.10975 1.73124 2.1316 1.82803 2.22526C1.9373 2.32829 1.94042 2.33765 1.89359 2.40634C1.86861 2.44692 1.82803 2.54059 1.80617 2.61239C1.76871 2.74352 1.76559 2.74664 1.62197 2.756C1.49397 2.76537 1.46587 2.756 1.4128 2.6842C1.31914 2.56556 1.19114 2.51249 1.00069 2.51249C0.707222 2.51249 0.498047 2.72166 0.498047 3.01201C0.498047 3.30236 0.707222 3.51153 1.00069 3.51153C1.19114 3.51153 1.31914 3.45846 1.4128 3.33982C1.46587 3.26802 1.49397 3.25865 1.62197 3.26802C1.76559 3.27738 1.76871 3.2805 1.80617 3.41163C1.82803 3.48344 1.86861 3.5771 1.89359 3.61768C1.94042 3.68637 1.9373 3.69573 1.82803 3.79876C1.73437 3.8893 1.68441 3.91427 1.55017 3.92364C1.02255 3.97047 0.894543 4.67292 1.37221 4.90083C1.70002 5.05693 2.10276 4.80717 2.10276 4.45126C2.10276 4.3295 2.11837 4.29204 2.21516 4.19526C2.32443 4.08286 2.33379 4.07974 2.40248 4.12657C2.44306 4.15155 2.53673 4.19213 2.60853 4.21399C2.73966 4.25145 2.74278 4.25457 2.75214 4.39819C2.76151 4.52619 2.75214 4.55429 2.68034 4.60736C2.5617 4.70102 2.50863 4.82903 2.50863 5.01947C2.50863 5.31606 2.71156 5.51587 3.00815 5.51587C3.30474 5.51587 3.50767 5.31606 3.50767 5.01947C3.50767 4.82903 3.4546 4.70102 3.33596 4.60736C3.26416 4.55429 3.25479 4.52619 3.26416 4.39819C3.27352 4.25457 3.27664 4.25145 3.40777 4.21399C3.47958 4.19213 3.57324 4.15155 3.61382 4.12657C3.68251 4.07974 3.69187 4.08286 3.80114 4.19526C3.88856 4.28579 3.91354 4.33575 3.91354 4.42628C3.91354 4.96327 4.6316 5.14123 4.87512 4.66668C5.05619 4.31701 4.8158 3.9174 4.42555 3.9174C4.33189 3.9174 4.28193 3.89554 4.1914 3.805C4.079 3.69573 4.07588 3.68637 4.12271 3.61768C4.14769 3.5771 4.18827 3.48344 4.21013 3.41163C4.24759 3.2805 4.25071 3.27738 4.39433 3.26802C4.52233 3.25865 4.55043 3.26802 4.6035 3.33982C4.69716 3.45846 4.82517 3.51153 5.01561 3.51153C5.3122 3.51153 5.51201 3.3086 5.51201 3.01201C5.51201 2.71542 5.3122 2.51249 5.01561 2.51249C4.82517 2.51249 4.69716 2.56556 4.6035 2.6842C4.55043 2.756 4.52233 2.76537 4.39433 2.756C4.25071 2.74664 4.24759 2.74352 4.21013 2.61239C4.18827 2.54059 4.14769 2.44692 4.12271 2.40634C4.07588 2.33765 4.079 2.32829 4.1914 2.21902C4.28506 2.12848 4.32876 2.10663 4.42867 2.10663C4.76585 2.10663 5.00312 1.78818 4.9157 1.46037C4.80019 1.02953 4.16954 0.963966 3.96973 1.36046C3.93851 1.41978 3.91354 1.52281 3.91354 1.59149C3.91354 1.6914 3.89168 1.7351 3.80114 1.82877C3.69187 1.94116 3.68251 1.94428 3.61382 1.89745C3.57324 1.87247 3.47958 1.83189 3.40777 1.81003C3.27664 1.77257 3.27352 1.76945 3.26416 1.62583C3.25479 1.49783 3.26416 1.46973 3.33596 1.41666C3.4546 1.323 3.50767 1.195 3.50767 1.00455C3.50767 0.670496 3.22045 0.439467 2.89264 0.514396ZM3.28289 2.3439C3.76056 2.54059 3.87919 3.17748 3.50455 3.53339C3.04561 3.96735 2.29009 3.64578 2.29009 3.01201C2.29009 2.72791 2.43682 2.49063 2.69595 2.35326C2.83332 2.28146 3.12366 2.27521 3.28289 2.3439Z" fill="#097E52"/>
<path d="M2.75781 3.01196V3.26172H3.00757H3.25734V3.01196V2.7622H3.00757H2.75781V3.01196Z" fill="#097E52"/>
<path d="M12.8829 0.514396C12.6394 0.570592 12.4989 0.748547 12.4989 1.00767C12.4989 1.195 12.5519 1.323 12.6706 1.41666C12.7424 1.46973 12.7517 1.49783 12.7424 1.62583C12.733 1.76945 12.7299 1.77257 12.5988 1.81003C12.527 1.83189 12.4333 1.87247 12.3927 1.89745C12.324 1.94428 12.3147 1.94116 12.2116 1.83189C12.118 1.7351 12.0961 1.68827 12.0868 1.55091C12.0587 1.26368 11.8745 1.09821 11.5779 1.09821C11.3624 1.09821 11.2157 1.18875 11.1221 1.37607C10.9597 1.71325 11.1626 2.06604 11.5373 2.10038C11.6746 2.10975 11.7215 2.1316 11.8183 2.22526C11.9275 2.32829 11.9307 2.33765 11.8838 2.40634C11.8588 2.44692 11.8183 2.54059 11.7964 2.61239C11.7589 2.74352 11.7558 2.74664 11.6122 2.756C11.4842 2.76537 11.4561 2.756 11.403 2.6842C11.3094 2.56556 11.1814 2.51249 10.9909 2.51249C10.6975 2.51249 10.4883 2.72166 10.4883 3.01201C10.4883 3.30236 10.6975 3.51153 10.9909 3.51153C11.1814 3.51153 11.3094 3.45846 11.403 3.33982C11.4561 3.26802 11.4842 3.25865 11.6122 3.26802C11.7558 3.27738 11.7589 3.2805 11.7964 3.41163C11.8183 3.48344 11.8588 3.5771 11.8838 3.61768C11.9307 3.68637 11.9275 3.69573 11.8183 3.79876C11.7246 3.8893 11.6746 3.91427 11.5404 3.92364C11.0128 3.97047 10.8848 4.67292 11.3624 4.90083C11.6903 5.05693 12.093 4.80717 12.093 4.45126C12.093 4.3295 12.1086 4.29204 12.2054 4.19526C12.3147 4.08286 12.324 4.07974 12.3927 4.12657C12.4333 4.15155 12.527 4.19213 12.5988 4.21399C12.7299 4.25145 12.733 4.25457 12.7424 4.39819C12.7517 4.52619 12.7424 4.55429 12.6706 4.60736C12.5519 4.70102 12.4989 4.82903 12.4989 5.01947C12.4989 5.31606 12.7018 5.51587 12.9984 5.51587C13.295 5.51587 13.4979 5.31606 13.4979 5.01947C13.4979 4.82903 13.4448 4.70102 13.3262 4.60736C13.2544 4.55429 13.245 4.52619 13.2544 4.39819C13.2638 4.25457 13.2669 4.25145 13.398 4.21399C13.4698 4.19213 13.5635 4.15155 13.6041 4.12657C13.6727 4.07974 13.6821 4.08286 13.7914 4.19526C13.8788 4.28579 13.9038 4.33575 13.9038 4.42628C13.9038 4.96327 14.6218 5.14123 14.8654 4.66668C15.0464 4.31701 14.806 3.9174 14.4158 3.9174C14.3221 3.9174 14.2722 3.89554 14.1816 3.805C14.0692 3.69573 14.0661 3.68637 14.1129 3.61768C14.1379 3.5771 14.1785 3.48344 14.2004 3.41163C14.2378 3.2805 14.2409 3.27738 14.3846 3.26802C14.5126 3.25865 14.5407 3.26802 14.5937 3.33982C14.6874 3.45846 14.8154 3.51153 15.0058 3.51153C15.3024 3.51153 15.5022 3.3086 15.5022 3.01201C15.5022 2.71542 15.3024 2.51249 15.0058 2.51249C14.8154 2.51249 14.6874 2.56556 14.5937 2.6842C14.5407 2.756 14.5126 2.76537 14.3846 2.756C14.2409 2.74664 14.2378 2.74352 14.2004 2.61239C14.1785 2.54059 14.1379 2.44692 14.1129 2.40634C14.0661 2.33765 14.0692 2.32829 14.1816 2.21902C14.2753 2.12848 14.319 2.10663 14.4189 2.10663C14.7561 2.10663 14.9934 1.78818 14.9059 1.46037C14.7904 1.02953 14.1598 0.963966 13.96 1.36046C13.9287 1.41978 13.9038 1.52281 13.9038 1.59149C13.9038 1.6914 13.8819 1.7351 13.7914 1.82877C13.6821 1.94116 13.6727 1.94428 13.6041 1.89745C13.5635 1.87247 13.4698 1.83189 13.398 1.81003C13.2669 1.77257 13.2638 1.76945 13.2544 1.62583C13.245 1.49783 13.2544 1.46973 13.3262 1.41666C13.4448 1.323 13.4979 1.195 13.4979 1.00455C13.4979 0.670496 13.2107 0.439467 12.8829 0.514396ZM13.2731 2.3439C13.7508 2.54059 13.8694 3.17748 13.4948 3.53339C13.0358 3.96735 12.2803 3.64578 12.2803 3.01201C12.2803 2.72791 12.4271 2.49063 12.6862 2.35326C12.8236 2.28146 13.1139 2.27521 13.2731 2.3439Z" fill="#097E52"/>
<path d="M12.748 3.01196V3.26172H12.9978H13.2476V3.01196V2.7622H12.9978H12.748V3.01196Z" fill="#097E52"/>
<path d="M6.22414 0.75085C6.11175 0.794558 6.01809 0.835145 6.01185 0.841389C6.0056 0.847633 6.22727 1.47204 6.502 2.23069C6.93597 3.4233 7.00465 3.63559 7.00465 3.79482C7.00465 4.34742 7.43237 4.75952 8.0037 4.75952C8.57503 4.75952 9.00274 4.34742 9.00274 3.79482C9.00274 3.63559 9.0683 3.42954 9.48978 2.27439C9.75827 1.5376 9.98618 0.913195 9.99242 0.885097C10.0018 0.847633 9.94871 0.813291 9.76764 0.747728C9.63651 0.700898 9.521 0.6728 9.50851 0.685288C9.49602 0.694654 9.44295 0.828901 9.38987 0.975636L9.28997 1.24725L8.77171 1.25662L8.25346 1.26286V1.0131V0.763338H8.0037H7.75393V1.0131V1.26286L7.23568 1.25662L6.71742 1.24725L6.6144 0.966269C6.5582 0.810169 6.49576 0.682166 6.47078 0.679044C6.44581 0.675922 6.33654 0.707142 6.22414 0.75085ZM7.75393 2.01215V2.26191H7.41676H7.0827L7.01402 2.06522C6.97655 1.95907 6.93597 1.84668 6.9266 1.81546C6.90474 1.76551 6.93597 1.76238 7.32934 1.76238H7.75393V2.01215ZM9.08079 1.81546C9.07143 1.84668 9.03084 1.95907 8.99338 2.06522L8.92469 2.26191H8.59064H8.25346V2.01215V1.76238H8.67805C9.07143 1.76238 9.10265 1.76551 9.08079 1.81546ZM7.75393 3.01119V3.26095H7.60096H7.4511L7.3668 3.03305C7.3231 2.91129 7.28563 2.79889 7.28563 2.78328C7.28563 2.7708 7.39178 2.76143 7.51978 2.76143H7.75393V3.01119ZM8.72176 2.78953C8.72176 2.80826 8.6843 2.92065 8.64059 3.03929L8.55941 3.26095H8.40644H8.25346V3.01119V2.76143H8.48761C8.61561 2.76143 8.72176 2.77392 8.72176 2.78953ZM8.472 3.82916C8.472 4.02897 8.23472 4.22878 8.0037 4.22878C7.77267 4.22878 7.53539 4.02897 7.53539 3.82916C7.53539 3.76048 7.53851 3.76048 8.0037 3.76048C8.46888 3.76048 8.472 3.76048 8.472 3.82916Z" fill="#097E52"/>
<path d="M0.572206 5.57174C0.509766 5.63418 0.509766 5.67476 0.509766 10.5045C0.509766 15.3343 0.509766 15.3749 0.572206 15.4373C0.631524 15.4966 0.675233 15.4998 1.25905 15.4998C1.84287 15.4998 1.88658 15.4966 1.94589 15.4373C2.00833 15.3749 2.00833 15.3343 2.00833 13.1895V11.004H8.00261H13.9969V13.1895C13.9969 15.3343 13.9969 15.3749 14.0593 15.4373C14.1186 15.4966 14.1624 15.4998 14.7462 15.4998C15.33 15.4998 15.3737 15.4966 15.433 15.4373C15.4955 15.3749 15.4955 15.3343 15.4955 10.5045C15.4955 5.67476 15.4955 5.63418 15.433 5.57174C15.3737 5.51242 15.33 5.5093 14.7462 5.5093C14 5.5093 13.9969 5.5093 13.9969 5.8215V6.00882H8.00261H2.00833V5.8215C2.00833 5.5093 2.00521 5.5093 1.25905 5.5093C0.675233 5.5093 0.631524 5.51242 0.572206 5.57174ZM1.50881 10.5045V15.0002H1.25905H1.00929V10.5045V6.00882H1.25905H1.50881V10.5045ZM14.9959 10.5045V15.0002H14.7462H14.4964V10.5045V6.00882H14.7462H14.9959V10.5045ZM3.25714 7.00786V7.50739H2.63274H2.00833V7.00786V6.50834H2.63274H3.25714V7.00786ZM4.75571 7.00786V7.50739H4.25619H3.75666V7.00786V6.50834H4.25619H4.75571V7.00786ZM6.25428 7.00786V7.50739H5.75476H5.25523V7.00786V6.50834H5.75476H6.25428V7.00786ZM7.75285 7.00786V7.50739H7.25333H6.7538V7.00786V6.50834H7.25333H7.75285V7.00786ZM9.25142 7.00786V7.50739H8.75189H8.25237V7.00786V6.50834H8.75189H9.25142V7.00786ZM10.75 7.00786V7.50739H10.2505H9.75094V7.00786V6.50834H10.2505H10.75V7.00786ZM12.2486 7.00786V7.50739H11.749H11.2495V7.00786V6.50834H11.749H12.2486V7.00786ZM13.9969 7.00786V7.50739H13.3725H12.7481V7.00786V6.50834H13.3725H13.9969V7.00786ZM3.25714 8.50643V9.00596H2.63274H2.00833V8.50643V8.00691H2.63274H3.25714V8.50643ZM4.75571 8.50643V9.00596H4.25619H3.75666V8.50643V8.00691H4.25619H4.75571V8.50643ZM6.25428 8.50643V9.00596H5.75476H5.25523V8.50643V8.00691H5.75476H6.25428V8.50643ZM7.75285 8.50643V9.00596H7.25333H6.7538V8.50643V8.00691H7.25333H7.75285V8.50643ZM9.25142 8.50643V9.00596H8.75189H8.25237V8.50643V8.00691H8.75189H9.25142V8.50643ZM10.75 8.50643V9.00596H10.2505H9.75094V8.50643V8.00691H10.2505H10.75V8.50643ZM12.2486 8.50643V9.00596H11.749H11.2495V8.50643V8.00691H11.749H12.2486V8.50643ZM13.9969 8.50643V9.00596H13.3725H12.7481V8.50643V8.00691H13.3725H13.9969V8.50643ZM3.25714 10.005V10.5045H2.63274H2.00833V10.005V9.50548H2.63274H3.25714V10.005ZM4.75571 10.005V10.5045H4.25619H3.75666V10.005V9.50548H4.25619H4.75571V10.005ZM6.25428 10.005V10.5045H5.75476H5.25523V10.005V9.50548H5.75476H6.25428V10.005ZM7.75285 10.005V10.5045H7.25333H6.7538V10.005V9.50548H7.25333H7.75285V10.005ZM9.25142 10.005V10.5045H8.75189H8.25237V10.005V9.50548H8.75189H9.25142V10.005ZM10.75 10.005V10.5045H10.2505H9.75094V10.005V9.50548H10.2505H10.75V10.005ZM12.2486 10.005V10.5045H11.749H11.2495V10.005V9.50548H11.749H12.2486V10.005ZM13.9969 10.005V10.5045H13.3725H12.7481V10.005V9.50548H13.3725H13.9969V10.005Z" fill="#097E52"/>
<path d="M4.17545 12.0905C3.64783 12.2747 3.27943 12.6431 3.09523 13.1707C3.0203 13.3861 3.00781 13.4736 3.00781 13.7514C3.00781 14.0293 3.0203 14.1167 3.09523 14.3321C3.28255 14.8629 3.66656 15.2406 4.20355 15.4217C4.43145 15.4966 4.4658 15.4998 5.2463 15.4998C5.89568 15.4998 6.08925 15.4904 6.22661 15.4498C6.86663 15.2625 7.33805 14.7505 7.48479 14.0855L7.50352 14.0012H9.00209H10.5007V14.1885C10.5007 14.5163 10.4351 14.5007 11.7495 14.5007C12.8328 14.5007 12.8765 14.4976 12.9358 14.4383C12.9952 14.379 12.9983 14.3352 12.9983 13.7514C12.9983 13.1676 12.9952 13.1239 12.9358 13.0646C12.8765 13.0053 12.8328 13.0021 11.7495 13.0021C10.4351 13.0021 10.5007 12.9865 10.5007 13.3143V13.5017H9.00209H7.50352L7.48479 13.4142C7.37864 12.9335 7.09454 12.5151 6.70116 12.2653C6.61374 12.206 6.43579 12.1249 6.30779 12.0811C6.07988 12.0062 6.04554 12.0031 5.24942 12.0031C4.43145 12.0031 4.42833 12.0031 4.17545 12.0905ZM5.0059 12.7524V13.0021H4.75614H4.50638V12.7711V12.537L4.64063 12.5245C4.71243 12.5182 4.82483 12.512 4.89039 12.5089L5.0059 12.5026V12.7524ZM5.94563 12.5338C5.99871 12.5338 6.00495 12.5619 6.00495 12.768V13.0021H5.75519H5.50543V12.7493V12.4933L5.69587 12.5151C5.80202 12.5245 5.91441 12.5338 5.94563 12.5338ZM4.00686 12.8929C4.00686 12.999 4.00374 13.0021 3.89134 13.0021H3.77583L3.88198 12.8929C3.9413 12.8336 3.99125 12.7836 3.99749 12.7836C4.00374 12.7836 4.00686 12.8336 4.00686 12.8929ZM6.62935 12.8929L6.7355 13.0021H6.61999C6.5076 13.0021 6.50447 12.999 6.50447 12.8929C6.50447 12.8336 6.5076 12.7836 6.51384 12.7836C6.52008 12.7836 6.57004 12.8336 6.62935 12.8929ZM4.00686 13.7514V14.0012H3.77271H3.53856V13.7514V13.5017H3.77271H4.00686V13.7514ZM5.0059 13.7514V14.0012H4.75614H4.50638V13.7514V13.5017H4.75614H5.0059V13.7514ZM6.00495 13.7514V14.0012H5.75519H5.50543V13.7514V13.5017H5.75519H6.00495V13.7514ZM6.97278 13.7514V14.0012H6.73863H6.50447V13.7514V13.5017H6.73863H6.97278V13.7514ZM12.4987 13.7514V14.0012H11.7495H11.0002V13.7514V13.5017H11.7495H12.4987V13.7514ZM4.00686 14.61C4.00686 14.6693 4.00374 14.7193 3.99749 14.7193C3.99125 14.7193 3.9413 14.6693 3.88198 14.61L3.77583 14.5007H3.89134C4.00374 14.5007 4.00686 14.5038 4.00686 14.61ZM5.0059 14.7505C5.0059 15.0346 5.03088 15.0158 4.69682 14.9815L4.50638 14.9596V14.7317V14.5007H4.75614H5.0059V14.7505ZM6.00495 14.7349C6.00495 14.9409 5.99871 14.969 5.94563 14.969C5.91441 14.969 5.80202 14.9784 5.69587 14.9877L5.50543 15.0096V14.7536V14.5007H5.75519H6.00495V14.7349ZM6.72302 14.5101C6.72302 14.5163 6.67306 14.5663 6.61374 14.6256L6.50447 14.7317V14.6162C6.50447 14.5038 6.5076 14.5007 6.61374 14.5007C6.67306 14.5007 6.72302 14.5038 6.72302 14.5101Z" fill="#097E52"/>
</svg>
