<svg width="14" height="16" viewBox="0 0 14 16" fill="none" xmlns="http://www.w3.org/2000/svg">
<path d="M6.97526 12.667C7.10711 12.667 7.23601 12.6279 7.34564 12.5546C7.45527 12.4814 7.54072 12.3773 7.59118 12.2554C7.64164 12.1336 7.65484 11.9996 7.62912 11.8703C7.60339 11.7409 7.5399 11.6222 7.44666 11.5289C7.35343 11.4357 7.23464 11.3722 7.10532 11.3465C6.976 11.3207 6.84196 11.3339 6.72014 11.3844C6.59832 11.4349 6.4942 11.5203 6.42095 11.6299C6.34769 11.7396 6.30859 11.8685 6.30859 12.0003C6.30859 12.1771 6.37883 12.3467 6.50386 12.4717C6.62888 12.5968 6.79845 12.667 6.97526 12.667ZM10.3086 12.667C10.4404 12.667 10.5693 12.6279 10.679 12.5546C10.7886 12.4814 10.8741 12.3773 10.9245 12.2554C10.975 12.1336 10.9882 11.9996 10.9625 11.8703C10.9367 11.7409 10.8732 11.6222 10.78 11.5289C10.6868 11.4357 10.568 11.3722 10.4387 11.3465C10.3093 11.3207 10.1753 11.3339 10.0535 11.3844C9.93165 11.4349 9.82753 11.5203 9.75428 11.6299C9.68103 11.7396 9.64193 11.8685 9.64193 12.0003C9.64193 12.1771 9.71216 12.3467 9.83719 12.4717C9.96221 12.5968 10.1318 12.667 10.3086 12.667ZM10.3086 10.0003C10.4404 10.0003 10.5693 9.96123 10.679 9.88797C10.7886 9.81472 10.8741 9.7106 10.9245 9.58878C10.975 9.46696 10.9882 9.33292 10.9625 9.2036C10.9367 9.07428 10.8732 8.95549 10.78 8.86225C10.6868 8.76902 10.568 8.70553 10.4387 8.6798C10.3093 8.65408 10.1753 8.66728 10.0535 8.71774C9.93165 8.7682 9.82753 8.85365 9.75428 8.96328C9.68103 9.07291 9.64193 9.2018 9.64193 9.33366C9.64193 9.51047 9.71216 9.68004 9.83719 9.80506C9.96221 9.93009 10.1318 10.0003 10.3086 10.0003ZM6.97526 10.0003C7.10711 10.0003 7.23601 9.96123 7.34564 9.88797C7.45527 9.81472 7.54072 9.7106 7.59118 9.58878C7.64164 9.46696 7.65484 9.33292 7.62912 9.2036C7.60339 9.07428 7.5399 8.95549 7.44666 8.86225C7.35343 8.76902 7.23464 8.70553 7.10532 8.6798C6.976 8.65408 6.84196 8.66728 6.72014 8.71774C6.59832 8.7682 6.4942 8.85365 6.42095 8.96328C6.34769 9.07291 6.30859 9.2018 6.30859 9.33366C6.30859 9.51047 6.37883 9.68004 6.50386 9.80506C6.62888 9.93009 6.79845 10.0003 6.97526 10.0003ZM11.6419 2.00033H10.9753V1.33366C10.9753 1.15685 10.905 0.987279 10.78 0.862254C10.655 0.73723 10.4854 0.666992 10.3086 0.666992C10.1318 0.666992 9.96221 0.73723 9.83719 0.862254C9.71216 0.987279 9.64193 1.15685 9.64193 1.33366V2.00033H4.30859V1.33366C4.30859 1.15685 4.23836 0.987279 4.11333 0.862254C3.98831 0.73723 3.81874 0.666992 3.64193 0.666992C3.46512 0.666992 3.29555 0.73723 3.17052 0.862254C3.0455 0.987279 2.97526 1.15685 2.97526 1.33366V2.00033H2.30859C1.77816 2.00033 1.26945 2.21104 0.89438 2.58611C0.519307 2.96118 0.308594 3.46989 0.308594 4.00033V13.3337C0.308594 13.8641 0.519307 14.3728 0.89438 14.7479C1.26945 15.1229 1.77816 15.3337 2.30859 15.3337H11.6419C12.1724 15.3337 12.6811 15.1229 13.0561 14.7479C13.4312 14.3728 13.6419 13.8641 13.6419 13.3337V4.00033C13.6419 3.46989 13.4312 2.96118 13.0561 2.58611C12.6811 2.21104 12.1724 2.00033 11.6419 2.00033ZM12.3086 13.3337C12.3086 13.5105 12.2384 13.68 12.1133 13.8051C11.9883 13.9301 11.8187 14.0003 11.6419 14.0003H2.30859C2.13178 14.0003 1.96221 13.9301 1.83719 13.8051C1.71217 13.68 1.64193 13.5105 1.64193 13.3337V7.33366H12.3086V13.3337ZM12.3086 6.00033H1.64193V4.00033C1.64193 3.82351 1.71217 3.65395 1.83719 3.52892C1.96221 3.4039 2.13178 3.33366 2.30859 3.33366H2.97526V4.00033C2.97526 4.17714 3.0455 4.34671 3.17052 4.47173C3.29555 4.59675 3.46512 4.66699 3.64193 4.66699C3.81874 4.66699 3.98831 4.59675 4.11333 4.47173C4.23836 4.34671 4.30859 4.17714 4.30859 4.00033V3.33366H9.64193V4.00033C9.64193 4.17714 9.71216 4.34671 9.83719 4.47173C9.96221 4.59675 10.1318 4.66699 10.3086 4.66699C10.4854 4.66699 10.655 4.59675 10.78 4.47173C10.905 4.34671 10.9753 4.17714 10.9753 4.00033V3.33366H11.6419C11.8187 3.33366 11.9883 3.4039 12.1133 3.52892C12.2384 3.65395 12.3086 3.82351 12.3086 4.00033V6.00033ZM3.64193 10.0003C3.77378 10.0003 3.90267 9.96123 4.01231 9.88797C4.12194 9.81472 4.20739 9.7106 4.25785 9.58878C4.30831 9.46696 4.32151 9.33292 4.29578 9.2036C4.27006 9.07428 4.20657 8.95549 4.11333 8.86225C4.0201 8.76902 3.90131 8.70553 3.77199 8.6798C3.64267 8.65408 3.50862 8.66728 3.38681 8.71774C3.26499 8.7682 3.16087 8.85365 3.08761 8.96328C3.01436 9.07291 2.97526 9.2018 2.97526 9.33366C2.97526 9.51047 3.0455 9.68004 3.17052 9.80506C3.29555 9.93009 3.46512 10.0003 3.64193 10.0003ZM3.64193 12.667C3.77378 12.667 3.90267 12.6279 4.01231 12.5546C4.12194 12.4814 4.20739 12.3773 4.25785 12.2554C4.30831 12.1336 4.32151 11.9996 4.29578 11.8703C4.27006 11.7409 4.20657 11.6222 4.11333 11.5289C4.0201 11.4357 3.90131 11.3722 3.77199 11.3465C3.64267 11.3207 3.50862 11.3339 3.38681 11.3844C3.26499 11.4349 3.16087 11.5203 3.08761 11.6299C3.01436 11.7396 2.97526 11.8685 2.97526 12.0003C2.97526 12.1771 3.0455 12.3467 3.17052 12.4717C3.29555 12.5968 3.46512 12.667 3.64193 12.667Z" fill="#A8A8A8"/>
</svg>
