<svg width="21" height="20" viewBox="0 0 21 20" fill="none" xmlns="http://www.w3.org/2000/svg">
<path d="M10.3353 15.8334C10.5001 15.8334 10.6612 15.7845 10.7983 15.6929C10.9353 15.6014 11.0421 15.4712 11.1052 15.3189C11.1683 15.1667 11.1848 14.9991 11.1526 14.8375C11.1205 14.6758 11.0411 14.5273 10.9245 14.4108C10.808 14.2942 10.6595 14.2149 10.4979 14.1827C10.3362 14.1506 10.1687 14.1671 10.0164 14.2301C9.86411 14.2932 9.73396 14.4 9.6424 14.5371C9.55083 14.6741 9.50195 14.8352 9.50195 15C9.50195 15.2211 9.58975 15.433 9.74603 15.5893C9.90231 15.7456 10.1143 15.8334 10.3353 15.8334ZM14.502 15.8334C14.6668 15.8334 14.8279 15.7845 14.9649 15.6929C15.102 15.6014 15.2088 15.4712 15.2719 15.3189C15.3349 15.1667 15.3514 14.9991 15.3193 14.8375C15.2871 14.6758 15.2078 14.5273 15.0912 14.4108C14.9747 14.2942 14.8262 14.2149 14.6645 14.1827C14.5029 14.1506 14.3353 14.1671 14.1831 14.2301C14.0308 14.2932 13.9006 14.4 13.8091 14.5371C13.7175 14.6741 13.6686 14.8352 13.6686 15C13.6686 15.2211 13.7564 15.433 13.9127 15.5893C14.069 15.7456 14.2809 15.8334 14.502 15.8334ZM14.502 12.5C14.6668 12.5 14.8279 12.4512 14.9649 12.3596C15.102 12.268 15.2088 12.1379 15.2719 11.9856C15.3349 11.8333 15.3514 11.6658 15.3193 11.5041C15.2871 11.3425 15.2078 11.194 15.0912 11.0775C14.9747 10.9609 14.8262 10.8815 14.6645 10.8494C14.5029 10.8172 14.3353 10.8337 14.1831 10.8968C14.0308 10.9599 13.9006 11.0667 13.8091 11.2037C13.7175 11.3408 13.6686 11.5019 13.6686 11.6667C13.6686 11.8877 13.7564 12.0997 13.9127 12.256C14.069 12.4122 14.2809 12.5 14.502 12.5ZM10.3353 12.5C10.5001 12.5 10.6612 12.4512 10.7983 12.3596C10.9353 12.268 11.0421 12.1379 11.1052 11.9856C11.1683 11.8333 11.1848 11.6658 11.1526 11.5041C11.1205 11.3425 11.0411 11.194 10.9245 11.0775C10.808 10.9609 10.6595 10.8815 10.4979 10.8494C10.3362 10.8172 10.1687 10.8337 10.0164 10.8968C9.86411 10.9599 9.73396 11.0667 9.6424 11.2037C9.55083 11.3408 9.50195 11.5019 9.50195 11.6667C9.50195 11.8877 9.58975 12.0997 9.74603 12.256C9.90231 12.4122 10.1143 12.5 10.3353 12.5ZM16.1686 2.50004H15.3353V1.66671C15.3353 1.44569 15.2475 1.23373 15.0912 1.07745C14.9349 0.921171 14.723 0.833374 14.502 0.833374C14.2809 0.833374 14.069 0.921171 13.9127 1.07745C13.7564 1.23373 13.6686 1.44569 13.6686 1.66671V2.50004H7.00195V1.66671C7.00195 1.44569 6.91416 1.23373 6.75788 1.07745C6.6016 0.921171 6.38963 0.833374 6.16862 0.833374C5.94761 0.833374 5.73564 0.921171 5.57936 1.07745C5.42308 1.23373 5.33529 1.44569 5.33529 1.66671V2.50004H4.50195C3.83891 2.50004 3.20303 2.76343 2.73419 3.23227C2.26535 3.70111 2.00195 4.337 2.00195 5.00004V16.6667C2.00195 17.3297 2.26535 17.9656 2.73419 18.4345C3.20303 18.9033 3.83891 19.1667 4.50195 19.1667H16.1686C16.8317 19.1667 17.4675 18.9033 17.9364 18.4345C18.4052 17.9656 18.6686 17.3297 18.6686 16.6667V5.00004C18.6686 4.337 18.4052 3.70111 17.9364 3.23227C17.4675 2.76343 16.8317 2.50004 16.1686 2.50004ZM17.002 16.6667C17.002 16.8877 16.9142 17.0997 16.7579 17.256C16.6016 17.4122 16.3896 17.5 16.1686 17.5H4.50195C4.28094 17.5 4.06898 17.4122 3.9127 17.256C3.75642 17.0997 3.66862 16.8877 3.66862 16.6667V9.16671H17.002V16.6667ZM17.002 7.50004H3.66862V5.00004C3.66862 4.77903 3.75642 4.56707 3.9127 4.41078C4.06898 4.2545 4.28094 4.16671 4.50195 4.16671H5.33529V5.00004C5.33529 5.22105 5.42308 5.43302 5.57936 5.5893C5.73564 5.74558 5.94761 5.83337 6.16862 5.83337C6.38963 5.83337 6.6016 5.74558 6.75788 5.5893C6.91416 5.43302 7.00195 5.22105 7.00195 5.00004V4.16671H13.6686V5.00004C13.6686 5.22105 13.7564 5.43302 13.9127 5.5893C14.069 5.74558 14.2809 5.83337 14.502 5.83337C14.723 5.83337 14.9349 5.74558 15.0912 5.5893C15.2475 5.43302 15.3353 5.22105 15.3353 5.00004V4.16671H16.1686C16.3896 4.16671 16.6016 4.2545 16.7579 4.41078C16.9142 4.56707 17.002 4.77903 17.002 5.00004V7.50004ZM6.16862 12.5C6.33344 12.5 6.49455 12.4512 6.6316 12.3596C6.76864 12.268 6.87545 12.1379 6.93852 11.9856C7.00159 11.8333 7.0181 11.6658 6.98594 11.5041C6.95379 11.3425 6.87442 11.194 6.75788 11.0775C6.64133 10.9609 6.49285 10.8815 6.3312 10.8494C6.16954 10.8172 6.00199 10.8337 5.84972 10.8968C5.69745 10.9599 5.5673 11.0667 5.47573 11.2037C5.38416 11.3408 5.33529 11.5019 5.33529 11.6667C5.33529 11.8877 5.42308 12.0997 5.57936 12.256C5.73564 12.4122 5.94761 12.5 6.16862 12.5ZM6.16862 15.8334C6.33344 15.8334 6.49455 15.7845 6.6316 15.6929C6.76864 15.6014 6.87545 15.4712 6.93852 15.3189C7.00159 15.1667 7.0181 14.9991 6.98594 14.8375C6.95379 14.6758 6.87442 14.5273 6.75788 14.4108C6.64133 14.2942 6.49285 14.2149 6.3312 14.1827C6.16954 14.1506 6.00199 14.1671 5.84972 14.2301C5.69745 14.2932 5.5673 14.4 5.47573 14.5371C5.38416 14.6741 5.33529 14.8352 5.33529 15C5.33529 15.2211 5.42308 15.433 5.57936 15.5893C5.73564 15.7456 5.94761 15.8334 6.16862 15.8334Z" fill="#A0A0A0"/>
</svg>
