<svg width="17" height="17" viewBox="0 0 17 17" fill="none" xmlns="http://www.w3.org/2000/svg">
<path d="M14.703 9.16659C14.5288 9.16659 14.3467 9.11117 14.1726 9.07159C13.8202 8.99278 13.4736 8.88962 13.1355 8.76284C12.7682 8.62923 12.3645 8.63616 12.0021 8.78232C11.6396 8.92847 11.344 9.2035 11.1722 9.5545L10.998 9.91867C10.2291 9.48262 9.51887 8.95058 8.88425 8.33534C8.269 7.70071 7.73696 6.99043 7.30091 6.22159L7.66508 6.05534C8.01608 5.88348 8.29111 5.58788 8.43727 5.22542C8.58342 4.86297 8.59036 4.45927 8.45675 4.092C8.33102 3.75082 8.22788 3.40173 8.148 3.047C8.10841 2.87284 8.07675 2.69075 8.053 2.51659C7.95686 1.95895 7.66478 1.45396 7.22936 1.09257C6.79394 0.731168 6.2438 0.537109 5.678 0.545335H3.29508C2.9604 0.544897 2.62941 0.615198 2.3238 0.751631C2.01819 0.888063 1.74486 1.08755 1.52175 1.337C1.294 1.59323 1.12442 1.89572 1.02466 2.2237C0.924901 2.55167 0.897325 2.89736 0.943828 3.237C1.37417 6.53203 2.87962 9.59302 5.22675 11.9453C7.57906 14.2925 10.6401 15.7979 13.9351 16.2283C14.0378 16.2361 14.1411 16.2361 14.2438 16.2283C14.8276 16.2291 15.3913 16.0149 15.8272 15.6266C16.0766 15.4035 16.2761 15.1301 16.4125 14.8245C16.549 14.5189 16.6193 14.1879 16.6188 13.8533V11.4783C16.6146 10.9312 16.4216 10.4025 16.0725 9.98129C15.7235 9.5601 15.2397 9.27233 14.703 9.16659ZM15.0909 13.9166C15.0907 14.0271 15.0673 14.1363 15.0223 14.2371C14.9773 14.338 14.9117 14.4284 14.8297 14.5024C14.7429 14.5815 14.6396 14.6402 14.5274 14.6745C14.4151 14.7087 14.2966 14.7175 14.1805 14.7003C11.2262 14.3145 8.48069 12.9682 6.36675 10.8687C4.25099 8.75291 2.89294 5.99783 2.50341 3.03117C2.48621 2.91506 2.49505 2.79658 2.52928 2.6843C2.56351 2.57203 2.62228 2.46877 2.70133 2.382C2.77624 2.299 2.86788 2.2328 2.97022 2.18777C3.07256 2.14274 3.18327 2.1199 3.29508 2.12075H5.67008C5.85308 2.11628 6.03198 2.17536 6.17632 2.28795C6.32066 2.40054 6.42153 2.55967 6.46175 2.73825C6.46175 2.952 6.533 3.17367 6.5805 3.38742C6.67199 3.80214 6.79371 4.20962 6.94466 4.60659L5.83633 5.12909C5.64583 5.21654 5.49778 5.37597 5.42466 5.57242C5.34548 5.76516 5.34548 5.98135 5.42466 6.17409C6.56403 8.6146 8.52581 10.5764 10.9663 11.7158C11.1591 11.7949 11.3753 11.7949 11.568 11.7158C11.7644 11.6426 11.9239 11.4946 12.0113 11.3041L12.5101 10.1958C12.9185 10.3447 13.3364 10.4663 13.7609 10.5599C13.9667 10.6074 14.1884 10.647 14.4022 10.6787C14.5807 10.7189 14.7399 10.8198 14.8525 10.9641C14.965 11.1084 15.0241 11.2873 15.0197 11.4703L15.0909 13.9166ZM10.4201 0.458252C10.238 0.458252 10.048 0.458252 9.86591 0.458252C9.65595 0.476099 9.46168 0.576622 9.32583 0.737708C9.18998 0.898794 9.12369 1.10725 9.14154 1.31721C9.15938 1.52717 9.25991 1.72145 9.42099 1.85729C9.58208 1.99314 9.79053 2.05943 10.0005 2.04159H10.4201C11.6799 2.04159 12.888 2.54203 13.7788 3.43283C14.6696 4.32363 15.1701 5.53181 15.1701 6.79159C15.1701 6.93409 15.1701 7.06867 15.1701 7.21117C15.1525 7.42002 15.2185 7.62731 15.3536 7.78758C15.4886 7.94786 15.6817 8.04804 15.8905 8.06617H15.9538C16.152 8.06697 16.3433 7.99342 16.4899 7.86003C16.6364 7.72664 16.7277 7.54313 16.7455 7.34575C16.7455 7.16367 16.7455 6.97367 16.7455 6.79159C16.7455 5.11325 16.0793 3.50354 14.8933 2.31604C13.7073 1.12854 12.0984 0.46035 10.4201 0.458252ZM12.0034 6.79159C12.0034 7.00155 12.0868 7.20291 12.2353 7.35138C12.3838 7.49984 12.5851 7.58325 12.7951 7.58325C13.005 7.58325 13.2064 7.49984 13.3549 7.35138C13.5033 7.20291 13.5867 7.00155 13.5867 6.79159C13.5867 5.95173 13.2531 5.14628 12.6593 4.55241C12.0654 3.95855 11.2599 3.62492 10.4201 3.62492C10.2101 3.62492 10.0088 3.70833 9.86029 3.85679C9.71182 4.00526 9.62841 4.20662 9.62841 4.41659C9.62841 4.62655 9.71182 4.82791 9.86029 4.97638C10.0088 5.12484 10.2101 5.20825 10.4201 5.20825C10.84 5.20825 11.2427 5.37507 11.5397 5.672C11.8366 5.96893 12.0034 6.37166 12.0034 6.79159Z" fill="#A0A0A0"/>
</svg>
