<svg width="18" height="21" viewBox="0 0 18 21" fill="none" xmlns="http://www.w3.org/2000/svg">
<path d="M11.58 9.8C12.0345 9.23195 12.2846 8.52747 12.29 7.8C12.29 6.92744 11.9434 6.09061 11.3264 5.47362C10.7094 4.85662 9.87256 4.51 9 4.51C8.12744 4.51 7.29061 4.85662 6.67362 5.47362C6.05662 6.09061 5.71 6.92744 5.71 7.8C5.71542 8.52747 5.96551 9.23195 6.42 9.8C5.52863 10.3424 4.8293 11.1502 4.42 12.11C4.36271 12.2318 4.3306 12.3639 4.32558 12.4984C4.32056 12.6329 4.34274 12.767 4.39079 12.8927C4.43884 13.0184 4.51177 13.1331 4.60521 13.23C4.69865 13.3268 4.81068 13.4038 4.93459 13.4563C5.0585 13.5089 5.19174 13.5358 5.32632 13.5357C5.4609 13.5355 5.59406 13.5081 5.71782 13.4552C5.84157 13.4023 5.95338 13.325 6.04655 13.2279C6.13971 13.1308 6.21231 13.0159 6.26 12.89C6.48983 12.3527 6.87157 11.8943 7.35832 11.571C7.84508 11.2477 8.41566 11.0735 9 11.07C9.58605 11.0716 10.1588 11.2448 10.6475 11.5683C11.1362 11.8917 11.5195 12.3512 11.75 12.89C11.8266 13.0707 11.9546 13.225 12.1182 13.3334C12.2818 13.4419 12.4737 13.4998 12.67 13.5C12.8038 13.4975 12.936 13.4704 13.06 13.42C13.3039 13.3164 13.4966 13.1203 13.596 12.8747C13.6954 12.629 13.6932 12.354 13.59 12.11C13.1781 11.1487 12.4751 10.3408 11.58 9.8ZM9 9.07C8.74444 9.06999 8.49464 8.99408 8.28229 8.85188C8.06993 8.70969 7.9046 8.50762 7.80727 8.27132C7.70993 8.03502 7.68498 7.77514 7.73557 7.52463C7.78616 7.27413 7.91002 7.0443 8.09143 6.86429C8.27284 6.68429 8.50363 6.56222 8.75452 6.51358C9.00541 6.46494 9.26509 6.49192 9.50063 6.59109C9.73617 6.69026 9.93694 6.85716 10.0775 7.07061C10.218 7.28406 10.292 7.53445 10.29 7.79C10.2874 8.13039 10.1503 8.45595 9.90865 8.69571C9.66701 8.93547 9.3404 9.07001 9 9.07ZM15 0.5H3C2.20435 0.5 1.44129 0.816071 0.87868 1.37868C0.316071 1.94129 0 2.70435 0 3.5V14.5C0 15.2956 0.316071 16.0587 0.87868 16.6213C1.44129 17.1839 2.20435 17.5 3 17.5H5.59L8.29 20.21C8.38344 20.3027 8.49426 20.376 8.61609 20.4258C8.73793 20.4755 8.86839 20.5008 9 20.5C9.23834 20.5 9.46886 20.4149 9.65 20.26L12.87 17.5H15C15.7956 17.5 16.5587 17.1839 17.1213 16.6213C17.6839 16.0587 18 15.2956 18 14.5V3.5C18 2.70435 17.6839 1.94129 17.1213 1.37868C16.5587 0.816071 15.7956 0.5 15 0.5ZM16 14.5C16 14.7652 15.8946 15.0196 15.7071 15.2071C15.5196 15.3946 15.2652 15.5 15 15.5H12.5C12.2617 15.5 12.0311 15.5851 11.85 15.74L9.05 18.14L6.71 15.79C6.61656 15.6973 6.50574 15.624 6.38391 15.5742C6.26207 15.5245 6.13161 15.4992 6 15.5H3C2.73478 15.5 2.48043 15.3946 2.29289 15.2071C2.10536 15.0196 2 14.7652 2 14.5V3.5C2 3.23478 2.10536 2.98043 2.29289 2.79289C2.48043 2.60536 2.73478 2.5 3 2.5H15C15.2652 2.5 15.5196 2.60536 15.7071 2.79289C15.8946 2.98043 16 3.23478 16 3.5V14.5Z" fill="#192335"/>
</svg>
