<svg width="14" height="14" viewBox="0 0 14 14" fill="none" xmlns="http://www.w3.org/2000/svg">
<path d="M10.332 3.66634H3.66536C3.48855 3.66634 3.31898 3.73658 3.19396 3.8616C3.06894 3.98663 2.9987 4.1562 2.9987 4.33301C2.9987 4.50982 3.06894 4.67939 3.19396 4.80441C3.31898 4.92944 3.48855 4.99967 3.66536 4.99967H10.332C10.5088 4.99967 10.6784 4.92944 10.8034 4.80441C10.9285 4.67939 10.9987 4.50982 10.9987 4.33301C10.9987 4.1562 10.9285 3.98663 10.8034 3.8616C10.6784 3.73658 10.5088 3.66634 10.332 3.66634ZM10.332 6.33301H3.66536C3.48855 6.33301 3.31898 6.40325 3.19396 6.52827C3.06894 6.65329 2.9987 6.82286 2.9987 6.99967C2.9987 7.17649 3.06894 7.34606 3.19396 7.47108C3.31898 7.5961 3.48855 7.66634 3.66536 7.66634H10.332C10.5088 7.66634 10.6784 7.5961 10.8034 7.47108C10.9285 7.34606 10.9987 7.17649 10.9987 6.99967C10.9987 6.82286 10.9285 6.65329 10.8034 6.52827C10.6784 6.40325 10.5088 6.33301 10.332 6.33301ZM11.6654 0.333008H2.33203C1.8016 0.333008 1.29289 0.543722 0.917818 0.918794C0.542745 1.29387 0.332031 1.80257 0.332031 2.33301V8.99967C0.332031 9.53011 0.542745 10.0388 0.917818 10.4139C1.29289 10.789 1.8016 10.9997 2.33203 10.9997H10.0587L12.5254 13.473C12.5877 13.5348 12.6615 13.5837 12.7428 13.6169C12.824 13.65 12.911 13.6668 12.9987 13.6663C13.0861 13.6686 13.1729 13.6503 13.252 13.613C13.3738 13.563 13.478 13.4781 13.5516 13.3689C13.6251 13.2598 13.6647 13.1313 13.6654 12.9997V2.33301C13.6654 1.80257 13.4547 1.29387 13.0796 0.918794C12.7045 0.543722 12.1958 0.333008 11.6654 0.333008ZM12.332 11.393L10.8054 9.85968C10.7431 9.79789 10.6692 9.749 10.588 9.71583C10.5067 9.68265 10.4198 9.66583 10.332 9.66634H2.33203C2.15522 9.66634 1.98565 9.5961 1.86063 9.47108C1.7356 9.34606 1.66536 9.17649 1.66536 8.99967V2.33301C1.66536 2.1562 1.7356 1.98663 1.86063 1.8616C1.98565 1.73658 2.15522 1.66634 2.33203 1.66634H11.6654C11.8422 1.66634 12.0117 1.73658 12.1368 1.8616C12.2618 1.98663 12.332 2.1562 12.332 2.33301V11.393Z" fill="#0CAEF4"/>
</svg>
