<svg width="12" height="14" viewBox="0 0 12 14" fill="none" xmlns="http://www.w3.org/2000/svg">
<path d="M10.2001 4.7265L10.8068 4.1265C10.9323 4.00097 11.0028 3.8307 11.0028 3.65317C11.0028 3.47564 10.9323 3.30537 10.8068 3.17984C10.6812 3.0543 10.511 2.98378 10.3334 2.98378C10.1559 2.98378 9.98564 3.0543 9.8601 3.17984L9.2601 3.7865C8.3258 3.06374 7.17799 2.67159 5.99677 2.67159C4.81554 2.67159 3.66773 3.06374 2.73343 3.7865L2.12677 3.17317C2.00035 3.04763 1.82923 2.97746 1.65108 2.97809C1.47292 2.97871 1.3023 3.05008 1.17677 3.1765C1.05123 3.30292 0.981056 3.47403 0.981681 3.65219C0.982306 3.83035 1.05368 4.00097 1.1801 4.1265L1.79343 4.73317C1.06211 5.66487 0.665293 6.8154 0.666766 7.99984C0.664588 8.85012 0.865741 9.6886 1.25345 10.4453C1.64115 11.2021 2.20418 11.8552 2.89556 12.3501C3.58694 12.8451 4.38665 13.1675 5.22797 13.2906C6.0693 13.4137 6.92787 13.3339 7.73207 13.0578C8.53627 12.7816 9.26279 12.3172 9.85105 11.7033C10.4393 11.0893 10.8722 10.3436 11.1138 9.52835C11.3553 8.71309 11.3984 7.8519 11.2394 7.0166C11.0805 6.1813 10.7241 5.39611 10.2001 4.7265ZM6.0001 11.9998C5.20897 11.9998 4.43561 11.7652 3.77782 11.3257C3.12002 10.8862 2.60733 10.2615 2.30458 9.53057C2.00183 8.79967 1.92262 7.9954 2.07696 7.21948C2.2313 6.44355 2.61226 5.73082 3.17167 5.17141C3.73108 4.612 4.44381 4.23104 5.21974 4.0767C5.99566 3.92235 6.79993 4.00157 7.53083 4.30432C8.26174 4.60707 8.88645 5.11976 9.32598 5.77756C9.7655 6.43535 10.0001 7.20871 10.0001 7.99984C10.0001 9.0607 9.57867 10.0781 8.82853 10.8283C8.07838 11.5784 7.06097 11.9998 6.0001 11.9998ZM4.66677 1.99984H7.33343C7.51024 1.99984 7.67981 1.9296 7.80484 1.80457C7.92986 1.67955 8.0001 1.50998 8.0001 1.33317C8.0001 1.15636 7.92986 0.98679 7.80484 0.861766C7.67981 0.736742 7.51024 0.666504 7.33343 0.666504H4.66677C4.48995 0.666504 4.32039 0.736742 4.19536 0.861766C4.07034 0.98679 4.0001 1.15636 4.0001 1.33317C4.0001 1.50998 4.07034 1.67955 4.19536 1.80457C4.32039 1.9296 4.48995 1.99984 4.66677 1.99984ZM6.66677 5.99984C6.66677 5.82303 6.59653 5.65346 6.4715 5.52843C6.34648 5.40341 6.17691 5.33317 6.0001 5.33317C5.82329 5.33317 5.65372 5.40341 5.52869 5.52843C5.40367 5.65346 5.33343 5.82303 5.33343 5.99984V7.25984C5.18248 7.39485 5.07608 7.57252 5.02831 7.76933C4.98054 7.96615 4.99366 8.17282 5.06593 8.36201C5.13819 8.55121 5.2662 8.714 5.43301 8.82885C5.59982 8.9437 5.79757 9.00519 6.0001 9.00519C6.20262 9.00519 6.40038 8.9437 6.56719 8.82885C6.734 8.714 6.86201 8.55121 6.93427 8.36201C7.00654 8.17282 7.01965 7.96615 6.97189 7.76933C6.92412 7.57252 6.81772 7.39485 6.66677 7.25984V5.99984Z" fill="#A0A0A0"/>
</svg>
