<svg width="15" height="16" viewBox="0 0 15 16" fill="none" xmlns="http://www.w3.org/2000/svg">
<g clip-path="url(#clip0_2322_38909)">
<path d="M2.11502 0.862381C1.79861 0.923904 1.45291 1.20222 1.30935 1.51277C0.998805 2.17195 1.23904 3.1241 1.8367 3.62215C2.15017 3.88289 2.61599 4.02937 2.95291 3.97078C3.09646 3.94441 3.12283 3.94734 3.1492 3.99129C3.16384 4.01765 3.33669 4.3282 3.53298 4.68269C3.83767 5.23347 3.88455 5.33308 3.84939 5.37117C3.72634 5.51472 3.67947 5.88972 3.75857 6.08308C3.82302 6.23543 5.4783 9.07137 5.54568 9.14168C5.65994 9.26765 5.88259 9.35555 6.08474 9.35555C6.25466 9.35555 6.31912 9.33211 6.93142 9.06258C7.29763 8.89851 7.59939 8.76961 7.60232 8.77547C7.60818 8.78133 7.81326 9.33797 8.05935 10.0118L8.50466 11.2393L8.22927 11.793L7.95388 12.3468L7.01052 13.1934C6.17849 13.9434 6.0613 14.0606 5.98806 14.21C5.92068 14.3477 5.90603 14.4151 5.90603 14.585C5.90896 14.9307 6.0613 15.1798 6.36306 15.3292C6.59744 15.4493 6.88162 15.4552 7.10427 15.3497C7.20095 15.3057 7.55252 15.0128 8.12966 14.4971C9.4656 13.3077 9.28396 13.5216 9.77322 12.5284L10.1922 11.67L10.6111 11.8194C10.8426 11.9014 11.1502 12.0098 11.2937 12.0596L11.5574 12.1534L11.572 13.4571C11.5867 14.7491 11.5867 14.7608 11.6541 14.8985C11.7508 15.0977 11.9793 15.2911 12.1814 15.3497C12.6062 15.4727 13.034 15.2735 13.2244 14.8663C13.2859 14.7345 13.2859 14.6964 13.2859 13.0616C13.2859 11.7081 13.2771 11.3682 13.2449 11.2745C13.1834 11.1016 13.0515 10.92 12.9109 10.8262C12.8435 10.7794 12.448 10.6212 12.0261 10.4718L11.2644 10.2022L10.784 8.88387C10.4969 8.10164 10.3123 7.55672 10.3299 7.53914C10.3445 7.52742 11.0681 7.19051 11.9383 6.795C13.1863 6.22371 13.5437 6.05086 13.6287 5.9659C13.9129 5.68758 13.9129 5.15144 13.6258 4.89363C13.4617 4.74715 13.2859 4.68855 13.0457 4.7032C12.8552 4.71492 12.7029 4.77937 9.6824 6.15926C7.94216 6.95613 6.49197 7.60945 6.45974 7.61824C6.40994 7.62703 6.30447 7.46004 5.74783 6.49031C5.39041 5.86336 5.05349 5.30965 5.00076 5.25398C4.86599 5.11629 4.70486 5.0489 4.49685 5.0489H4.32107L3.94607 4.37215L3.56814 3.69539L3.66775 3.58699C3.87869 3.36433 3.9783 3.10652 4.00466 2.73445C4.03689 2.21004 3.84353 1.71199 3.45681 1.32527C3.06423 0.932693 2.58962 0.768631 2.11502 0.862381ZM2.69509 1.41023C3.15212 1.60945 3.48611 2.12801 3.48611 2.64363C3.48611 2.91902 3.43044 3.09773 3.28982 3.25887C3.14334 3.43172 2.98513 3.50496 2.76541 3.50789C2.28787 3.50789 1.76345 3.01277 1.64334 2.44734C1.59646 2.22469 1.60232 2.09285 1.67263 1.87019C1.71951 1.71492 1.76345 1.64168 1.86892 1.53621C1.94509 1.46004 2.05349 1.38387 2.10916 1.36629C2.24978 1.31648 2.53689 1.33992 2.69509 1.41023ZM13.2625 5.23933C13.3621 5.30965 13.3914 5.43562 13.3357 5.54988C13.2888 5.6407 13.1629 5.70222 11.5427 6.44051C9.90505 7.18758 9.79959 7.24031 9.76443 7.3282C9.72048 7.43953 9.6531 7.23738 10.3445 9.11824C10.6228 9.88289 10.8777 10.5391 10.9129 10.5743C10.951 10.6153 11.2556 10.7384 11.7595 10.92C12.1902 11.0753 12.5828 11.2218 12.6267 11.2452C12.8025 11.336 12.8025 11.336 12.8025 13.047C12.8025 14.7374 12.8054 14.6993 12.6385 14.8311C12.5447 14.9044 12.3689 14.9132 12.2459 14.8487C12.0701 14.7579 12.0701 14.7637 12.0701 13.2696V11.9073L12.0056 11.8341C11.9558 11.7784 11.7156 11.6788 11.0359 11.4356L10.1336 11.1134L9.54177 11.0665C9.21658 11.0401 8.94705 11.0167 8.94705 11.0167C8.94412 11.0137 8.72732 10.4044 8.46365 9.66609C8.19998 8.92781 7.96267 8.295 7.9363 8.25984C7.83669 8.1368 7.69607 8.17488 6.88455 8.54402C6.47439 8.73152 6.10818 8.8868 6.07302 8.8868C6.03494 8.8868 5.96755 8.85164 5.92068 8.80476C5.81228 8.70223 4.18923 5.90144 4.18923 5.81355C4.18923 5.72566 4.26248 5.58797 4.32107 5.56453C4.41189 5.52937 4.53201 5.54695 4.60525 5.60555C4.64627 5.63484 4.99197 6.20613 5.37869 6.87117C5.76248 7.53621 6.10818 8.11043 6.14334 8.14851C6.18435 8.18953 6.24294 8.21297 6.3074 8.21297C6.37771 8.21297 7.4031 7.75887 9.71462 6.70711C11.6453 5.8282 13.0603 5.19832 13.1101 5.19832C13.1599 5.19539 13.2273 5.2159 13.2625 5.23933ZM9.39822 11.5206C9.53005 11.5352 9.64724 11.5499 9.6531 11.5587C9.66189 11.5675 9.51541 11.9073 9.32498 12.3145L8.9822 13.0528L7.97732 13.9522C7.42361 14.4444 6.93142 14.8663 6.87869 14.8868C6.61502 14.9981 6.3074 14.6934 6.42166 14.4356C6.44509 14.38 6.82595 14.0137 7.40896 13.4923L8.35525 12.6397L8.62478 12.0655L8.89138 11.4942L9.02322 11.4971C9.09646 11.4971 9.26345 11.5089 9.39822 11.5206Z" fill="#A0A0A0"/>
<path d="M6.34234 1.21108C5.95269 1.41616 5.80913 1.47476 5.68316 1.4894C5.32574 1.53042 5.2232 1.56265 5.08843 1.67983C4.72222 2.0021 4.77495 2.55288 5.1939 2.79312C5.36382 2.8898 5.56011 2.90737 5.86773 2.85171C6.00542 2.82534 6.09917 2.8312 6.45074 2.89273C7.13921 3.01284 7.22417 3.0187 7.30913 2.9396C7.35308 2.89859 7.38238 2.83706 7.38238 2.79019C7.38238 2.74624 7.32964 2.35366 7.26519 1.91714C7.20074 1.48062 7.148 1.1144 7.148 1.09976C7.148 1.08511 7.12163 1.04702 7.08941 1.01187C6.98394 0.900537 6.87847 0.929834 6.34234 1.21108ZM6.79937 2.01382C6.83452 2.25112 6.85796 2.45034 6.8521 2.45327C6.82281 2.48257 6.29253 2.36245 6.27202 2.32437C6.24566 2.27456 6.16949 1.82632 6.18706 1.8146C6.22515 1.79116 6.7232 1.56851 6.72906 1.57437C6.73492 1.5773 6.76421 1.77651 6.79937 2.01382ZM5.72417 2.05191C5.78863 2.40054 5.78277 2.41226 5.58355 2.41226C5.37554 2.41226 5.26714 2.23648 5.38433 2.08999C5.42827 2.03433 5.49859 2.00796 5.68902 1.97573C5.69781 1.97573 5.71538 2.00796 5.72417 2.05191Z" fill="#A0A0A0"/>
<path d="M7.29458 3.91215C6.152 4.31059 6.12856 5.94242 7.25942 6.36723C7.90395 6.61332 8.61879 6.32035 8.91762 5.6934C9.00258 5.51469 9.00844 5.48539 9.00844 5.15141C9.00844 4.81742 9.00258 4.79106 8.91469 4.60063C8.78579 4.32817 8.56606 4.10551 8.29653 3.97074C8.09438 3.87113 8.05336 3.86235 7.7809 3.85356C7.53481 3.8477 7.45278 3.85649 7.29458 3.91215ZM8.06801 4.40141C8.57192 4.6475 8.70375 5.27738 8.33461 5.68754C8.00649 6.05375 7.47915 6.06254 7.13637 5.71098C6.84926 5.41215 6.83461 4.93461 7.10415 4.61527C7.19497 4.50688 7.40004 4.37797 7.53774 4.34281C7.68129 4.30766 7.92739 4.33402 8.06801 4.40141Z" fill="#A0A0A0"/>
</g>
<defs>
<clipPath id="clip0_2322_38909">
<rect width="15" height="15" fill="white" transform="translate(0 0.625)"/>
</clipPath>
</defs>
</svg>
