<svg width="54" height="54" viewBox="0 0 54 54" fill="none" xmlns="http://www.w3.org/2000/svg">
<path d="M0 22.3072V44.6138H3.16406H6.32813V49.3177C6.32813 53.3361 6.34922 54.0111 6.47578 53.9689C6.56016 53.9373 9.88242 51.8173 13.8691 49.265L21.1148 44.6138H37.5574H54V22.3072V0.000545502H27H0V22.3072ZM50.8359 22.2544V41.3443H35.4691H20.0918L14.8711 44.6982L9.65039 48.0521L9.61875 44.6982L9.59766 41.3443H6.38086H3.16406V22.2544V3.16461H27H50.8359V22.2544Z" fill="white"/>
<path d="M9.49219 16.2418V22.2535H12.6563H15.8203V23.3293C15.8203 25.059 15.4195 26.1348 14.3965 27.1473C13.4051 28.1387 12.1605 28.5816 10.3148 28.5816H9.49219V31.8195V35.0469L11.1586 34.9836C13.0148 34.9203 14.4492 34.6672 15.8941 34.1609C20.809 32.4312 24.416 28.1176 25.2598 22.9391C25.3863 22.1797 25.418 20.7875 25.418 16.1047V10.2301H17.4551H9.49219V16.2418ZM22.1273 18.0031C22.0852 22.2324 22.0746 22.5699 21.8637 23.3293C20.8301 26.9996 18.341 29.7418 14.8184 31.0602C13.8691 31.4187 13.8375 31.3871 14.7234 30.9441C16.6219 30.0055 18.0773 28.2547 18.784 26.1031C19.0055 25.4176 19.0266 25.1434 19.0688 22.1691L19.1109 18.984H15.9363H12.7617V16.2418V13.4996H17.4656H22.159L22.1273 18.0031Z" fill="white"/>
<path d="M28.582 16.2418V22.2535H31.7461H34.9102V23.2238C34.9102 25.3227 34.2352 26.7148 32.727 27.759C31.9676 28.2758 31.1977 28.4867 29.8266 28.55L28.582 28.6133V31.8301V35.0469L30.1957 34.9836C31.0711 34.952 32.2102 34.8465 32.7164 34.7621C38.7492 33.6758 43.432 28.8664 44.3496 22.7809C44.4762 22.0004 44.5078 20.5027 44.5078 15.9992V10.2301H36.5449H28.582V16.2418ZM41.2383 17.5496C41.2383 20.6293 41.2066 21.8 41.0801 22.475C40.4051 26.3352 37.7051 29.6152 34.0453 31.0074C33.2227 31.3133 33.1805 31.2605 33.9398 30.8598C36.1441 29.668 37.5785 27.6852 38.032 25.2066C38.127 24.6793 38.1691 23.5086 38.1797 21.6945V18.984H35.0156H31.8516V16.2418V13.4996H36.5449H41.2383V17.5496Z" fill="white"/>
</svg>
