<svg width="17" height="21" viewBox="0 0 17 21" fill="none" xmlns="http://www.w3.org/2000/svg">
<path d="M9.5 12.5H5.5C5.23478 12.5 4.98043 12.6054 4.79289 12.7929C4.60536 12.9804 4.5 13.2348 4.5 13.5C4.5 13.7652 4.60536 14.0196 4.79289 14.2071C4.98043 14.3946 5.23478 14.5 5.5 14.5H9.5C9.76522 14.5 10.0196 14.3946 10.2071 14.2071C10.3946 14.0196 10.5 13.7652 10.5 13.5C10.5 13.2348 10.3946 12.9804 10.2071 12.7929C10.0196 12.6054 9.76522 12.5 9.5 12.5ZM13.5 2.5H12.32C12.1137 1.91645 11.7319 1.411 11.2271 1.05294C10.7222 0.694879 10.1189 0.50174 9.5 0.5H7.5C6.88106 0.50174 6.2778 0.694879 5.77293 1.05294C5.26807 1.411 4.88631 1.91645 4.68 2.5H3.5C2.70435 2.5 1.94129 2.81607 1.37868 3.37868C0.816071 3.94129 0.5 4.70435 0.5 5.5V17.5C0.5 18.2956 0.816071 19.0587 1.37868 19.6213C1.94129 20.1839 2.70435 20.5 3.5 20.5H13.5C14.2956 20.5 15.0587 20.1839 15.6213 19.6213C16.1839 19.0587 16.5 18.2956 16.5 17.5V5.5C16.5 4.70435 16.1839 3.94129 15.6213 3.37868C15.0587 2.81607 14.2956 2.5 13.5 2.5ZM6.5 3.5C6.5 3.23478 6.60536 2.98043 6.79289 2.79289C6.98043 2.60536 7.23478 2.5 7.5 2.5H9.5C9.76522 2.5 10.0196 2.60536 10.2071 2.79289C10.3946 2.98043 10.5 3.23478 10.5 3.5V4.5H6.5V3.5ZM14.5 17.5C14.5 17.7652 14.3946 18.0196 14.2071 18.2071C14.0196 18.3946 13.7652 18.5 13.5 18.5H3.5C3.23478 18.5 2.98043 18.3946 2.79289 18.2071C2.60536 18.0196 2.5 17.7652 2.5 17.5V5.5C2.5 5.23478 2.60536 4.98043 2.79289 4.79289C2.98043 4.60536 3.23478 4.5 3.5 4.5H4.5V5.5C4.5 5.76522 4.60536 6.01957 4.79289 6.20711C4.98043 6.39464 5.23478 6.5 5.5 6.5H11.5C11.7652 6.5 12.0196 6.39464 12.2071 6.20711C12.3946 6.01957 12.5 5.76522 12.5 5.5V4.5H13.5C13.7652 4.5 14.0196 4.60536 14.2071 4.79289C14.3946 4.98043 14.5 5.23478 14.5 5.5V17.5ZM11.5 8.5H5.5C5.23478 8.5 4.98043 8.60536 4.79289 8.79289C4.60536 8.98043 4.5 9.23478 4.5 9.5C4.5 9.76522 4.60536 10.0196 4.79289 10.2071C4.98043 10.3946 5.23478 10.5 5.5 10.5H11.5C11.7652 10.5 12.0196 10.3946 12.2071 10.2071C12.3946 10.0196 12.5 9.76522 12.5 9.5C12.5 9.23478 12.3946 8.98043 12.2071 8.79289C12.0196 8.60536 11.7652 8.5 11.5 8.5Z" fill="#192335"/>
</svg>
