<?xml version="1.0" encoding="UTF-8"?>
<svg version="1.1" xmlns="http://www.w3.org/2000/svg" width="95" height="95">
<path d="M0 0 C3.67234965 0.67886745 5.07794428 2.45080716 7.21875 5.41015625 C7.59902344 6.45171875 7.97929687 7.49328125 8.37109375 8.56640625 C10.46099721 13.5670589 14.12966646 17.05720096 17.90625 20.84765625 C18.58880859 21.57919922 19.27136719 22.31074219 19.97460938 23.06445312 C20.65716797 23.75474609 21.33972656 24.44503906 22.04296875 25.15625 C22.65229248 25.78200928 23.26161621 26.40776855 23.8894043 27.05249023 C26.31744427 28.75318514 26.31744427 28.75318514 30.01496887 28.20736694 C33.38969934 28.16016073 34.13605411 28.35587075 37.11694336 30.31266785 C38.00518799 31.20359634 38.89343262 32.09452484 39.80859375 33.01245117 C40.30719406 33.50185181 40.80579437 33.99125244 41.31950378 34.4954834 C42.95203368 36.1081968 44.55400275 37.74786539 46.15625 39.390625 C47.28686054 40.52346659 48.41888221 41.65490143 49.55224609 42.7849884 C51.91822825 45.15271057 54.2699521 47.53347473 56.61181641 49.92504883 C59.61388622 52.9895917 62.64397268 56.02446384 65.68452454 59.05077648 C68.02249944 61.38234151 70.34770832 63.72629861 72.66897583 66.07448769 C73.78208197 67.19846927 74.89850618 68.31917491 76.01828003 69.4365139 C77.57965475 70.99931562 79.12372552 72.57738352 80.6640625 74.16088867 C81.54594238 75.05579514 82.42782227 75.9507016 83.33642578 76.87272644 C85.21875 79.41015625 85.21875 79.41015625 85.60620117 82.08906555 C85.06901208 85.30718615 83.62598816 86.74193413 81.40625 89.09765625 C80.69855469 89.86464844 79.99085937 90.63164063 79.26171875 91.421875 C76.92319039 93.69780413 75.12302532 95.24843423 71.86254883 95.83154297 C68.06352409 95.22602845 66.59679908 93.38704781 63.91796875 90.66796875 C63.19611137 89.94261429 63.19611137 89.94261429 62.45967102 89.2026062 C61.44789789 88.18111131 60.44215253 87.15361512 59.44213867 86.12060547 C57.90645113 84.53536387 56.35274133 82.96971818 54.79492188 81.40625 C47.21875 73.72132703 47.21875 73.72132703 47.21875 71.41015625 C46.55875 71.41015625 45.89875 71.41015625 45.21875 71.41015625 C45.21875 70.75015625 45.21875 70.09015625 45.21875 69.41015625 C44.55875 69.41015625 43.89875 69.41015625 43.21875 69.41015625 C43.21875 68.75015625 43.21875 68.09015625 43.21875 67.41015625 C42.55875 67.41015625 41.89875 67.41015625 41.21875 67.41015625 C41.21875 66.75015625 41.21875 66.09015625 41.21875 65.41015625 C40.55875 65.41015625 39.89875 65.41015625 39.21875 65.41015625 C39.21875 64.75015625 39.21875 64.09015625 39.21875 63.41015625 C38.64350586 63.15508301 38.06826172 62.90000977 37.47558594 62.63720703 C33.1910357 60.30767983 29.93746249 56.66758236 26.46875 53.28515625 C25.67597656 52.55039062 24.88320313 51.815625 24.06640625 51.05859375 C18.43938975 45.55748296 18.43938975 45.55748296 17.78417969 42.15039062 C17.8372202 40.23223693 18.01917042 38.31863598 18.21875 36.41015625 C16.03202138 34.06072979 16.03202138 34.06072979 13.21875 32.41015625 C10.90625 30.28515625 10.90625 30.28515625 9.21875 28.41015625 C9.21875 27.75015625 9.21875 27.09015625 9.21875 26.41015625 C8.55875 26.41015625 7.89875 26.41015625 7.21875 26.41015625 C7.21875 25.75015625 7.21875 25.09015625 7.21875 24.41015625 C6.55875 24.41015625 5.89875 24.41015625 5.21875 24.41015625 C5.21875 23.75015625 5.21875 23.09015625 5.21875 22.41015625 C4.55875 22.41015625 3.89875 22.41015625 3.21875 22.41015625 C3.21875 21.75015625 3.21875 21.09015625 3.21875 20.41015625 C2.55875 20.41015625 1.89875 20.41015625 1.21875 20.41015625 C1.21875 19.75015625 1.21875 19.09015625 1.21875 18.41015625 C0.331875 18.34828125 -0.555 18.28640625 -1.46875 18.22265625 C-5.74028639 17.17492091 -7.23923563 15.99888243 -9.78125 12.41015625 C-10.35477165 9.32612472 -10.47058247 6.47768575 -9.78125 3.41015625 C-7.0961465 -0.30896226 -4.30969171 -0.16091381 0 0 Z M-5.90625 4.22265625 C-8.10664569 6.30959994 -8.10664569 6.30959994 -7.78125 9.41015625 C-7.12125 9.41015625 -6.46125 9.41015625 -5.78125 9.41015625 C-4.46125 7.10015625 -3.14125 4.79015625 -1.78125 2.41015625 C-3.99313666 2.19384071 -3.99313666 2.19384071 -5.90625 4.22265625 Z M0.21875 4.41015625 C-3.13747898 8.91544015 -3.13747898 8.91544015 -3.78125 14.41015625 C-0.71725134 13.74045114 -0.71725134 13.74045114 0.38671875 11.5625 C0.72316406 10.83160156 1.05960938 10.10070312 1.40625 9.34765625 C1.75042969 8.61417969 2.09460938 7.88070313 2.44921875 7.125 C2.70316406 6.55910156 2.95710937 5.99320312 3.21875 5.41015625 C2.22875 5.08015625 1.23875 4.75015625 0.21875 4.41015625 Z M4.21875 9.41015625 C3.22875 11.39015625 2.23875 13.37015625 1.21875 15.41015625 C2.70375 16.40015625 2.70375 16.40015625 4.21875 17.41015625 C5.41713209 15.08161162 5.41713209 15.08161162 6.21875 12.41015625 C5.55875 11.42015625 4.89875 10.43015625 4.21875 9.41015625 Z M8.21875 16.41015625 C7.55875 17.73015625 6.89875 19.05015625 6.21875 20.41015625 C7.53875 20.41015625 8.85875 20.41015625 10.21875 20.41015625 C10.54875 19.42015625 10.87875 18.43015625 11.21875 17.41015625 C10.22875 17.08015625 9.23875 16.75015625 8.21875 16.41015625 Z M13.21875 20.41015625 C12.55875 21.07015625 11.89875 21.73015625 11.21875 22.41015625 C11.5372677 24.51836422 11.5372677 24.51836422 12.21875 26.41015625 C13.20875 25.42015625 14.19875 24.43015625 15.21875 23.41015625 C14.88875 22.42015625 14.55875 21.43015625 14.21875 20.41015625 C13.88875 20.41015625 13.55875 20.41015625 13.21875 20.41015625 Z M17.21875 25.41015625 C16.55875 26.73015625 15.89875 28.05015625 15.21875 29.41015625 C16.53875 29.41015625 17.85875 29.41015625 19.21875 29.41015625 C19.54875 28.42015625 19.87875 27.43015625 20.21875 26.41015625 C19.22875 26.08015625 18.23875 25.75015625 17.21875 25.41015625 Z M22.21875 29.41015625 C21.55875 30.07015625 20.89875 30.73015625 20.21875 31.41015625 C20.21875 32.40015625 20.21875 33.39015625 20.21875 34.41015625 C21.53875 33.75015625 22.85875 33.09015625 24.21875 32.41015625 C23.88875 31.42015625 23.55875 30.43015625 23.21875 29.41015625 C22.88875 29.41015625 22.55875 29.41015625 22.21875 29.41015625 Z M27.21875 32.41015625 C25.56875 34.39015625 23.91875 36.37015625 22.21875 38.41015625 C28.15875 44.35015625 34.09875 50.29015625 40.21875 56.41015625 C45.10624821 55.05920938 45.10624821 55.05920938 46.26904297 52.55566406 C46.19350175 49.33306095 44.68992483 48.29798965 42.4140625 46.08203125 C41.60324219 45.2828125 40.79242188 44.48359375 39.95703125 43.66015625 C39.09464844 42.83515625 38.23226562 42.01015625 37.34375 41.16015625 C36.48910156 40.3196875 35.63445313 39.47921875 34.75390625 38.61328125 C31.41698693 34.65044897 31.41698693 34.65044897 27.21875 32.41015625 Z M48.21875 52.41015625 C47.538125 53.61671875 47.538125 53.61671875 46.84375 54.84765625 C45.21875 57.41015625 45.21875 57.41015625 43.21875 58.41015625 C42.78564555 61.3297443 42.61568394 63.50951935 44.30566406 66.03338623 C45.92145623 67.80694152 47.60378008 69.4691008 49.34375 71.12109375 C49.96523926 71.73409332 50.58672852 72.3470929 51.22705078 72.97866821 C53.21062476 74.92871989 55.21404737 76.85685528 57.21875 78.78515625 C58.56907196 80.10537755 59.9180475 81.42697748 61.265625 82.75 C64.56793661 85.98624258 67.88820462 89.20298783 71.21875 92.41015625 C74.94440836 91.0180348 77.03668284 89.91786849 79.53125 86.78515625 C80.04300781 86.15351562 80.55476563 85.521875 81.08203125 84.87109375 C81.45714844 84.38898438 81.83226562 83.906875 82.21875 83.41015625 C80.57925752 79.28972223 77.61124376 76.46201235 74.546875 73.3671875 C73.98683777 72.7981218 73.42680054 72.22905609 72.84979248 71.64274597 C71.66562062 70.4440966 70.47864299 69.24821348 69.2890625 68.05493164 C67.47660262 66.23056048 65.68364465 64.38837636 63.890625 62.54492188 C62.73553001 61.38036365 61.57931597 60.2169141 60.421875 59.0546875 C59.89039856 58.50367874 59.35892212 57.95266998 58.81134033 57.38496399 C55.41841545 54.03218714 53.00092745 52.67965653 48.21875 52.41015625 Z " fill="#B9B9B9" transform="translate(9.78125,-0.41015625)"/>
</svg>
