<?xml version="1.0" encoding="UTF-8"?>
<svg version="1.1" xmlns="http://www.w3.org/2000/svg" width="110" height="90">
<path d="M0 0 C2.27709961 0.38867187 2.27709961 0.38867187 4.08959961 1.57617188 C5.75330064 4.11550502 5.7181851 5.37895927 5.27709961 8.38867188 C3.5845131 10.517347 1.98024502 12.26982013 0.02709961 14.12695312 C-0.50560547 14.65258347 -1.03831055 15.17821381 -1.5871582 15.71977234 C-3.28768148 17.39235515 -5.00476852 19.04670121 -6.72290039 20.70117188 C-7.88028675 21.83347505 -9.03655111 22.96692629 -10.19165039 24.1015625 C-13.0225638 26.87741137 -15.86845793 29.63703236 -18.72290039 32.38867188 C-18.37227539 33.06929687 -18.02165039 33.74992187 -17.66040039 34.45117188 C-16.45584702 38.2254391 -16.84883754 40.53538261 -17.72290039 44.38867188 C-19.53807068 46.93209839 -19.53807068 46.93209839 -21.93554688 49.29833984 C-22.8299498 50.19551727 -23.72435272 51.0926947 -24.64585876 52.01705933 C-25.62818194 52.97205924 -26.61090328 53.92664974 -27.59399414 54.88085938 C-28.59792144 55.87612432 -29.60059436 56.87265601 -30.60206604 57.87039185 C-33.23323609 60.48438405 -35.88235217 63.07944261 -38.53527832 65.67132568 C-40.70201865 67.79436664 -42.85560356 69.93048262 -45.00863552 72.06741142 C-47.5745072 74.61369898 -50.14581691 77.15445668 -52.71899414 79.69335938 C-53.21042845 80.17836788 -53.70186275 80.66337639 -54.20818901 81.16308212 C-55.59618098 82.53012726 -56.98841883 83.89285745 -58.38085938 85.25537109 C-59.56880348 86.41950027 -59.56880348 86.41950027 -60.78074646 87.60714722 C-63.89461945 90.46348183 -66.36699838 90.82493492 -70.60180664 90.76367188 C-74.46003821 90.08155359 -76.61543976 87.65577296 -79.22290039 84.88867188 C-80.02727539 84.13070312 -80.02727539 84.13070312 -80.84790039 83.35742188 C-83.75130052 80.39476868 -84.66942308 78.65605841 -85.50415039 74.48242188 C-85.24542367 70.93085514 -84.02643627 69.2153524 -81.64990234 66.61914062 C-81.014888 65.92268433 -80.37987366 65.22622803 -79.72561646 64.50866699 C-76.56454939 61.16248784 -73.36180307 57.86510966 -70.10961914 54.60742188 C-69.41399368 53.90846802 -68.71836823 53.20951416 -68.00166321 52.48937988 C-66.54668347 51.02937983 -65.09038552 49.57069234 -63.6328125 48.11328125 C-61.39367928 45.87193423 -59.16269761 43.62267174 -56.93188477 41.37304688 C-55.51245146 39.95068414 -54.09254677 38.52879164 -52.67211914 37.10742188 C-52.00444016 36.43255737 -51.33676117 35.75769287 -50.64884949 35.06237793 C-50.03093033 34.4475354 -49.41301117 33.83269287 -48.77636719 33.19921875 C-48.23344528 32.65487183 -47.69052338 32.1105249 -47.13114929 31.54968262 C-45.72290039 30.38867188 -45.72290039 30.38867188 -43.72290039 30.38867188 C-43.72290039 29.72867187 -43.72290039 29.06867187 -43.72290039 28.38867188 C-43.06290039 28.38867188 -42.40290039 28.38867188 -41.72290039 28.38867188 C-41.72290039 27.72867187 -41.72290039 27.06867187 -41.72290039 26.38867188 C-41.06290039 26.38867188 -40.40290039 26.38867188 -39.72290039 26.38867188 C-39.72290039 25.72867187 -39.72290039 25.06867187 -39.72290039 24.38867188 C-35.83285774 21.79531011 -34.21364117 22.60082261 -29.72290039 23.38867188 C-25.68743851 23.82021872 -25.68743851 23.82021872 -23.23681641 21.27734375 C-22.30715295 20.31325925 -21.38772304 19.33923876 -20.47680664 18.35742188 C-19.46452015 17.30916434 -18.4521477 16.26098981 -17.43969727 15.21289062 C-15.85830327 13.55062012 -14.28131333 11.88433889 -12.70703125 10.21533203 C-11.18252164 8.60635216 -9.64305641 7.01284778 -8.10180664 5.41992188 C-7.63706436 4.91682495 -7.17232208 4.41372803 -6.6934967 3.89538574 C-4.48605571 1.62234964 -3.18436973 0.45454287 0 0 Z " fill="#F0CDBB" transform="translate(84.722900390625,-0.388671875)"/>
<path d="M0 0 C2.69479345 1.06985056 4.19923497 2.74302545 6.18902588 4.83230591 C6.89543213 5.56578247 7.60183838 6.29925903 8.32965088 7.05496216 C8.86074463 7.6208606 9.39183838 8.18675903 9.93902588 8.76980591 C5.76124823 13.75573466 1.40775311 18.43684875 -3.20941162 23.01589966 C-3.86680328 23.67187637 -4.52419495 24.32785309 -5.20150757 25.00370789 C-7.27730274 27.07395858 -9.35656839 29.14068242 -11.43597412 31.20730591 C-12.85417493 32.62048453 -14.27214589 34.03389384 -15.68988037 35.44754028 C-19.14426189 38.89096656 -22.60175782 42.3312369 -26.06097412 45.76980591 C-28.11483554 43.11878351 -29.48775007 41.11577299 -30.24847412 37.83230591 C-30.40702881 37.18390747 -30.5655835 36.53550903 -30.72894287 35.86746216 C-30.83851318 35.1752356 -30.9480835 34.48300903 -31.06097412 33.76980591 C-31.19576172 33.04317749 -31.33054932 32.31654907 -31.46942139 31.56790161 C-30.82577171 27.15853585 -27.95337893 24.947761 -24.85784912 21.90261841 C-24.22365051 21.26363617 -23.5894519 20.62465393 -22.93603516 19.96630859 C-21.59368867 18.62056266 -20.2450192 17.28109839 -18.89056396 15.94754028 C-16.81492839 13.89870912 -14.76733971 11.82454208 -12.72113037 9.74636841 C-11.41413721 8.44267846 -10.1055943 7.14053995 -8.79534912 5.84011841 C-8.18165466 5.2163028 -7.56796021 4.59248718 -6.93566895 3.94976807 C-2.57948075 -0.28810708 -2.57948075 -0.28810708 0 0 Z " fill="#F3DACA" transform="translate(51.06097412109375,40.230194091796875)"/>
<path d="M0 0 C3.38364743 2.49991834 4.82667382 5.40419124 6 9.4375 C6 14.8234428 4.39083993 18.30491383 1 22.4375 C-4.3602438 25.22929365 -10.22767029 24.82580034 -15.9375 23.125 C-19.3265462 19.63325543 -21.14819528 15.79140158 -22 11 C-21.08147117 6.50686314 -18.72810252 3.70989996 -15.5 0.5625 C-10.23894559 -2.72565901 -5.66283834 -2.20053255 0 0 Z " fill="#DB517A" transform="translate(64,66)"/>
<path d="M0 0 C2.25683594 0.39355469 2.25683594 0.39355469 4.06933594 1.58105469 C5.7375515 4.12727844 5.70227364 5.37323069 5.25683594 8.39355469 C3.54341968 10.60374918 1.90819753 12.44375293 -0.07128906 14.38574219 C-0.61670349 14.93594025 -1.16211792 15.48613831 -1.72406006 16.05300903 C-2.87809487 17.21044109 -4.03844738 18.36160361 -5.20458984 19.50683594 C-6.99059376 21.26602298 -8.74831361 23.05034249 -10.50488281 24.83886719 C-11.62958475 25.96026601 -12.75583625 27.0801133 -13.88378906 28.19824219 C-14.4099884 28.73456268 -14.93618774 29.27088318 -15.47833252 29.82345581 C-16.99414063 31.29150391 -16.99414063 31.29150391 -19.74316406 33.39355469 C-22.75741804 33.30942057 -23.65881511 32.45966603 -26.05566406 30.58105469 C-27.74316406 28.39355469 -27.74316406 28.39355469 -27.671875 26.609375 C-26.31812554 23.37945121 -24.00944298 21.19205773 -21.57128906 18.75292969 C-20.79214142 17.96236176 -20.79214142 17.96236176 -19.99725342 17.15582275 C-18.89820818 16.04598924 -17.79517883 14.94008887 -16.68847656 13.83789062 C-14.99891865 12.14930596 -13.33180842 10.44053818 -11.66503906 8.72949219 C-10.59342592 7.65267256 -9.52054995 6.57710787 -8.44628906 5.50292969 C-7.95026184 4.9905072 -7.45423462 4.47808472 -6.94317627 3.95013428 C-4.64866721 1.70039707 -3.22738663 0.46302485 0 0 Z " fill="#4F4F5D" transform="translate(84.7431640625,-0.3935546875)"/>
<path d="M0 0 C2.36904715 0.25202629 4.65833211 0.57773202 7 1 C7.77988281 1.13792969 8.55976563 1.27585937 9.36328125 1.41796875 C11.86791163 2.02875423 13.8060065 2.63699802 16 4 C17.65865116 6.87351605 18.29062204 9.78226158 19 13 C19.4125 13.928125 19.825 14.85625 20.25 15.8125 C21.13073382 18.38130699 21.10663629 19.53134981 20 22 C16.29452291 24.47031806 13.29615351 24.84474929 9 24 C6.41429085 22.53628359 4.52801041 20.65217431 2.5 18.5 C1.96375 17.9946875 1.4275 17.489375 0.875 16.96875 C-2.01912224 14.01556404 -3.34958724 11.95070086 -3.4375 7.75 C-3.00623721 4.05346177 -2.58588665 2.58588665 0 0 Z " fill="#EAAE9C" transform="translate(3,66)"/>
<path d="M0 0 C4.61578804 1.40820652 5.63118248 3.24122828 8.203125 7.140625 C9.72644349 9.42746887 9.72644349 9.42746887 13 11.1875 C15.6875 13.125 15.6875 13.125 16.9375 16.4375 C16.59382768 21.50666678 14.26047009 23.71773287 10.6875 27.125 C7.35515426 25.67258264 5.14524394 23.8399914 2.578125 21.28125 C1.44697266 20.15396484 1.44697266 20.15396484 0.29296875 19.00390625 C-0.48433594 18.21886719 -1.26164062 17.43382813 -2.0625 16.625 C-2.85527344 15.83996094 -3.64804687 15.05492187 -4.46484375 14.24609375 C-5.21378906 13.49457031 -5.96273437 12.74304687 -6.734375 11.96875 C-7.42112305 11.27974609 -8.10787109 10.59074219 -8.81542969 9.88085938 C-10.3125 8.125 -10.3125 8.125 -10.3125 6.125 C-9.6525 6.125 -8.9925 6.125 -8.3125 6.125 C-8.3125 5.465 -8.3125 4.805 -8.3125 4.125 C-7.6525 4.125 -6.9925 4.125 -6.3125 4.125 C-6.3125 3.465 -6.3125 2.805 -6.3125 2.125 C-3.3125 0.125 -3.3125 0.125 0 0 Z " fill="#F0C65D" transform="translate(51.3125,21.875)"/>
<path d="M0 0 C2.25 0.41796875 2.25 0.41796875 4.0625 1.60546875 C5.76456294 4.2033543 5.77759903 5.32958421 5.25 8.41796875 C3.33809637 10.95636325 1.06976266 13.06744681 -1.25 15.23046875 C-1.87003906 15.82794922 -2.49007812 16.42542969 -3.12890625 17.04101562 C-4.65825488 18.51154316 -6.20271466 19.96632605 -7.75 21.41796875 C-10.49277578 18.21806367 -12.3802836 15.41297493 -13.75 11.41796875 C-12.03566742 9.56853115 -10.30587991 7.73967767 -8.5625 5.91796875 C-8.07974609 5.39332031 -7.59699219 4.86867188 -7.09960938 4.328125 C-4.78610533 1.93698659 -3.3450298 0.50840652 0 0 Z " fill="#4D4957" transform="translate(84.75,-0.41796875)"/>
<path d="M0 0 C4.99301258 1.99720503 6.28369002 2.63450182 9 7 C10.16897659 11.20831572 10.15415568 13.49471195 8.875 17.6875 C6.93358316 21.11733641 5.29789741 22.8859632 2 25 C1.34 25 0.68 25 0 25 C0 16.75 0 8.5 0 0 Z " fill="#DB537B" transform="translate(60,65)"/>
<path d="M0 0 C0 8.25 0 16.5 0 25 C-2.31 25 -4.62 25 -7 25 C-7 16.75 -7 8.5 -7 0 C-5 -1 -5 -1 0 0 Z " fill="#B63E67" transform="translate(60,65)"/>
<path d="M0 0 C2.6244603 2.3745117 4.50692877 4.77810946 6 8 C5.1875 10.3125 5.1875 10.3125 4 12 C0.2273236 11.46104623 -1.68212991 10.00464642 -4 7 C-3.91773794 4.28535198 -3.23959034 3.26834119 -1.4375 1.25 C-0.963125 0.8375 -0.48875 0.425 0 0 Z " fill="#494752" transform="translate(61,21)"/>
<path d="M0 0 C3 1 3 1 4.16796875 2.84765625 C4.50441406 3.57855469 4.84085937 4.30945313 5.1875 5.0625 C5.53167969 5.79597656 5.87585938 6.52945312 6.23046875 7.28515625 C6.48441406 7.85105469 6.73835938 8.41695312 7 9 C5.35 10.32 3.7 11.64 2 13 C0.35 9.7 -1.3 6.4 -3 3 C-2.01 2.01 -1.02 1.02 0 0 Z " fill="#474857" transform="translate(74,8)"/>
<path d="M0 0 C3 1 3 1 4.16796875 2.84765625 C4.50441406 3.57855469 4.84085937 4.30945313 5.1875 5.0625 C5.53167969 5.79597656 5.87585938 6.52945312 6.23046875 7.28515625 C6.48441406 7.85105469 6.73835938 8.41695312 7 9 C6.01 9.66 5.02 10.32 4 11 C3.13341385 9.73760288 2.28207941 8.46472499 1.4375 7.1875 C0.72400391 6.12595703 0.72400391 6.12595703 -0.00390625 5.04296875 C-1 3 -1 3 0 0 Z " fill="#D7DCEB" transform="translate(63,19)"/>
<path d="M0 0 C0.66 0 1.32 0 2 0 C6.06153846 6.4 6.06153846 6.4 5.75 9.4375 C5.5025 9.953125 5.255 10.46875 5 11 C4.34 11 3.68 11 3 11 C-1.06153846 4.6 -1.06153846 4.6 -0.75 1.5625 C-0.5025 1.046875 -0.255 0.53125 0 0 Z " fill="#C4CCE6" transform="translate(70,12)"/>
<path d="M0 0 C3.48331435 3.01887244 4.79157144 5.56909529 6 10 C5.01 10.33 4.02 10.66 3 11 C1.35 8.03 -0.3 5.06 -2 2 C-1.34 1.34 -0.68 0.68 0 0 Z " fill="#DADFED" transform="translate(77,5)"/>
</svg>
