<?xml version="1.0" encoding="UTF-8"?>
<svg version="1.1" xmlns="http://www.w3.org/2000/svg" width="123" height="123">
<path d="M0 0 C1.64766357 0.00858032 1.64766357 0.00858032 3.32861328 0.01733398 C17.01331323 0.31657974 27.73354212 4.38929534 38.8125 12.5 C39.864375 13.263125 40.91625 14.02625 42 14.8125 C53.18971716 25.50489639 61.49388107 39.71383822 62.28125 55.41796875 C62.31543248 57.50755889 62.3251744 59.59766872 62.3125 61.6875 C62.30677979 62.78594238 62.30105957 63.88438477 62.29516602 65.01611328 C61.99592026 78.70081323 57.92320466 89.42104212 49.8125 100.5 C49.049375 101.551875 48.28625 102.60375 47.5 103.6875 C36.80760361 114.87721716 22.59866178 123.18138107 6.89453125 123.96875 C4.80494111 124.00293248 2.71483128 124.0126744 0.625 124 C-1.02266357 123.99141968 -1.02266357 123.99141968 -2.70361328 123.98266602 C-16.38831323 123.68342026 -27.10854212 119.61070466 -38.1875 111.5 C-39.239375 110.736875 -40.29125 109.97375 -41.375 109.1875 C-52.56471716 98.49510361 -60.86888107 84.28616178 -61.65625 68.58203125 C-61.69043248 66.49244111 -61.7001744 64.40233128 -61.6875 62.3125 C-61.68177979 61.21405762 -61.67605957 60.11561523 -61.67016602 58.98388672 C-61.37092026 45.29918677 -57.29820466 34.57895788 -49.1875 23.5 C-48.424375 22.448125 -47.66125 21.39625 -46.875 20.3125 C-34.10620432 6.94980685 -18.4131897 -0.11167219 0 0 Z " fill="#C03C2D" transform="translate(61.1875,-0.5)"/>
<path d="M0 0 C-0.01047363 0.76030518 -0.02094727 1.52061035 -0.03173828 2.30395508 C-0.07375821 5.80676866 -0.0994708 9.30952892 -0.125 12.8125 C-0.14175781 14.00810547 -0.15851562 15.20371094 -0.17578125 16.43554688 C-0.2993309 39.10690739 8.27490816 58.80522821 24.0546875 75.125 C37.27955151 87.52633768 54.04036592 95.02716141 72 97 C72 100 72 100 70.453125 101.6484375 C64.40388586 106.38915328 58.24963752 109.47303757 51 112 C49.97132812 112.36609375 48.94265625 112.7321875 47.8828125 113.109375 C30.76916126 117.03484027 12.85595795 114.60245031 -2.0625 105.5 C-3.72391559 104.35563262 -5.37219252 103.19168841 -7 102 C-8.051875 101.236875 -9.10375 100.47375 -10.1875 99.6875 C-21.37721716 88.99510361 -29.68138107 74.78616178 -30.46875 59.08203125 C-30.50293248 56.99244111 -30.5126744 54.90233128 -30.5 52.8125 C-30.49427979 51.71405762 -30.48855957 50.61561523 -30.48266602 49.48388672 C-30.18342026 35.79918677 -26.11070466 25.07895788 -18 14 C-17.236875 12.948125 -16.47375 11.89625 -15.6875 10.8125 C-5.35555556 0 -5.35555556 0 0 0 Z " fill="#C13E30" transform="translate(30,9)"/>
<path d="M0 0 C0.99 0 1.98 0 3 0 C2.98952637 0.76030518 2.97905273 1.52061035 2.96826172 2.30395508 C2.92624179 5.80676866 2.9005292 9.30952892 2.875 12.8125 C2.85824219 14.00810547 2.84148438 15.20371094 2.82421875 16.43554688 C2.7006691 39.10690739 11.27490816 58.80522821 27.0546875 75.125 C40.27955151 87.52633768 57.04036592 95.02716141 75 97 C75 97.99 75 98.98 75 100 C74 101 74 101 70.41015625 101.1875 C52.10529455 100.92687461 33.93560412 88.71316522 21.3828125 76.44140625 C5.59453479 59.9093039 -3.15918104 38.84014433 -3.3125 16 C-3.31813965 15.19852539 -3.3237793 14.39705078 -3.32958984 13.57128906 C-3.20088691 3.20088691 -3.20088691 3.20088691 0 0 Z " fill="#E2D7D7" transform="translate(27,9)"/>
<path d="M0 0 C5.64418876 0.85989261 8.21242285 3.28949333 11.875 7.5625 C14.07284573 11.80120247 15.28593922 16.13742893 14.625 20.9375 C12.35314663 23.13168317 10.98384616 23.86409965 7.875 24.5 C2.42095535 23.55603073 -1.54362912 20.46970275 -4.7734375 16.00390625 C-7.16759672 11.64857405 -8.06432667 7.95973718 -7.375 2.9375 C-5.15150308 -0.08257681 -3.65816825 -0.44322516 0 0 Z " fill="#E44B3B" transform="translate(94.375,28.0625)"/>
<path d="M0 0 C2.0078125 0.23046875 2.0078125 0.23046875 5.0078125 2.23046875 C5.3203125 4.73046875 5.3203125 4.73046875 5.0078125 7.23046875 C3.0078125 9.23046875 3.0078125 9.23046875 -0.4296875 9.48046875 C-3.9921875 9.23046875 -3.9921875 9.23046875 -6.9921875 7.23046875 C-7.2421875 4.16796875 -7.2421875 4.16796875 -6.9921875 1.23046875 C-5.11574989 -0.64596886 -2.49413049 0.05061888 0 0 Z " fill="#E44B3B" transform="translate(76.9921875,14.76953125)"/>
<path d="M0 0 C1.98 0.495 1.98 0.495 4 1 C4 4.63 4 8.26 4 12 C2.35 11.67 0.7 11.34 -1 11 C-1.02688151 9.35425434 -1.04634123 7.70838587 -1.0625 6.0625 C-1.07410156 5.14597656 -1.08570313 4.22945312 -1.09765625 3.28515625 C-1 1 -1 1 0 0 Z " fill="#E0CAC9" transform="translate(34,16)"/>
<path d="M0 0 C4.99911924 0.47610659 7.97832683 2.03162219 12 5 C11.67 6.32 11.34 7.64 11 9 C7.93674247 8.39005934 5.79949366 7.42271989 3.25 5.625 C2.63640625 5.20476562 2.0228125 4.78453125 1.390625 4.3515625 C0.93171875 3.90554687 0.4728125 3.45953125 0 3 C0 2.01 0 1.02 0 0 Z " fill="#E1D0CF" transform="translate(75,76)"/>
<path d="M0 0 C3.22540929 0.58324395 4.9757611 1.52214798 7.3125 3.8125 C7.84488281 4.31394531 8.37726562 4.81539063 8.92578125 5.33203125 C10 7 10 7 9.66796875 9.19921875 C9.44753906 9.79347656 9.22710937 10.38773438 9 11 C5.17035345 9.43977363 2.67809511 7.12444429 0 4 C0 2.68 0 1.36 0 0 Z " fill="#E1D1D0" transform="translate(28,91)"/>
<path d="M0 0 C3 0 3 0 4.60546875 1.390625 C5.12753906 2.00421875 5.64960937 2.6178125 6.1875 3.25 C6.71730469 3.85328125 7.24710938 4.4565625 7.79296875 5.078125 C9 7 9 7 9 11 C5.77459071 10.41675605 4.0242389 9.47785202 1.6875 7.1875 C1.15511719 6.68605469 0.62273438 6.18460937 0.07421875 5.66796875 C-1 4 -1 4 -0.66796875 1.80078125 C-0.44753906 1.20652344 -0.22710937 0.61226562 0 0 Z " fill="#E2D5D5" transform="translate(63,63)"/>
<path d="M0 0 C3 1 3 1 4 3 C4.06996014 4.70702735 4.08440154 6.41668003 4.0625 8.125 C4.05347656 9.03507812 4.04445313 9.94515625 4.03515625 10.8828125 C4.02355469 11.58148438 4.01195312 12.28015625 4 13 C2.68 13 1.36 13 0 13 C-0.19397476 11.02145742 -0.38001321 9.0421352 -0.5625 7.0625 C-0.66691406 5.96035156 -0.77132813 4.85820313 -0.87890625 3.72265625 C-0.91886719 2.82417969 -0.95882813 1.92570312 -1 1 C-0.67 0.67 -0.34 0.34 0 0 Z " fill="#E1D3D3" transform="translate(7,42)"/>
<path d="M0 0 C0.99 0 1.98 0 3 0 C6.42857143 8.42857143 6.42857143 8.42857143 6 13 C4.11328125 12.73828125 4.11328125 12.73828125 2 12 C0.91796875 10.29296875 0.91796875 10.29296875 0.1875 8.1875 C-0.06644531 7.50042969 -0.32039063 6.81335937 -0.58203125 6.10546875 C-1.05333812 3.73131543 -0.75212833 2.27685106 0 0 Z " fill="#E1D3D2" transform="translate(46,31)"/>
<path d="M0 0 C1.32 0 2.64 0 4 0 C5.484375 1.64453125 5.484375 1.64453125 6.75 3.8125 C7.39195313 4.87404297 7.39195313 4.87404297 8.046875 5.95703125 C9 8 9 8 9 11 C6.75 10.875 6.75 10.875 4 10 C1.00173367 6.35345986 0 4.78447394 0 0 Z " fill="#E2D6D5" transform="translate(17,77)"/>
<path d="M0 0 C3.13498176 1.08102819 3.9868559 1.97840612 5.75 4.875 C7 8 7 8 7 12 C5.25 11.9375 5.25 11.9375 3 11 C0.65312444 8.07602389 -1.14013944 5.36635955 -0.75 1.5625 C-0.5025 1.046875 -0.255 0.53125 0 0 Z " fill="#E1D2D1" transform="translate(23,62)"/>
<path d="M0 0 C1.88671875 0.26171875 1.88671875 0.26171875 4 1 C5.08203125 2.70703125 5.08203125 2.70703125 5.8125 4.8125 C6.19341797 5.84310547 6.19341797 5.84310547 6.58203125 6.89453125 C7.05333812 9.26868457 6.75212833 10.72314894 6 13 C5.01 13 4.02 13 3 13 C-0.42857143 4.57142857 -0.42857143 4.57142857 0 0 Z " fill="#E2D5D5" transform="translate(10,60)"/>
<path d="M0 0 C1.32 0 2.64 0 4 0 C4.33 3.96 4.66 7.92 5 12 C3.35 12 1.7 12 0 12 C0 8.04 0 4.08 0 0 Z " fill="#E1D1D0" transform="translate(43,14)"/>
<path d="M0 0 C4.10958767 1.45044271 7.43258745 3.51110752 11 6 C10.67 6.99 10.34 7.98 10 9 C5.48521602 8.46884894 2.65333143 6.63379708 -1 4 C-0.67 2.68 -0.34 1.36 0 0 Z " fill="#E2D7D7" transform="translate(42,103)"/>
<path d="M0 0 C4.12751449 0.60698743 7.3321148 2.03810791 11 4 C11 5.32 11 6.64 11 8 C6.66956925 7.49646154 3.45523687 6.74386457 0 4 C0 2.68 0 1.36 0 0 Z " fill="#E2D4D3" transform="translate(56,100)"/>
<path d="M0 0 C4.38889325 0.66498383 7.9811485 2.18757677 12 4 C12 4.99 12 5.98 12 7 C7.12335991 7.34833144 4.22949995 6.41685712 0 4 C0 2.68 0 1.36 0 0 Z " fill="#E2D7D6" transform="translate(91,85)"/>
<path d="M0 0 C3 1 3 1 4.203125 2.7421875 C4.54859375 3.44601563 4.8940625 4.14984375 5.25 4.875 C5.60578125 5.57367188 5.9615625 6.27234375 6.328125 6.9921875 C7 9 7 9 6 12 C4.1875 11.875 4.1875 11.875 2 11 C-0.10234659 7.81023276 -1.10492845 5.96534169 -0.6875 2.125 C-0.460625 1.42375 -0.23375 0.7225 0 0 Z " fill="#E1D2D1" transform="translate(41,48)"/>
<path d="M0 0 C3.8063457 0.67170806 7.35206816 1.72746564 11 3 C11 4.32 11 5.64 11 7 C2.42857143 6.14285714 2.42857143 6.14285714 -1 4 C-0.67 2.68 -0.34 1.36 0 0 Z " fill="#E1D2D1" transform="translate(72,107)"/>
<path d="M0 0 C5.04969516 0.44556134 7.47618687 2.55813601 11 6 C11 6.99 11 7.98 11 9 C7.01781501 8.72217314 5.25090158 8.20726652 2.125 5.625 C0 3 0 3 0 0 Z " fill="#E2D5D4" transform="translate(42,90)"/>
<path d="M0 0 C4.41031645 0.50888267 6.89327599 3.03449072 10 6 C10 6.99 10 7.98 10 9 C4.64951939 8.62671065 2.49087093 7.0042343 -1 3 C-0.67 2.01 -0.34 1.02 0 0 Z " fill="#E1D4D3" transform="translate(59,76)"/>
<path d="M0 0 C3.2441189 1.04275251 4.60194664 2.61240491 6.3125 5.4375 C8 9 8 9 7 12 C2.79030081 10.49653601 1.08139861 7.85444186 -1 4 C-0.75 1.625 -0.75 1.625 0 0 Z " fill="#E3D9D8" transform="translate(53,48)"/>
<path d="M0 0 C4.38889325 0.66498383 7.9811485 2.18757677 12 4 C12 4.99 12 5.98 12 7 C3.42857143 6.14285714 3.42857143 6.14285714 0 4 C0 2.68 0 1.36 0 0 Z " fill="#E3D9D9" transform="translate(57,112)"/>
<path d="M0 0 C3.8063457 0.67170806 7.35206816 1.72746564 11 3 C11 4.32 11 5.64 11 7 C6.22423661 6.5317879 2.95523655 5.75668002 -1 3 C-0.67 2.01 -0.34 1.02 0 0 Z " fill="#E1D3D2" transform="translate(87,94)"/>
<path d="M0 0 C3.42106076 0.25341191 4.30782184 1.30782184 6.8125 3.8125 C9 7 9 7 8.8125 9.375 C8.544375 9.91125 8.27625 10.4475 8 11 C4.19986075 9.50708815 2.25081784 7.37622677 0 4 C0 2.68 0 1.36 0 0 Z " fill="#E2D7D7" transform="translate(31,77)"/>
<path d="M0 0 C3.42106076 0.25341191 4.30782184 1.30782184 6.8125 3.8125 C9 7 9 7 8.8125 9.375 C8.544375 9.91125 8.27625 10.4475 8 11 C4.19986075 9.50708815 2.25081784 7.37622677 0 4 C0 2.68 0 1.36 0 0 Z " fill="#E2D7D6" transform="translate(48,63)"/>
<path d="M0 0 C1.875 0.125 1.875 0.125 4 1 C5.69726294 4.73397847 6.23990744 7.92157346 6 12 C4.68 12 3.36 12 2 12 C0.70756464 7.8803623 -0.26252625 4.33168317 0 0 Z " fill="#E2D6D5" transform="translate(17,46)"/>
<path d="M0 0 C1.32 0.33 2.64 0.66 4 1 C4 4.96 4 8.92 4 13 C2.68 12.67 1.36 12.34 0 12 C0 8.04 0 4.08 0 0 Z " fill="#E2D8D7" transform="translate(15,29)"/>
<path d="M0 0 C4.19360449 0.67097672 7.40334352 2.8558394 11 5 C11 5.99 11 6.98 11 8 C2.99061767 7.22986708 2.99061767 7.22986708 0 4 C0 2.68 0 1.36 0 0 Z " fill="#E2D5D4" transform="translate(72,86)"/>
<path d="M0 0 C1.32 0 2.64 0 4 0 C5.42258812 3.82320557 6.24042276 6.91281305 6 11 C4.68 11 3.36 11 2 11 C0.80712589 7.12315913 0 4.08378077 0 0 Z " fill="#E2D7D7" transform="translate(35,33)"/>
<path d="M0 0 C0.99 0 1.98 0 3 0 C2.67 2.31 2.34 4.62 2 7 C0.68 7 -0.64 7 -2 7 C-1.125 1.125 -1.125 1.125 0 0 Z " fill="#DEC5C3" transform="translate(17,17)"/>
<path d="M0 0 C1.98 0 3.96 0 6 0 C6.33 0.99 6.66 1.98 7 3 C2.375 5.125 2.375 5.125 -1 4 C-0.67 2.68 -0.34 1.36 0 0 Z " fill="#DFC8C6" transform="translate(89,111)"/>
<path d="M0 0 C2.33944736 0.28730055 4.6739143 0.61936779 7 1 C6.67 1.99 6.34 2.98 6 4 C4.02 4.33 2.04 4.66 0 5 C-0.5625 3.0625 -0.5625 3.0625 -1 1 C-0.67 0.67 -0.34 0.34 0 0 Z " fill="#E0CDCC" transform="translate(75,117)"/>
<path d="M0 0 C0.66 0.33 1.32 0.66 2 1 C2 3.31 2 5.62 2 8 C0.35 7.67 -1.3 7.34 -3 7 C-1.125 1.125 -1.125 1.125 0 0 Z " fill="#DFC9C7" transform="translate(8,29)"/>
<path d="M0 0 C2.64 0 5.28 0 8 0 C7.34 1.32 6.68 2.64 6 4 C4.35 4 2.7 4 1 4 C0.67 2.68 0.34 1.36 0 0 Z " fill="#E1D1D0" transform="translate(102,99)"/>
<path d="M0 0 C2.31 0 4.62 0 7 0 C6.67 1.32 6.34 2.64 6 4 C4.02 4 2.04 4 0 4 C0 2.68 0 1.36 0 0 Z " fill="#E2D4D3" transform="translate(108,91)"/>
<path d="M0 0 C1.32 0 2.64 0 4 0 C4 1.98 4 3.96 4 6 C2.68 6 1.36 6 0 6 C0 4.02 0 2.04 0 0 Z " fill="#E1D3D2" transform="translate(34,5)"/>
<path d="M0 0 C0 2.31 0 4.62 0 7 C-1.32 7 -2.64 7 -4 7 C-4 5.02 -4 3.04 -4 1 C-2 0 -2 0 0 0 Z " fill="#E1D1D0" transform="translate(47,1)"/>
</svg>
