<svg width="50" height="51" viewBox="0 0 50 51" fill="none" xmlns="http://www.w3.org/2000/svg">
<path d="M32.025 26.2C33.6074 24.5006 34.4989 22.2719 34.525 19.95C34.525 17.4437 33.5294 15.0401 31.7572 13.2678C29.9849 11.4956 27.5813 10.5 25.075 10.5C22.5687 10.5 20.1651 11.4956 18.3928 13.2678C16.6206 15.0401 15.625 17.4437 15.625 19.95C15.6511 22.2719 16.5426 24.5006 18.125 26.2C15.9216 27.2972 14.0256 28.9248 12.6073 30.9366C11.189 32.9483 10.2931 35.2811 10 37.725C9.92707 38.388 10.1205 39.0529 10.5378 39.5733C10.955 40.0937 11.562 40.4271 12.225 40.5C12.888 40.5729 13.5529 40.3795 14.0733 39.9622C14.5937 39.545 14.9271 38.938 15 38.275C15.2983 35.8528 16.4721 33.6234 18.3002 32.0066C20.1283 30.3899 22.4845 29.4974 24.925 29.4974C27.3655 29.4974 29.7217 30.3899 31.5498 32.0066C33.3779 33.6234 34.5517 35.8528 34.85 38.275C34.9195 38.916 35.2341 39.5054 35.7279 39.92C36.2217 40.3347 36.8566 40.5424 37.5 40.5H37.775C38.4303 40.4246 39.0293 40.0932 39.4414 39.5781C39.8535 39.063 40.0453 38.4059 39.975 37.75C39.7036 35.3189 38.836 32.9926 37.449 30.9776C36.0621 28.9626 34.1989 27.3215 32.025 26.2ZM25 24.4C24.1199 24.4 23.2595 24.139 22.5277 23.65C21.7959 23.1611 21.2255 22.4661 20.8887 21.6529C20.5519 20.8398 20.4638 19.9451 20.6355 19.0818C20.8072 18.2186 21.231 17.4257 21.8534 16.8034C22.4757 16.181 23.2686 15.7572 24.1318 15.5855C24.9951 15.4138 25.8898 15.5019 26.7029 15.8387C27.5161 16.1755 28.2111 16.7459 28.7 17.4777C29.189 18.2095 29.45 19.0699 29.45 19.95C29.45 21.1302 28.9812 22.2621 28.1466 23.0966C27.3121 23.9312 26.1802 24.4 25 24.4ZM42.5 0.5H7.5C5.51088 0.5 3.60322 1.29018 2.1967 2.6967C0.790177 4.10322 0 6.01088 0 8V43C0 44.9891 0.790177 46.8968 2.1967 48.3033C3.60322 49.7098 5.51088 50.5 7.5 50.5H42.5C44.4891 50.5 46.3968 49.7098 47.8033 48.3033C49.2098 46.8968 50 44.9891 50 43V8C50 6.01088 49.2098 4.10322 47.8033 2.6967C46.3968 1.29018 44.4891 0.5 42.5 0.5ZM45 43C45 43.663 44.7366 44.2989 44.2678 44.7678C43.7989 45.2366 43.163 45.5 42.5 45.5H7.5C6.83696 45.5 6.20107 45.2366 5.73223 44.7678C5.26339 44.2989 5 43.663 5 43V8C5 7.33696 5.26339 6.70107 5.73223 6.23223C6.20107 5.76339 6.83696 5.5 7.5 5.5H42.5C43.163 5.5 43.7989 5.76339 44.2678 6.23223C44.7366 6.70107 45 7.33696 45 8V43Z" fill="url(#paint0_linear_1404_2248)"/>
<defs>
<linearGradient id="paint0_linear_1404_2248" x1="-2.34375" y1="14.6875" x2="57.9259" y2="18.7512" gradientUnits="userSpaceOnUse">
<stop stop-color="#006177"/>
<stop offset="0.617019" stop-color="#269089"/>
<stop offset="1" stop-color="#7ABC82"/>
</linearGradient>
</defs>
</svg>
