<svg width="12" height="10" viewBox="0 0 12 10" fill="none" xmlns="http://www.w3.org/2000/svg">
<path d="M11.7005 4.6265L8.7838 1.1265C8.72896 1.06066 8.66027 1.0077 8.58264 0.971406C8.50501 0.93511 8.42033 0.916366 8.33463 0.916505H1.91797C1.45384 0.916505 1.00872 1.10088 0.680532 1.42907C0.352343 1.75726 0.167969 2.20238 0.167969 2.6665V7.33317C0.167969 7.7973 0.352343 8.24242 0.680532 8.57061C1.00872 8.8988 1.45384 9.08317 1.91797 9.08317H8.33463C8.42033 9.08331 8.50501 9.06457 8.58264 9.02827C8.66027 8.99197 8.72896 8.93902 8.7838 8.87317L11.7005 5.37317C11.7878 5.26835 11.8356 5.13625 11.8356 4.99984C11.8356 4.86342 11.7878 4.73132 11.7005 4.6265ZM8.06047 7.9165H1.91797C1.76326 7.9165 1.61489 7.85505 1.50549 7.74565C1.39609 7.63625 1.33464 7.48788 1.33464 7.33317V2.6665C1.33464 2.5118 1.39609 2.36342 1.50549 2.25403C1.61489 2.14463 1.76326 2.08317 1.91797 2.08317H8.06047L10.493 4.99984L8.06047 7.9165ZM6.41547 3.419C6.36124 3.36433 6.29672 3.32093 6.22564 3.29132C6.15455 3.2617 6.07831 3.24646 6.0013 3.24646C5.92429 3.24646 5.84805 3.2617 5.77697 3.29132C5.70588 3.32093 5.64136 3.36433 5.58714 3.419L4.83464 4.17734L4.08214 3.419C3.97229 3.30916 3.82331 3.24745 3.66797 3.24745C3.51263 3.24745 3.36365 3.30916 3.2538 3.419C3.14396 3.52885 3.08225 3.67783 3.08225 3.83317C3.08225 3.91009 3.0974 3.98625 3.12683 4.05732C3.15627 4.12838 3.19941 4.19295 3.2538 4.24734L4.01214 4.99984L3.2538 5.75234C3.19913 5.80657 3.15573 5.87108 3.12612 5.94217C3.0965 6.01325 3.08125 6.0895 3.08125 6.1665C3.08125 6.24351 3.0965 6.31976 3.12612 6.39084C3.15573 6.46193 3.19913 6.52644 3.2538 6.58067C3.30803 6.63535 3.37255 6.67874 3.44363 6.70836C3.51472 6.73797 3.59096 6.75322 3.66797 6.75322C3.74498 6.75322 3.82122 6.73797 3.89231 6.70836C3.96339 6.67874 4.02791 6.63535 4.08214 6.58067L4.83464 5.82234L5.58714 6.58067C5.64136 6.63535 5.70588 6.67874 5.77697 6.70836C5.84805 6.73797 5.92429 6.75322 6.0013 6.75322C6.07831 6.75322 6.15455 6.73797 6.22564 6.70836C6.29672 6.67874 6.36124 6.63535 6.41547 6.58067C6.47014 6.52644 6.51354 6.46193 6.54316 6.39084C6.57277 6.31976 6.58802 6.24351 6.58802 6.1665C6.58802 6.0895 6.57277 6.01325 6.54316 5.94217C6.51354 5.87108 6.47014 5.80657 6.41547 5.75234L5.65714 4.99984L6.41547 4.24734C6.47014 4.19311 6.51354 4.12859 6.54316 4.05751C6.57277 3.98642 6.58802 3.91018 6.58802 3.83317C6.58802 3.75616 6.57277 3.67992 6.54316 3.60883C6.51354 3.53775 6.47014 3.47323 6.41547 3.419Z" fill="#F50303"/>
</svg>
