<svg width="18" height="19" viewBox="0 0 18 19" fill="none" xmlns="http://www.w3.org/2000/svg">
<path d="M7 0.207031H1C0.734784 0.207031 0.48043 0.312388 0.292893 0.499924C0.105357 0.687461 0 0.941815 0 1.20703V7.20703C0 7.47225 0.105357 7.7266 0.292893 7.91414C0.48043 8.10167 0.734784 8.20703 1 8.20703H7C7.26522 8.20703 7.51957 8.10167 7.70711 7.91414C7.89464 7.7266 8 7.47225 8 7.20703V1.20703C8 0.941815 7.89464 0.687461 7.70711 0.499924C7.51957 0.312388 7.26522 0.207031 7 0.207031ZM6 6.20703H2V2.20703H6V6.20703ZM17 10.207H11C10.7348 10.207 10.4804 10.3124 10.2929 10.4999C10.1054 10.6875 10 10.9418 10 11.207V17.207C10 17.4722 10.1054 17.7266 10.2929 17.9141C10.4804 18.1017 10.7348 18.207 11 18.207H17C17.2652 18.207 17.5196 18.1017 17.7071 17.9141C17.8946 17.7266 18 17.4722 18 17.207V11.207C18 10.9418 17.8946 10.6875 17.7071 10.4999C17.5196 10.3124 17.2652 10.207 17 10.207ZM16 16.207H12V12.207H16V16.207ZM14 0.207031C11.794 0.207031 10 2.00103 10 4.20703C10 6.41303 11.794 8.20703 14 8.20703C16.206 8.20703 18 6.41303 18 4.20703C18 2.00103 16.206 0.207031 14 0.207031ZM14 6.20703C12.897 6.20703 12 5.31003 12 4.20703C12 3.10403 12.897 2.20703 14 2.20703C15.103 2.20703 16 3.10403 16 4.20703C16 5.31003 15.103 6.20703 14 6.20703ZM4 10.207C1.794 10.207 0 12.001 0 14.207C0 16.413 1.794 18.207 4 18.207C6.206 18.207 8 16.413 8 14.207C8 12.001 6.206 10.207 4 10.207ZM4 16.207C2.897 16.207 2 15.31 2 14.207C2 13.104 2.897 12.207 4 12.207C5.103 12.207 6 13.104 6 14.207C6 15.31 5.103 16.207 4 16.207Z" fill="#A0A0A0"/>
</svg>
