<svg width="17" height="18" viewBox="0 0 17 18" fill="none" xmlns="http://www.w3.org/2000/svg">
<path d="M10.7575 8.5125C11.1552 8.01546 11.374 7.39904 11.3787 6.7625C11.3787 5.99901 11.0755 5.26679 10.5356 4.72692C9.99571 4.18705 9.26349 3.88375 8.5 3.88375C7.73651 3.88375 7.00429 4.18705 6.46442 4.72692C5.92455 5.26679 5.62125 5.99901 5.62125 6.7625C5.62599 7.39904 5.84482 8.01546 6.2425 8.5125C5.46255 8.98714 4.85064 9.6939 4.4925 10.5337C4.44237 10.6403 4.41427 10.7559 4.40988 10.8736C4.40549 10.9912 4.4249 11.1086 4.46694 11.2186C4.50898 11.3286 4.5728 11.429 4.65456 11.5137C4.73632 11.5985 4.83435 11.6658 4.94277 11.7118C5.05119 11.7578 5.16777 11.7814 5.28553 11.7812C5.40329 11.781 5.5198 11.7571 5.62809 11.7108C5.73638 11.6646 5.83421 11.5969 5.91573 11.5119C5.99725 11.4269 6.06077 11.3264 6.1025 11.2163C6.3036 10.7462 6.63762 10.345 7.06353 10.0621C7.48944 9.77921 7.9887 9.62685 8.5 9.62375C9.01279 9.62515 9.51394 9.77671 9.94156 10.0597C10.3692 10.3427 10.7046 10.7448 10.9062 11.2163C10.9732 11.3744 11.0853 11.5093 11.2284 11.6043C11.3716 11.6992 11.5395 11.7499 11.7113 11.75C11.8283 11.7478 11.944 11.7241 12.0525 11.68C12.2659 11.5894 12.4346 11.4177 12.5215 11.2028C12.6085 10.9879 12.6066 10.7473 12.5163 10.5337C12.1558 9.69265 11.5407 8.98574 10.7575 8.5125ZM8.5 7.87375C8.27638 7.87374 8.05781 7.80732 7.872 7.6829C7.68619 7.55848 7.54153 7.38167 7.45636 7.17491C7.37119 6.96815 7.34935 6.74075 7.39362 6.52155C7.43789 6.30236 7.54626 6.10126 7.705 5.94375C7.86373 5.78625 8.06568 5.67944 8.2852 5.63688C8.50473 5.59432 8.73196 5.61793 8.93805 5.7047C9.14415 5.79148 9.31982 5.93751 9.44279 6.12428C9.56576 6.31105 9.63048 6.53014 9.62875 6.75375C9.62644 7.05159 9.5065 7.33645 9.29507 7.54625C9.08364 7.75604 8.79785 7.87376 8.5 7.87375ZM13.75 0.375H3.25C2.55381 0.375 1.88613 0.651562 1.39384 1.14384C0.901562 1.63613 0.625 2.30381 0.625 3V12.625C0.625 13.3212 0.901562 13.9889 1.39384 14.4812C1.88613 14.9734 2.55381 15.25 3.25 15.25H5.51625L7.87875 17.6213C7.96051 17.7023 8.05747 17.7665 8.16408 17.8101C8.27069 17.8536 8.38484 17.8757 8.5 17.875C8.70855 17.875 8.91025 17.8005 9.06875 17.665L11.8862 15.25H13.75C14.4462 15.25 15.1139 14.9734 15.6062 14.4812C16.0984 13.9889 16.375 13.3212 16.375 12.625V3C16.375 2.30381 16.0984 1.63613 15.6062 1.14384C15.1139 0.651562 14.4462 0.375 13.75 0.375ZM14.625 12.625C14.625 12.8571 14.5328 13.0796 14.3687 13.2437C14.2046 13.4078 13.9821 13.5 13.75 13.5H11.5625C11.3539 13.5 11.1522 13.5745 10.9938 13.71L8.54375 15.81L6.49625 13.7538C6.41449 13.6727 6.31753 13.6085 6.21092 13.5649C6.10431 13.5214 5.99016 13.4993 5.875 13.5H3.25C3.01794 13.5 2.79538 13.4078 2.63128 13.2437C2.46719 13.0796 2.375 12.8571 2.375 12.625V3C2.375 2.76794 2.46719 2.54538 2.63128 2.38128C2.79538 2.21719 3.01794 2.125 3.25 2.125H13.75C13.9821 2.125 14.2046 2.21719 14.3687 2.38128C14.5328 2.54538 14.625 2.76794 14.625 3V12.625Z" fill="#A0A0A0"/>
</svg>
