<svg width="26" height="27" viewBox="0 0 26 27" fill="none" xmlns="http://www.w3.org/2000/svg">
<g clip-path="url(#clip0_762_43716)">
<path d="M13 0.939453C20.1801 0.939453 26 6.7602 26 13.9395C26 21.1196 20.1801 26.9395 13 26.9395C5.81985 26.9395 0 21.1195 0 13.9395C0 6.7602 5.81994 0.939453 13 0.939453Z" fill="#3B5998"/>
<path d="M14.5827 9.88894H16.2581V7.41406H14.2886V7.42299C11.9023 7.50751 11.4132 8.84892 11.3701 10.2578H11.3652V11.4936H9.74023V13.9173H11.3652V20.414H13.8141V13.9173H15.8202L16.2077 11.4936H13.8149V10.747C13.8149 10.2708 14.1317 9.88894 14.5827 9.88894Z" fill="white"/>
</g>
<defs>
<clipPath id="clip0_762_43716">
<rect width="26" height="26" fill="white" transform="translate(0 0.939453)"/>
</clipPath>
</defs>
</svg>
