<?xml version="1.0" encoding="UTF-8"?>
<svg version="1.1" xmlns="http://www.w3.org/2000/svg" width="70" height="70">
<path d="M0 0 C8.90556591 5.39845135 15.14395035 12.30301363 18.1875 22.4375 C19.93427604 33.94868099 19.20034757 44.80069165 12.1875 54.4375 C7.40946609 60.86900112 0.83000831 65.12183635 -6.8125 67.4375 C-17.94978027 69.01710119 -28.96077464 68.44069848 -38.23046875 61.671875 C-45.18342616 55.90988093 -51.01790831 48.69482917 -52.03393555 39.41503906 C-52.49638769 30.59196497 -52.89433219 22.0286841 -47.8125 14.4375 C-47.37679687 13.74527344 -46.94109375 13.05304687 -46.4921875 12.33984375 C-36.23155836 -2.65861687 -16.56041644 -7.83999462 0 0 Z " fill="#E4F0E7" transform="translate(51.8125,2.5625)"/>
<path d="M0 0 C1.36125 0.556875 1.36125 0.556875 2.75 1.125 C6.21128981 4.00940818 8.4015656 7.798401 10 12 C9.67 12.99 9.34 13.98 9 15 C8.34 14.34 7.68 13.68 7 13 C3.0204298 13.35373957 -0.35688886 14.39274509 -4 16 C-3.855625 16.556875 -3.71125 17.11375 -3.5625 17.6875 C-2.97195892 20.11527998 -2.47013304 22.54613484 -2 25 C-1.85175781 25.70382813 -1.70351563 26.40765625 -1.55078125 27.1328125 C-1.3125 29.125 -1.3125 29.125 -2 33 C-4.61926515 35.98150394 -7.39976437 38.31149521 -11 40 C-13.96534971 39.72075182 -16.20538874 38.92297922 -19 37.875 C-22.40712782 36.88125438 -23.73542642 36.61255623 -27 38 C-28.0154822 39.15659825 -28.99137462 40.34851055 -29.9375 41.5625 C-32.62982455 44.92445399 -32.62982455 44.92445399 -36.0625 45.625 C-39.24895371 44.94703113 -41.30589524 43.79606984 -44 42 C-44.66 42 -45.32 42 -46 42 C-49.48112522 34.89850454 -49.62913852 28.72703131 -48 21 C-43.82964516 10.16265649 -36.78642437 3.27202603 -26.5 -1.6875 C-17.83372632 -4.78376791 -8.27007001 -3.70068259 0 0 Z " fill="#EBF3EF" transform="translate(50,4)"/>
<path d="M0 0 C8.90556591 5.39845135 15.14395035 12.30301363 18.1875 22.4375 C19.93427604 33.94868099 19.20034757 44.80069165 12.1875 54.4375 C7.40946609 60.86900112 0.83000831 65.12183635 -6.8125 67.4375 C-17.94978027 69.01710119 -28.96077464 68.44069848 -38.23046875 61.671875 C-45.18342616 55.90988093 -51.01790831 48.69482917 -52.03393555 39.41503906 C-52.49638769 30.59196497 -52.89433219 22.0286841 -47.8125 14.4375 C-47.37679687 13.74527344 -46.94109375 13.05304687 -46.4921875 12.33984375 C-36.23155836 -2.65861687 -16.56041644 -7.83999462 0 0 Z M-43.8125 11.4375 C-49.33380668 18.81790792 -51.38033576 26.23382878 -50.8125 35.4375 C-50.09980014 38.40411317 -49.16468327 40.67904614 -47.8125 43.4375 C-47.1525 43.4375 -46.4925 43.4375 -45.8125 43.4375 C-45.9775 44.406875 -46.1425 45.37625 -46.3125 46.375 C-46.32260504 51.32647055 -43.31493494 54.15909104 -40.0078125 57.546875 C-34.54561247 62.25097609 -27.93536277 61.79448149 -21.05859375 61.70703125 C-16.56644562 61.334037 -12.97647824 60.13132166 -8.8125 58.4375 C-8.8125 57.7775 -8.8125 57.1175 -8.8125 56.4375 C-8.11125 56.375625 -7.41 56.31375 -6.6875 56.25 C-0.4421951 54.48502253 2.99567526 49.85247058 6.1640625 44.484375 C7.61689011 41.57871979 8.37428568 38.57418379 9.1875 35.4375 C9.72375 34.426875 10.26 33.41625 10.8125 32.375 C12.33030019 29.13242687 12.44001854 26.97275953 12.1875 23.4375 C14.1675 23.9325 14.1675 23.9325 16.1875 24.4375 C15.661596 18.82785734 12.66040169 13.84699395 8.6640625 9.953125 C7.19858668 8.7480129 5.69376 7.59123106 4.1875 6.4375 C3.5275 5.73625 2.8675 5.035 2.1875 4.3125 C-2.8594585 -0.41902359 -8.19597586 -1.18880927 -14.8125 -1.5625 C-15.54726563 -1.62695312 -16.28203125 -1.69140625 -17.0390625 -1.7578125 C-28.24583709 -2.35181115 -36.55375904 3.30421194 -43.8125 11.4375 Z " fill="#217D7F" transform="translate(51.8125,2.5625)"/>
<path d="M0 0 C4.53595918 1.83742731 8.17326269 3.48498548 10.796875 7.74609375 C12.046875 11.12109375 12.046875 11.12109375 11.046875 14.12109375 C10.386875 13.46109375 9.726875 12.80109375 9.046875 12.12109375 C5.0673048 12.47483332 1.68998614 13.51383884 -1.953125 15.12109375 C-1.80875 15.67796875 -1.664375 16.23484375 -1.515625 16.80859375 C-0.92508392 19.23637373 -0.42325804 21.66722859 0.046875 24.12109375 C0.19511719 24.82492188 0.34335937 25.52875 0.49609375 26.25390625 C0.734375 28.24609375 0.734375 28.24609375 0.046875 32.12109375 C-2.57239015 35.10259769 -5.35288937 37.43258896 -8.953125 39.12109375 C-11.4609375 38.90625 -11.4609375 38.90625 -13.953125 38.12109375 C-14.74074219 37.88132813 -15.52835938 37.6415625 -16.33984375 37.39453125 C-22.55358834 34.96811146 -22.55358834 34.96811146 -24.515625 30.80859375 C-24.7321875 28.98328125 -24.7321875 28.98328125 -24.953125 27.12109375 C-25.200625 25.98671875 -25.448125 24.85234375 -25.703125 23.68359375 C-24.47560691 17.85288284 -19.68383563 15.37345731 -14.953125 12.12109375 C-15.943125 8.82109375 -16.933125 5.52109375 -17.953125 2.12109375 C-12.4897793 -2.24958281 -6.43399949 -1.9148808 0 0 Z " fill="#EEF4F6" transform="translate(47.953125,4.87890625)"/>
<path d="M0 0 C2.475 0.495 2.475 0.495 5 1 C5.68637239 17.21872541 5.68637239 17.21872541 2 24 C0.67405514 24.68124332 -0.65947186 25.34792139 -2 26 C-2.69698541 27.31773805 -3.36141768 28.65299041 -4 30 C-5.875 31.921875 -5.875 31.921875 -8 33.75 C-9.051875 34.67039062 -9.051875 34.67039062 -10.125 35.609375 C-12 37 -12 37 -14 37 C-14 36.34 -14 35.68 -14 35 C-12.25 33.4921875 -12.25 33.4921875 -10 31.875 C-9.2575 31.33617188 -8.515 30.79734375 -7.75 30.2421875 C-7.1725 29.83226563 -6.595 29.42234375 -6 29 C-8.26589458 30.79343146 -9.81700321 31.9477152 -12.625 32.75 C-15.41238947 33.8671394 -15.41238947 33.8671394 -16.1875 37.5625 C-16.455625 38.696875 -16.72375 39.83125 -17 41 C-23.24326199 44.121631 -34.63354347 42.86099676 -41.22265625 41.17578125 C-46.58480749 38.83038502 -46.58480749 38.83038502 -48 36 C-47.30519531 36.16113281 -46.61039063 36.32226562 -45.89453125 36.48828125 C-37.85080478 37.91031656 -29.76828773 37.43710988 -22 35 C-22.66 34.01 -23.32 33.02 -24 32 C-22.96875 32.103125 -21.9375 32.20625 -20.875 32.3125 C-16.19572292 31.93513895 -13.98831899 30.4258353 -11 27 C-7.74556051 22.62178997 -5.45477813 18.29010229 -4 13 C-4.66 12.67 -5.32 12.34 -6 12 C-5.01 11.67 -4.02 11.34 -3 11 C-1.17829434 7.45779454 -0.54730376 3.92234364 0 0 Z " fill="#64B37A" transform="translate(64,26)"/>
<path d="M0 0 C4.49488617 1.38478816 7.84132171 3.21030398 11.3203125 6.46484375 C5.76929209 5.70788642 5.76929209 5.70788642 3.4296875 4.44140625 C0.91170917 3.27567554 -0.91517017 3.19798694 -3.6796875 3.21484375 C-4.948125 3.20710937 -4.948125 3.20710937 -6.2421875 3.19921875 C-9.05514461 3.3628343 -9.05514461 3.3628343 -12.6796875 5.46484375 C-11.6896875 8.76484375 -10.6996875 12.06484375 -9.6796875 15.46484375 C-11.34512019 17.00981114 -13.03811676 18.52510103 -14.7421875 20.02734375 C-15.68191406 20.87425781 -16.62164063 21.72117187 -17.58984375 22.59375 C-20.6796875 24.46484375 -20.6796875 24.46484375 -24.3671875 24.30859375 C-27.28473689 23.56544438 -29.94181651 22.70933056 -32.6796875 21.46484375 C-32.39486382 20.04678544 -32.10150606 18.63043996 -31.8046875 17.21484375 C-31.64226563 16.4259375 -31.47984375 15.63703125 -31.3125 14.82421875 C-30.27619079 10.96044861 -29.47178682 8.97405045 -26.0546875 6.77734375 C-23.25319419 5.68787413 -21.45614245 5.24091502 -18.5546875 4.96484375 C-14.79140414 4.4792588 -13.35457302 4.02827571 -10.6796875 1.46484375 C-13.3196875 1.46484375 -15.9596875 1.46484375 -18.6796875 1.46484375 C-13.33623956 -2.09745487 -6.15696034 -1.22959704 0 0 Z " fill="#439595" transform="translate(43.6796875,1.53515625)"/>
<path d="M0 0 C5.31443562 1.96830949 8.12271664 6.50861829 10.875 11.1875 C12 14 12 14 11 17 C10.01 16.67 9.02 16.34 8 16 C7.95101562 16.61488281 7.90203125 17.22976562 7.8515625 17.86328125 C7.77679688 18.67152344 7.70203125 19.47976562 7.625 20.3125 C7.55539063 21.11300781 7.48578125 21.91351562 7.4140625 22.73828125 C7 25 7 25 5 28 C3.56208484 27.85831863 2.1246763 27.71148957 0.6875 27.5625 C-0.11300781 27.48128906 -0.91351563 27.40007813 -1.73828125 27.31640625 C-4 27 -4 27 -7 26 C-7.94921875 23.41796875 -7.94921875 23.41796875 -8.6875 20.1875 C-9.06455078 18.60001953 -9.06455078 18.60001953 -9.44921875 16.98046875 C-10 14 -10 14 -10 10 C-8.75823305 9.29773859 -7.50614401 8.61370891 -6.25 7.9375 C-5.20585938 7.36322266 -5.20585938 7.36322266 -4.140625 6.77734375 C-1.63859372 5.8687594 -0.4667645 6.11663163 2 7 C2 3.89448334 1.4606285 2.64738916 0 0 Z " fill="#60A991" transform="translate(56,10)"/>
<path d="M0 0 C4.53595918 1.83742731 8.17326269 3.48498548 10.796875 7.74609375 C12.046875 11.12109375 12.046875 11.12109375 11.046875 14.12109375 C10.386875 13.46109375 9.726875 12.80109375 9.046875 12.12109375 C5.65883026 12.3469634 3.55148577 12.75867571 0.7734375 14.75390625 C-2.92629343 16.60907219 -4.83010012 15.88191872 -8.765625 14.80859375 C-10.50779297 14.35033203 -10.50779297 14.35033203 -12.28515625 13.8828125 C-13.16558594 13.63144531 -14.04601563 13.38007813 -14.953125 13.12109375 C-15.943125 9.49109375 -16.933125 5.86109375 -17.953125 2.12109375 C-12.4897793 -2.24958281 -6.43399949 -1.9148808 0 0 Z " fill="#E9F3EC" transform="translate(47.953125,4.87890625)"/>
<path d="M0 0 C3.3 0.99 6.6 1.98 10 3 C9.13434643 10.81366248 4.73615172 16.0586369 -0.5 21.6875 C-3.96112835 23.50459238 -6.27893471 22.87554477 -10 22 C-10.53668511 17.22283996 -10.78933524 12.7567834 -10 8 C-7.44054937 4.81084326 -4.55633406 2.95631987 -1 1 C-0.67 0.67 -0.34 0.34 0 0 Z " fill="#EDF3F5" transform="translate(50,36)"/>
<path d="M0 0 C-3.9551993 3.00049602 -6.99679051 5.17837304 -11.9375 6.0625 C-13.62580487 6.370622 -15.31335434 6.68292127 -17 7 C-17.72960937 7.08378906 -18.45921875 7.16757813 -19.2109375 7.25390625 C-21.23363477 7.86111686 -21.23363477 7.86111686 -22.01171875 10.1796875 C-22.23472656 11.06914062 -22.45773438 11.95859375 -22.6875 12.875 C-22.91824219 13.75929688 -23.14898437 14.64359375 -23.38671875 15.5546875 C-23.58910156 16.36164062 -23.79148437 17.16859375 -24 18 C-24.33 18.99 -24.66 19.98 -25 21 C-24.01 21.33 -23.02 21.66 -22 22 C-27.75 27 -27.75 27 -30 27 C-30.09688221 32.44693314 -30.12862175 37.63904667 -29 43 C-30.485 43.495 -30.485 43.495 -32 44 C-35.48112522 36.89850454 -35.62913852 30.72703131 -34 23 C-30.67037854 14.34743854 -24.65447921 5.91512155 -16 2 C-10.6164308 0.3890077 -5.6025133 -0.23840482 0 0 Z " fill="#E2EDEF" transform="translate(36,2)"/>
<path d="M0 0 C4.29 1.32 8.58 2.64 13 4 C13 6.97 13 9.94 13 13 C4.40625 15.75 4.40625 15.75 0 15 C-2.31399344 13.17845826 -4.04463741 11.23470011 -6 9 C-4.56375905 4.69127714 -3.45397435 3.45397435 0 0 Z " fill="#F7FAFA" transform="translate(25,41)"/>
<path d="M0 0 C1.9375 2 1.9375 2 3 5 C2.60690405 8.85767043 1.73704308 12.52591384 0 16 C-5.75 16.125 -5.75 16.125 -8 15 C-9.56800565 10.56190213 -10.89411792 5.46470654 -9 1 C-5.95630782 -1.39147243 -3.55535078 -1.36744261 0 0 Z " fill="#F7FAFA" transform="translate(58,19)"/>
<path d="M0 0 C1.155 0.4125 2.31 0.825 3.5 1.25 C4.23089844 1.50394531 4.96179688 1.75789063 5.71484375 2.01953125 C7.661419 2.71400362 9.5834004 3.47663525 11.5 4.25 C11.5 8.87 11.5 13.49 11.5 18.25 C6.69951038 20.65024481 1.88500826 22.92557009 -3.5 21.25 C-6.91936054 18.46312234 -9.55258723 15.29527305 -11.41015625 11.28515625 C-11.54999694 8.11746059 -10.0315292 6.78361301 -8 4.4375 C-4.07849057 0.29132075 -4.07849057 0.29132075 0 0 Z M-2.5 1.25 C-4.48 3.56 -6.46 5.87 -8.5 8.25 C-6.24420555 12.94472847 -6.24420555 12.94472847 -2.5 16.25 C1.98398042 16.38212465 6.17263678 15.33184081 10.5 14.25 C10.5 11.28 10.5 8.31 10.5 5.25 C6.21 3.93 1.92 2.61 -2.5 1.25 Z " fill="#3C9293" transform="translate(27.5,39.75)"/>
<path d="M0 0 C1.47676894 2.48365686 2.02501987 4.17434436 1.9375 7.0625 C0.48460092 10.0651581 -1.13324806 11.31734126 -4 13 C-7.6404233 12.81170224 -10.55232893 12.14922369 -14 11 C-13.3943662 3.61126761 -13.3943662 3.61126761 -11.75 1.0625 C-7.97851158 -1.22733225 -4.11682955 -1.55771929 0 0 Z " fill="#F5F9F9" transform="translate(30,9)"/>
<path d="M0 0 C9.57921286 0.22002482 16.563791 3.30417506 23.7590332 9.62915039 C32.21371271 19.24712732 33.71825637 28.47749993 33.38793945 40.86743164 C33.0905112 45.29611111 31.88051931 48.55909385 29.8840332 52.50415039 C29.2240332 52.50415039 28.5640332 52.50415039 27.8840332 52.50415039 C28.1005957 51.7887207 28.3171582 51.07329102 28.5402832 50.33618164 C31.81012553 38.63438481 32.71897143 29.01142542 26.68481445 18.10961914 C24.17768557 14.48216803 21.38237957 12.16289363 17.8840332 9.50415039 C17.8840332 8.84415039 17.8840332 8.18415039 17.8840332 7.50415039 C13.30002702 5.58182522 8.60383661 4.05090244 3.8840332 2.50415039 C2.8940332 2.17415039 1.9040332 1.84415039 0.8840332 1.50415039 C0.5540332 2.16415039 0.2240332 2.82415039 -0.1159668 3.50415039 C-0.1159668 2.84415039 -0.1159668 2.18415039 -0.1159668 1.50415039 C-4.7359668 1.83415039 -9.3559668 2.16415039 -14.1159668 2.50415039 C-10.49160631 -1.12021009 -4.89731034 0.00741554 0 0 Z M25.8840332 52.50415039 C26.8740332 52.99915039 26.8740332 52.99915039 27.8840332 53.50415039 C26.8940332 53.99915039 26.8940332 53.99915039 25.8840332 54.50415039 C25.8840332 53.84415039 25.8840332 53.18415039 25.8840332 52.50415039 Z " fill="#177779" transform="translate(37.115966796875,-0.504150390625)"/>
<path d="M0 0 C1.65 0.33 3.3 0.66 5 1 C5.69992376 17.53893911 5.69992376 17.53893911 2 24 C0.68 24.33 -0.64 24.66 -2 25 C-2 21.04 -2 17.08 -2 13 C-3.32 12.67 -4.64 12.34 -6 12 C-5.01 11.67 -4.02 11.34 -3 11 C-1.17829434 7.45779454 -0.54730376 3.92234364 0 0 Z " fill="#57AB79" transform="translate(64,26)"/>
<path d="M0 0 C0.66 0 1.32 0 2 0 C3.06157537 13.09276289 3.06157537 13.09276289 0.6171875 17.484375 C-2.46835191 20.60998635 -5.71305152 22.83083223 -10 24 C-10 23.34 -10 22.68 -10 22 C-8.25 20.4921875 -8.25 20.4921875 -6 18.875 C-5.2575 18.33617188 -4.515 17.79734375 -3.75 17.2421875 C-3.1725 16.83226563 -2.595 16.42234375 -2 16 C-4.297221 17.74271938 -6.59866729 19.39911152 -9 21 C-9.99 20.67 -10.98 20.34 -12 20 C-11.07767578 18.83984375 -11.07767578 18.83984375 -10.13671875 17.65625 C-5.74835155 12.00106547 -2.00925721 6.96542498 0 0 Z " fill="#79BA9B" transform="translate(60,39)"/>
<path d="M0 0 C0.66 0.99 1.32 1.98 2 3 C0.71372289 4.17260611 -0.57919783 5.3379283 -1.875 6.5 C-2.59429687 7.1496875 -3.31359375 7.799375 -4.0546875 8.46875 C-6 10 -6 10 -8 10 C-8 14.95 -8 19.9 -8 25 C-7.01 25.33 -6.02 25.66 -5 26 C-5.33 26.66 -5.66 27.32 -6 28 C-12.08740907 29.99224297 -17.62971909 30.23496938 -24 30 C-23.505 28.515 -23.505 28.515 -23 27 C-21.84371094 26.80083984 -21.84371094 26.80083984 -20.6640625 26.59765625 C-19.66117188 26.42105469 -18.65828125 26.24445312 -17.625 26.0625 C-16.62726562 25.88847656 -15.62953125 25.71445312 -14.6015625 25.53515625 C-12.03090344 25.12287938 -12.03090344 25.12287938 -10 24 C-9.92851759 22.29493432 -9.86816355 20.58838566 -9.875 18.88183594 C-9.875 10.07765152 -9.875 10.07765152 -7.1953125 6.77734375 C-5 5.25 -5 5.25 -2.8125 4.078125 C-0.6581806 3.06400991 -0.6581806 3.06400991 0 0 Z " fill="#D0E9C7" transform="translate(48,34)"/>
<path d="M0 0 C3.30657201 2.72792191 4.87153607 4.1168105 5.5 8.4375 C4.97263776 12.19495598 3.90706854 14.74209124 2 18 C0.56208484 17.85831863 -0.8753237 17.71148957 -2.3125 17.5625 C-3.11300781 17.48128906 -3.91351563 17.40007813 -4.73828125 17.31640625 C-7 17 -7 17 -10 16 C-9.67 15.01 -9.34 14.02 -9 13 C-6.36 13.66 -3.72 14.32 -1 15 C-0.63536268 13.25215171 -0.2836922 11.50159498 0.0625 9.75 C0.25972656 8.77546875 0.45695312 7.8009375 0.66015625 6.796875 C0.98397535 4.131881 0.85503199 2.51128277 0 0 Z " fill="#288786" transform="translate(59,20)"/>
<path d="M0 0 C4.49488617 1.38478816 7.84132171 3.21030398 11.3203125 6.46484375 C5.77177557 5.70822508 5.77177557 5.70822508 3.421875 4.44140625 C-1.42933479 2.18712661 -7.30530156 3.0857028 -12.3046875 4.46484375 C-13.0884375 4.79484375 -13.8721875 5.12484375 -14.6796875 5.46484375 C-13.3596875 4.14484375 -12.0396875 2.82484375 -10.6796875 1.46484375 C-13.3196875 1.46484375 -15.9596875 1.46484375 -18.6796875 1.46484375 C-13.33623956 -2.09745487 -6.15696034 -1.22959704 0 0 Z " fill="#83BAA3" transform="translate(43.6796875,1.53515625)"/>
<path d="M0 0 C0.99 0.33 1.98 0.66 3 1 C3.66 5.29 4.32 9.58 5 14 C4.01 14.33 3.02 14.66 2 15 C-0.01890086 10.12098958 -1.52405359 6.37154932 -1 1 C-0.67 0.67 -0.34 0.34 0 0 Z " fill="#97C3C4" transform="translate(2,31)"/>
<path d="M0 0 C2.33828617 0.90514303 4.63169713 1.80258342 6.84375 2.98828125 C13.6943589 6.50305261 20.38884736 6.7834665 28 7 C28 7.33 28 7.66 28 8 C8.97524467 8.84974093 8.97524467 8.84974093 2 4 C0.7421875 1.859375 0.7421875 1.859375 0 0 Z " fill="#167678" transform="translate(14,62)"/>
<path d="M0 0 C-6.86160714 5.20535714 -6.86160714 5.20535714 -11.6875 5.625 C-12.49574219 5.69976563 -13.30398437 5.77453125 -14.13671875 5.8515625 C-15.05904297 5.92503906 -15.05904297 5.92503906 -16 6 C-15.19921875 4.078125 -15.19921875 4.078125 -14 2 C-9.25400985 0.13882739 -5.06533667 -0.20674844 0 0 Z " fill="#EBF2F4" transform="translate(36,2)"/>
<path d="M0 0 C0.75 1.75 0.75 1.75 1 4 C-0.375 6.375 -0.375 6.375 -3 8 C-6.12617146 7.73142857 -9.01470586 6.94406738 -12 6 C-11.67 5.01 -11.34 4.02 -11 3 C-8.36 3.66 -5.72 4.32 -3 5 C-2.690625 4.360625 -2.38125 3.72125 -2.0625 3.0625 C-1 1 -1 1 0 0 Z " fill="#35908F" transform="translate(61,30)"/>
<path d="M0 0 C1.75 0.0625 1.75 0.0625 4 1 C5.76735287 3.25409924 6.7699101 5.35758466 8 8 C7.67 8.99 7.34 9.98 7 11 C2.34012809 7.9342948 1.14514798 5.41342681 0 0 Z " fill="#D1ECBD" transform="translate(52,8)"/>
<path d="M0 0 C1.65 0 3.3 0 5 0 C5.33 0.99 5.66 1.98 6 3 C4.1250174 4.8749826 2.22572795 6.44929948 0.125 8.0625 C-0.55304687 8.58972656 -1.23109375 9.11695313 -1.9296875 9.66015625 C-3.99275536 10.99531149 -5.59977921 11.56408546 -8 12 C-7.278125 11.29875 -6.55625 10.5975 -5.8125 9.875 C-3.00176187 7.07229255 -0.50483774 4.07737208 2 1 C1.34 0.67 0.68 0.34 0 0 Z M3 1 C3.33 1.66 3.66 2.32 4 3 C4.33 2.34 4.66 1.68 5 1 C4.34 1 3.68 1 3 1 Z " fill="#2A8986" transform="translate(60,51)"/>
<path d="M0 0 C0 3 0 3 -1.96875 5.04296875 C-2.8040625 5.75066406 -3.639375 6.45835938 -4.5 7.1875 C-5.3353125 7.90292969 -6.170625 8.61835937 -7.03125 9.35546875 C-7.6809375 9.89816406 -8.330625 10.44085938 -9 11 C-9.66 10.67 -10.32 10.34 -11 10 C-7.50640535 6.40365256 -3.88901869 3.16548033 0 0 Z " fill="#127479" transform="translate(63,55)"/>
<path d="M0 0 C1.32 0.66 2.64 1.32 4 2 C-1.75 7 -1.75 7 -4 7 C-4.33 7.99 -4.66 8.98 -5 10 C-5.33 9.34 -5.66 8.68 -6 8 C-4.02 5.36 -2.04 2.72 0 0 Z " fill="#CFF0A0" transform="translate(10,22)"/>
<path d="M0 0 C0.66 0 1.32 0 2 0 C2 3.96 2 7.92 2 12 C1.34 12 0.68 12 0 12 C-0.19573608 10.56359829 -0.38127816 9.12580496 -0.5625 7.6875 C-0.66691406 6.88699219 -0.77132812 6.08648437 -0.87890625 5.26171875 C-1 3 -1 3 0 0 Z " fill="#84CF53" transform="translate(60,39)"/>
<path d="M0 0 C0.66 0.33 1.32 0.66 2 1 C0.37660195 2.70884005 -1.29319053 4.37446717 -3 6 C-3.66 6 -4.32 6 -5 6 C-5.33 6.66 -5.66 7.32 -6 8 C-6.33 7.01 -6.66 6.02 -7 5 C-4.69 3.35 -2.38 1.7 0 0 Z " fill="#C6DFD2" transform="translate(20,4)"/>
<path d="M0 0 C2 3 2 3 2 6 C2.99 5.67 3.98 5.34 5 5 C4.67 7.31 4.34 9.62 4 12 C1.21366885 7.82050327 0 5.06624674 0 0 Z " fill="#368E8F" transform="translate(2,40)"/>
</svg>
