<?xml version="1.0" encoding="UTF-8"?>
<svg version="1.1" xmlns="http://www.w3.org/2000/svg" width="70" height="70">
<path d="M0 0 C7.82433869 5.35035731 12.81025612 13.47639002 14.73828125 22.71484375 C16.09196259 33.37508433 12.16845015 42.40398479 5.73828125 50.71484375 C5.07828125 51.37484375 4.41828125 52.03484375 3.73828125 52.71484375 C2.41828125 52.71484375 1.09828125 52.71484375 -0.26171875 52.71484375 C-0.26171875 53.70484375 -0.26171875 54.69484375 -0.26171875 55.71484375 C-1.6765001 56.36479672 -3.09363362 57.00963097 -4.51171875 57.65234375 C-5.300625 58.01199219 -6.08953125 58.37164062 -6.90234375 58.7421875 C-15.26931378 62.19148475 -23.3853321 61.31678024 -31.65625 57.96875 C-40.81726051 53.55992785 -46.5319158 46.7671971 -50.13671875 37.27734375 C-52.7745733 28.16331936 -51.39361244 20.16758969 -47.26171875 11.71484375 C-44.92124117 8.04292102 -42.33832097 4.79144597 -39.26171875 1.71484375 C-37.94171875 1.71484375 -36.62171875 1.71484375 -35.26171875 1.71484375 C-34.93171875 0.72484375 -34.60171875 -0.26515625 -34.26171875 -1.28515625 C-22.62908399 -7.59760234 -11.2522738 -6.39377907 0 0 Z " fill="#080A07" transform="translate(53.26171875,7.28515625)"/>
<path d="M0 0 C7.82433869 5.35035731 12.81025612 13.47639002 14.73828125 22.71484375 C16.09196259 33.37508433 12.16845015 42.40398479 5.73828125 50.71484375 C5.07828125 51.37484375 4.41828125 52.03484375 3.73828125 52.71484375 C2.74828125 52.71484375 1.75828125 52.71484375 0.73828125 52.71484375 C1.06828125 51.06484375 1.39828125 49.41484375 1.73828125 47.71484375 C-1.23171875 48.20984375 -1.23171875 48.20984375 -4.26171875 48.71484375 C-4.26171875 47.72484375 -4.26171875 46.73484375 -4.26171875 45.71484375 C-0.96171875 45.71484375 2.33828125 45.71484375 5.73828125 45.71484375 C6.21265625 44.27109375 6.68703125 42.82734375 7.17578125 41.33984375 C7.93225142 39.03754324 8.65436939 36.88266746 9.73828125 34.71484375 C10.36674399 29.29692759 10.36674399 29.29692759 8.17578125 24.65234375 C4.14337045 23.10141652 0.72451404 24.12731306 -3.30859375 25.3203125 C-6.2925578 27.45086283 -6.95332846 30.48169436 -8.01171875 33.83984375 C-9.12546875 37.24296875 -9.12546875 37.24296875 -10.26171875 40.71484375 C-15.54171875 40.38484375 -20.82171875 40.05484375 -26.26171875 39.71484375 C-26.94234375 37.63171875 -27.62296875 35.54859375 -28.32421875 33.40234375 C-30.28731001 27.79866696 -30.28731001 27.79866696 -34.76171875 24.33984375 C-38.14073776 23.7364475 -40.04226212 23.64169154 -43.26171875 24.71484375 C-44.25171875 25.04484375 -45.24171875 25.37484375 -46.26171875 25.71484375 C-47.28744465 21.30422239 -47.29856587 18.78853799 -45.26171875 14.71484375 C-44.27171875 14.71484375 -43.28171875 14.71484375 -42.26171875 14.71484375 C-41.93171875 14.05484375 -41.60171875 13.39484375 -41.26171875 12.71484375 C-40.67390625 14.38546875 -40.67390625 14.38546875 -40.07421875 16.08984375 C-38.89923333 18.82044367 -38.51405766 19.56211231 -35.88671875 21.15234375 C-32.28723443 21.92366182 -29.47815672 22.21797778 -26.0234375 20.7890625 C-22.66742716 18.5454021 -20.60728434 17.00931376 -19.5390625 13.0078125 C-19.2880451 8.19986388 -19.44922328 5.63150531 -22.69921875 1.96484375 C-27.23897982 0.37194513 -30.61776847 0.76541391 -35.26171875 1.71484375 C-34.26171875 -1.28515625 -34.26171875 -1.28515625 -32.109375 -2.453125 C-20.32102725 -6.76835468 -11.04830589 -6.2778802 0 0 Z " fill="#030901" transform="translate(53.26171875,7.28515625)"/>
<path d="M0 0 C7.82433869 5.35035731 12.81025612 13.47639002 14.73828125 22.71484375 C16.09196259 33.37508433 12.16845015 42.40398479 5.73828125 50.71484375 C5.07828125 51.37484375 4.41828125 52.03484375 3.73828125 52.71484375 C2.74828125 52.71484375 1.75828125 52.71484375 0.73828125 52.71484375 C1.06828125 51.06484375 1.39828125 49.41484375 1.73828125 47.71484375 C-1.23171875 48.20984375 -1.23171875 48.20984375 -4.26171875 48.71484375 C-4.26171875 47.72484375 -4.26171875 46.73484375 -4.26171875 45.71484375 C-0.96171875 45.71484375 2.33828125 45.71484375 5.73828125 45.71484375 C6.21265625 44.27109375 6.68703125 42.82734375 7.17578125 41.33984375 C7.93225142 39.03754324 8.65436939 36.88266746 9.73828125 34.71484375 C10.3016871 30.64557197 10.3016871 30.64557197 9.73828125 26.71484375 C7.66885439 24.54711912 5.37541317 23.11413824 2.73828125 21.71484375 C3.72828125 20.39484375 4.71828125 19.07484375 5.73828125 17.71484375 C5.73828125 18.70484375 5.73828125 19.69484375 5.73828125 20.71484375 C8.21328125 21.70484375 8.21328125 21.70484375 10.73828125 22.71484375 C10.24328125 21.57015625 10.24328125 21.57015625 9.73828125 20.40234375 C8.73828125 17.71484375 8.73828125 17.71484375 8.73828125 14.71484375 C8.07828125 14.71484375 7.41828125 14.71484375 6.73828125 14.71484375 C6.73828125 15.37484375 6.73828125 16.03484375 6.73828125 16.71484375 C6.07828125 16.71484375 5.41828125 16.71484375 4.73828125 16.71484375 C5.01671875 15.19890625 5.01671875 15.19890625 5.30078125 13.65234375 C4.65280778 9.11652945 4.05246599 8.6444743 0.61328125 5.90234375 C-2.85658813 3.48923208 -6.00494834 1.30881171 -10.26171875 0.71484375 C-12.45210298 2.08652613 -12.45210298 2.08652613 -14.26171875 3.71484375 C-15.25171875 3.38484375 -16.24171875 3.05484375 -17.26171875 2.71484375 C-16.60171875 1.72484375 -15.94171875 0.73484375 -15.26171875 -0.28515625 C-17.24171875 -0.28515625 -19.22171875 -0.28515625 -21.26171875 -0.28515625 C-20.27171875 1.19984375 -20.27171875 1.19984375 -19.26171875 2.71484375 C-24.26171875 1.71484375 -24.26171875 1.71484375 -26.69921875 1.08984375 C-29.75761351 0.64227379 -32.25232818 1.08497131 -35.26171875 1.71484375 C-34.26171875 -1.28515625 -34.26171875 -1.28515625 -32.109375 -2.453125 C-20.32102725 -6.76835468 -11.04830589 -6.2778802 0 0 Z " fill="#070A06" transform="translate(53.26171875,7.28515625)"/>
<path d="M0 0 C2.98561319 3.58273583 3.13905541 6.26003585 2.9296875 10.84765625 C1.767488 15.1967291 -0.61427693 17.08624844 -4.29296875 19.5078125 C-8.39505171 21.3267206 -10.53137312 20.9311065 -14.8125 19.625 C-17.6497722 18.43035907 -18.47988374 17.41173617 -19.66796875 14.6015625 C-20.39767786 12.17457419 -20.83929864 10.16193809 -20.8125 7.625 C-18.5 4.75 -18.5 4.75 -15.8125 2.625 C-15.4825 1.635 -15.1525 0.645 -14.8125 -0.375 C-8.92412174 -2.63976087 -5.57717782 -2.72662027 0 0 Z " fill="#EBEBEB" transform="translate(31.8125,9.375)"/>
<path d="M0 0 C11.07112965 6.19983261 11.07112965 6.19983261 12.953125 10.75390625 C13.261496 14.33521495 11.85161075 16.68665835 10.125 19.75 C6.37044448 22.28024393 3.60307559 23.1662529 -0.875 22.75 C-4.5419519 21.04186501 -7.3141835 18.88228292 -9.875 15.75 C-11.05664534 11.82424935 -11.04535489 8.67732492 -9.875 4.75 C-7.22002581 1.12753522 -4.48407088 -0.38991921 0 0 Z " fill="#ECECEC" transform="translate(45.875,7.25)"/>
<path d="M0 0 C2.8125 1.5 2.8125 1.5 5 4 C6.2711974 11.24582519 3.27581413 16.63556113 0 23 C-8.51512081 23.89284762 -8.51512081 23.89284762 -11.8125 21.91015625 C-14.36265141 19.17888613 -15 17.25929595 -15 13.5625 C-12.27657573 3.86030103 -12.27657573 3.86030103 -8.125 1.0625 C-5.02010472 0.00683561 -3.21567019 -0.57717157 0 0 Z " fill="#EBEBEB" transform="translate(59,30)"/>
<path d="M0 0 C4.05504007 2.88358405 4.93280028 6.21240344 5.8125 11 C5.73783464 14.28527595 4.87184313 15.88389388 3.375 18.8125 C-0.12685093 21.80188494 -2.67693286 21.40154603 -7.140625 21.17578125 C-7.81609375 21.11777344 -8.4915625 21.05976562 -9.1875 21 C-15.35237455 7.59139785 -15.35237455 7.59139785 -14.1875 2 C-9.60497213 -3.39120925 -6.11294688 -1.91778726 0 0 Z " fill="#ECECEC" transform="translate(20.1875,32)"/>
<path d="M0 0 C4.51506644 0.61230264 4.51506644 0.61230264 6.75 2.57421875 C8.3125 5.44921875 8.3125 5.44921875 8.25 8.51171875 C6.7002551 13.3675861 6.7002551 13.3675861 5.3125 15.44921875 C1.79512679 16.62167649 -1.0450132 16.5818816 -4.75 16.57421875 C-5.99910156 16.57679687 -7.24820312 16.579375 -8.53515625 16.58203125 C-11.6875 16.44921875 -11.6875 16.44921875 -13.6875 15.44921875 C-15.42004508 11.43700909 -16.22165212 8.61334592 -14.6875 4.44921875 C-10.61161857 -0.86415921 -6.26804642 -0.18934724 0 0 Z " fill="#EFEFEF" transform="translate(38.6875,47.55078125)"/>
<path d="M0 0 C2.93722068 1.58781572 5.66907147 3.39112181 8.40625 5.30078125 C7.68616594 9.90931922 6.09329061 13.97315534 4.40625 18.30078125 C0.44625 18.30078125 -3.51375 18.30078125 -7.59375 18.30078125 C-11.59375 8.67578125 -11.59375 8.67578125 -11.59375 5.30078125 C-9.80078125 3.625 -9.80078125 3.625 -7.40625 1.98828125 C-6.62894531 1.43527344 -5.85164063 0.88226562 -5.05078125 0.3125 C-2.59375 -0.69921875 -2.59375 -0.69921875 0 0 Z " fill="#31F600" transform="translate(36.59375,26.69921875)"/>
<path d="M0 0 C2 2 2 2 2.8125 4.5 C3.78897267 7.17261148 3.78897267 7.17261148 6.3125 8.3125 C9.15471611 9.03957854 11.09217948 9.43617308 14 9 C16.7905817 7.10183458 16.7905817 7.10183458 19 5 C19.66 5.33 20.32 5.66 21 6 C19.35 7.98 17.7 9.96 16 12 C13.525 11.505 13.525 11.505 11 11 C11 11.66 11 12.32 11 13 C9.948125 12.649375 8.89625 12.29875 7.8125 11.9375 C3.03014833 10.76151188 0.54884948 11.48371684 -4 13 C-5.0257259 8.58937864 -5.03684712 6.07369424 -3 2 C-2.01 2 -1.02 2 0 2 C0 1.34 0 0.68 0 0 Z " fill="#171B16" transform="translate(11,20)"/>
<path d="M0 0 C2.64 0 5.28 0 8 0 C7.67386719 0.52464844 7.34773438 1.04929687 7.01171875 1.58984375 C5.70691237 4.6982049 5.7704279 7.20055634 5.8125 10.5625 C5.81894531 11.69816406 5.82539062 12.83382813 5.83203125 14.00390625 C5.87134529 17.05175207 5.87134529 17.05175207 7 20 C4.36 20.99 1.72 21.98 -1 23 C0.875 18.125 0.875 18.125 2 17 C2.12487758 15.19072719 2.17570846 13.37603893 2.1875 11.5625 C2.20167969 10.57378906 2.21585938 9.58507812 2.23046875 8.56640625 C2.26150753 5.83415585 2.26150753 5.83415585 0 4 C0.66 3.67 1.32 3.34 2 3 C1.34 2.01 0.68 1.02 0 0 Z " fill="#081006" transform="translate(31,6)"/>
<path d="M0 0 C0.33 0.66 0.66 1.32 1 2 C1.66 2 2.32 2 3 2 C3 1.34 3 0.68 3 0 C3.66 0 4.32 0 5 0 C6.25664978 2.90600261 7 4.79604584 7 8 C5.35 7.34 3.7 6.68 2 6 C1.67 6.33 1.34 6.66 1 7 C-2.19990157 8.77772309 -5.51849004 9.89224683 -9 11 C-9 10.34 -9 9.68 -9 9 C-9.66 8.67 -10.32 8.34 -11 8 C-6.05 6.515 -6.05 6.515 -1 5 C-0.67 3.35 -0.34 1.7 0 0 Z " fill="#2B2C2B" transform="translate(57,22)"/>
<path d="M0 0 C3.49181927 1.84114107 6.71739341 3.81159561 10 6 C9.77139942 7.46184058 9.51629608 8.91955419 9.25 10.375 C9.11078125 11.18710937 8.9715625 11.99921875 8.828125 12.8359375 C8 15 8 15 4 17 C4.99 13.7 5.98 10.4 7 7 C6.2575 6.7525 5.515 6.505 4.75 6.25 C1.79875938 4.90852699 0.15185026 3.39094474 -2 1 C-1.34 0.67 -0.68 0.34 0 0 Z " fill="#0B1D06" transform="translate(38,25)"/>
<path d="M0 0 C0.66 0.33 1.32 0.66 2 1 C0.35 2.98 -1.3 4.96 -3 7 C-4.65 6.67 -6.3 6.34 -8 6 C-8 6.66 -8 7.32 -8 8 C-10.31 7.34 -12.62 6.68 -15 6 C-14.34 5.34 -13.68 4.68 -13 4 C-11.01432292 4.06510417 -9.02864583 4.13020833 -7.04296875 4.1953125 C-3.87379951 3.89233265 -2.18569694 2.18569694 0 0 Z " fill="#202420" transform="translate(30,25)"/>
<path d="M0 0 C0.33 0.66 0.66 1.32 1 2 C5.95 2 10.9 2 16 2 C16 2.33 16 2.66 16 3 C14.55367187 3.05607422 14.55367187 3.05607422 13.078125 3.11328125 C11.81484375 3.17902344 10.5515625 3.24476562 9.25 3.3125 C7.99703125 3.37050781 6.7440625 3.42851563 5.453125 3.48828125 C1.87815149 4.01805674 0.7224171 4.81102949 -2 7 C-2.99 6.67 -3.98 6.34 -5 6 C-3.35 4.02 -1.7 2.04 0 0 Z " fill="#3F3F3F" transform="translate(26,45)"/>
<path d="M0 0 C0.99 0.33 1.98 0.66 3 1 C3.94921875 3.28515625 3.94921875 3.28515625 4.6875 6.0625 C4.93886719 6.98160156 5.19023437 7.90070312 5.44921875 8.84765625 C5.63097656 9.55792969 5.81273437 10.26820312 6 11 C5.01 11.33 4.02 11.66 3 12 C2.49440092 10.56445975 1.9957251 9.1264798 1.5 7.6875 C1.2215625 6.88699219 0.943125 6.08648437 0.65625 5.26171875 C0 3 0 3 0 0 Z " fill="#0B1E06" transform="translate(22,31)"/>
<path d="M0 0 C1.65 0 3.3 0 5 0 C4.34 1.98 3.68 3.96 3 6 C1.35 6 -0.3 6 -2 6 C-1.34 4.02 -0.68 2.04 0 0 Z " fill="#29CB00" transform="translate(50,55)"/>
<path d="M0 0 C0.66 0 1.32 0 2 0 C2.33 1.98 2.66 3.96 3 6 C1.35 6.66 -0.3 7.32 -2 8 C-1.125 2.25 -1.125 2.25 0 0 Z " fill="#26BF00" transform="translate(8,22)"/>
<path d="M0 0 C0.66 0 1.32 0 2 0 C3.25664978 2.90600261 4 4.79604584 4 8 C1.525 7.01 1.525 7.01 -1 6 C-0.67 4.02 -0.34 2.04 0 0 Z " fill="#27C400" transform="translate(60,22)"/>
<path d="M0 0 C2.5 2.3125 2.5 2.3125 5 5 C5 5.99 5 6.98 5 8 C1.83884224 6.63016497 1.0072908 6.0109362 -1 3 C-0.67 2.01 -0.34 1.02 0 0 Z " fill="#202020" transform="translate(43,45)"/>
<path d="M0 0 C1.65 0 3.3 0 5 0 C5.33 1.65 5.66 3.3 6 5 C3.5625 4.1875 3.5625 4.1875 1 3 C0.67 2.01 0.34 1.02 0 0 Z " fill="#29CE00" transform="translate(15,55)"/>
<path d="M0 0 C2.64 0 5.28 0 8 0 C7.01 1.485 7.01 1.485 6 3 C3.5625 2.625 3.5625 2.625 1 2 C0.67 1.34 0.34 0.68 0 0 Z " fill="#2EE500" transform="translate(31,6)"/>
</svg>
