<?xml version="1.0" encoding="UTF-8"?>
<svg version="1.1" xmlns="http://www.w3.org/2000/svg" width="70" height="70">
<path d="M0 0 C8.90556591 5.39845135 15.14395035 12.30301363 18.1875 22.4375 C19.93427604 33.94868099 19.20034757 44.80069165 12.1875 54.4375 C7.40946609 60.86900112 0.83000831 65.12183635 -6.8125 67.4375 C-18.15487944 69.04619042 -28.93534574 68.31440249 -38.41796875 61.58984375 C-45.43351273 55.87999924 -50.80533539 49.3081142 -52.14941406 40.13916016 C-53.30116583 27.82890957 -51.76989527 18.45648753 -44.27734375 8.37109375 C-33.48687652 -3.90405693 -14.62652276 -6.82571062 0 0 Z " fill="#49414B" transform="translate(51.8125,2.5625)"/>
<path d="M0 0 C8.90556591 5.39845135 15.14395035 12.30301363 18.1875 22.4375 C19.93427604 33.94868099 19.20034757 44.80069165 12.1875 54.4375 C7.40946609 60.86900112 0.83000831 65.12183635 -6.8125 67.4375 C-18.15487944 69.04619042 -28.93534574 68.31440249 -38.41796875 61.58984375 C-45.43351273 55.87999924 -50.80533539 49.3081142 -52.14941406 40.13916016 C-53.30116583 27.82890957 -51.76989527 18.45648753 -44.27734375 8.37109375 C-33.48687652 -3.90405693 -14.62652276 -6.82571062 0 0 Z M-44.8125 13.4375 C-45.4634259 14.68485567 -46.10801669 15.93551832 -46.75 17.1875 C-47.28947266 18.23164063 -47.28947266 18.23164063 -47.83984375 19.296875 C-49.8552356 23.73235585 -49.90595854 27.57765613 -49.8125 32.4375 C-49.1525 32.4375 -48.4925 32.4375 -47.8125 32.4375 C-48.1425 33.0975 -48.4725 33.7575 -48.8125 34.4375 C-49.27882923 40.26661532 -48.03482361 44.15948142 -45.8125 49.4375 C-43.8325 49.4375 -41.8525 49.4375 -39.8125 49.4375 C-40.8025 50.0975 -41.7925 50.7575 -42.8125 51.4375 C-41.46141639 54.52760211 -40.02232067 56.40660153 -37.4375 58.5625 C-36.85226563 59.06007812 -36.26703125 59.55765625 -35.6640625 60.0703125 C-32.6258589 62.31371178 -30.63494029 63.4375 -26.8125 63.4375 C-26.8125 62.4475 -26.8125 61.4575 -26.8125 60.4375 C-26.46574219 61.25605469 -26.11898438 62.07460937 -25.76171875 62.91796875 C-23.99207861 65.80803154 -23.99207861 65.80803154 -20.45703125 65.92578125 C-19.19246094 65.86777344 -17.92789063 65.80976562 -16.625 65.75 C-14.71654297 65.68232422 -14.71654297 65.68232422 -12.76953125 65.61328125 C-11.79371094 65.55527344 -10.81789062 65.49726562 -9.8125 65.4375 C-9.1525 64.1175 -8.4925 62.7975 -7.8125 61.4375 C-7.4825 62.4275 -7.1525 63.4175 -6.8125 64.4375 C-6.1525 64.4375 -5.4925 64.4375 -4.8125 64.4375 C-4.8125 63.7775 -4.8125 63.1175 -4.8125 62.4375 C-4.27625 62.355 -3.74 62.2725 -3.1875 62.1875 C1.75417767 60.62697021 5.82280801 57.31983692 9.1875 53.4375 C9.1875 52.7775 9.1875 52.1175 9.1875 51.4375 C7.8675 51.4375 6.5475 51.4375 5.1875 51.4375 C5.6825 50.4475 5.6825 50.4475 6.1875 49.4375 C7.8375 49.4375 9.4875 49.4375 11.1875 49.4375 C14.00282819 44.39609836 15.7063509 40.21128925 16.1875 34.4375 C15.5275 34.4375 14.8675 34.4375 14.1875 34.4375 C14.1875 33.7775 14.1875 33.1175 14.1875 32.4375 C14.8475 32.4375 15.5075 32.4375 16.1875 32.4375 C15.7339821 25.40797248 14.06690913 19.8525557 11.1875 13.4375 C10.5275 13.4375 9.8675 13.4375 9.1875 13.4375 C9.1875 15.0875 9.1875 16.7375 9.1875 18.4375 C8.63191406 18.10492187 8.07632813 17.77234375 7.50390625 17.4296875 C4.77097044 16.25908768 3.06974884 16.28712379 0.125 16.5625 C-0.73222656 16.62695312 -1.58945312 16.69140625 -2.47265625 16.7578125 C-5.48313459 17.63230871 -6.31714028 18.72315067 -7.8125 21.4375 C-7.60359902 26.86892538 -5.94202162 31.49700983 -3.8125 36.4375 C-3.1525 36.7675 -2.4925 37.0975 -1.8125 37.4375 C-2.823125 37.829375 -3.83375 38.22125 -4.875 38.625 C-8.86471684 40.37559004 -12.8499303 42.16032112 -15.8125 45.4375 C-16.6469592 49.0663837 -16.6469592 49.0663837 -15.8125 52.4375 C-14.8225 53.0975 -13.8325 53.7575 -12.8125 54.4375 C-13.575625 54.23125 -14.33875 54.025 -15.125 53.8125 C-18.03135944 53.10358797 -18.03135944 53.10358797 -20.8125 55.4375 C-20.07 54.9115625 -20.07 54.9115625 -19.3125 54.375 C-17.5697479 52.39219744 -17.5697479 52.39219744 -17 49.1875 C-18.13458478 43.95095487 -20.88740988 42.65473713 -25.234375 39.8203125 C-27.49042683 38.61024833 -29.31250626 37.89310634 -31.8125 37.4375 C-31.35359375 37.03273438 -30.8946875 36.62796875 -30.421875 36.2109375 C-27.65287679 33.15966277 -26.71266835 29.40103196 -25.8125 25.4375 C-26.05187401 21.76709853 -26.73751375 20.54997938 -28.8125 17.4375 C-32.16753476 17.07191883 -32.16753476 17.07191883 -35.9375 17.25 C-37.21882813 17.27707031 -38.50015625 17.30414062 -39.8203125 17.33203125 C-40.80773438 17.36683594 -41.79515625 17.40164062 -42.8125 17.4375 C-42.8125 16.1175 -42.8125 14.7975 -42.8125 13.4375 C-43.4725 13.4375 -44.1325 13.4375 -44.8125 13.4375 Z " fill="#050505" transform="translate(51.8125,2.5625)"/>
<path d="M0 0 C0.66 0 1.32 0 2 0 C4.87940913 6.4150557 6.5464821 11.97047248 7 19 C6.34 19 5.68 19 5 19 C5 19.66 5 20.32 5 21 C5.66 21 6.32 21 7 21 C6.5188509 26.77378925 4.81532819 30.95859836 2 36 C0.35 36 -1.3 36 -3 36 C-3.33 36.66 -3.66 37.32 -4 38 C-2.68 38 -1.36 38 0 38 C-1.9351035 43.22477945 -6.52454874 46.01636583 -11 49 C-11.99 49 -12.98 49 -14 49 C-14 49.66 -14 50.32 -14 51 C-14.66 51 -15.32 51 -16 51 C-16.04125 50.4225 -16.0825 49.845 -16.125 49.25 C-17.42260308 45.91330635 -20.07675033 44.92810084 -23 43 C-23 42.01 -23 41.02 -23 40 C-23.66 39.67 -24.32 39.34 -25 39 C-25.625 35.9375 -25.625 35.9375 -25 32 C-21.02987705 28.21574423 -16.46788372 24.99648348 -11 24 C-11.45890625 23.59523438 -11.9178125 23.19046875 -12.390625 22.7734375 C-15.15962321 19.72216277 -16.09983165 15.96353196 -17 12 C-16.76062599 8.32959853 -16.07498625 7.11247938 -14 4 C-11.7578125 3.453125 -11.7578125 3.453125 -9.125 3.25 C-7.82949219 3.13398438 -7.82949219 3.13398438 -6.5078125 3.015625 C-4.12633882 3.00078716 -2.26549223 3.30454657 0 4 C0 2.68 0 1.36 0 0 Z " fill="#121112" transform="translate(61,16)"/>
<path d="M0 0 C7.3750884 6.67035773 11.09567425 15.00207728 11.59570312 24.84033203 C11.75576908 36.16078636 9.37273985 44.67716226 1.7578125 53.33984375 C-7.51420498 61.50804962 -16.66045467 63.53023417 -28.68359375 62.90625 C-39.09795559 62.03638808 -46.29613134 57.32898238 -53.1171875 49.46484375 C-57.42862057 43.08357927 -59.82873036 37.27024371 -59.5234375 29.5234375 C-59.1171875 27.46484375 -59.1171875 27.46484375 -57.1171875 24.46484375 C-57.1171875 25.45484375 -57.1171875 26.44484375 -57.1171875 27.46484375 C-56.4571875 27.46484375 -55.7971875 27.46484375 -55.1171875 27.46484375 C-55.14039063 28.02171875 -55.16359375 28.57859375 -55.1875 29.15234375 C-55.31729774 34.6409339 -54.65047184 39.19417885 -53.1171875 44.46484375 C-49.6521875 43.96984375 -49.6521875 43.96984375 -46.1171875 43.46484375 C-46.4471875 44.45484375 -46.7771875 45.44484375 -47.1171875 46.46484375 C-48.1071875 46.46484375 -49.0971875 46.46484375 -50.1171875 46.46484375 C-45.56110068 52.57959185 -41.09546661 55.47218255 -34.1171875 58.46484375 C-34.4471875 57.47484375 -34.7771875 56.48484375 -35.1171875 55.46484375 C-34.1271875 54.96984375 -34.1271875 54.96984375 -33.1171875 54.46484375 C-32.4571875 56.11484375 -31.7971875 57.76484375 -31.1171875 59.46484375 C-26.4971875 59.46484375 -21.8771875 59.46484375 -17.1171875 59.46484375 C-16.4571875 58.14484375 -15.7971875 56.82484375 -15.1171875 55.46484375 C-14.7871875 56.78484375 -14.4571875 58.10484375 -14.1171875 59.46484375 C-13.4571875 59.46484375 -12.7971875 59.46484375 -12.1171875 59.46484375 C-12.1171875 58.80484375 -12.1171875 58.14484375 -12.1171875 57.46484375 C-11.52550781 57.17351562 -10.93382812 56.8821875 -10.32421875 56.58203125 C-5.02524761 53.83313594 -1.61160737 51.31194229 1.8828125 46.46484375 C0.5628125 46.46484375 -0.7571875 46.46484375 -2.1171875 46.46484375 C-1.7871875 45.47484375 -1.4571875 44.48484375 -1.1171875 43.46484375 C0.5328125 43.46484375 2.1828125 43.46484375 3.8828125 43.46484375 C4.53191404 41.88284744 5.17695944 40.29918651 5.8203125 38.71484375 C6.35978516 37.39226563 6.35978516 37.39226563 6.91015625 36.04296875 C7.73637826 33.85298271 8.37651193 31.74586104 8.8828125 29.46484375 C8.2228125 29.46484375 7.5628125 29.46484375 6.8828125 29.46484375 C6.8828125 28.80484375 6.8828125 28.14484375 6.8828125 27.46484375 C7.5428125 27.46484375 8.2028125 27.46484375 8.8828125 27.46484375 C8.42824816 25.42233464 7.96898424 23.38087115 7.5078125 21.33984375 C7.12496094 19.63441406 7.12496094 19.63441406 6.734375 17.89453125 C5.93644773 14.68086087 4.97490691 11.58918341 3.8828125 8.46484375 C3.2228125 8.46484375 2.5628125 8.46484375 1.8828125 8.46484375 C2.3778125 10.93984375 2.3778125 10.93984375 2.8828125 13.46484375 C1.8928125 13.95984375 1.8928125 13.95984375 0.8828125 14.46484375 C0.8828125 13.80484375 0.8828125 13.14484375 0.8828125 12.46484375 C-0.1071875 12.46484375 -1.0971875 12.46484375 -2.1171875 12.46484375 C-2.1171875 11.80484375 -2.1171875 11.14484375 -2.1171875 10.46484375 C-1.4571875 10.46484375 -0.7971875 10.46484375 -0.1171875 10.46484375 C0.38660279 8.17790152 0.38660279 8.17790152 -0.1171875 5.46484375 C-4.29226272 1.08101477 -8.41341571 -0.66667928 -14.1171875 -2.53515625 C-14.1171875 -3.19515625 -14.1171875 -3.85515625 -14.1171875 -4.53515625 C-18.4071875 -4.86515625 -22.6971875 -5.19515625 -27.1171875 -5.53515625 C-27.1171875 -5.86515625 -27.1171875 -6.19515625 -27.1171875 -6.53515625 C-16.22069293 -8.66130153 -9.00219132 -6.52741917 0 0 Z " fill="#080708" transform="translate(59.1171875,7.53515625)"/>
<path d="M0 0 C4.62 0 9.24 0 14 0 C16.42153188 5.52109269 17.57237034 8.95242175 16 15 C13.14063144 17.85936856 11.04408788 17.33391034 7.0625 17.375 C5.81597656 17.40335938 4.56945313 17.43171875 3.28515625 17.4609375 C0 17 0 17 -1.953125 15.22265625 C-3.5685497 11.79289262 -2.88110411 8.55754066 -2 5 C-1.34 3.35 -0.68 1.7 0 0 Z " fill="#E5E3E5" transform="translate(28,7)"/>
<path d="M0 0 C1.57305208 2.53699001 2.31863431 5.10969069 3 8 C3.309375 9.299375 3.309375 9.299375 3.625 10.625 C2.7225705 14.0542321 0.81857715 15.65797308 -1.91015625 17.83984375 C-5.38223336 19.76733328 -8.10772174 19.4097135 -12 19 C-12.70304222 17.27709395 -13.38683491 15.54632534 -14.0625 13.8125 C-14.44535156 12.84957031 -14.82820313 11.88664062 -15.22265625 10.89453125 C-16.07293243 7.72842748 -15.99324968 6.09415475 -15 3 C-13 0 -13 0 -9.75 -0.75 C-3.090301 -1.19397993 -3.090301 -1.19397993 0 0 Z " fill="#E5E3E5" transform="translate(60,20)"/>
<path d="M0 0 C2.10304477 -0.1080023 4.20766909 -0.18558987 6.3125 -0.25 C8.07013672 -0.31960937 8.07013672 -0.31960937 9.86328125 -0.390625 C13 0 13 0 14.92578125 1.8125 C17.08014502 6.19956803 15.14817105 10.91209913 13.8125 15.375 C12.60081404 18.35761159 12.30684299 18.84301056 9.3125 20.375 C4.16078445 19.79178692 0.60714805 16.60714805 -3 13 C-2.94921875 11.07421875 -2.94921875 11.07421875 -2.6875 8.6875 C-2.60886719 7.90761719 -2.53023438 7.12773437 -2.44921875 6.32421875 C-1.98413721 3.91792729 -1.19341444 2.12866168 0 0 Z " fill="#E4E2E4" transform="translate(10,20)"/>
<path d="M0 0 C3.0625 1.375 3.0625 1.375 5 4.5625 C6.82576531 11.11377551 6.82576531 11.11377551 6.0625 14.375 C3.08882428 17.57852505 -0.04879679 20.2368022 -4.5 20.5625 C-8.02463943 18.84536797 -11.22548838 17.26582557 -13.9375 14.375 C-15 11 -15 11 -13.9375 7.375 C-9.83258889 3.20619922 -5.86594325 0.55866126 0 0 Z " fill="#E2E0E2" transform="translate(49.9375,40.625)"/>
<path d="M0 0 C3.78244533 1.81667812 6.97204566 4.09679284 10 7 C11.1875 10.5625 11.1875 10.5625 10 14 C7.29412897 16.62095876 4.51069807 18.6158138 1 20 C-2.99416224 19.66314294 -5.78903017 18.35770369 -8.8203125 15.65625 C-10.76913547 12.92015417 -10.75323421 10.43749498 -10.5234375 7.16015625 C-9.16012278 1.53393954 -5.4517079 -0.6413774 0 0 Z " fill="#E5E3E5" transform="translate(24,41)"/>
<path d="M0 0 C3.96 0 7.92 0 12 0 C15.91339648 9.62043302 15.91339648 9.62043302 15 13 C12.91799368 15.21614118 10.78757446 16.77789011 8 18 C5.375 17.5625 5.375 17.5625 3 16 C2.05125 15.484375 1.1025 14.96875 0.125 14.4375 C-2 12 -2 12 -2.125 9.84375 C-1.76531297 6.38176236 -1.10172736 3.30518208 0 0 Z " fill="#5B515E" transform="translate(30,27)"/>
<path d="M0 0 C1.40378906 -0.00386719 1.40378906 -0.00386719 2.8359375 -0.0078125 C5.53229747 0.12058559 7.99771509 0.52311291 10.625 1.125 C10.625 1.785 10.625 2.445 10.625 3.125 C11.924375 3.24875 11.924375 3.24875 13.25 3.375 C17.15652991 4.24311776 19.44824019 5.72478148 22.625 8.125 C23.264375 8.599375 23.90375 9.07375 24.5625 9.5625 C25.625 11.125 25.625 11.125 25.3125 13.8125 C25.085625 14.575625 24.85875 15.33875 24.625 16.125 C20.36933453 17.28563604 16.9414922 16.88673392 12.625 16.125 C11.14 11.67 11.14 11.67 9.625 7.125 C8.965 7.125 8.305 7.125 7.625 7.125 C7.625 6.465 7.625 5.805 7.625 5.125 C3.995 5.125 0.365 5.125 -3.375 5.125 C-3.375 4.795 -3.375 4.465 -3.375 4.125 C-5.025 3.795 -6.675 3.465 -8.375 3.125 C-8.375 2.465 -8.375 1.805 -8.375 1.125 C-5.32083187 0.10694396 -3.19563039 -0.00875515 0 0 Z " fill="#59505C" transform="translate(34.375,1.875)"/>
<path d="M0 0 C0.66 0.33 1.32 0.66 2 1 C2.6328125 3.06640625 2.6328125 3.06640625 3.125 5.5625 C3.29257812 6.38878906 3.46015625 7.21507812 3.6328125 8.06640625 C3.75398438 8.70449219 3.87515625 9.34257812 4 10 C6.31 10 8.62 10 11 10 C11 10.66 11 11.32 11 12 C9.88625 12.103125 8.7725 12.20625 7.625 12.3125 C6.42875 12.539375 5.2325 12.76625 4 13 C1.37038478 16.94442283 2.09874823 18.41863685 3 23 C3.62336579 25.6809416 4.29933862 28.33748677 5 31 C7.31 31 9.62 31 12 31 C12 31.33 12 31.66 12 32 C11.06027344 32.19916016 11.06027344 32.19916016 10.1015625 32.40234375 C9.28429687 32.57894531 8.46703125 32.75554688 7.625 32.9375 C6.81289063 33.11152344 6.00078125 33.28554688 5.1640625 33.46484375 C2.970537 33.92330693 2.970537 33.92330693 1 35 C1.04125 33.845 1.0825 32.69 1.125 31.5 C1.14087433 27.05518699 0.21793105 23.26275869 -1 19 C-4.96 19 -8.92 19 -13 19 C-14.10020534 25.00797073 -14.10020534 25.00797073 -14 31 C-11.74678781 33.80240059 -9.19763558 35.40468072 -6 37 C-7.734375 37.68359375 -7.734375 37.68359375 -10 38 C-12.140625 36.78515625 -12.140625 36.78515625 -14.25 35.0625 C-14.95640625 34.49660156 -15.6628125 33.93070313 -16.390625 33.34765625 C-17.18726562 32.68056641 -17.18726562 32.68056641 -18 32 C-17.68806536 30.27073126 -17.37542638 28.54158956 -17.0625 26.8125 C-16.88847656 25.84957031 -16.71445312 24.88664062 -16.53515625 23.89453125 C-16.0476265 21.25760028 -15.53328895 18.6280095 -15 16 C-14.01257813 15.96261719 -13.02515625 15.92523438 -12.0078125 15.88671875 C-10.72648437 15.82097656 -9.44515625 15.75523438 -8.125 15.6875 C-6.84882812 15.62949219 -5.57265625 15.57148438 -4.2578125 15.51171875 C-3.18273437 15.34285156 -2.10765625 15.17398437 -1 15 C1.42945561 11.35581659 1.0828781 10.07076636 0.625 5.8125 C0.51414062 4.72582031 0.40328125 3.63914062 0.2890625 2.51953125 C0.19367187 1.68808594 0.09828125 0.85664063 0 0 Z " fill="#332D34" transform="translate(43,8)"/>
<path d="M0 0 C0.66 0 1.32 0 2 0 C5 4.38461538 5 4.38461538 5 7 C9.29 7 13.58 7 18 7 C18 7.33 18 7.66 18 8 C13.71 8 9.42 8 5 8 C4.34 12.62 3.68 17.24 3 22 C7.34694644 25.81610833 7.34694644 25.81610833 12.6875 27 C15.11809869 25.9489303 16.93245513 24.63977697 19 23 C19.66 23 20.32 23 21 23 C19.61122646 26.35620271 18.08322035 28.07298728 15 30 C14.34 30 13.68 30 13 30 C13 32.31 13 34.62 13 37 C14.32 37.66 15.64 38.32 17 39 C13.86314002 40.04561999 11.27634061 40 8 40 C8.33 39.01 8.66 38.02 9 37 C9.66 37 10.32 37 11 37 C11 34.69 11 32.38 11 30 C10.278125 29.7525 9.55625 29.505 8.8125 29.25 C6 28 6 28 3.5625 26 C0.78437151 23.8317046 -1.62819311 22.94096937 -5 22 C-3.68 21.67 -2.36 21.34 -1 21 C-0.46530198 19.27507022 0.05219175 17.544802 0.5625 15.8125 C0.85253906 14.84957031 1.14257812 13.88664062 1.44140625 12.89453125 C2.03218024 9.83324783 1.80548429 7.98029187 1 5 C0.5 2.5 0.5 2.5 0 0 Z " fill="#161517" transform="translate(23,18)"/>
<path d="M0 0 C3.56521654 1.78260827 6.71455357 3.75992289 10 6 C9.34 7.98 8.68 9.96 8 12 C3.38 12 -1.24 12 -6 12 C-6.66 10.02 -7.32 8.04 -8 6 C-5.36 4.02 -2.72 2.04 0 0 Z " fill="#594F5C" transform="translate(34,56)"/>
<path d="M0 0 C0.99 0.680625 0.99 0.680625 2 1.375 C1.5188509 7.14878925 -0.18467181 11.33359836 -3 16.375 C-4.65 16.375 -6.3 16.375 -8 16.375 C-8.99 12.745 -9.98 9.115 -11 5.375 C-3.73846154 -0.77884615 -3.73846154 -0.77884615 0 0 Z " fill="#584F5B" transform="translate(66,35.625)"/>
<path d="M0 0 C1.52864816 4.58594448 -0.37436606 7.51325033 -2 12 C-5.96 12 -9.92 12 -14 12 C-14.33 10.35 -14.66 8.7 -15 7 C-13.71064081 5.85157077 -12.41843421 4.70633773 -11.125 3.5625 C-10.04605469 2.60537109 -10.04605469 2.60537109 -8.9453125 1.62890625 C-5.58689306 -1.18326425 -4.17414603 -0.98861353 0 0 Z " fill="#59505C" transform="translate(25,6)"/>
<path d="M0 0 C0.66 0 1.32 0 2 0 C1.855625 1.216875 1.71125 2.43375 1.5625 3.6875 C1.55291285 6.38148837 1.65272139 7.5781644 3.3828125 9.6796875 C6.21764912 11.85183504 8.06585841 13.02172422 11.6875 12.9375 C13.86197901 12.05595445 15.94855912 11.13968938 18 10 C18.33 10.66 18.66 11.32 19 12 C16.69 13.32 14.38 14.64 12 16 C12 16.99 12 17.98 12 19 C5.93750716 18.6210942 1.58313629 14.32829773 -2.7421875 10.4296875 C-4 9 -4 9 -4 7 C-3.01 6.67 -2.02 6.34 -1 6 C-0.67 4.02 -0.34 2.04 0 0 Z " fill="#1E1C1E" transform="translate(13,47)"/>
<path d="M0 0 C0.33 0.66 0.66 1.32 1 2 C2.32 2 3.64 2 5 2 C3.0648965 7.22477945 -1.52454874 10.01636583 -6 13 C-6.99 13 -7.98 13 -9 13 C-9 13.66 -9 14.32 -9 15 C-9.66 15 -10.32 15 -11 15 C-11.04125 14.4225 -11.0825 13.845 -11.125 13.25 C-12.44065958 9.86687535 -14.96552364 8.80777315 -18 7 C-16.1875 6.375 -16.1875 6.375 -14 6 C-13.01 6.66 -12.02 7.32 -11 8 C-6.61488157 7.76920429 -4.14282731 5.96822579 -1 3 C-0.67 2.01 -0.34 1.02 0 0 Z " fill="#1C1A1D" transform="translate(56,52)"/>
<path d="M0 0 C4.62 0 9.24 0 14 0 C14 0.33 14 0.66 14 1 C7.565 1.495 7.565 1.495 1 2 C-0.485 7.445 -0.485 7.445 -2 13 C-2.66 13 -3.32 13 -4 13 C-3.71517632 11.58194169 -3.42181856 10.16559621 -3.125 8.75 C-2.96257813 7.96109375 -2.80015625 7.1721875 -2.6328125 6.359375 C-2 4 -2 4 0 0 Z M-15 13 C-11.37 13 -7.74 13 -4 13 C-4 13.66 -4 14.32 -4 15 C-7.96 15 -11.92 15 -16 15 C-15.67 14.34 -15.34 13.68 -15 13 Z " fill="#100E10" transform="translate(27,5)"/>
<path d="M0 0 C0.66 0 1.32 0 2 0 C1.26653847 3.74342157 0.4837861 7.47071069 -0.375 11.1875 C-0.60960937 12.23292969 -0.84421875 13.27835938 -1.0859375 14.35546875 C-2 17 -2 17 -5 19 C-5.61897694 11.88176515 -3.14955574 6.29911148 0 0 Z " fill="#A5A3A6" transform="translate(7,16)"/>
<path d="M0 0 C3.05906926 2.51066469 3.75191278 4.90059933 4.6875 8.6875 C5.06455078 10.17830078 5.06455078 10.17830078 5.44921875 11.69921875 C5.63097656 12.45847656 5.81273437 13.21773437 6 14 C8.31 14 10.62 14 13 14 C13 14.33 13 14.66 13 15 C12.37351562 15.13277344 11.74703125 15.26554687 11.1015625 15.40234375 C9.87566406 15.66724609 9.87566406 15.66724609 8.625 15.9375 C7.81289063 16.11152344 7.00078125 16.28554688 6.1640625 16.46484375 C3.970537 16.92330693 3.970537 16.92330693 2 18 C2.04125 16.80375 2.0825 15.6075 2.125 14.375 C2.13850228 10.55385518 1.30983537 7.60204727 0 4 C0 2.68 0 1.36 0 0 Z " fill="#2D2B2E" transform="translate(42,25)"/>
<path d="M0 0 C1.42119141 -0.00386719 1.42119141 -0.00386719 2.87109375 -0.0078125 C5.26390459 0.11026525 7.27586153 0.44387365 9.5625 1.125 C9.5625 1.785 9.5625 2.445 9.5625 3.125 C3.6225 3.125 -2.3175 3.125 -8.4375 3.125 C-8.4375 2.465 -8.4375 1.805 -8.4375 1.125 C-5.36792902 0.10180967 -3.21309677 -0.00871939 0 0 Z " fill="#BFBDBF" transform="translate(34.4375,1.875)"/>
<path d="M0 0 C0.99 0 1.98 0 3 0 C4.66666667 1.66666667 6.33333333 3.33333333 8 5 C10.10337616 6.37618663 12.23992977 7.64631874 14.42578125 8.88671875 C14.94527344 9.25410156 15.46476562 9.62148438 16 10 C16 10.66 16 11.32 16 12 C9.93750716 11.6210942 5.58313629 7.32829773 1.2578125 3.4296875 C0 2 0 2 0 0 Z " fill="#B4B2B4" transform="translate(9,54)"/>
<path d="M0 0 C0.66 0 1.32 0 2 0 C4.87940913 6.4150557 6.5464821 11.97047248 7 19 C4 17 4 17 3.33984375 14.72265625 C3.20707031 13.84480469 3.07429688 12.96695312 2.9375 12.0625 C2.39490023 8.55368812 2.02361887 7.0354283 0 4 C0 2.68 0 1.36 0 0 Z " fill="#C6C5C6" transform="translate(61,16)"/>
<path d="M0 0 C0.99 0 1.98 0 3 0 C1.24122647 4.74868854 -2.54216114 7.75876675 -6.94921875 9.984375 C-8.61448387 10.70047278 -10.30551197 11.35609455 -12 12 C-12 11.01 -12 10.02 -12 9 C-9.8828125 7.5 -9.8828125 7.5 -7.125 6 C-3.71728314 4.13594975 -2.19193657 3.28790485 0 0 Z " fill="#C5C3C5" transform="translate(58,54)"/>
<path d="M0 0 C5.28 0 10.56 0 16 0 C15.67 0.99 15.34 1.98 15 3 C10.38 3 5.76 3 1 3 C0.67 2.01 0.34 1.02 0 0 Z " fill="#403842" transform="translate(27,65)"/>
<path d="M0 0 C0.66 0 1.32 0 2 0 C1.67 1.19625 1.34 2.3925 1 3.625 C0.10734177 7.15791497 -0.18296045 10.34079109 0 14 C-0.99 14 -1.98 14 -3 14 C-3.33 14.66 -3.66 15.32 -4 16 C-4 12.71508131 -3.36399132 10.05795594 -2.5625 6.875 C-2.29566406 5.79992187 -2.02882813 4.72484375 -1.75390625 3.6171875 C-1 1 -1 1 0 0 Z " fill="#262426" transform="translate(8,20)"/>
<path d="M0 0 C0.33 0 0.66 0 1 0 C1.12117187 0.73605469 1.24234375 1.47210938 1.3671875 2.23046875 C1.53476563 3.20628906 1.70234375 4.18210937 1.875 5.1875 C2.03742187 6.15042969 2.19984375 7.11335938 2.3671875 8.10546875 C2.98039517 10.91032604 3.85666343 13.37224747 5 16 C4.01 16 3.02 16 2 16 C-0.21975392 10.72808443 -1.47558944 6.82597058 -1 1 C-0.67 0.67 -0.34 0.34 0 0 Z " fill="#473E4A" transform="translate(4,36)"/>
<path d="M0 0 C0.66 0.99 1.32 1.98 2 3 C1.01 4.98 0.02 6.96 -1 9 C-1.99 9 -2.98 9 -4 9 C-4 8.34 -4 7.68 -4 7 C-8.29 7 -12.58 7 -17 7 C-17 6.67 -17 6.34 -17 6 C-16.02417969 5.98582031 -15.04835938 5.97164062 -14.04296875 5.95703125 C-12.77066406 5.90933594 -11.49835937 5.86164062 -10.1875 5.8125 C-8.92292969 5.77769531 -7.65835938 5.74289063 -6.35546875 5.70703125 C-2.8234665 5.34379606 -2.8234665 5.34379606 -1.05078125 2.44921875 C-0.70402344 1.64097656 -0.35726562 0.83273438 0 0 Z " fill="#343235" transform="translate(45,18)"/>
<path d="M0 0 C0.57492188 0.22042969 1.14984375 0.44085938 1.7421875 0.66796875 C0.16125696 1.79634284 -1.42265966 2.92053393 -3.0078125 4.04296875 C-3.88953125 4.66945313 -4.77125 5.2959375 -5.6796875 5.94140625 C-7.83196229 7.38277816 -9.91241773 8.58294968 -12.2578125 9.66796875 C-10.85089766 6.33923725 -9.25089669 4.53629503 -6.3828125 2.35546875 C-5.70476563 1.82308594 -5.02671875 1.29070313 -4.328125 0.7421875 C-2.2578125 -0.33203125 -2.2578125 -0.33203125 0 0 Z " fill="#433A45" transform="translate(22.2578125,5.33203125)"/>
<path d="M0 0 C0.66 0 1.32 0 2 0 C4.48887372 4.68493876 3.85687773 7.9444214 3 13 C2.34 12.67 1.68 12.34 1 12 C0.5859375 9.27734375 0.5859375 9.27734375 0.375 5.9375 C0.30023438 4.83277344 0.22546875 3.72804688 0.1484375 2.58984375 C0.09945312 1.73519531 0.05046875 0.88054688 0 0 Z " fill="#343235" transform="translate(61,21)"/>
<path d="M0 0 C0.66 0.99 1.32 1.98 2 3 C0.68 3.99 -0.64 4.98 -2 6 C-2 5.34 -2 4.68 -2 4 C-5.63 4 -9.26 4 -13 4 C-13 3.67 -13 3.34 -13 3 C-6.565 2.505 -6.565 2.505 0 2 C0 1.34 0 0.68 0 0 Z " fill="#3C3A3D" transform="translate(44,3)"/>
<path d="M0 0 C-2.31 1.32 -4.62 2.64 -7 4 C-7.33 3.01 -7.66 2.02 -8 1 C-4.93251126 -0.86240388 -3.40254489 -1.2151946 0 0 Z " fill="#CBCACB" transform="translate(54,62)"/>
<path d="M0 0 C2.52259061 1.97420135 2.9929808 2.96745642 3.6875 6.1875 C3.790625 7.115625 3.89375 8.04375 4 9 C3.01 9.495 3.01 9.495 2 10 C0.68373308 6.38026598 0 3.90432869 0 0 Z " fill="#191819" transform="translate(42,25)"/>
<path d="M0 0 C0.66 0 1.32 0 2 0 C3.06775224 1.96466413 4.06553465 3.96855359 5 6 C4.67 6.66 4.34 7.32 4 8 C2 6.25 2 6.25 0 4 C0 2.68 0 1.36 0 0 Z " fill="#BCBABC" transform="translate(61,16)"/>
<path d="M0 0 C0.66 0 1.32 0 2 0 C2 2.97 2 5.94 2 9 C1.01 9 0.02 9 -1 9 C-0.67 6.03 -0.34 3.06 0 0 Z " fill="#29272A" transform="translate(13,47)"/>
<path d="M0 0 C0.66 0 1.32 0 2 0 C1.50168276 3.68754757 0.89932357 5.60490662 -2 8 C-1.125 2.25 -1.125 2.25 0 0 Z " fill="#B4B2B5" transform="translate(7,16)"/>
<path d="M0 0 C0.66 0 1.32 0 2 0 C2.99 1.98 3.98 3.96 5 6 C4.01 7.485 4.01 7.485 3 9 C0 3.375 0 3.375 0 0 Z " fill="#2A272A" transform="translate(23,18)"/>
<path d="M0 0 C0.66 1.32 1.32 2.64 2 4 C0.75 5.5625 0.75 5.5625 -1 7 C-3.1875 6.6875 -3.1875 6.6875 -5 6 C-4.360625 5.566875 -3.72125 5.13375 -3.0625 4.6875 C-0.73253997 3.08760823 -0.73253997 3.08760823 0 0 Z " fill="#2D2B2E" transform="translate(56,52)"/>
</svg>
