<svg width="15" height="16" viewBox="0 0 15 16" fill="none" xmlns="http://www.w3.org/2000/svg">
<g clip-path="url(#clip0_126_13032)">
<path d="M11.5136 2.01269C11.8769 2.08301 12.2285 2.37012 12.4013 2.7334L12.4951 2.93262L12.5038 6.92871C12.5097 10.5322 12.5068 10.9424 12.4628 11.0889C12.3544 11.4609 12.1494 11.71 11.8124 11.874L11.5898 11.9854H6.2431H0.893495L0.717714 11.9004C0.47455 11.7803 0.234316 11.543 0.114199 11.3027L0.0145898 11.1064V7.00488V2.90332L0.114199 2.69824C0.287051 2.34668 0.612245 2.09472 0.990175 2.01269C1.1806 1.97461 11.3085 1.97168 11.5136 2.01269ZM0.981386 2.71582C0.893495 2.75976 0.799745 2.83887 0.747011 2.91504L0.65912 3.04101L0.650331 5.97363C0.644472 8.84766 0.644472 8.90625 0.697206 8.85059C0.729433 8.81836 1.3476 8.10059 2.07123 7.25391C2.79486 6.40723 3.41596 5.69238 3.44525 5.66601C3.47748 5.63965 3.58002 5.58105 3.67377 5.53711C3.82611 5.4668 3.87006 5.46094 4.09857 5.47266C4.54389 5.49316 4.48822 5.44336 5.8974 7.125C6.57123 7.92773 7.13959 8.61328 7.16303 8.64551C7.20404 8.69824 7.23041 8.67773 7.69623 8.21484C7.97748 7.93945 8.24408 7.69922 8.32025 7.66113C8.43451 7.59961 8.4931 7.59082 8.74506 7.59082C8.99408 7.59082 9.05853 7.60254 9.18451 7.66113C9.29584 7.7168 9.62396 8.02441 10.5966 8.99414L11.8652 10.2539V6.72656C11.8652 4.38867 11.8535 3.1582 11.8359 3.08789C11.7773 2.88574 11.5751 2.69824 11.3613 2.65723C11.291 2.64258 8.96185 2.63379 6.18158 2.63672L1.12494 2.63965L0.981386 2.71582ZM3.85248 6.20508C3.79975 6.25781 3.05268 7.11914 2.20014 8.11816L0.644472 9.93457V10.3975C0.644472 10.9014 0.667909 11.0039 0.814394 11.1621C0.858339 11.209 0.94623 11.2705 1.01068 11.2998C1.12201 11.3525 1.32709 11.3555 6.25189 11.3555C11.3261 11.3555 11.3788 11.3555 11.499 11.2969C11.5663 11.2646 11.6484 11.209 11.6835 11.1709L11.748 11.1035L10.3037 9.66211C8.89154 8.25293 8.85932 8.2207 8.74506 8.2207C8.63666 8.2207 8.60736 8.24707 7.98334 8.86523C7.34174 9.50098 7.33295 9.50977 7.2099 9.50977C7.14252 9.50977 7.06049 9.49512 7.02826 9.47754C6.99603 9.46289 6.37201 8.72754 5.63666 7.8457C4.90424 6.96387 4.26557 6.21387 4.21283 6.17578C4.08393 6.08203 3.97553 6.09375 3.85248 6.20508Z" fill="#A0A0A0"/>
<path d="M9.6386 3.8877C9.99895 3.95801 10.3564 4.24512 10.5234 4.60254C10.5907 4.75195 10.6142 4.84863 10.6259 5.03613C10.6611 5.5752 10.4091 6.01758 9.93743 6.24902C9.7177 6.35742 9.70891 6.36035 9.37493 6.36035C9.04095 6.36035 9.03216 6.35742 8.81243 6.24902C8.34075 6.01758 8.0888 5.5752 8.12395 5.03613C8.17083 4.27441 8.87688 3.73828 9.6386 3.8877ZM9.03216 4.63477C8.72747 4.88086 8.68059 5.22656 8.91497 5.51074C9.15227 5.80078 9.60052 5.79785 9.84075 5.50781C10.037 5.26758 10.0312 4.96289 9.8261 4.7373C9.67669 4.57031 9.57122 4.52637 9.33977 4.53516C9.17278 4.54395 9.12884 4.55859 9.03216 4.63477Z" fill="#A0A0A0"/>
<path d="M13.5059 6.81152C13.5908 6.83203 13.6523 6.87011 13.7021 6.93457C13.7227 6.958 14.0186 8.01269 14.3613 9.27832L14.9824 11.5752L14.9854 11.9121C14.9854 12.2314 14.9795 12.2578 14.8916 12.4482C14.7803 12.6826 14.5488 12.9287 14.3379 13.0342C14.2559 13.0752 12.1172 13.6611 9.25781 14.4287C4.67285 15.6562 4.30371 15.75 4.08398 15.75C3.82617 15.75 3.60645 15.6914 3.41016 15.5654C3.22559 15.4512 3 15.1816 2.93262 15.0029C2.83887 14.7539 2.37305 13.0049 2.37305 12.9053C2.37305 12.7734 2.53711 12.6152 2.67773 12.6152C2.81543 12.6152 2.92676 12.668 2.97363 12.7617C2.99414 12.8027 3.12598 13.2568 3.2666 13.7725C3.4043 14.2852 3.53613 14.7393 3.55957 14.7803C3.65332 14.959 3.8877 15.1055 4.08105 15.1055C4.13672 15.1055 6.20215 14.5635 8.6748 13.9014C14.4375 12.3604 14.0039 12.4805 14.1299 12.3779C14.2559 12.2725 14.3555 12.0762 14.3555 11.9297C14.3555 11.8711 14.0801 10.7871 13.7402 9.52441C13.4004 8.26465 13.125 7.17773 13.125 7.11328C13.125 6.91406 13.3096 6.76757 13.5059 6.81152Z" fill="#A0A0A0"/>
</g>
<defs>
<clipPath id="clip0_126_13032">
<rect width="15" height="15" fill="white" transform="matrix(-1 0 0 1 15 0.75)"/>
</clipPath>
</defs>
</svg>
