<svg width="199" height="58" viewBox="0 0 199 58" fill="none" xmlns="http://www.w3.org/2000/svg">
<path d="M51.6835 27.6531C51.369 27.4832 48.6727 25.9187 47.661 25.3299L47.6581 25.3279L35.4032 18.2527C35.1944 18.1253 34.9603 18.045 34.7173 18.0175C34.4742 17.99 34.2281 18.0159 33.9961 18.0934C33.9699 18.1028 33.9453 18.1123 33.9199 18.124C33.8608 18.1432 33.803 18.1663 33.7469 18.1932C33.5126 18.3332 33.3204 18.5339 33.1905 18.7739C33.0606 19.014 32.9977 19.2847 33.0087 19.5574V38.5428C33.0012 38.7969 33.0614 39.0484 33.1831 39.2717C33.3047 39.4949 33.4835 39.6818 33.701 39.8133C33.7512 39.8378 33.8029 39.8591 33.8558 39.877C33.8848 39.8904 33.9123 39.902 33.9422 39.9125C34.0854 39.9645 34.2362 39.9923 34.3885 39.9949C34.681 39.9918 34.9676 39.912 35.2196 39.7635C35.6083 39.5379 47.6581 32.5809 47.6581 32.5809L51.6786 30.2596C51.9272 30.1351 52.137 29.945 52.2853 29.7099C52.4337 29.4747 52.515 29.2035 52.5204 28.9256C52.5082 28.6578 52.424 28.3983 52.2767 28.1744C52.1294 27.9505 51.9245 27.7704 51.6835 27.6531ZM35.0087 36.8391V21.102L42.9488 28.9611L35.0087 36.8391ZM40.0267 34.6774L44.3702 30.3679L45.5197 31.5057C44.2551 32.236 42.1184 33.4697 40.0267 34.6775V34.6774ZM44.3685 27.5524L39.9706 23.1995L45.5242 26.4058L44.3685 27.5524ZM47.3152 30.4691L45.7899 28.9594L47.3176 27.4435C48.0379 27.8618 49.1604 28.5129 49.9335 28.9578L47.3152 30.4691Z" fill="white"/>
<path d="M70.3086 24.14C69.6273 24.14 68.988 24.014 68.3906 23.762C67.8026 23.5007 67.2846 23.1413 66.8366 22.684C66.398 22.2267 66.0526 21.6947 65.8006 21.088C65.5486 20.4813 65.4226 19.828 65.4226 19.128C65.4226 18.428 65.5486 17.7793 65.8006 17.182C66.0526 16.5753 66.4026 16.0433 66.8506 15.586C67.2986 15.1287 67.8213 14.774 68.4186 14.522C69.0253 14.27 69.6833 14.144 70.3926 14.144C71.1673 14.144 71.8813 14.2933 72.5346 14.592C73.188 14.8907 73.734 15.32 74.1726 15.88L73.2626 16.79C72.9546 16.342 72.5486 16.0013 72.0446 15.768C71.5406 15.5253 70.99 15.404 70.3926 15.404C69.6833 15.404 69.0533 15.5627 68.5026 15.88C67.9613 16.1973 67.5366 16.636 67.2286 17.196C66.93 17.756 66.7806 18.4 66.7806 19.128C66.7806 19.8653 66.9346 20.514 67.2426 21.074C67.5506 21.634 67.966 22.0727 68.4886 22.39C69.0113 22.7073 69.6086 22.866 70.2806 22.866C70.962 22.866 71.55 22.7353 72.0446 22.474C72.5486 22.2127 72.936 21.83 73.2066 21.326C73.4773 20.8127 73.6126 20.1873 73.6126 19.45L74.4106 20.024H70.2106V18.82H74.9706V19.016C74.9706 20.1453 74.77 21.0927 74.3686 21.858C73.9766 22.614 73.426 23.1833 72.7166 23.566C72.0166 23.9487 71.214 24.14 70.3086 24.14ZM79.5968 24.14C78.9341 24.14 78.3368 23.9907 77.8048 23.692C77.2728 23.384 76.8528 22.9687 76.5448 22.446C76.2368 21.9233 76.0828 21.3307 76.0828 20.668C76.0828 20.0147 76.2321 19.4267 76.5308 18.904C76.8388 18.3813 77.2494 17.9707 77.7628 17.672C78.2854 17.364 78.8688 17.21 79.5128 17.21C80.1288 17.21 80.6701 17.35 81.1368 17.63C81.6128 17.91 81.9814 18.2973 82.2428 18.792C82.5134 19.2867 82.6488 19.8467 82.6488 20.472C82.6488 20.5653 82.6441 20.668 82.6348 20.78C82.6254 20.8827 82.6068 21.004 82.5788 21.144H76.9648V20.094H81.9068L81.4448 20.5C81.4448 20.052 81.3654 19.674 81.2068 19.366C81.0481 19.0487 80.8241 18.806 80.5348 18.638C80.2454 18.4607 79.8954 18.372 79.4848 18.372C79.0554 18.372 78.6774 18.4653 78.3508 18.652C78.0241 18.8387 77.7721 19.1 77.5948 19.436C77.4174 19.772 77.3288 20.1687 77.3288 20.626C77.3288 21.0927 77.4221 21.5033 77.6088 21.858C77.7954 22.2033 78.0614 22.474 78.4068 22.67C78.7521 22.8567 79.1488 22.95 79.5968 22.95C79.9701 22.95 80.3108 22.8847 80.6188 22.754C80.9361 22.6233 81.2068 22.4273 81.4308 22.166L82.2428 22.992C81.9254 23.3653 81.5334 23.65 81.0668 23.846C80.6094 24.042 80.1194 24.14 79.5968 24.14ZM84.8396 24V14.564H86.0996V24H84.8396ZM83.2016 18.498V17.35H87.7376V18.498H83.2016ZM91.898 24V17.35H93.158V24H91.898ZM92.528 16.02C92.2946 16.02 92.1033 15.9453 91.954 15.796C91.8046 15.6373 91.73 15.4413 91.73 15.208C91.73 14.984 91.8046 14.7973 91.954 14.648C92.1033 14.4893 92.2946 14.41 92.528 14.41C92.7613 14.41 92.9526 14.4893 93.102 14.648C93.2513 14.7973 93.326 14.984 93.326 15.208C93.326 15.4413 93.2513 15.6373 93.102 15.796C92.9526 15.9453 92.7613 16.02 92.528 16.02ZM96.0368 24V14.564H97.2968V24H96.0368ZM94.3988 18.498V17.35H98.9348V18.498H94.3988ZM106.119 24.14C105.466 24.14 104.878 23.986 104.355 23.678C103.833 23.37 103.417 22.9547 103.109 22.432C102.801 21.9 102.647 21.3073 102.647 20.654C102.647 20.01 102.801 19.4313 103.109 18.918C103.417 18.3953 103.833 17.98 104.355 17.672C104.878 17.364 105.466 17.21 106.119 17.21C106.763 17.21 107.347 17.364 107.869 17.672C108.401 17.9707 108.821 18.3813 109.129 18.904C109.437 19.4267 109.591 20.01 109.591 20.654C109.591 21.3073 109.437 21.9 109.129 22.432C108.821 22.9547 108.401 23.37 107.869 23.678C107.347 23.986 106.763 24.14 106.119 24.14ZM106.119 22.922C106.539 22.922 106.913 22.824 107.239 22.628C107.566 22.432 107.823 22.166 108.009 21.83C108.196 21.4847 108.289 21.0927 108.289 20.654C108.289 20.2247 108.191 19.842 107.995 19.506C107.809 19.17 107.552 18.9087 107.225 18.722C106.908 18.526 106.539 18.428 106.119 18.428C105.699 18.428 105.326 18.526 104.999 18.722C104.673 18.9087 104.416 19.17 104.229 19.506C104.043 19.842 103.949 20.2247 103.949 20.654C103.949 21.0927 104.043 21.4847 104.229 21.83C104.416 22.166 104.673 22.432 104.999 22.628C105.326 22.824 105.699 22.922 106.119 22.922ZM115.715 24V20.122C115.715 19.618 115.556 19.2027 115.239 18.876C114.922 18.5493 114.511 18.386 114.007 18.386C113.671 18.386 113.372 18.4607 113.111 18.61C112.85 18.7593 112.644 18.9647 112.495 19.226C112.346 19.4873 112.271 19.786 112.271 20.122L111.753 19.828C111.753 19.324 111.865 18.876 112.089 18.484C112.313 18.092 112.626 17.784 113.027 17.56C113.428 17.3267 113.881 17.21 114.385 17.21C114.889 17.21 115.332 17.336 115.715 17.588C116.107 17.84 116.415 18.1713 116.639 18.582C116.863 18.9833 116.975 19.4127 116.975 19.87V24H115.715ZM111.011 24V17.35H112.271V24H111.011Z" fill="white"/>
<path d="M71.0366 44.16C70.2686 44.16 69.5433 44.0107 68.8606 43.712C68.178 43.4133 67.5806 43.0027 67.0686 42.48C66.5566 41.9467 66.1513 41.3333 65.8526 40.64C65.5646 39.936 65.4206 39.184 65.4206 38.384C65.4206 37.584 65.5646 36.8373 65.8526 36.144C66.1513 35.4507 66.5566 34.8427 67.0686 34.32C67.5913 33.7867 68.1993 33.376 68.8926 33.088C69.5966 32.7893 70.354 32.64 71.1646 32.64C72.05 32.64 72.8713 32.8107 73.6286 33.152C74.386 33.4933 75.0206 33.9787 75.5326 34.608L74.2846 35.856C73.954 35.3867 73.5113 35.0293 72.9566 34.784C72.402 34.528 71.8046 34.4 71.1646 34.4C70.3966 34.4 69.7193 34.5707 69.1326 34.912C68.5566 35.2427 68.1086 35.7067 67.7886 36.304C67.4686 36.9013 67.3086 37.5947 67.3086 38.384C67.3086 39.1733 67.4686 39.872 67.7886 40.48C68.1193 41.0773 68.562 41.5467 69.1166 41.888C69.6713 42.2293 70.3006 42.4 71.0046 42.4C71.7513 42.4 72.3913 42.2667 72.9246 42C73.4686 41.7227 73.8846 41.3173 74.1726 40.784C74.4606 40.24 74.6046 39.5733 74.6046 38.784L75.7566 39.616H70.9726V37.936H76.5086V38.192C76.5086 39.5253 76.2686 40.6347 75.7886 41.52C75.3193 42.4053 74.674 43.0667 73.8526 43.504C73.0313 43.9413 72.0926 44.16 71.0366 44.16ZM81.62 44.16C80.8734 44.16 80.196 43.984 79.588 43.632C78.98 43.2693 78.4947 42.784 78.132 42.176C77.78 41.568 77.604 40.8907 77.604 40.144C77.604 39.3973 77.78 38.7253 78.132 38.128C78.4947 37.5307 78.98 37.056 79.588 36.704C80.196 36.3413 80.8734 36.16 81.62 36.16C82.3774 36.16 83.06 36.336 83.668 36.688C84.276 37.04 84.756 37.52 85.108 38.128C85.4707 38.7253 85.652 39.3973 85.652 40.144C85.652 40.8907 85.4707 41.568 85.108 42.176C84.756 42.784 84.276 43.2693 83.668 43.632C83.06 43.984 82.3774 44.16 81.62 44.16ZM81.62 42.464C82.0574 42.464 82.4414 42.368 82.772 42.176C83.1134 41.9733 83.3747 41.696 83.556 41.344C83.748 40.992 83.844 40.592 83.844 40.144C83.844 39.696 83.748 39.3013 83.556 38.96C83.364 38.6187 83.1027 38.352 82.772 38.16C82.4414 37.9573 82.0574 37.856 81.62 37.856C81.1934 37.856 80.8094 37.9573 80.468 38.16C80.1374 38.352 79.876 38.6187 79.684 38.96C79.5027 39.3013 79.412 39.696 79.412 40.144C79.412 40.592 79.5027 40.992 79.684 41.344C79.876 41.696 80.1374 41.9733 80.468 42.176C80.8094 42.368 81.1934 42.464 81.62 42.464ZM90.6356 44.16C89.889 44.16 89.2116 43.984 88.6036 43.632C87.9956 43.2693 87.5103 42.784 87.1476 42.176C86.7956 41.568 86.6196 40.8907 86.6196 40.144C86.6196 39.3973 86.7956 38.7253 87.1476 38.128C87.5103 37.5307 87.9956 37.056 88.6036 36.704C89.2116 36.3413 89.889 36.16 90.6356 36.16C91.393 36.16 92.0756 36.336 92.6836 36.688C93.2916 37.04 93.7716 37.52 94.1236 38.128C94.4863 38.7253 94.6676 39.3973 94.6676 40.144C94.6676 40.8907 94.4863 41.568 94.1236 42.176C93.7716 42.784 93.2916 43.2693 92.6836 43.632C92.0756 43.984 91.393 44.16 90.6356 44.16ZM90.6356 42.464C91.073 42.464 91.457 42.368 91.7876 42.176C92.129 41.9733 92.3903 41.696 92.5716 41.344C92.7636 40.992 92.8596 40.592 92.8596 40.144C92.8596 39.696 92.7636 39.3013 92.5716 38.96C92.3796 38.6187 92.1183 38.352 91.7876 38.16C91.457 37.9573 91.073 37.856 90.6356 37.856C90.209 37.856 89.825 37.9573 89.4836 38.16C89.153 38.352 88.8916 38.6187 88.6996 38.96C88.5183 39.3013 88.4276 39.696 88.4276 40.144C88.4276 40.592 88.5183 40.992 88.6996 41.344C88.8916 41.696 89.153 41.9733 89.4836 42.176C89.825 42.368 90.209 42.464 90.6356 42.464ZM99.3313 47.36C98.5206 47.36 97.8113 47.2107 97.2033 46.912C96.5953 46.624 96.1046 46.2133 95.7313 45.68L96.8833 44.528C97.1926 44.912 97.5446 45.2 97.9393 45.392C98.3339 45.584 98.8086 45.68 99.3633 45.68C100.057 45.68 100.606 45.4987 101.011 45.136C101.417 44.784 101.619 44.2987 101.619 43.68V41.792L101.923 40.096L101.619 38.384V36.32H103.379V43.68C103.379 44.416 103.209 45.056 102.867 45.6C102.526 46.1547 102.051 46.5867 101.443 46.896C100.835 47.2053 100.131 47.36 99.3313 47.36ZM99.2513 43.84C98.5686 43.84 97.9499 43.6747 97.3953 43.344C96.8513 43.0027 96.4193 42.5387 96.0993 41.952C95.7899 41.3653 95.6353 40.7093 95.6353 39.984C95.6353 39.2587 95.7899 38.608 96.0993 38.032C96.4193 37.456 96.8513 37.0027 97.3953 36.672C97.9499 36.3307 98.5686 36.16 99.2513 36.16C99.8593 36.16 100.393 36.2827 100.851 36.528C101.31 36.7733 101.667 37.1147 101.923 37.552C102.179 37.9787 102.307 38.48 102.307 39.056V40.944C102.307 41.5093 102.174 42.0107 101.907 42.448C101.651 42.8853 101.294 43.2267 100.835 43.472C100.377 43.7173 99.8486 43.84 99.2513 43.84ZM99.6033 42.176C100.03 42.176 100.403 42.0853 100.723 41.904C101.043 41.7227 101.289 41.472 101.459 41.152C101.641 40.8213 101.731 40.4373 101.731 40C101.731 39.5627 101.641 39.184 101.459 38.864C101.289 38.5333 101.043 38.2773 100.723 38.096C100.403 37.9147 100.03 37.824 99.6033 37.824C99.1766 37.824 98.7979 37.9147 98.4673 38.096C98.1473 38.2773 97.8966 38.5333 97.7153 38.864C97.5339 39.184 97.4433 39.5627 97.4433 40C97.4433 40.4267 97.5339 40.8053 97.7153 41.136C97.8966 41.4667 98.1473 41.7227 98.4673 41.904C98.7979 42.0853 99.1766 42.176 99.6033 42.176ZM105.334 44V32.48H107.094V44H105.334ZM112.621 44.16C111.853 44.16 111.16 43.9893 110.541 43.648C109.933 43.296 109.448 42.816 109.085 42.208C108.733 41.6 108.557 40.9173 108.557 40.16C108.557 39.4027 108.733 38.7253 109.085 38.128C109.437 37.52 109.912 37.04 110.509 36.688C111.117 36.336 111.789 36.16 112.525 36.16C113.24 36.16 113.869 36.3253 114.413 36.656C114.968 36.9867 115.4 37.44 115.709 38.016C116.029 38.592 116.189 39.248 116.189 39.984C116.189 40.112 116.178 40.2453 116.157 40.384C116.146 40.512 116.125 40.656 116.093 40.816H109.789V39.376H115.181L114.525 39.952C114.504 39.4827 114.413 39.088 114.253 38.768C114.093 38.448 113.864 38.2027 113.565 38.032C113.277 37.8613 112.92 37.776 112.493 37.776C112.045 37.776 111.656 37.872 111.325 38.064C110.994 38.256 110.738 38.528 110.557 38.88C110.376 39.2213 110.285 39.632 110.285 40.112C110.285 40.592 110.381 41.0133 110.573 41.376C110.765 41.7387 111.037 42.0213 111.389 42.224C111.741 42.416 112.146 42.512 112.605 42.512C113 42.512 113.362 42.4427 113.693 42.304C114.034 42.1653 114.322 41.9627 114.557 41.696L115.677 42.832C115.304 43.2693 114.85 43.6 114.317 43.824C113.784 44.048 113.218 44.16 112.621 44.16ZM122.307 39.776V38.176H125.107C125.491 38.176 125.827 38.1013 126.115 37.952C126.414 37.792 126.648 37.5733 126.819 37.296C126.99 37.008 127.075 36.672 127.075 36.288C127.075 35.904 126.99 35.5733 126.819 35.296C126.648 35.008 126.414 34.7893 126.115 34.64C125.827 34.48 125.491 34.4 125.107 34.4H122.307V32.8H125.203C125.907 32.8 126.536 32.944 127.091 33.232C127.656 33.52 128.099 33.9253 128.419 34.448C128.75 34.9707 128.915 35.584 128.915 36.288C128.915 36.992 128.75 37.6053 128.419 38.128C128.099 38.6507 127.656 39.056 127.091 39.344C126.536 39.632 125.907 39.776 125.203 39.776H122.307ZM121.043 44V32.8H122.883V44H121.043ZM130.459 44V32.48H132.219V44H130.459ZM137.394 44.16C136.701 44.16 136.071 43.984 135.506 43.632C134.951 43.28 134.509 42.8053 134.178 42.208C133.858 41.6 133.698 40.9227 133.698 40.176C133.698 39.4187 133.858 38.7413 134.178 38.144C134.509 37.536 134.951 37.056 135.506 36.704C136.071 36.3413 136.701 36.16 137.394 36.16C137.981 36.16 138.498 36.288 138.946 36.544C139.405 36.7893 139.767 37.1307 140.034 37.568C140.301 38.0053 140.434 38.5013 140.434 39.056V41.264C140.434 41.8187 140.301 42.3147 140.034 42.752C139.778 43.1893 139.421 43.536 138.962 43.792C138.503 44.0373 137.981 44.16 137.394 44.16ZM137.682 42.496C138.333 42.496 138.855 42.2773 139.25 41.84C139.655 41.4027 139.858 40.8427 139.858 40.16C139.858 39.7013 139.767 39.296 139.586 38.944C139.405 38.592 139.149 38.32 138.818 38.128C138.498 37.9253 138.119 37.824 137.682 37.824C137.255 37.824 136.877 37.9253 136.546 38.128C136.226 38.32 135.97 38.592 135.778 38.944C135.597 39.296 135.506 39.7013 135.506 40.16C135.506 40.6187 135.597 41.024 135.778 41.376C135.97 41.728 136.226 42.0053 136.546 42.208C136.877 42.4 137.255 42.496 137.682 42.496ZM139.746 44V41.936L140.05 40.064L139.746 38.208V36.32H141.506V44H139.746ZM145.939 44.08L142.659 36.32H144.595L146.835 42.016H146.275L148.643 36.32H150.595L147.027 44.08H145.939ZM143.651 47.2L146.035 42.288L147.027 44.08L145.603 47.2H143.651Z" fill="white"/>
<rect x="1.26465" y="0.5" width="197" height="57" rx="4.5" stroke="#1D3563"/>
</svg>
