<svg width="22" height="23" viewBox="0 0 22 23" fill="none" xmlns="http://www.w3.org/2000/svg">
<g clip-path="url(#clip0_762_43707)">
<path d="M21.1696 10.0278L12.196 10.0273C11.7997 10.0273 11.4785 10.3485 11.4785 10.7447V13.6114C11.4785 14.0076 11.7997 14.3288 12.1959 14.3288H17.2493C16.696 15.7649 15.6632 16.9675 14.3455 17.7317L16.5002 21.4618C19.9567 19.4627 22.0002 15.9552 22.0002 12.0288C22.0002 11.4698 21.959 11.0701 21.8766 10.6201C21.814 10.2782 21.5171 10.0278 21.1696 10.0278Z" fill="#167EE6"/>
<path d="M10.9999 18.6358C8.52689 18.6358 6.36797 17.2846 5.20846 15.2852L1.47852 17.4351C3.37666 20.7248 6.9325 22.9402 10.9999 22.9402C12.9953 22.9402 14.878 22.4029 16.4999 21.4667V21.4616L14.3452 17.7315C13.3595 18.3031 12.219 18.6358 10.9999 18.6358Z" fill="#12B347"/>
<path d="M16.5 21.4657V21.4606L14.3452 17.7305C13.3596 18.3021 12.2192 18.6348 11 18.6348V22.9392C12.9953 22.9392 14.8782 22.4019 16.5 21.4657Z" fill="#0F993E"/>
<path d="M4.30435 11.9402C4.30435 10.7212 4.63702 9.58079 5.20854 8.59521L1.4786 6.44531C0.537195 8.0621 0 9.93975 0 11.9402C0 13.9407 0.537195 15.8183 1.4786 17.4351L5.20854 15.2852C4.63702 14.2996 4.30435 13.1592 4.30435 11.9402Z" fill="#FFD500"/>
<path d="M10.9999 5.2438C12.6126 5.2438 14.0939 5.81684 15.2509 6.77001C15.5363 7.00514 15.9512 6.98816 16.2127 6.7267L18.2438 4.69557C18.5405 4.39891 18.5193 3.91332 18.2024 3.63841C16.2639 1.95665 13.7416 0.939453 10.9999 0.939453C6.9325 0.939453 3.37666 3.15479 1.47852 6.44457L5.20846 8.59446C6.36797 6.595 8.52689 5.2438 10.9999 5.2438Z" fill="#FF4B26"/>
<path d="M15.251 6.77001C15.5364 7.00514 15.9513 6.98816 16.2128 6.7267L18.2439 4.69557C18.5405 4.39891 18.5194 3.91332 18.2025 3.63841C16.264 1.95661 13.7417 0.939453 11 0.939453V5.2438C12.6126 5.2438 14.094 5.81684 15.251 6.77001Z" fill="#D93F21"/>
</g>
<defs>
<clipPath id="clip0_762_43707">
<rect width="22" height="22" fill="white" transform="translate(0 0.939453)"/>
</clipPath>
</defs>
</svg>
