<svg width="13" height="13" viewBox="0 0 13 13" fill="none" xmlns="http://www.w3.org/2000/svg">
<path d="M5.33268 0.5H1.33268C1.15587 0.5 0.986302 0.570238 0.861278 0.695262C0.736253 0.820286 0.666016 0.989856 0.666016 1.16667V5.16667C0.666016 5.34348 0.736253 5.51305 0.861278 5.63807C0.986302 5.7631 1.15587 5.83333 1.33268 5.83333H5.33268C5.50949 5.83333 5.67906 5.7631 5.80409 5.63807C5.92911 5.51305 5.99935 5.34348 5.99935 5.16667V1.16667C5.99935 0.989856 5.92911 0.820286 5.80409 0.695262C5.67906 0.570238 5.50949 0.5 5.33268 0.5V0.5ZM4.66602 4.5H1.99935V1.83333H4.66602V4.5ZM11.9993 0.5H7.99935C7.82254 0.5 7.65297 0.570238 7.52794 0.695262C7.40292 0.820286 7.33268 0.989856 7.33268 1.16667V5.16667C7.33268 5.34348 7.40292 5.51305 7.52794 5.63807C7.65297 5.7631 7.82254 5.83333 7.99935 5.83333H11.9993C12.1762 5.83333 12.3457 5.7631 12.4708 5.63807C12.5958 5.51305 12.666 5.34348 12.666 5.16667V1.16667C12.666 0.989856 12.5958 0.820286 12.4708 0.695262C12.3457 0.570238 12.1762 0.5 11.9993 0.5V0.5ZM11.3327 4.5H8.66602V1.83333H11.3327V4.5ZM5.33268 7.16667H1.33268C1.15587 7.16667 0.986302 7.2369 0.861278 7.36193C0.736253 7.48695 0.666016 7.65652 0.666016 7.83333V11.8333C0.666016 12.0101 0.736253 12.1797 0.861278 12.3047C0.986302 12.4298 1.15587 12.5 1.33268 12.5H5.33268C5.50949 12.5 5.67906 12.4298 5.80409 12.3047C5.92911 12.1797 5.99935 12.0101 5.99935 11.8333V7.83333C5.99935 7.65652 5.92911 7.48695 5.80409 7.36193C5.67906 7.2369 5.50949 7.16667 5.33268 7.16667ZM4.66602 11.1667H1.99935V8.5H4.66602V11.1667ZM9.99935 7.16667C8.52868 7.16667 7.33268 8.36267 7.33268 9.83333C7.33268 11.304 8.52868 12.5 9.99935 12.5C11.47 12.5 12.666 11.304 12.666 9.83333C12.666 8.36267 11.47 7.16667 9.99935 7.16667ZM9.99935 11.1667C9.26402 11.1667 8.66602 10.5687 8.66602 9.83333C8.66602 9.098 9.26402 8.5 9.99935 8.5C10.7347 8.5 11.3327 9.098 11.3327 9.83333C11.3327 10.5687 10.7347 11.1667 9.99935 11.1667Z" fill="white"/>
</svg>
