<svg width="201" height="58" viewBox="0 0 201 58" fill="none" xmlns="http://www.w3.org/2000/svg">
<path d="M45.7047 22.19C46.0827 21.7543 46.371 21.2482 46.5529 20.7007C46.7348 20.1533 46.8068 19.5753 46.7647 19C45.6041 19.0937 44.5267 19.6396 43.7647 20.52C43.3998 20.942 43.1233 21.4329 42.9515 21.9636C42.7797 22.4944 42.7162 23.0542 42.7647 23.61C43.3308 23.6147 43.8905 23.4891 44.4003 23.2429C44.9101 22.9966 45.3564 22.6364 45.7047 22.19ZM48.2247 29.63C48.2314 28.8637 48.4332 28.1118 48.8112 27.4452C49.1891 26.7786 49.7306 26.2193 50.3847 25.82C49.9719 25.2252 49.4262 24.7348 48.7909 24.3877C48.1556 24.0405 47.4482 23.8462 46.7247 23.82C45.1647 23.66 43.7247 24.73 42.8947 24.73C42.0647 24.73 40.8947 23.84 39.5947 23.86C38.7448 23.888 37.9167 24.1358 37.1911 24.5792C36.4656 25.0226 35.8673 25.6465 35.4547 26.39C33.6947 29.45 35.0047 34 36.7647 36.47C37.5647 37.68 38.5647 39.05 39.8847 39C41.2047 38.95 41.6347 38.18 43.1647 38.18C44.6947 38.18 45.1647 39 46.4647 38.97C47.7647 38.94 48.6847 37.73 49.5247 36.52C50.1197 35.6415 50.5845 34.6816 50.9047 33.67C50.1122 33.332 49.436 32.7693 48.9597 32.0513C48.4834 31.3333 48.2279 30.4916 48.2247 29.63Z" fill="white"/>
<path d="M66.7806 24V22.796H69.4826C70.2013 22.796 70.8313 22.642 71.3726 22.334C71.914 22.0167 72.334 21.5827 72.6326 21.032C72.9406 20.4813 73.0946 19.8467 73.0946 19.128C73.0946 18.4187 72.9406 17.7887 72.6326 17.238C72.3246 16.6873 71.9 16.258 71.3586 15.95C70.8173 15.642 70.192 15.488 69.4826 15.488H66.7946V14.284H69.5106C70.22 14.284 70.8733 14.4053 71.4706 14.648C72.0773 14.8907 72.6 15.2313 73.0386 15.67C73.4866 16.1087 73.832 16.622 74.0746 17.21C74.3266 17.798 74.4526 18.442 74.4526 19.142C74.4526 19.8327 74.3266 20.4767 74.0746 21.074C73.832 21.662 73.4913 22.1753 73.0526 22.614C72.614 23.0527 72.0913 23.3933 71.4846 23.636C70.8873 23.8787 70.2386 24 69.5386 24H66.7806ZM65.9126 24V14.284H67.2286V24H65.9126ZM79.0899 24.14C78.4366 24.14 77.8486 23.986 77.3259 23.678C76.8033 23.37 76.3879 22.9547 76.0799 22.432C75.7719 21.9 75.6179 21.3073 75.6179 20.654C75.6179 20.01 75.7719 19.4313 76.0799 18.918C76.3879 18.3953 76.8033 17.98 77.3259 17.672C77.8486 17.364 78.4366 17.21 79.0899 17.21C79.7339 17.21 80.3173 17.364 80.8399 17.672C81.3719 17.9707 81.7919 18.3813 82.0999 18.904C82.4079 19.4267 82.5619 20.01 82.5619 20.654C82.5619 21.3073 82.4079 21.9 82.0999 22.432C81.7919 22.9547 81.3719 23.37 80.8399 23.678C80.3173 23.986 79.7339 24.14 79.0899 24.14ZM79.0899 22.922C79.5099 22.922 79.8833 22.824 80.2099 22.628C80.5366 22.432 80.7933 22.166 80.9799 21.83C81.1666 21.4847 81.2599 21.0927 81.2599 20.654C81.2599 20.2247 81.1619 19.842 80.9659 19.506C80.7793 19.17 80.5226 18.9087 80.1959 18.722C79.8786 18.526 79.5099 18.428 79.0899 18.428C78.6699 18.428 78.2966 18.526 77.9699 18.722C77.6433 18.9087 77.3866 19.17 77.1999 19.506C77.0133 19.842 76.9199 20.2247 76.9199 20.654C76.9199 21.0927 77.0133 21.4847 77.1999 21.83C77.3866 22.166 77.6433 22.432 77.9699 22.628C78.2966 22.824 78.6699 22.922 79.0899 22.922ZM85.6942 24L83.0622 17.35H84.3782L86.2822 22.53H85.8622L87.7522 17.35H88.4802L90.3702 22.53H89.9502L91.8542 17.35H93.1702L90.5522 24H89.8102L87.8922 18.974H88.3542L86.4222 24H85.6942ZM98.9942 24V20.122C98.9942 19.618 98.8355 19.2027 98.5182 18.876C98.2009 18.5493 97.7902 18.386 97.2862 18.386C96.9502 18.386 96.6515 18.4607 96.3902 18.61C96.1289 18.7593 95.9235 18.9647 95.7742 19.226C95.6249 19.4873 95.5502 19.786 95.5502 20.122L95.0322 19.828C95.0322 19.324 95.1442 18.876 95.3682 18.484C95.5922 18.092 95.9049 17.784 96.3062 17.56C96.7075 17.3267 97.1602 17.21 97.6642 17.21C98.1682 17.21 98.6115 17.336 98.9942 17.588C99.3862 17.84 99.6942 18.1713 99.9182 18.582C100.142 18.9833 100.254 19.4127 100.254 19.87V24H98.9942ZM94.2902 24V17.35H95.5502V24H94.2902ZM101.96 24V14.004H103.22V24H101.96ZM108.102 24.14C107.448 24.14 106.86 23.986 106.338 23.678C105.815 23.37 105.4 22.9547 105.092 22.432C104.784 21.9 104.63 21.3073 104.63 20.654C104.63 20.01 104.784 19.4313 105.092 18.918C105.4 18.3953 105.815 17.98 106.338 17.672C106.86 17.364 107.448 17.21 108.102 17.21C108.746 17.21 109.329 17.364 109.852 17.672C110.384 17.9707 110.804 18.3813 111.112 18.904C111.42 19.4267 111.574 20.01 111.574 20.654C111.574 21.3073 111.42 21.9 111.112 22.432C110.804 22.9547 110.384 23.37 109.852 23.678C109.329 23.986 108.746 24.14 108.102 24.14ZM108.102 22.922C108.522 22.922 108.895 22.824 109.222 22.628C109.548 22.432 109.805 22.166 109.992 21.83C110.178 21.4847 110.272 21.0927 110.272 20.654C110.272 20.2247 110.174 19.842 109.978 19.506C109.791 19.17 109.534 18.9087 109.208 18.722C108.89 18.526 108.522 18.428 108.102 18.428C107.682 18.428 107.308 18.526 106.982 18.722C106.655 18.9087 106.398 19.17 106.212 19.506C106.025 19.842 105.932 20.2247 105.932 20.654C105.932 21.0927 106.025 21.4847 106.212 21.83C106.398 22.166 106.655 22.432 106.982 22.628C107.308 22.824 107.682 22.922 108.102 22.922ZM115.821 24.14C115.215 24.14 114.664 23.9907 114.169 23.692C113.675 23.384 113.283 22.9687 112.993 22.446C112.713 21.9233 112.573 21.3353 112.573 20.682C112.573 20.0287 112.713 19.4407 112.993 18.918C113.283 18.3953 113.67 17.98 114.155 17.672C114.65 17.364 115.205 17.21 115.821 17.21C116.325 17.21 116.773 17.3173 117.165 17.532C117.567 17.7373 117.889 18.0267 118.131 18.4C118.374 18.764 118.509 19.1887 118.537 19.674V21.676C118.509 22.152 118.374 22.5767 118.131 22.95C117.898 23.3233 117.581 23.6173 117.179 23.832C116.787 24.0373 116.335 24.14 115.821 24.14ZM116.031 22.95C116.657 22.95 117.161 22.74 117.543 22.32C117.926 21.8907 118.117 21.3447 118.117 20.682C118.117 20.2247 118.029 19.828 117.851 19.492C117.683 19.1467 117.441 18.8807 117.123 18.694C116.806 18.498 116.437 18.4 116.017 18.4C115.597 18.4 115.224 18.498 114.897 18.694C114.58 18.89 114.328 19.1607 114.141 19.506C113.964 19.842 113.875 20.2293 113.875 20.668C113.875 21.116 113.964 21.5127 114.141 21.858C114.328 22.194 114.585 22.46 114.911 22.656C115.238 22.852 115.611 22.95 116.031 22.95ZM118.033 24V22.208L118.271 20.584L118.033 18.974V17.35H119.307V24H118.033ZM123.956 24.14C123.34 24.14 122.789 23.9907 122.304 23.692C121.818 23.384 121.431 22.9687 121.142 22.446C120.862 21.9233 120.722 21.3353 120.722 20.682C120.722 20.0287 120.862 19.4407 121.142 18.918C121.431 18.3953 121.818 17.98 122.304 17.672C122.789 17.364 123.34 17.21 123.956 17.21C124.45 17.21 124.898 17.3173 125.3 17.532C125.701 17.7373 126.023 18.0267 126.266 18.4C126.518 18.764 126.658 19.1887 126.686 19.674V21.676C126.658 22.152 126.522 22.5767 126.28 22.95C126.037 23.3233 125.715 23.6173 125.314 23.832C124.912 24.0373 124.46 24.14 123.956 24.14ZM124.166 22.95C124.586 22.95 124.95 22.852 125.258 22.656C125.575 22.46 125.822 22.194 126 21.858C126.177 21.5127 126.266 21.1207 126.266 20.682C126.266 20.2247 126.172 19.828 125.986 19.492C125.808 19.156 125.561 18.89 125.244 18.694C124.936 18.498 124.572 18.4 124.152 18.4C123.732 18.4 123.363 18.498 123.046 18.694C122.728 18.89 122.476 19.1607 122.29 19.506C122.112 19.842 122.024 20.2293 122.024 20.668C122.024 21.116 122.112 21.5127 122.29 21.858C122.476 22.194 122.728 22.46 123.046 22.656C123.372 22.852 123.746 22.95 124.166 22.95ZM127.456 24H126.182V22.208L126.42 20.584L126.182 18.974V14.004H127.456V24ZM135.24 24.14C134.587 24.14 133.999 23.986 133.476 23.678C132.954 23.37 132.538 22.9547 132.23 22.432C131.922 21.9 131.768 21.3073 131.768 20.654C131.768 20.01 131.922 19.4313 132.23 18.918C132.538 18.3953 132.954 17.98 133.476 17.672C133.999 17.364 134.587 17.21 135.24 17.21C135.884 17.21 136.468 17.364 136.99 17.672C137.522 17.9707 137.942 18.3813 138.25 18.904C138.558 19.4267 138.712 20.01 138.712 20.654C138.712 21.3073 138.558 21.9 138.25 22.432C137.942 22.9547 137.522 23.37 136.99 23.678C136.468 23.986 135.884 24.14 135.24 24.14ZM135.24 22.922C135.66 22.922 136.034 22.824 136.36 22.628C136.687 22.432 136.944 22.166 137.13 21.83C137.317 21.4847 137.41 21.0927 137.41 20.654C137.41 20.2247 137.312 19.842 137.116 19.506C136.93 19.17 136.673 18.9087 136.346 18.722C136.029 18.526 135.66 18.428 135.24 18.428C134.82 18.428 134.447 18.526 134.12 18.722C133.794 18.9087 133.537 19.17 133.35 19.506C133.164 19.842 133.07 20.2247 133.07 20.654C133.07 21.0927 133.164 21.4847 133.35 21.83C133.537 22.166 133.794 22.432 134.12 22.628C134.447 22.824 134.82 22.922 135.24 22.922ZM144.836 24V20.122C144.836 19.618 144.677 19.2027 144.36 18.876C144.043 18.5493 143.632 18.386 143.128 18.386C142.792 18.386 142.493 18.4607 142.232 18.61C141.971 18.7593 141.765 18.9647 141.616 19.226C141.467 19.4873 141.392 19.786 141.392 20.122L140.874 19.828C140.874 19.324 140.986 18.876 141.21 18.484C141.434 18.092 141.747 17.784 142.148 17.56C142.549 17.3267 143.002 17.21 143.506 17.21C144.01 17.21 144.453 17.336 144.836 17.588C145.228 17.84 145.536 18.1713 145.76 18.582C145.984 18.9833 146.096 19.4127 146.096 19.87V24H144.836ZM140.132 24V17.35H141.392V24H140.132ZM151.736 24V14.564H152.996V24H151.736ZM150.098 18.498V17.35H154.634V18.498H150.098ZM160.572 24V20.122C160.572 19.618 160.414 19.2027 160.096 18.876C159.779 18.5493 159.368 18.386 158.864 18.386C158.528 18.386 158.23 18.4607 157.968 18.61C157.707 18.7593 157.502 18.9647 157.352 19.226C157.203 19.4873 157.128 19.786 157.128 20.122L156.61 19.828C156.61 19.324 156.722 18.876 156.946 18.484C157.17 18.092 157.483 17.784 157.884 17.56C158.286 17.3267 158.738 17.21 159.242 17.21C159.746 17.21 160.19 17.322 160.572 17.546C160.964 17.77 161.272 18.0827 161.496 18.484C161.72 18.8853 161.832 19.3473 161.832 19.87V24H160.572ZM155.868 24V14.004H157.128V24H155.868ZM166.618 24.14C165.956 24.14 165.358 23.9907 164.826 23.692C164.294 23.384 163.874 22.9687 163.566 22.446C163.258 21.9233 163.104 21.3307 163.104 20.668C163.104 20.0147 163.254 19.4267 163.552 18.904C163.86 18.3813 164.271 17.9707 164.784 17.672C165.307 17.364 165.89 17.21 166.534 17.21C167.15 17.21 167.692 17.35 168.158 17.63C168.634 17.91 169.003 18.2973 169.264 18.792C169.535 19.2867 169.67 19.8467 169.67 20.472C169.67 20.5653 169.666 20.668 169.656 20.78C169.647 20.8827 169.628 21.004 169.6 21.144H163.986V20.094H168.928L168.466 20.5C168.466 20.052 168.387 19.674 168.228 19.366C168.07 19.0487 167.846 18.806 167.556 18.638C167.267 18.4607 166.917 18.372 166.506 18.372C166.077 18.372 165.699 18.4653 165.372 18.652C165.046 18.8387 164.794 19.1 164.616 19.436C164.439 19.772 164.35 20.1687 164.35 20.626C164.35 21.0927 164.444 21.5033 164.63 21.858C164.817 22.2033 165.083 22.474 165.428 22.67C165.774 22.8567 166.17 22.95 166.618 22.95C166.992 22.95 167.332 22.8847 167.64 22.754C167.958 22.6233 168.228 22.4273 168.452 22.166L169.264 22.992C168.947 23.3653 168.555 23.65 168.088 23.846C167.631 24.042 167.141 24.14 166.618 24.14Z" fill="white"/>
<path d="M65.1486 44L69.7566 32.8H71.0366L75.6126 44H73.6286L70.0446 34.928H70.7166L67.1006 44H65.1486ZM67.4206 41.84V40.24H73.3566V41.84H67.4206ZM81.087 44.16C80.5004 44.16 79.9777 44.0373 79.519 43.792C79.0604 43.536 78.6977 43.1893 78.431 42.752C78.175 42.3147 78.047 41.8187 78.047 41.264V39.056C78.047 38.5013 78.1804 38.0053 78.447 37.568C78.7137 37.1307 79.0764 36.7893 79.535 36.544C79.9937 36.288 80.511 36.16 81.087 36.16C81.7804 36.16 82.4044 36.3413 82.959 36.704C83.5244 37.056 83.967 37.536 84.287 38.144C84.6177 38.7413 84.783 39.4187 84.783 40.176C84.783 40.9227 84.6177 41.6 84.287 42.208C83.967 42.8053 83.5244 43.28 82.959 43.632C82.4044 43.984 81.7804 44.16 81.087 44.16ZM80.799 42.496C81.2257 42.496 81.599 42.4 81.919 42.208C82.2497 42.0053 82.5057 41.728 82.687 41.376C82.879 41.024 82.975 40.6187 82.975 40.16C82.975 39.7013 82.879 39.296 82.687 38.944C82.5057 38.592 82.2497 38.32 81.919 38.128C81.599 37.9253 81.2257 37.824 80.799 37.824C80.3724 37.824 79.9937 37.9253 79.663 38.128C79.3324 38.32 79.0764 38.592 78.895 38.944C78.7137 39.296 78.623 39.7013 78.623 40.16C78.623 40.6187 78.7137 41.024 78.895 41.376C79.0764 41.728 79.3324 42.0053 79.663 42.208C79.9937 42.4 80.3724 42.496 80.799 42.496ZM76.975 47.2V36.32H78.735V38.384L78.431 40.256L78.735 42.112V47.2H76.975ZM90.3683 44.16C89.7816 44.16 89.2589 44.0373 88.8003 43.792C88.3416 43.536 87.9789 43.1893 87.7123 42.752C87.4563 42.3147 87.3283 41.8187 87.3283 41.264V39.056C87.3283 38.5013 87.4616 38.0053 87.7283 37.568C87.9949 37.1307 88.3576 36.7893 88.8163 36.544C89.2749 36.288 89.7923 36.16 90.3683 36.16C91.0616 36.16 91.6856 36.3413 92.2403 36.704C92.8056 37.056 93.2483 37.536 93.5683 38.144C93.8989 38.7413 94.0643 39.4187 94.0643 40.176C94.0643 40.9227 93.8989 41.6 93.5683 42.208C93.2483 42.8053 92.8056 43.28 92.2403 43.632C91.6856 43.984 91.0616 44.16 90.3683 44.16ZM90.0803 42.496C90.5069 42.496 90.8803 42.4 91.2003 42.208C91.5309 42.0053 91.7869 41.728 91.9683 41.376C92.1603 41.024 92.2563 40.6187 92.2563 40.16C92.2563 39.7013 92.1603 39.296 91.9683 38.944C91.7869 38.592 91.5309 38.32 91.2003 38.128C90.8803 37.9253 90.5069 37.824 90.0803 37.824C89.6536 37.824 89.2749 37.9253 88.9443 38.128C88.6136 38.32 88.3576 38.592 88.1763 38.944C87.9949 39.296 87.9043 39.7013 87.9043 40.16C87.9043 40.6187 87.9949 41.024 88.1763 41.376C88.3576 41.728 88.6136 42.0053 88.9443 42.208C89.2749 42.4 89.6536 42.496 90.0803 42.496ZM86.2563 47.2V36.32H88.0163V38.384L87.7123 40.256L88.0163 42.112V47.2H86.2563ZM102.101 44.16C101.215 44.16 100.463 44 99.8446 43.68C99.226 43.36 98.6713 42.8907 98.1806 42.272L99.4286 41.024C99.738 41.472 100.106 41.824 100.533 42.08C100.959 42.3253 101.503 42.448 102.165 42.448C102.783 42.448 103.274 42.32 103.637 42.064C104.01 41.808 104.197 41.456 104.197 41.008C104.197 40.6347 104.101 40.3307 103.909 40.096C103.717 39.8613 103.461 39.6693 103.141 39.52C102.831 39.36 102.485 39.2213 102.101 39.104C101.727 38.976 101.349 38.8373 100.965 38.688C100.591 38.528 100.245 38.3307 99.9246 38.096C99.6153 37.8613 99.3646 37.5573 99.1726 37.184C98.9806 36.8107 98.8846 36.336 98.8846 35.76C98.8846 35.0987 99.0446 34.5387 99.3646 34.08C99.6953 33.6107 100.138 33.2533 100.693 33.008C101.247 32.7627 101.866 32.64 102.549 32.64C103.285 32.64 103.941 32.784 104.517 33.072C105.103 33.36 105.578 33.728 105.941 34.176L104.693 35.424C104.373 35.0613 104.037 34.7947 103.685 34.624C103.343 34.4427 102.949 34.352 102.501 34.352C101.946 34.352 101.509 34.464 101.189 34.688C100.879 34.912 100.725 35.2267 100.725 35.632C100.725 35.9733 100.821 36.2507 101.013 36.464C101.205 36.6667 101.455 36.8427 101.765 36.992C102.085 37.1307 102.431 37.264 102.805 37.392C103.189 37.52 103.567 37.664 103.941 37.824C104.325 37.984 104.671 38.192 104.981 38.448C105.301 38.6933 105.557 39.0133 105.749 39.408C105.941 39.8027 106.037 40.2987 106.037 40.896C106.037 41.8987 105.679 42.6933 104.965 43.28C104.261 43.8667 103.306 44.16 102.101 44.16ZM108.799 44V33.12H110.559V44H108.799ZM106.959 37.92V36.32H112.399V37.92H106.959ZM116.979 44.16C116.233 44.16 115.555 43.984 114.947 43.632C114.339 43.2693 113.854 42.784 113.491 42.176C113.139 41.568 112.963 40.8907 112.963 40.144C112.963 39.3973 113.139 38.7253 113.491 38.128C113.854 37.5307 114.339 37.056 114.947 36.704C115.555 36.3413 116.233 36.16 116.979 36.16C117.737 36.16 118.419 36.336 119.027 36.688C119.635 37.04 120.115 37.52 120.467 38.128C120.83 38.7253 121.011 39.3973 121.011 40.144C121.011 40.8907 120.83 41.568 120.467 42.176C120.115 42.784 119.635 43.2693 119.027 43.632C118.419 43.984 117.737 44.16 116.979 44.16ZM116.979 42.464C117.417 42.464 117.801 42.368 118.131 42.176C118.473 41.9733 118.734 41.696 118.915 41.344C119.107 40.992 119.203 40.592 119.203 40.144C119.203 39.696 119.107 39.3013 118.915 38.96C118.723 38.6187 118.462 38.352 118.131 38.16C117.801 37.9573 117.417 37.856 116.979 37.856C116.553 37.856 116.169 37.9573 115.827 38.16C115.497 38.352 115.235 38.6187 115.043 38.96C114.862 39.3013 114.771 39.696 114.771 40.144C114.771 40.592 114.862 40.992 115.043 41.344C115.235 41.696 115.497 41.9733 115.827 42.176C116.169 42.368 116.553 42.464 116.979 42.464ZM122.475 44V36.32H124.235V44H122.475ZM124.235 39.728L123.627 39.424C123.627 38.4533 123.84 37.6693 124.267 37.072C124.704 36.464 125.36 36.16 126.235 36.16C126.619 36.16 126.966 36.2293 127.275 36.368C127.584 36.5067 127.872 36.7307 128.139 37.04L126.987 38.224C126.848 38.0747 126.694 37.968 126.523 37.904C126.352 37.84 126.155 37.808 125.931 37.808C125.44 37.808 125.035 37.9627 124.715 38.272C124.395 38.5813 124.235 39.0667 124.235 39.728ZM132.324 44.16C131.556 44.16 130.863 43.9893 130.244 43.648C129.636 43.296 129.151 42.816 128.788 42.208C128.436 41.6 128.26 40.9173 128.26 40.16C128.26 39.4027 128.436 38.7253 128.788 38.128C129.14 37.52 129.615 37.04 130.212 36.688C130.82 36.336 131.492 36.16 132.228 36.16C132.943 36.16 133.572 36.3253 134.116 36.656C134.671 36.9867 135.103 37.44 135.412 38.016C135.732 38.592 135.892 39.248 135.892 39.984C135.892 40.112 135.882 40.2453 135.86 40.384C135.85 40.512 135.828 40.656 135.796 40.816H129.492V39.376H134.884L134.228 39.952C134.207 39.4827 134.116 39.088 133.956 38.768C133.796 38.448 133.567 38.2027 133.268 38.032C132.98 37.8613 132.623 37.776 132.196 37.776C131.748 37.776 131.359 37.872 131.028 38.064C130.698 38.256 130.442 38.528 130.26 38.88C130.079 39.2213 129.988 39.632 129.988 40.112C129.988 40.592 130.084 41.0133 130.276 41.376C130.468 41.7387 130.74 42.0213 131.092 42.224C131.444 42.416 131.85 42.512 132.308 42.512C132.703 42.512 133.066 42.4427 133.396 42.304C133.738 42.1653 134.026 41.9627 134.26 41.696L135.38 42.832C135.007 43.2693 134.554 43.6 134.02 43.824C133.487 44.048 132.922 44.16 132.324 44.16Z" fill="white"/>
<rect x="1.26465" y="0.5" width="199" height="57" rx="4.5" stroke="#1D3563"/>
</svg>
