<svg width="14" height="20" viewBox="0 0 14 20" fill="none" xmlns="http://www.w3.org/2000/svg">
<path d="M13.4226 0.791736C13.3452 0.714355 13.2949 0.714355 7 0.714355C0.70506 0.714355 0.654762 0.714355 0.577381 0.791736C0.5 0.869117 0.5 0.919415 0.5 10.0001C0.5 19.0807 0.5 19.131 0.577381 19.2084C0.654762 19.2858 0.70506 19.2858 7 19.2858C13.2949 19.2858 13.3452 19.2858 13.4226 19.2084C13.5 19.131 13.5 19.0807 13.5 10.0001C13.5 0.919415 13.5 0.869117 13.4226 0.791736ZM12.5714 2.26197H12.2619V1.79769V1.3334L12.5714 1.3334H12.881V1.79769V2.26197H12.5714ZM12.5714 8.45245H12.2619V5.66674V2.88102H12.5714H12.881V5.66674V8.45245H12.5714ZM12.5714 10.9286H12.2619V10.0001V9.0715H12.5714H12.881V10.0001V10.9286H12.5714ZM12.5714 17.1191H12.2619L12.2619 14.3334V11.5477H12.5714H12.881V14.3334L12.881 17.1191H12.5714ZM12.5714 18.6667H12.2619V18.2024V17.7382H12.5714H12.881V18.2024V18.6667H12.5714ZM9.47619 2.26197H7.30952V1.79769V1.3334H9.47619L11.6429 1.3334V1.79769V2.26197L9.47619 2.26197ZM9.47619 8.45245H7.30952L7.30952 5.66674V2.88102H9.47619L11.6429 2.88102V5.66674V8.45245H9.47619ZM7 10.9286H2.35714V10.0001L2.35714 9.0715H7H11.6429V10.0001V10.9286H7ZM9.47619 17.1191H7.30952V14.3334V11.5477H9.47619H11.6429V14.3334L11.6429 17.1191H9.47619ZM9.47619 18.6667H7.30952V18.2024V17.7382H9.47619H11.6429V18.2024V18.6667H9.47619ZM4.52381 2.26197H2.35714V1.79769V1.3334L4.52381 1.3334L6.69048 1.3334V1.79769V2.26197L4.52381 2.26197ZM4.52381 8.45245H2.35714L2.35714 5.66674V2.88102L4.52381 2.88102H6.69048V5.66674L6.69048 8.45245H4.52381ZM4.52381 17.1191H2.35714V14.3334V11.5477H4.52381H6.69048V14.3334V17.1191H4.52381ZM4.52381 18.6667H2.35714V18.2024V17.7382H4.52381H6.69048V18.2024V18.6667H4.52381ZM1.42857 2.26197H1.11905V1.79769V1.3334H1.42857H1.7381V1.79769V2.26197H1.42857ZM1.42857 8.45245H1.11905V5.66674L1.11905 2.88102H1.42857H1.7381V5.66674L1.7381 8.45245H1.42857ZM1.42857 10.9286H1.11905L1.11905 10.0001V9.0715H1.42857H1.7381L1.7381 10.0001V10.9286H1.42857ZM1.42857 17.1191H1.11905V14.3334L1.11905 11.5477H1.42857H1.7381L1.7381 14.3334L1.7381 17.1191H1.42857ZM1.42857 18.6667H1.11905V18.2024L1.11905 17.7382H1.42857H1.7381V18.2024V18.6667H1.42857Z" fill="#097E52"/>
</svg>
