<svg width="35" height="34" viewBox="0 0 35 34" fill="none" xmlns="http://www.w3.org/2000/svg">
<circle cx="17.3359" cy="16.9998" r="17" fill="url(#paint0_linear_486_173413)"/>
<path d="M23.4809 7.09603C22.7087 7.30034 22.0489 7.72323 21.2767 8.51672C20.6216 9.18193 20.4063 9.56204 20.3595 10.1085C20.3174 10.6406 20.4063 10.959 20.8041 11.6574L20.9538 11.9235L20.3267 12.4794C19.5312 13.1779 19.4235 13.3062 19.3861 13.5628C19.3346 13.9096 19.4516 14.1187 19.957 14.5748C20.6028 15.1593 20.8696 15.2068 21.3095 14.8219C21.6839 14.4988 22.3624 13.9999 22.6058 13.8716C22.8304 13.7481 22.8304 13.7481 22.9801 13.8384C23.1954 13.9619 23.7383 14.1235 23.9535 14.1235C24.4823 14.1235 24.9456 13.9144 25.5727 13.387C26.3963 12.698 27.0328 11.7525 27.2574 10.8925C27.365 10.4791 27.3604 9.72835 27.2527 9.34823C27.0936 8.80656 26.8643 8.43119 26.3823 7.94654C25.8956 7.44764 25.5072 7.20532 24.9971 7.07227C24.5993 6.96774 23.9208 6.97724 23.4809 7.09603ZM25.0439 8.25064C25.7833 8.62125 26.3355 9.42425 26.3355 10.1227C26.3355 10.5599 26.1249 11.1253 25.7693 11.6622C25.5165 12.0423 24.7304 12.8406 24.4964 12.9546C24.239 13.0781 23.9348 13.0639 23.6727 12.9166C23.5557 12.8501 23.2469 12.6885 22.9848 12.5602C22.339 12.2419 22.2127 12.1231 21.9085 11.4911C21.7681 11.2013 21.5996 10.8639 21.5341 10.7452C21.3984 10.4886 21.375 10.1892 21.4826 9.93741C21.5762 9.71409 22.1986 9.05364 22.6058 8.74004C23.5323 8.03207 24.3045 7.87527 25.0439 8.25064ZM21.5622 12.9308C21.5622 12.9546 21.3797 13.1827 21.1597 13.4345C20.7573 13.8954 20.7526 13.8954 20.6637 13.8004C20.5701 13.7053 20.5701 13.7053 20.7479 13.539C21.4311 12.9213 21.5622 12.8216 21.5622 12.9308Z" fill="white"/>
<path d="M16.2454 10.5545C15.8055 10.6686 15.4077 10.9964 15.1925 11.4241C15.1129 11.5761 15.0802 11.7329 15.0661 12.0608C15.0474 12.4551 15.0568 12.5216 15.1738 12.783C15.3422 13.1678 15.6885 13.5004 16.0629 13.643C16.2922 13.7333 16.4139 13.7475 16.7181 13.7333C17.3545 13.7 17.8412 13.3579 18.1079 12.764C18.239 12.4599 18.253 11.9277 18.1313 11.5666C18.019 11.2435 17.654 10.8396 17.3264 10.6781C17.0597 10.5403 16.5215 10.4833 16.2454 10.5545ZM17.0363 11.7947C17.2609 12.0512 17.172 12.4741 16.8538 12.6262C16.6479 12.726 16.5496 12.7165 16.3624 12.5882C16.0723 12.3934 16.0114 12.113 16.1939 11.8374C16.3952 11.5333 16.7836 11.5096 17.0363 11.7947Z" fill="white"/>
<path d="M7.62608 15.2159C7.34998 15.3869 7.33594 15.4772 7.33594 17.1402C7.33594 18.8365 7.34998 18.922 7.64012 19.0455C7.86943 19.1406 8.10341 19.0931 8.24848 18.9125L8.36548 18.77V17.4871V16.2042L8.5667 16.2327C11.0891 16.6033 16.1619 16.8171 19.4798 16.6936C21.5155 16.6175 24.9504 16.361 25.6711 16.2327L25.8208 16.2042V17.4871C25.8208 18.7082 25.8255 18.7747 25.9191 18.8887C25.9706 18.96 26.0923 19.0408 26.1952 19.0693C26.345 19.1168 26.4011 19.1121 26.5509 19.036C26.6538 18.9838 26.7568 18.8935 26.7895 18.827C26.8317 18.7414 26.8504 18.2901 26.8504 17.1259C26.8504 15.3869 26.841 15.3346 26.5696 15.1921C26.3918 15.0971 26.1484 15.1018 25.2125 15.2159C21.2955 15.6767 16.6252 15.7908 12.5304 15.5247C11.412 15.4487 9.19847 15.2491 8.64626 15.1683C8.13617 15.0923 7.79923 15.1113 7.62608 15.2159Z" fill="white"/>
<path d="M12.0386 17.5301C10.7236 17.8152 9.47409 19.0791 9.17927 20.4285C9.06227 20.9606 9.10439 21.8111 9.27754 22.3433C9.55832 23.2318 10.1199 24.0871 10.9716 24.9091C11.828 25.7406 12.193 25.9259 12.9745 25.9212C13.5174 25.9212 13.8169 25.8309 14.2895 25.5268C14.4533 25.4223 14.6733 25.3035 14.7809 25.2607L14.9728 25.1799L15.1038 25.3177C15.174 25.3938 15.5016 25.7454 15.8292 26.097C16.5639 26.881 16.7183 26.9998 17.0318 26.9998C17.3641 26.9998 17.5092 26.9142 18.0707 26.3678C18.6042 25.8547 18.6885 25.6979 18.6276 25.3652C18.5808 25.0944 18.4358 24.9376 17.57 24.1774C16.5732 23.3079 16.6294 23.4504 17.0225 22.7662C17.3267 22.2483 17.4437 21.8682 17.4437 21.3978C17.4437 20.8181 17.2845 20.362 16.9336 19.9201C16.5779 19.4734 15.9508 18.851 15.525 18.5231C14.355 17.6299 13.1524 17.2877 12.0386 17.5301ZM13.6437 18.6847C14.3831 18.9365 15.188 19.5304 15.8666 20.3239C16.2503 20.7658 16.3533 20.9511 16.3954 21.26C16.4328 21.5403 16.3626 21.7779 16.1146 22.2008C15.9976 22.3956 15.8245 22.7472 15.7309 22.98C15.4735 23.6072 15.2021 23.8685 14.3972 24.2677C14.0509 24.4387 13.6671 24.6335 13.5408 24.7048C13.377 24.7951 13.2225 24.8378 13.012 24.8521C12.5721 24.8806 12.3334 24.7428 11.6736 24.0871C10.1152 22.5334 9.74551 21.0747 10.5925 19.8108C10.8874 19.3784 11.3039 19.0078 11.7578 18.7797C12.3849 18.4614 12.923 18.4329 13.6437 18.6847ZM16.854 24.9899L17.4858 25.5506L17.2892 25.7549C17.1816 25.8642 17.0786 25.9497 17.0646 25.9449C17.0459 25.9354 16.7745 25.6361 16.4609 25.2702L15.8947 24.6098L15.9976 24.4957C16.0585 24.434 16.1333 24.3959 16.1661 24.4055C16.1989 24.4197 16.5077 24.681 16.854 24.9899Z" fill="white"/>
<defs>
<linearGradient id="paint0_linear_486_173413" x1="-1.25781" y1="9.64725" x2="39.7255" y2="12.4106" gradientUnits="userSpaceOnUse">
<stop stop-color="#006177"/>
<stop offset="0.617019" stop-color="#269089"/>
<stop offset="1" stop-color="#7ABC82"/>
</linearGradient>
</defs>
</svg>
