<svg width="20" height="21" viewBox="0 0 20 21" fill="none" xmlns="http://www.w3.org/2000/svg">
<path d="M11 14.5001H5.00001C4.73479 14.5001 4.48044 14.6054 4.2929 14.793C4.10537 14.9805 4.00001 15.2349 4.00001 15.5001C4.00001 15.7653 4.10537 16.0196 4.2929 16.2072C4.48044 16.3947 4.73479 16.5001 5.00001 16.5001H11C11.2652 16.5001 11.5196 16.3947 11.7071 16.2072C11.8947 16.0196 12 15.7653 12 15.5001C12 15.2349 11.8947 14.9805 11.7071 14.793C11.5196 14.6054 11.2652 14.5001 11 14.5001ZM7.00001 8.50007H9.00001C9.26522 8.50007 9.51958 8.39471 9.70711 8.20717C9.89465 8.01964 10 7.76528 10 7.50007C10 7.23485 9.89465 6.9805 9.70711 6.79296C9.51958 6.60543 9.26522 6.50007 9.00001 6.50007H7.00001C6.73479 6.50007 6.48044 6.60543 6.2929 6.79296C6.10537 6.9805 6.00001 7.23485 6.00001 7.50007C6.00001 7.76528 6.10537 8.01964 6.2929 8.20717C6.48044 8.39471 6.73479 8.50007 7.00001 8.50007ZM19 10.5001H16V1.50007C16.0007 1.32386 15.9548 1.15059 15.867 0.997814C15.7792 0.845037 15.6526 0.718173 15.5 0.630068C15.348 0.5423 15.1755 0.496094 15 0.496094C14.8245 0.496094 14.652 0.5423 14.5 0.630068L11.5 2.35007L8.50001 0.630068C8.34799 0.5423 8.17554 0.496094 8.00001 0.496094C7.82447 0.496094 7.65203 0.5423 7.50001 0.630068L4.50001 2.35007L1.50001 0.630068C1.34799 0.5423 1.17554 0.496094 1.00001 0.496094C0.824471 0.496094 0.652027 0.5423 0.500008 0.630068C0.347404 0.718173 0.220789 0.845037 0.132986 0.997814C0.0451828 1.15059 -0.000691685 1.32386 7.88288e-06 1.50007V17.5001C7.88288e-06 18.2957 0.316078 19.0588 0.878688 19.6214C1.4413 20.184 2.20436 20.5001 3.00001 20.5001H17C17.7957 20.5001 18.5587 20.184 19.1213 19.6214C19.6839 19.0588 20 18.2957 20 17.5001V11.5001C20 11.2349 19.8947 10.9805 19.7071 10.793C19.5196 10.6054 19.2652 10.5001 19 10.5001ZM3.00001 18.5001C2.73479 18.5001 2.48044 18.3947 2.2929 18.2072C2.10536 18.0196 2.00001 17.7653 2.00001 17.5001V3.23007L4.00001 4.37007C4.15435 4.45068 4.32589 4.49278 4.50001 4.49278C4.67413 4.49278 4.84567 4.45068 5.00001 4.37007L8.00001 2.65007L11 4.37007C11.1543 4.45068 11.3259 4.49278 11.5 4.49278C11.6741 4.49278 11.8457 4.45068 12 4.37007L14 3.23007V17.5001C14.0027 17.8412 14.0636 18.1794 14.18 18.5001H3.00001ZM18 17.5001C18 17.7653 17.8947 18.0196 17.7071 18.2072C17.5196 18.3947 17.2652 18.5001 17 18.5001C16.7348 18.5001 16.4804 18.3947 16.2929 18.2072C16.1054 18.0196 16 17.7653 16 17.5001V12.5001H18V17.5001ZM11 10.5001H5.00001C4.73479 10.5001 4.48044 10.6054 4.2929 10.793C4.10537 10.9805 4.00001 11.2349 4.00001 11.5001C4.00001 11.7653 4.10537 12.0196 4.2929 12.2072C4.48044 12.3947 4.73479 12.5001 5.00001 12.5001H11C11.2652 12.5001 11.5196 12.3947 11.7071 12.2072C11.8947 12.0196 12 11.7653 12 11.5001C12 11.2349 11.8947 10.9805 11.7071 10.793C11.5196 10.6054 11.2652 10.5001 11 10.5001Z" fill="#192335"/>
</svg>
