<svg width="15" height="16" viewBox="0 0 15 16" fill="none" xmlns="http://www.w3.org/2000/svg">
<path d="M2.87263 0.668945C2.33454 0.806641 1.89515 1.17285 1.68182 1.66797L1.59267 1.87012L1.58311 7.15234C1.57356 12.9678 1.56401 12.6162 1.77097 12.9941C1.90788 13.2432 2.22947 13.5449 2.49374 13.6709C2.91402 13.873 2.79622 13.8672 5.85604 13.8672H8.61338V14.6553V15.4434L8.69616 15.5342C8.76621 15.6104 8.80123 15.625 8.92541 15.625C9.05913 15.625 9.11645 15.5986 9.48261 15.373L9.89334 15.124L10.3073 15.373C10.6671 15.5928 10.7403 15.625 10.8581 15.625C10.96 15.625 11.0237 15.6045 11.0873 15.5547L11.1765 15.4844L11.186 14.6758L11.1956 13.8672H12.2145H13.2365L13.3289 13.7822L13.4212 13.6973V7.24609V0.794922L13.3289 0.709961L13.2365 0.625L8.12941 0.62793C4.00295 0.630859 2.99681 0.636719 2.87263 0.668945ZM3.80554 7.24902V13.2578L3.43302 13.2461C3.1369 13.2373 3.02546 13.2227 2.90766 13.1729C2.69751 13.085 2.45234 12.8652 2.35046 12.6689L2.26131 12.5049V7.24609V1.9873L2.33135 1.84961C2.45871 1.59473 2.76438 1.3457 3.04138 1.2666C3.08596 1.25488 3.27382 1.24316 3.46486 1.24316L3.80554 1.24023V7.24902ZM12.7526 7.24609V13.252H8.61338H4.47418V7.24609V1.24023H8.61338H12.7526V7.24609ZM10.5238 14.3066V14.749L10.3295 14.6289C10.0844 14.4736 9.93155 14.415 9.82966 14.4385C9.78827 14.4473 9.64499 14.5205 9.51763 14.6025L9.28201 14.749V14.3066V13.8672H9.90289H10.5238V14.3066Z" fill="#A0A0A0"/>
<path d="M8.02431 2.43143C7.49258 2.53397 7.04682 2.75077 6.64882 3.09647C6.21261 3.4744 5.91332 3.95194 5.78914 4.47342C5.71909 4.75467 5.72228 5.3494 5.78914 5.61014C5.96426 6.27518 6.3941 6.86405 6.96404 7.21854C7.20284 7.36796 7.61039 7.54667 7.86511 7.61112C8.16122 7.68729 8.85851 7.70194 9.18965 7.64042C10.269 7.4412 11.1351 6.6912 11.4216 5.70682C11.5108 5.39628 11.5203 4.72538 11.4375 4.42362C11.1542 3.37772 10.2499 2.59842 9.11005 2.41385C8.84259 2.36991 8.28858 2.3787 8.02431 2.43143ZM9.31064 3.0994C9.86466 3.27225 10.3486 3.66483 10.6002 4.1453C10.8326 4.58768 10.8899 4.98026 10.7912 5.42264C10.6447 6.07889 10.1767 6.62088 9.5176 6.89628C9.18328 7.0369 8.93493 7.07792 8.51783 7.06034C8.07207 7.04276 7.77277 6.9578 7.42572 6.74979C6.55648 6.22538 6.19033 5.25565 6.52464 4.37088C6.63927 4.0662 6.78255 3.86112 7.06911 3.59452C7.27925 3.40116 7.38114 3.33378 7.62631 3.21952C8.02112 3.04081 8.25037 2.99686 8.69295 3.00858C8.97314 3.01444 9.09731 3.03495 9.31064 3.0994Z" fill="#A0A0A0"/>
<path d="M8.14967 4.16631C7.99047 4.23076 7.92042 4.4915 8.02549 4.62627C8.08917 4.71416 8.242 4.76396 8.36936 4.74346C8.63045 4.69951 8.7196 4.38017 8.51901 4.21318C8.44896 4.15459 8.24519 4.12822 8.14967 4.16631Z" fill="#A0A0A0"/>
<path d="M9.40283 4.1869C9.29139 4.24256 9.25 4.31288 9.25 4.4535C9.25318 4.7201 9.57795 4.84901 9.79765 4.6703C9.8868 4.59706 9.90272 4.56483 9.90272 4.44764C9.90272 4.33045 9.8868 4.29823 9.79765 4.22499C9.68302 4.12831 9.54293 4.11659 9.40283 4.1869Z" fill="#A0A0A0"/>
<path d="M8.76611 5.06606C8.65467 5.11879 8.61328 5.19204 8.61328 5.3268C8.61328 5.4645 8.65467 5.53481 8.77248 5.59047C8.91576 5.65786 9.04312 5.64614 9.15456 5.55239C9.45386 5.30629 9.11954 4.88735 8.76611 5.06606Z" fill="#A0A0A0"/>
<path d="M5.83406 9.51906C5.72262 9.61867 5.69714 9.76223 5.76082 9.87941C5.86908 10.0669 5.72898 10.0611 8.66463 10.0523L11.3264 10.0435L11.4188 9.9468C11.5239 9.8384 11.5366 9.72121 11.4634 9.58937C11.4379 9.5425 11.3869 9.48977 11.3551 9.47219C11.3137 9.45168 10.3872 9.44289 8.60413 9.44289H5.91684L5.83406 9.51906Z" fill="#A0A0A0"/>
<path d="M5.84231 10.9873C5.66082 11.1367 5.70858 11.418 5.92509 11.4941C5.97604 11.5117 7.00765 11.5234 8.65059 11.5234H11.2933L11.4016 11.4238C11.478 11.3535 11.5098 11.2979 11.5098 11.2334C11.5098 11.1074 11.4366 10.9844 11.3347 10.9434C11.2742 10.917 10.5865 10.9082 8.59646 10.9082H5.93783L5.84231 10.9873Z" fill="#A0A0A0"/>
</svg>
