<svg width="15" height="16" viewBox="0 0 15 16" fill="none" xmlns="http://www.w3.org/2000/svg">
<g clip-path="url(#clip0_2322_38701)">
<path d="M8.08509 0.781738C9.02259 0.937012 9.75208 1.25635 10.4493 1.82178C11.3224 2.52783 11.9142 3.50049 12.1632 4.64307C12.2218 4.91553 12.2306 5.02979 12.2277 5.62451C12.2277 6.25732 12.2218 6.31885 12.1456 6.6499C12.0021 7.26514 11.7472 7.85986 11.4015 8.37256C11.0997 8.81787 9.95716 10.6255 9.96888 10.6372C9.97474 10.6431 10.1447 10.6812 10.3439 10.7192C10.8771 10.8247 11.0704 10.8716 11.5509 11.0181C12.7257 11.3755 13.5021 11.8589 13.8331 12.436C13.9708 12.6792 14.0118 12.855 13.9972 13.1655C13.9884 13.4146 13.9738 13.4731 13.8829 13.6665C13.6661 14.1206 13.2736 14.4663 12.6115 14.7944C11.6241 15.2808 10.256 15.5972 8.62708 15.7173C8.09974 15.7554 6.71692 15.7554 6.20716 15.7173C3.66419 15.5239 1.75403 14.8589 1.09192 13.9331C0.895634 13.6636 0.819462 13.4233 0.819462 13.0981C0.819462 12.6968 0.960087 12.3862 1.29114 12.0552C1.87415 11.4722 2.97571 11.0093 4.47864 10.7192C4.67786 10.6812 4.84778 10.6431 4.85364 10.6372C4.8595 10.6313 4.49915 10.0542 4.05384 9.35693C3.60559 8.65674 3.17786 7.96533 3.10169 7.82178C2.92005 7.47314 2.77649 7.08057 2.67688 6.6499C2.60071 6.31885 2.59485 6.25732 2.59485 5.62451C2.59192 5.02979 2.60071 4.91553 2.65931 4.64307C3.10462 2.60107 4.65735 1.11572 6.6847 0.793457C7.0011 0.740723 7.81263 0.734863 8.08509 0.781738ZM6.77552 1.69873C5.18763 1.95654 3.89856 3.20459 3.55286 4.81885C3.48841 5.12939 3.47962 6.07861 3.54114 6.35693C3.61731 6.69971 3.78138 7.15088 3.93372 7.43213C4.08606 7.71924 7.38489 12.9019 7.41126 12.9019C7.42005 12.9019 8.07044 11.8853 8.86145 10.6431C9.64954 9.40381 10.4142 8.20557 10.5548 7.98877C11.1349 7.09521 11.337 6.48291 11.337 5.59521C11.337 4.2124 10.6398 2.96729 9.44739 2.21729C9.08118 1.98877 8.50696 1.7749 8.05579 1.69873C7.74817 1.646 7.09778 1.646 6.77552 1.69873ZM8.56849 12.7993C8.11438 13.5112 7.71009 14.1147 7.66614 14.147C7.54895 14.2319 7.27356 14.2319 7.15638 14.147C7.11243 14.1147 6.71106 13.52 6.26282 12.814C5.81458 12.1138 5.43079 11.5308 5.41028 11.5161C5.35755 11.481 4.5636 11.6128 4.02454 11.7476C3.03138 11.9907 2.27259 12.3481 1.90931 12.7407C1.68665 12.981 1.66614 13.1714 1.83606 13.3911C1.95911 13.5552 2.00599 13.5991 2.22571 13.7515C2.97864 14.2759 4.52259 14.6831 6.22474 14.8091C6.75208 14.8472 8.07044 14.8472 8.59778 14.8091C10.7247 14.6538 12.4972 14.0767 12.9982 13.3794C13.1564 13.1626 13.13 12.9751 12.9132 12.7407C12.4533 12.2427 11.3956 11.8237 9.97474 11.5747C9.74915 11.5337 9.52649 11.5044 9.47669 11.5073C9.39759 11.5132 9.33313 11.604 8.56849 12.7993Z" fill="#A0A0A0"/>
<path d="M7.96802 3.47119C8.08813 3.50342 8.29907 3.58545 8.43677 3.65283C8.63892 3.75244 8.73853 3.82861 8.96411 4.05713C9.19263 4.28272 9.2688 4.38232 9.36841 4.58447C9.54126 4.93018 9.60864 5.22314 9.60864 5.60986C9.60864 5.99658 9.54126 6.28955 9.36841 6.63525C9.2688 6.8374 9.19263 6.93701 8.96411 7.1626C8.73853 7.39111 8.63892 7.46729 8.43677 7.56689C8.09106 7.73975 7.7981 7.80713 7.41138 7.80713C7.02466 7.80713 6.73169 7.73975 6.38599 7.56689C6.18384 7.46729 6.08423 7.39111 5.85864 7.1626C5.63013 6.93701 5.55396 6.8374 5.45435 6.63525C5.28149 6.28955 5.21411 5.99658 5.21411 5.60986C5.21411 5.22314 5.28149 4.93018 5.45435 4.58447C5.55396 4.38232 5.63013 4.28272 5.85864 4.05713C6.08423 3.82861 6.18384 3.75244 6.38599 3.65283C6.52368 3.58545 6.74048 3.50342 6.86646 3.47119C7.177 3.39209 7.66333 3.39502 7.96802 3.47119ZM6.93384 4.40576C6.61743 4.53174 6.33325 4.81299 6.20435 5.13525C6.10767 5.37549 6.10767 5.84424 6.20435 6.0874C6.33325 6.40674 6.6145 6.68799 6.93677 6.81689C7.177 6.91357 7.64575 6.91357 7.88599 6.81689C8.20825 6.68799 8.4895 6.40381 8.61548 6.0874C8.7063 5.85596 8.72388 5.46631 8.65649 5.25244C8.51294 4.82178 8.25513 4.54639 7.84497 4.39111C7.59888 4.29736 7.19165 4.30322 6.93384 4.40576Z" fill="#A0A0A0"/>
</g>
<defs>
<clipPath id="clip0_2322_38701">
<rect width="15" height="15" fill="white" transform="matrix(-1 0 0 1 15 0.75)"/>
</clipPath>
</defs>
</svg>
