<svg width="20" height="20" viewBox="0 0 20 20" fill="none" xmlns="http://www.w3.org/2000/svg">
<path fill-rule="evenodd" clip-rule="evenodd" d="M3.50195 4.83333C3.06835 4.83333 2.71029 5.19139 2.71029 5.625V15.125C2.71029 15.5586 3.06835 15.9167 3.50195 15.9167H16.1686C16.6022 15.9167 16.9603 15.5586 16.9603 15.125V5.625C16.9603 5.19139 16.6022 4.83333 16.1686 4.83333H3.50195ZM1.12695 5.625C1.12695 4.31694 2.19389 3.25 3.50195 3.25H16.1686C17.4767 3.25 18.5436 4.31694 18.5436 5.625V15.125C18.5436 16.4331 17.4767 17.5 16.1686 17.5H3.50195C2.19389 17.5 1.12695 16.4331 1.12695 15.125V5.625Z" fill="#A0A0A0"/>
<path fill-rule="evenodd" clip-rule="evenodd" d="M1.27013 5.171C1.52086 4.81281 2.01449 4.7257 2.37268 4.97643L9.83535 10.2003L17.298 4.97643C17.6562 4.7257 18.1498 4.81281 18.4006 5.171C18.6513 5.52918 18.5642 6.02281 18.206 6.27355L10.2893 11.8152C10.0168 12.006 9.65395 12.006 9.38136 11.8152L1.4647 6.27355C1.10651 6.02281 1.0194 5.52918 1.27013 5.171Z" fill="#A0A0A0"/>
</svg>
