<svg width="17" height="17" viewBox="0 0 17 17" fill="none" xmlns="http://www.w3.org/2000/svg">
<path d="M6.98577 0.0596418C6.67924 0.156538 6.37583 0.372211 6.21005 0.61289C6.07242 0.812936 4.74619 3.93551 4.546 4.53252C4.47093 4.75444 4.38023 5.05138 4.34582 5.18891C4.19255 5.79843 4.06118 6.71426 4.06118 7.19249L4.06118 7.38316L3.37304 8.50528C2.85068 9.35547 2.663 9.63679 2.59732 9.66492C2.5504 9.68367 2.30642 9.90872 2.04993 10.165C1.71212 10.512 1.59013 10.6526 1.59013 10.7089C1.59013 10.7652 1.49004 10.8839 1.21166 11.159C0.670527 11.6966 0.464085 12.0061 0.301434 12.5187C0.238876 12.725 0.229492 12.8156 0.229492 13.2688C0.229492 13.7221 0.238876 13.8127 0.301434 14.019C0.451574 14.4972 0.686167 14.863 1.07716 15.2412C1.48691 15.635 1.85288 15.8382 2.36273 15.9601C2.73495 16.0507 3.39806 16.032 3.73275 15.9257C4.23947 15.7632 4.53975 15.5631 5.06211 15.038C5.27794 14.8223 5.47812 14.6442 5.5094 14.6442C5.54068 14.6442 5.60324 14.6254 5.65016 14.6004C5.78153 14.5316 6.5291 13.7596 6.56351 13.6564C6.59166 13.5783 6.77933 13.4501 7.72396 12.8688L8.85001 12.1749L9.0627 12.1749C10.0011 12.1749 11.4774 11.8435 12.4471 11.4122C12.6442 11.3278 12.7161 11.209 12.6629 11.0684C12.6316 10.9808 12.5159 10.8933 12.4377 10.8933C12.4096 10.8933 12.2063 10.9652 11.9842 11.0496C11.4962 11.2434 10.9613 11.4028 10.4546 11.5028C10.0605 11.5841 9.22848 11.6904 9.20346 11.6654C9.18469 11.6466 9.47871 11.1621 9.71956 10.8089C9.8916 10.5557 9.89785 10.5495 10.145 10.4526C10.2826 10.3995 10.5704 10.2682 10.7862 10.1619C11.3304 9.88997 14.0236 8.40838 14.2019 8.27711C14.4865 8.07081 14.7148 7.66759 14.7555 7.30501L14.7774 7.09559L15.0276 7.34565C15.3091 7.62383 15.5062 7.93015 15.6251 8.27398C15.7189 8.53654 15.7533 8.9085 15.7001 9.09916C15.6532 9.27733 15.4937 9.50551 15.3404 9.60865C15.2685 9.65866 14.7743 9.88372 14.2394 10.1088C13.7076 10.3338 13.2541 10.5401 13.2353 10.5714C13.1227 10.7245 13.2385 10.9558 13.4293 10.9558C13.57 10.9558 15.403 10.1838 15.6282 10.0275C15.8252 9.89309 16.0035 9.67117 16.1255 9.40861C16.2444 9.14605 16.2631 8.7022 16.1724 8.33337C16.1005 8.05205 15.9128 7.63321 15.7564 7.40191C15.525 7.06121 14.9713 6.57985 14.7242 6.50171C14.6898 6.48921 14.6179 6.38606 14.5459 6.24228C14.377 5.89845 14.2144 5.66402 13.9735 5.42022C13.7671 5.21079 13.398 4.94511 13.1978 4.86384C13.1227 4.82946 13.0727 4.77007 12.9882 4.60441C12.8412 4.31059 12.7255 4.14493 12.4815 3.8855C12.2657 3.66045 11.8372 3.351 11.5963 3.25098C11.4681 3.19784 11.443 3.16659 11.3148 2.92591C11.0677 2.4508 10.5297 1.95382 9.99169 1.70063C9.82279 1.62249 9.77587 1.58186 9.73833 1.49434C9.6226 1.21615 9.17531 0.719165 8.83749 0.487863C8.61228 0.334703 8.19314 0.147161 7.92102 0.0783958C7.64263 0.00650406 7.18283 -0.00287247 6.98577 0.0596418ZM7.79277 0.566005C8.37144 0.716039 9.00014 1.18489 9.24412 1.65062C9.31919 1.79128 9.3317 1.84754 9.3317 2.09447C9.3317 2.32265 9.31919 2.40079 9.26289 2.51644C9.17218 2.69461 6.99203 5.17016 6.52284 5.62339C6.11309 6.02035 5.79404 6.28291 5.35926 6.57673C4.97766 6.83616 4.59605 7.06121 4.57728 7.04245C4.55226 7.01745 4.62107 6.41106 4.68989 6.01722C4.82439 5.24205 4.99017 4.71693 5.42182 3.68858C6.63545 0.787929 6.5291 1.01923 6.73554 0.80981C6.85753 0.684782 6.97013 0.603514 7.06397 0.569131C7.24852 0.506617 7.55505 0.503491 7.79277 0.566005ZM10.098 2.34453C10.3733 2.52582 10.7174 2.89153 10.8675 3.16034C10.9832 3.36663 10.9895 3.38851 10.9895 3.65732C10.9895 4.05741 10.9301 4.15743 10.4046 4.64504C9.56942 5.42647 9.61634 5.37333 9.61634 5.50148C9.61634 5.64527 9.71331 5.73591 9.86658 5.73591C9.95728 5.73591 10.023 5.69215 10.2951 5.44835C11.2303 4.60128 11.393 4.40124 11.4806 3.98239C11.5025 3.87925 11.5275 3.79798 11.5369 3.79798C11.5994 3.79798 11.8966 4.02928 12.0999 4.23558C12.5941 4.73569 12.7912 5.26393 12.6442 5.69528C12.5409 5.99535 12.494 6.03598 10.9113 7.16748C9.2754 8.33962 9.02204 8.50216 8.34016 8.83035C7.90225 9.03978 6.95449 9.38673 6.92009 9.35235C6.88568 9.31796 7.15781 8.57717 7.38614 8.08019C7.48937 7.85826 7.51126 7.83638 7.77401 7.65197C8.28073 7.29564 9.20346 6.48608 9.28166 6.32667C9.32232 6.2454 9.32232 6.22352 9.2754 6.12662C9.2191 6.01097 9.11901 5.96409 8.99076 5.99847C8.9501 6.00785 8.77806 6.14538 8.60603 6.30166C7.93353 6.9268 7.29856 7.39878 6.6636 7.75199C6.35394 7.9239 5.74712 8.21147 5.72835 8.19584C5.70646 8.17083 5.88788 7.38941 5.99735 7.04871L6.12247 6.65799L6.42901 6.40169C6.59791 6.26103 6.85753 6.02035 7.00767 5.87032C7.34548 5.52649 9.51625 3.07282 9.61947 2.91653C9.71956 2.76962 9.84781 2.41642 9.84781 2.29764C9.84781 2.24451 9.85719 2.20387 9.86658 2.20387C9.87909 2.20387 9.98231 2.26639 10.098 2.34453ZM13.4168 5.60151C13.7577 5.86719 14.0674 6.32354 14.2112 6.76114C14.2832 6.98932 14.2675 7.32689 14.1706 7.52381C14.0329 7.802 13.9297 7.87076 12.347 8.74283C11.515 9.19919 10.708 9.63679 10.5516 9.71493C9.93226 10.0212 9.15967 10.2869 8.44651 10.437C8.23694 10.4807 8.05864 10.5182 8.04926 10.5182C8.01173 10.5182 8.38708 9.74306 8.57788 9.42736C8.68423 9.25545 8.71863 9.22732 9.04394 9.04603C9.23787 8.93975 9.49123 8.78972 9.61009 8.71158C10.0887 8.40838 12.6567 6.55484 12.788 6.42044C13.0133 6.19226 13.1947 5.80155 13.1947 5.53899C13.1947 5.49211 13.2041 5.4546 13.2134 5.4546C13.2228 5.4546 13.3135 5.52024 13.4168 5.60151ZM5.35926 7.46442C5.3186 7.63321 5.27481 7.83326 5.2623 7.90827C5.25291 7.98642 5.23414 8.04893 5.22163 8.04893C5.21225 8.04893 5.09964 7.9364 4.97453 7.79887L4.74619 7.54882L4.84316 7.49255C4.89633 7.46442 5.0496 7.37378 5.18097 7.29564C5.31234 7.21749 5.42495 7.15185 5.42807 7.15498C5.4312 7.1581 5.39992 7.29564 5.35926 7.46442ZM4.71178 8.27711L5.06211 8.62718L4.80875 8.94913C4.67112 9.12417 4.54913 9.26795 4.53662 9.26795C4.49283 9.26795 3.89853 8.64906 3.90791 8.61781C3.93293 8.55529 4.32705 7.9239 4.34269 7.9239C4.35207 7.9239 4.51785 8.08331 4.71178 8.27711ZM6.55725 8.78034L6.39773 9.23982L6.13498 8.98039C5.87537 8.72095 5.84096 8.67407 5.91603 8.67407C5.9348 8.67407 6.12247 8.58968 6.32891 8.48965C6.53535 8.38963 6.70739 8.31149 6.71052 8.31461C6.71364 8.31461 6.64483 8.52716 6.55725 8.78034ZM5.87537 10.0337L5.57821 10.3307L5.2404 9.99311L4.90259 9.65554L5.1622 9.32421L5.42182 8.98977L5.79717 9.36485L6.17252 9.73681L5.87537 10.0337ZM4.19255 9.72118C4.18004 9.73993 4.0518 9.90872 3.90791 10.0931L3.64204 10.4276L3.3793 10.165L3.11342 9.89934L3.36053 9.493L3.60763 9.08354L3.91104 9.3836C4.08933 9.56177 4.20506 9.6993 4.19255 9.72118ZM7.80528 9.78994C7.74585 9.90872 7.66766 10.0838 7.62699 10.1807C7.58633 10.2807 7.54567 10.3619 7.53316 10.3619C7.52377 10.3619 7.40491 10.2525 7.27041 10.115L7.02644 9.87121L7.44558 9.73056C7.67391 9.65241 7.87097 9.58677 7.88661 9.58365C7.89912 9.58365 7.86159 9.67429 7.80528 9.78994ZM4.89007 11.0183L4.56164 11.3465L4.28326 11.0652L4.00175 10.7839L4.28952 10.4213L4.57728 10.0556L4.89946 10.3745L5.2185 10.6901L4.89007 11.0183ZM6.89819 10.462L7.24539 10.8089L6.91696 11.0746L6.58853 11.3372L6.26323 11.0152L5.93792 10.6901L6.22569 10.4026C6.38521 10.2432 6.52284 10.1119 6.53223 10.1119C6.53848 10.1119 6.70426 10.2682 6.89819 10.462ZM4.37397 11.8779L6.01612 13.5189L5.73461 13.8002L5.4531 14.0815L5.09339 13.7221C4.75557 13.3876 4.7243 13.3626 4.61169 13.3626C4.44591 13.3626 4.37397 13.4314 4.37397 13.5939C4.37397 13.7127 4.39274 13.7408 4.69614 14.044L5.01519 14.366L4.60856 14.7629C4.30203 15.063 4.14876 15.188 3.98298 15.2755C3.42934 15.5631 2.8413 15.61 2.27514 15.4131C1.93733 15.2943 1.72776 15.1568 1.40246 14.8317C0.92076 14.3503 0.745597 13.9784 0.720574 13.372C0.701806 12.9375 0.764364 12.6437 0.942655 12.2905C1.049 12.078 1.14284 11.9623 1.47127 11.6279L1.86852 11.2215L2.80063 12.1498C3.64204 12.9907 3.74526 13.0813 3.83597 13.0813C3.9736 13.0813 4.09246 12.9625 4.09246 12.825C4.09246 12.7344 3.99862 12.6281 3.12281 11.7529L2.15316 10.7839L2.42528 10.5089C2.57855 10.3588 2.70679 10.2369 2.71618 10.2369C2.72556 10.2369 3.47 10.9746 4.37397 11.8779ZM9.09085 10.8214C9.08773 10.8371 8.99076 10.9996 8.88128 11.184L8.67797 11.5216L8.43399 11.2778C8.29949 11.1434 8.19002 11.0277 8.19002 11.0183C8.19002 11.009 8.3558 10.9683 8.55911 10.9277C8.7593 10.8871 8.95323 10.8433 8.98763 10.8277C9.06896 10.7964 9.10337 10.7933 9.09085 10.8214ZM5.81906 11.9436L5.4531 12.2342L5.18723 11.9686L4.92135 11.706L5.24978 11.3778L5.57821 11.0496L5.88162 11.3528L6.18503 11.6529L5.81906 11.9436ZM8.31513 11.8935C8.31513 11.9092 7.6833 12.303 7.61761 12.328C7.58946 12.3374 6.97013 11.7404 6.97013 11.6997C6.97013 11.6872 7.11402 11.5653 7.29231 11.4278L7.61135 11.1778L7.96481 11.5278C8.15561 11.7185 8.31513 11.8842 8.31513 11.8935ZM6.74492 12.8719L6.3383 13.1219L6.07555 12.8594L5.81281 12.5968L6.17877 12.3061L6.54474 12.0154L6.84814 12.3186L7.15468 12.625L6.74492 12.8719Z" fill="#AAF40C"/>
</svg>
