<svg width="31" height="37" viewBox="0 0 31 37" fill="none" xmlns="http://www.w3.org/2000/svg">
<path d="M30.927 16.755C30.927 26.005 24.527 34.655 15.927 36.755C7.327 34.655 0.927002 26.005 0.927002 16.755V6.75505L15.927 0.0883789L30.927 6.75505V16.755ZM15.927 33.4217C22.177 31.755 27.5937 24.3217 27.5937 17.1217V8.92171L15.927 3.72171L4.26034 8.92171V17.1217C4.26034 24.3217 9.677 31.755 15.927 33.4217ZM21.0103 25.0884L15.877 22.005L10.7603 25.0884L12.1103 19.255L7.59367 15.355L13.5603 14.8384L15.877 9.33838L18.2103 14.8217L24.177 15.3384L19.6437 19.255L21.0103 25.0884Z" fill="white"/>
</svg>
