<svg width="31" height="36" viewBox="0 0 31 36" fill="none" xmlns="http://www.w3.org/2000/svg">
<path d="M19.677 34.4219C19.677 34.7534 19.5453 35.0713 19.3109 35.3058C19.0765 35.5402 18.7585 35.6719 18.427 35.6719H13.427C13.0955 35.6719 12.7775 35.5402 12.5431 35.3058C12.3087 35.0713 12.177 34.7534 12.177 34.4219C12.177 34.0903 12.3087 33.7724 12.5431 33.538C12.7775 33.3036 13.0955 33.1719 13.427 33.1719H18.427C18.7585 33.1719 19.0765 33.3036 19.3109 33.538C19.5453 33.7724 19.677 34.0903 19.677 34.4219ZM15.927 16.9219C16.2978 16.9219 16.6604 16.8119 16.9687 16.6059C17.277 16.3998 17.5174 16.107 17.6593 15.7644C17.8012 15.4218 17.8383 15.0448 17.766 14.6811C17.6936 14.3174 17.515 13.9833 17.2528 13.721C16.9906 13.4588 16.6565 13.2802 16.2928 13.2079C15.9291 13.1356 15.5521 13.1727 15.2095 13.3146C14.8669 13.4565 14.574 13.6968 14.368 14.0052C14.162 14.3135 14.052 14.676 14.052 15.0469C14.052 15.5442 14.2495 16.0211 14.6012 16.3727C14.9528 16.7243 15.4297 16.9219 15.927 16.9219ZM30.8676 23.7703L28.9364 32.4625C28.8448 32.8753 28.6499 33.2581 28.3702 33.5751C28.0904 33.8921 27.7347 34.1329 27.3366 34.2751C26.9384 34.4173 26.5106 34.4562 26.0933 34.3881C25.676 34.3201 25.2828 34.1473 24.9504 33.8859L20.6942 30.6719H11.1629L6.90356 33.8859C6.5712 34.1473 6.17798 34.3201 5.76068 34.3881C5.34337 34.4562 4.91563 34.4173 4.51744 34.2751C4.11925 34.1329 3.76364 33.8921 3.48385 33.5751C3.20406 33.2581 3.00925 32.8753 2.91763 32.4625L0.986375 23.7703C0.904455 23.3973 0.908594 23.0105 0.998478 22.6393C1.08836 22.2682 1.26163 21.9223 1.50513 21.6281L5.96763 16.275C6.1174 14.3077 6.56904 12.3752 7.30669 10.5453C9.32231 5.49218 12.9317 2.32187 14.3958 1.19375C14.834 0.854189 15.3726 0.669922 15.927 0.669922C16.4814 0.669922 17.02 0.854189 17.4583 1.19375C18.9176 2.32187 22.5317 5.49218 24.5473 10.5453C25.285 12.3752 25.7366 14.3077 25.8864 16.275L30.3489 21.6281C30.5924 21.9223 30.7656 22.2682 30.8555 22.6393C30.9454 23.0105 30.9495 23.3973 30.8676 23.7703ZM11.4629 28.1719H20.3911C23.6911 22.3062 24.3083 16.6906 22.2254 11.4719C20.3879 6.86562 16.9411 3.95312 15.927 3.17187C14.9098 3.95312 11.4629 6.86562 9.62544 11.4719C7.54575 16.6906 8.16294 22.3062 11.4629 28.1719ZM9.11919 29.0859C7.4369 26.0286 6.41606 23.024 6.05669 20.0719L3.427 23.2281L5.35825 31.9219L5.38637 31.9016L9.11919 29.0859ZM28.427 23.2281L25.7973 20.0719C25.4411 23.0177 24.4223 26.0224 22.7411 29.0859L26.4676 31.8984L26.4958 31.9187L28.427 23.2281Z" fill="white"/>
</svg>
