<svg width="36" height="35" viewBox="0 0 36 35" fill="none" xmlns="http://www.w3.org/2000/svg">
<path d="M17.927 24.0884V29.0884" stroke="white" stroke-width="1.5" stroke-linecap="round"/>
<path d="M23.7602 34.0885H12.0935L12.6602 31.2619C12.7357 30.8842 12.9396 30.5443 13.2374 30.3C13.5352 30.0557 13.9084 29.9221 14.2935 29.9219H21.5602C21.9453 29.9221 22.3185 30.0557 22.6163 30.3C22.914 30.5443 23.118 30.8842 23.1935 31.2619L23.7602 34.0885Z" stroke="white" stroke-width="1.5" stroke-linecap="round" stroke-linejoin="round"/>
<path d="M29.5936 5.75537L31.1753 6.28204C32.8253 6.83204 33.6503 7.10704 34.1219 7.76204C34.5936 8.41704 34.5936 9.28704 34.5936 11.0254V11.147C34.5936 12.5804 34.5936 13.2987 34.2486 13.8854C33.9036 14.472 33.2753 14.8204 32.0219 15.5187L27.0936 18.2554M6.26025 5.75537L4.67859 6.28204C3.02859 6.83204 2.20359 7.10704 1.73192 7.76204C1.26025 8.41704 1.26025 9.2887 1.26025 11.0254V11.147C1.26025 12.5804 1.26025 13.2987 1.60525 13.8854C1.95025 14.472 2.57859 14.8204 3.83192 15.5187L8.76025 18.2554M16.5036 7.46037C17.1369 6.32204 17.4536 5.75537 17.9269 5.75537C18.4003 5.75537 18.7169 6.32204 19.3503 7.46037L19.5136 7.7537C19.6936 8.07704 19.7836 8.23704 19.9236 8.3437C20.0653 8.45037 20.2403 8.49037 20.5903 8.5687L20.9069 8.64204C22.1369 8.92037 22.7519 9.0587 22.8986 9.5287C23.0453 10.0004 22.6253 10.4904 21.7869 11.4704L21.5703 11.7237C21.3319 12.002 21.2119 12.1404 21.1586 12.3137C21.1053 12.487 21.1236 12.672 21.1586 13.0437L21.1919 13.382C21.3186 14.6904 21.3819 15.3454 21.0003 15.6354C20.6169 15.9254 20.0403 15.6604 18.8886 15.1304L18.5919 14.9937C18.2636 14.8437 18.1003 14.7687 17.9269 14.7687C17.7536 14.7687 17.5903 14.8437 17.2619 14.9937L16.9653 15.1304C15.8136 15.662 15.2369 15.9254 14.8536 15.6354C14.4703 15.3454 14.5353 14.6904 14.6619 13.382L14.6953 13.0437C14.7303 12.672 14.7486 12.487 14.6953 12.3137C14.6419 12.142 14.5219 12.002 14.2836 11.7237L14.0669 11.4704C13.2286 10.4904 12.8086 10.0004 12.9553 9.5287C13.1019 9.0587 13.7169 8.92037 14.9469 8.64204L15.2636 8.5687C15.6136 8.49037 15.7886 8.45204 15.9303 8.3437C16.0703 8.23704 16.1603 8.07704 16.3403 7.7537L16.5036 7.46037Z" stroke="white" stroke-width="1.5"/>
<path d="M27.9269 34.0886H7.92693M26.2603 1.51528C27.4953 1.75028 28.2286 2.01028 28.8603 2.79028C29.6553 3.76695 29.6136 4.82195 29.5286 6.93195C29.2286 14.5203 27.5286 24.0886 17.9286 24.0886C8.3286 24.0886 6.62693 14.5219 6.3236 6.93195C6.24026 4.82195 6.1986 3.76528 6.99026 2.79028C7.7836 1.81361 8.73193 1.65361 10.6303 1.33361C13.0422 0.938317 15.4829 0.744868 17.9269 0.755282C19.1236 0.755282 20.2369 0.796949 21.2603 0.868615" stroke="white" stroke-width="1.5" stroke-linecap="round"/>
</svg>
