<svg width="21" height="20" viewBox="0 0 21 20" fill="none" xmlns="http://www.w3.org/2000/svg">
<path d="M6.16277 12.085C6.05332 12.085 5.94495 12.1065 5.84383 12.1484C5.74271 12.1903 5.65083 12.2516 5.57345 12.329C5.49606 12.4064 5.43468 12.4983 5.39281 12.5994C5.35094 12.7005 5.3294 12.8089 5.32943 12.9183V14.4036C4.2553 13.1888 3.66252 11.6232 3.66277 10.0017C3.66261 9.75661 3.67728 9.51175 3.70671 9.26845C3.7202 9.15965 3.71209 9.04925 3.68284 8.94359C3.65359 8.83793 3.60377 8.73908 3.53625 8.65271C3.46873 8.56634 3.38483 8.49414 3.28936 8.44025C3.19388 8.38636 3.08871 8.35184 2.97987 8.33867C2.87103 8.3255 2.76066 8.33394 2.65509 8.3635C2.54952 8.39306 2.45082 8.44317 2.36464 8.51094C2.27847 8.57872 2.20652 8.66284 2.15291 8.75847C2.0993 8.8541 2.0651 8.95938 2.05225 9.06825C2.0145 9.37796 1.99575 9.68968 1.9961 10.0017C1.99723 11.9901 2.7119 13.9122 4.01016 15.4183H2.82943C2.60842 15.4183 2.39646 15.5061 2.24018 15.6624C2.0839 15.8187 1.9961 16.0307 1.9961 16.2517C1.9961 16.4727 2.0839 16.6847 2.24018 16.8409C2.39646 16.9972 2.60842 17.085 2.82943 17.085H6.16277C6.2931 17.0834 6.42115 17.0506 6.53626 16.9895C6.65137 16.9283 6.75021 16.8406 6.82454 16.7335C6.83426 16.7207 6.84666 16.7112 6.85571 16.6977C6.86126 16.6894 6.86141 16.6796 6.8666 16.6711C6.90631 16.604 6.93607 16.5315 6.95493 16.4559C6.96727 16.4134 6.97603 16.3699 6.98112 16.326C6.98351 16.3002 6.99612 16.2781 6.99612 16.2517V12.9184C6.99616 12.8089 6.97462 12.7005 6.93275 12.5994C6.89088 12.4983 6.8295 12.4064 6.75211 12.329C6.67472 12.2516 6.58284 12.1903 6.48172 12.1484C6.38059 12.1065 6.27221 12.085 6.16277 12.085ZM7.41277 5.00168H5.92737C7.14221 3.9276 8.70787 3.33483 10.3294 3.33501C10.5744 3.33442 10.8191 3.3491 11.0623 3.37896C11.1709 3.39216 11.2812 3.38382 11.3866 3.35442C11.4921 3.32502 11.5907 3.27514 11.6769 3.20762C11.7631 3.1401 11.8352 3.05626 11.8889 2.9609C11.9427 2.86554 11.9772 2.76052 11.9904 2.65183C12.0036 2.54314 11.9953 2.43292 11.9659 2.32746C11.9365 2.22199 11.8866 2.12335 11.8191 2.03716C11.7515 1.95098 11.6677 1.87894 11.5723 1.82515C11.477 1.77136 11.372 1.73689 11.2633 1.72369C10.9534 1.6863 10.6415 1.66782 10.3294 1.66835C8.34098 1.66943 6.41894 2.38404 4.91277 3.68225V2.50168C4.91277 2.28067 4.82497 2.0687 4.66869 1.91242C4.51241 1.75614 4.30045 1.66835 4.07943 1.66835C3.85842 1.66835 3.64646 1.75614 3.49018 1.91242C3.3339 2.0687 3.2461 2.28067 3.2461 2.50168V5.83501C3.25134 5.89009 3.26232 5.94447 3.27886 5.99727L3.27906 5.99829C3.29929 6.10083 3.33925 6.19847 3.3967 6.28579L3.40622 6.29987C3.46128 6.37996 3.53029 6.44949 3.60997 6.50515C3.61907 6.51182 3.6236 6.52204 3.63306 6.5284C3.64497 6.53628 3.65844 6.53878 3.6706 6.546C3.71786 6.57443 3.76794 6.59789 3.82003 6.616C3.89044 6.64049 3.96384 6.6553 4.03823 6.66004C4.05267 6.6608 4.06483 6.66837 4.07943 6.66837H7.41277C7.63378 6.66837 7.84574 6.58057 8.00202 6.42429C8.1583 6.26801 8.2461 6.05605 8.2461 5.83504C8.2461 5.61402 8.1583 5.40206 8.00202 5.24578C7.84574 5.0895 7.63378 5.0017 7.41277 5.0017V5.00168ZM17.3798 14.0051C17.3596 13.9025 17.3196 13.8048 17.2621 13.7175L17.2527 13.7035C17.1976 13.6234 17.1285 13.5538 17.0488 13.4981C17.0397 13.4915 17.0352 13.4813 17.0258 13.4749C17.0168 13.469 17.0061 13.4688 16.997 13.4632C16.8913 13.4044 16.7754 13.3661 16.6555 13.3503C16.6292 13.3478 16.6064 13.335 16.5794 13.335H13.2461C13.0251 13.335 12.8131 13.4228 12.6568 13.579C12.5006 13.7353 12.4128 13.9473 12.4128 14.1683C12.4128 14.3893 12.5006 14.6013 12.6568 14.7576C12.8131 14.9138 13.0251 15.0016 13.2461 15.0016H14.7314C13.5166 16.0757 11.951 16.6685 10.3294 16.6683C10.0845 16.6686 9.83971 16.6537 9.5966 16.6235C9.3771 16.5969 9.15599 16.6585 8.98193 16.7949C8.80787 16.9313 8.69511 17.1312 8.66846 17.3507C8.6418 17.5702 8.70343 17.7913 8.8398 17.9653C8.97616 18.1394 9.17609 18.2522 9.39559 18.2788C9.70547 18.3162 10.0173 18.3349 10.3294 18.335C12.3179 18.3339 14.2399 17.6193 15.7461 16.3211V17.5017C15.7461 17.7227 15.8339 17.9347 15.9902 18.0909C16.1465 18.2472 16.3584 18.335 16.5794 18.335C16.8004 18.335 17.0124 18.2472 17.1687 18.0909C17.325 17.9347 17.4128 17.7227 17.4128 17.5017V14.1683C17.4075 14.1133 17.3965 14.0589 17.38 14.0061L17.3798 14.0051ZM17.8294 4.58501C18.0504 4.58501 18.2624 4.49722 18.4187 4.34093C18.575 4.18465 18.6628 3.97269 18.6628 3.75168C18.6628 3.53067 18.575 3.3187 18.4187 3.16242C18.2624 3.00614 18.0504 2.91835 17.8294 2.91835H14.4961C14.4418 2.92358 14.3883 2.93438 14.3362 2.9506L14.3307 2.95171C14.2295 2.97196 14.1331 3.01143 14.0468 3.06799L14.0304 3.07902C13.9507 3.134 13.8815 3.2028 13.826 3.28217C13.8195 3.29117 13.8094 3.2956 13.8031 3.3049C13.7972 3.31385 13.797 3.32444 13.7914 3.33354C13.7319 3.43986 13.6934 3.55659 13.6778 3.67742C13.6754 3.70316 13.6628 3.72534 13.6628 3.75168V7.08501C13.6628 7.30603 13.7506 7.51799 13.9068 7.67427C14.0631 7.83055 14.2751 7.91835 14.4961 7.91835C14.7171 7.91835 14.9291 7.83055 15.0854 7.67427C15.2416 7.51799 15.3294 7.30603 15.3294 7.08501V5.59928C16.4035 6.81425 16.9962 8.37999 16.9961 10.0016C16.9963 10.2467 16.9816 10.4916 16.9521 10.7349C16.9257 10.9542 16.9874 11.1751 17.1237 11.349C17.2599 11.523 17.4596 11.6357 17.6789 11.6626C17.7126 11.6665 17.7466 11.6684 17.7806 11.6683C17.9841 11.668 18.1804 11.5933 18.3326 11.4582C18.4848 11.3232 18.5822 11.1371 18.6066 10.9351C18.6444 10.6254 18.6631 10.3137 18.6628 10.0017C18.6616 8.01319 17.9469 6.09115 16.6486 4.58501H17.8294Z" fill="#A0A0A0"/>
</svg>
