<svg width="17" height="19" viewBox="0 0 17 19" fill="none" xmlns="http://www.w3.org/2000/svg">
<path d="M10.7575 8.8875C11.1552 8.39046 11.374 7.77404 11.3787 7.1375C11.3787 6.37401 11.0755 5.64179 10.5356 5.10192C9.99571 4.56205 9.26349 4.25875 8.5 4.25875C7.73651 4.25875 7.00429 4.56205 6.46442 5.10192C5.92455 5.64179 5.62125 6.37401 5.62125 7.1375C5.62599 7.77404 5.84482 8.39046 6.2425 8.8875C5.46255 9.36214 4.85064 10.0689 4.4925 10.9087C4.44237 11.0153 4.41427 11.1309 4.40988 11.2486C4.40549 11.3662 4.4249 11.4836 4.46694 11.5936C4.50898 11.7036 4.5728 11.804 4.65456 11.8887C4.73632 11.9735 4.83435 12.0408 4.94277 12.0868C5.05119 12.1328 5.16777 12.1564 5.28553 12.1562C5.40329 12.156 5.5198 12.1321 5.62809 12.0858C5.73638 12.0396 5.83421 11.9719 5.91573 11.8869C5.99725 11.8019 6.06077 11.7014 6.1025 11.5913C6.3036 11.1212 6.63762 10.72 7.06353 10.4371C7.48944 10.1542 7.9887 10.0019 8.5 9.99875C9.01279 10.0001 9.51394 10.1517 9.94156 10.4347C10.3692 10.7177 10.7046 11.1198 10.9062 11.5913C10.9732 11.7494 11.0853 11.8843 11.2284 11.9793C11.3716 12.0742 11.5395 12.1249 11.7113 12.125C11.8283 12.1228 11.944 12.0991 12.0525 12.055C12.2659 11.9644 12.4346 11.7927 12.5215 11.5778C12.6085 11.3629 12.6066 11.1223 12.5163 10.9087C12.1558 10.0676 11.5407 9.36074 10.7575 8.8875ZM8.5 8.24875C8.27638 8.24874 8.05781 8.18232 7.872 8.0579C7.68619 7.93348 7.54153 7.75667 7.45636 7.54991C7.37119 7.34315 7.34935 7.11575 7.39362 6.89655C7.43789 6.67736 7.54626 6.47626 7.705 6.31875C7.86373 6.16125 8.06568 6.05444 8.2852 6.01188C8.50473 5.96932 8.73196 5.99293 8.93805 6.0797C9.14415 6.16648 9.31982 6.31251 9.44279 6.49928C9.56576 6.68605 9.63048 6.90514 9.62875 7.12875C9.62644 7.42659 9.5065 7.71145 9.29507 7.92125C9.08364 8.13104 8.79785 8.24876 8.5 8.24875ZM13.75 0.75H3.25C2.55381 0.75 1.88613 1.02656 1.39384 1.51884C0.901562 2.01113 0.625 2.67881 0.625 3.375V13C0.625 13.6962 0.901562 14.3639 1.39384 14.8562C1.88613 15.3484 2.55381 15.625 3.25 15.625H5.51625L7.87875 17.9963C7.96051 18.0773 8.05747 18.1415 8.16408 18.1851C8.27069 18.2286 8.38484 18.2507 8.5 18.25C8.70855 18.25 8.91025 18.1755 9.06875 18.04L11.8862 15.625H13.75C14.4462 15.625 15.1139 15.3484 15.6062 14.8562C16.0984 14.3639 16.375 13.6962 16.375 13V3.375C16.375 2.67881 16.0984 2.01113 15.6062 1.51884C15.1139 1.02656 14.4462 0.75 13.75 0.75ZM14.625 13C14.625 13.2321 14.5328 13.4546 14.3687 13.6187C14.2046 13.7828 13.9821 13.875 13.75 13.875H11.5625C11.3539 13.875 11.1522 13.9495 10.9938 14.085L8.54375 16.185L6.49625 14.1288C6.41449 14.0477 6.31753 13.9835 6.21092 13.9399C6.10431 13.8964 5.99016 13.8743 5.875 13.875H3.25C3.01794 13.875 2.79538 13.7828 2.63128 13.6187C2.46719 13.4546 2.375 13.2321 2.375 13V3.375C2.375 3.14294 2.46719 2.92038 2.63128 2.75628C2.79538 2.59219 3.01794 2.5 3.25 2.5H13.75C13.9821 2.5 14.2046 2.59219 14.3687 2.75628C14.5328 2.92038 14.625 3.14294 14.625 3.375V13Z" fill="#A0A0A0"/>
</svg>
