<svg width="22" height="21" viewBox="0 0 22 21" fill="none" xmlns="http://www.w3.org/2000/svg">
<path d="M13.0934 9.8875C13.4911 9.39046 13.7099 8.77404 13.7147 8.1375C13.7147 7.37401 13.4114 6.64179 12.8715 6.10192C12.3317 5.56205 11.5994 5.25875 10.8359 5.25875C10.0724 5.25875 9.34022 5.56205 8.80035 6.10192C8.26048 6.64179 7.95719 7.37401 7.95719 8.1375C7.96193 8.77404 8.18076 9.39046 8.57844 9.8875C7.79849 10.3621 7.18657 11.0689 6.82844 11.9087C6.77831 12.0153 6.75021 12.1309 6.74582 12.2486C6.74143 12.3662 6.76083 12.4836 6.80288 12.5936C6.84492 12.7036 6.90873 12.804 6.9905 12.8887C7.07226 12.9735 7.17028 13.0408 7.2787 13.0868C7.38713 13.1328 7.50371 13.1564 7.62147 13.1562C7.73923 13.156 7.85574 13.1321 7.96403 13.0858C8.07231 13.0396 8.17015 12.9719 8.25167 12.8869C8.33319 12.8019 8.39671 12.7014 8.43844 12.5913C8.63954 12.1212 8.97356 11.72 9.39947 11.4371C9.82538 11.1542 10.3246 11.0019 10.8359 10.9987C11.3487 11.0001 11.8499 11.1517 12.2775 11.4347C12.7051 11.7177 13.0405 12.1198 13.2422 12.5913C13.3092 12.7494 13.4212 12.8843 13.5644 12.9793C13.7075 13.0742 13.8754 13.1249 14.0472 13.125C14.1643 13.1228 14.2799 13.0991 14.3884 13.055C14.6018 12.9644 14.7705 12.7927 14.8575 12.5778C14.9444 12.3629 14.9425 12.1223 14.8522 11.9087C14.4917 11.0676 13.8766 10.3607 13.0934 9.8875ZM10.8359 9.24875C10.6123 9.24874 10.3937 9.18232 10.2079 9.0579C10.0221 8.93348 9.87747 8.75667 9.7923 8.54991C9.70713 8.34315 9.68529 8.11575 9.72956 7.89655C9.77383 7.67736 9.8822 7.47626 10.0409 7.31875C10.1997 7.16125 10.4016 7.05444 10.6211 7.01188C10.8407 6.96932 11.0679 6.99293 11.274 7.0797C11.4801 7.16648 11.6558 7.31251 11.7787 7.49928C11.9017 7.68605 11.9664 7.90514 11.9647 8.12875C11.9624 8.42659 11.8424 8.71145 11.631 8.92125C11.4196 9.13104 11.1338 9.24876 10.8359 9.24875ZM16.0859 1.75H5.58594C4.88974 1.75 4.22207 2.02656 3.72978 2.51884C3.2375 3.01113 2.96094 3.67881 2.96094 4.375V14C2.96094 14.6962 3.2375 15.3639 3.72978 15.8562C4.22207 16.3484 4.88974 16.625 5.58594 16.625H7.85219L10.2147 18.9963C10.2964 19.0773 10.3934 19.1415 10.5 19.1851C10.6066 19.2286 10.7208 19.2507 10.8359 19.25C11.0445 19.25 11.2462 19.1755 11.4047 19.04L14.2222 16.625H16.0859C16.7821 16.625 17.4498 16.3484 17.9421 15.8562C18.4344 15.3639 18.7109 14.6962 18.7109 14V4.375C18.7109 3.67881 18.4344 3.01113 17.9421 2.51884C17.4498 2.02656 16.7821 1.75 16.0859 1.75ZM16.9609 14C16.9609 14.2321 16.8688 14.4546 16.7047 14.6187C16.5406 14.7828 16.318 14.875 16.0859 14.875H13.8984C13.6899 14.875 13.4882 14.9495 13.3297 15.085L10.8797 17.185L8.83219 15.1288C8.75043 15.0477 8.65346 14.9835 8.54686 14.9399C8.44025 14.8964 8.32609 14.8743 8.21094 14.875H5.58594C5.35387 14.875 5.13131 14.7828 4.96722 14.6187C4.80312 14.4546 4.71094 14.2321 4.71094 14V4.375C4.71094 4.14294 4.80312 3.92038 4.96722 3.75628C5.13131 3.59219 5.35387 3.5 5.58594 3.5H16.0859C16.318 3.5 16.5406 3.59219 16.7047 3.75628C16.8688 3.92038 16.9609 4.14294 16.9609 4.375V14Z" fill="#A0A0A0"/>
</svg>
