<svg width="21" height="21" viewBox="0 0 21 21" fill="none" xmlns="http://www.w3.org/2000/svg">
<path d="M10.5 0.5C8.52219 0.5 6.58879 1.08649 4.9443 2.1853C3.29981 3.28412 2.01809 4.8459 1.26121 6.67317C0.504333 8.50043 0.306299 10.5111 0.692152 12.4509C1.078 14.3907 2.03041 16.1725 3.42894 17.5711C4.82746 18.9696 6.60929 19.922 8.5491 20.3079C10.4889 20.6937 12.4996 20.4957 14.3268 19.7388C16.1541 18.9819 17.7159 17.7002 18.8147 16.0557C19.9135 14.4112 20.5 12.4778 20.5 10.5C20.5 9.18678 20.2413 7.88642 19.7388 6.67317C19.2363 5.45991 18.4997 4.35752 17.5711 3.42893C16.6425 2.50035 15.5401 1.76375 14.3268 1.2612C13.1136 0.758658 11.8132 0.5 10.5 0.5ZM10.5 18.5C8.91775 18.5 7.37104 18.0308 6.05544 17.1518C4.73985 16.2727 3.71447 15.0233 3.10897 13.5615C2.50347 12.0997 2.34504 10.4911 2.65372 8.93928C2.9624 7.38743 3.72433 5.96197 4.84315 4.84315C5.96197 3.72433 7.38743 2.9624 8.93928 2.65372C10.4911 2.34504 12.0997 2.50346 13.5615 3.10896C15.0233 3.71447 16.2727 4.73984 17.1518 6.05544C18.0308 7.37103 18.5 8.91775 18.5 10.5C18.5 12.6217 17.6572 14.6566 16.1569 16.1569C14.6566 17.6571 12.6217 18.5 10.5 18.5ZM12.6 8.13L11.5 8.77V5.5C11.5 5.23478 11.3946 4.98043 11.2071 4.79289C11.0196 4.60536 10.7652 4.5 10.5 4.5C10.2348 4.5 9.98043 4.60536 9.7929 4.79289C9.60536 4.98043 9.5 5.23478 9.5 5.5V10.5C9.5 10.5 9.5 10.5 9.5 10.56C9.4953 10.6266 9.4953 10.6934 9.5 10.76C9.51549 10.8214 9.53555 10.8816 9.56001 10.94C9.56001 10.94 9.56001 10.94 9.56001 11C9.60777 11.0709 9.66128 11.1378 9.72001 11.2C9.80079 11.2801 9.89573 11.3445 10 11.39H10.08C10.2103 11.457 10.3536 11.4945 10.5 11.5C10.6166 11.4967 10.7316 11.473 10.84 11.43H10.93H11L13.6 9.93C13.8307 9.79739 13.9994 9.57855 14.0687 9.32163C14.1381 9.0647 14.1026 8.79074 13.97 8.56C13.8374 8.32926 13.6186 8.16065 13.3616 8.09126C13.1047 8.02188 12.8307 8.05739 12.6 8.19V8.13Z" fill="#192335"/>
</svg>
