<svg width="14" height="15" viewBox="0 0 14 15" fill="none" xmlns="http://www.w3.org/2000/svg">
<path d="M6.62703 0.833313C4.91795 0.838188 3.27602 1.49926 2.04036 2.67998V1.49998C2.04036 1.32317 1.97013 1.1536 1.8451 1.02858C1.72008 0.903551 1.55051 0.833313 1.3737 0.833313C1.19689 0.833313 1.02732 0.903551 0.902293 1.02858C0.777269 1.1536 0.707031 1.32317 0.707031 1.49998V4.49998C0.707031 4.67679 0.777269 4.84636 0.902293 4.97138C1.02732 5.09641 1.19689 5.16665 1.3737 5.16665H4.3737C4.55051 5.16665 4.72008 5.09641 4.8451 4.97138C4.97013 4.84636 5.04036 4.67679 5.04036 4.49998C5.04036 4.32317 4.97013 4.1536 4.8451 4.02858C4.72008 3.90355 4.55051 3.83331 4.3737 3.83331H2.7737C3.3815 3.19132 4.13937 2.71049 4.97912 2.43407C5.81887 2.15766 6.71416 2.09433 7.58445 2.24978C8.45475 2.40524 9.27276 2.7746 9.96488 3.32464C10.657 3.87468 11.2015 4.58815 11.5495 5.40087C11.8975 6.21358 12.0379 7.10005 11.9583 7.98053C11.8786 8.861 11.5814 9.70787 11.0932 10.4449C10.605 11.182 9.9413 11.7862 9.1617 12.2031C8.38211 12.62 7.5111 12.8366 6.62703 12.8333C6.45022 12.8333 6.28065 12.9036 6.15563 13.0286C6.0306 13.1536 5.96036 13.3232 5.96036 13.5C5.96036 13.6768 6.0306 13.8464 6.15563 13.9714C6.28065 14.0964 6.45022 14.1666 6.62703 14.1666C8.39514 14.1666 10.0908 13.4643 11.3411 12.214C12.5913 10.9638 13.2937 9.26809 13.2937 7.49998C13.2937 5.73187 12.5913 4.03618 11.3411 2.78593C10.0908 1.53569 8.39514 0.833313 6.62703 0.833313ZM6.62703 4.83331C6.45022 4.83331 6.28065 4.90355 6.15563 5.02858C6.0306 5.1536 5.96036 5.32317 5.96036 5.49998V7.49998C5.96036 7.67679 6.0306 7.84636 6.15563 7.97138C6.28065 8.09641 6.45022 8.16665 6.62703 8.16665H7.96036C8.13717 8.16665 8.30674 8.09641 8.43177 7.97138C8.55679 7.84636 8.62703 7.67679 8.62703 7.49998C8.62703 7.32317 8.55679 7.1536 8.43177 7.02858C8.30674 6.90355 8.13717 6.83331 7.96036 6.83331H7.2937V5.49998C7.2937 5.32317 7.22346 5.1536 7.09844 5.02858C6.97341 4.90355 6.80384 4.83331 6.62703 4.83331Z" fill="#A0A0A0"/>
</svg>
