<?xml version="1.0" encoding="UTF-8"?>
<svg version="1.1" xmlns="http://www.w3.org/2000/svg" width="95" height="95">
<path d="M0 0 C2.12178539 0.01080914 4.24274077 0.00000838 6.36450195 -0.01269531 C7.72322777 -0.0113751 9.08195307 -0.00881558 10.44067383 -0.00488281 C11.66117432 -0.00262695 12.8816748 -0.00037109 14.13916016 0.00195312 C17.18338942 0.25149941 18.84517706 0.4788631 21.29614258 2.26074219 C25.01477476 7.43388107 23.69007961 14.98594961 23.67114258 21.07324219 C23.66932983 22.13093307 23.66932983 22.13093307 23.66748047 23.20999146 C23.61981434 33.39528352 23.32947807 42.72429641 19.29614258 52.26074219 C19.02769531 52.90994629 18.75924805 53.55915039 18.48266602 54.22802734 C12.70627138 67.87579917 4.40105951 78.77221823 -8.70385742 86.26074219 C-10.68205841 86.98955308 -12.67483535 87.68845391 -14.70385742 88.26074219 C-15.03385742 88.92074219 -15.36385742 89.58074219 -15.70385742 90.26074219 C-17.92663322 91.03173117 -20.18412034 91.70400894 -22.45385742 92.32324219 C-23.68620117 92.66484375 -24.91854492 93.00644531 -26.18823242 93.35839844 C-33.53833625 95.24492509 -40.49557264 95.48021507 -48.05102539 95.50097656 C-50.19741126 95.51071295 -52.34285076 95.54178938 -54.48901367 95.57324219 C-55.86270595 95.57977061 -57.23640501 95.58502171 -58.61010742 95.58886719 C-59.85083008 95.59821289 -61.09155273 95.60755859 -62.36987305 95.6171875 C-65.9855879 95.23062162 -67.86053733 94.49739997 -70.70385742 92.26074219 C-71.86927941 88.76447622 -71.88458533 85.59154253 -71.90698242 81.95214844 C-71.9126825 81.23018784 -71.91838257 80.50822723 -71.92425537 79.76438904 C-71.93370177 78.23201965 -71.94023793 76.69962998 -71.9440918 75.16723633 C-71.95369288 72.86273635 -71.98467317 70.55916952 -72.01635742 68.25488281 C-72.07746685 59.49527256 -71.42103414 51.68583425 -68.70385742 43.26074219 C-68.04385742 43.26074219 -67.38385742 43.26074219 -66.70385742 43.26074219 C-66.62135742 42.60074219 -66.53885742 41.94074219 -66.45385742 41.26074219 C-65.45222993 37.25423224 -63.65755021 33.88060317 -61.70385742 30.26074219 C-61.22948242 29.37386719 -60.75510742 28.48699219 -60.26635742 27.57324219 C-58.36897655 24.7651185 -56.15676394 22.59399473 -53.70385742 20.26074219 C-53.00260742 19.55949219 -52.30135742 18.85824219 -51.57885742 18.13574219 C-50.96010742 17.51699219 -50.34135742 16.89824219 -49.70385742 16.26074219 C-49.22948242 15.68324219 -48.75510742 15.10574219 -48.26635742 14.51074219 C-46.07938187 12.76116175 -44.42113537 13.04042235 -41.70385742 13.26074219 C-42.25455111 17.11559803 -43.88058309 18.67274072 -46.70385742 21.26074219 C-54.84096246 28.73808195 -60.24628565 37.80230195 -63.70385742 48.26074219 C-64.19789062 49.58380371 -64.19789062 49.58380371 -64.7019043 50.93359375 C-64.70457601 55.48485388 -62.91411207 56.96203475 -59.86416626 60.17565918 C-59.14352997 60.89467407 -58.42289368 61.61368896 -57.68041992 62.35449219 C-56.94568451 63.10541138 -56.2109491 63.85633057 -55.45394897 64.63000488 C-53.89409182 66.21215131 -52.32492741 67.78516729 -50.74731445 69.34960938 C-48.3402149 71.7494191 -45.98501766 74.19309347 -43.62963867 76.64355469 C-42.10782952 78.17511787 -40.58317808 79.70386318 -39.05541992 81.22949219 C-38.35502594 81.96470093 -37.65463196 82.69990967 -36.93301392 83.45739746 C-33.22052532 87.18943555 -33.22052532 87.18943555 -28.29116821 88.28848267 C-25.96953124 87.79652463 -23.90001795 87.15324346 -21.70385742 86.26074219 C-20.67518555 85.85597656 -19.64651367 85.45121094 -18.58666992 85.03417969 C-6.94227931 79.12951703 2.34285021 73.16732692 8.29614258 61.26074219 C8.95614258 61.26074219 9.61614258 61.26074219 10.29614258 61.26074219 C10.29614258 59.94074219 10.29614258 58.62074219 10.29614258 57.26074219 C10.95614258 57.26074219 11.61614258 57.26074219 12.29614258 57.26074219 C12.77778249 55.64380821 13.25289406 54.02469787 13.69848633 52.39746094 C14.11432791 50.91075935 14.56786806 49.43430252 15.05004883 47.96777344 C15.72630683 45.66076756 16.23746434 43.66654983 16.29614258 41.26074219 C14.19112387 38.23843517 14.19112387 38.23843517 11.29614258 36.26074219 C10.63614258 35.60074219 9.97614258 34.94074219 9.29614258 34.26074219 C9.67114258 32.13574219 9.67114258 32.13574219 10.29614258 30.26074219 C13.25023959 31.63228723 15.73622634 33.24937943 18.29614258 35.26074219 C18.74210572 33.01490554 18.74210572 33.01490554 18.29614258 30.26074219 C16.59485797 28.05047822 14.97163714 26.21113509 13.00317383 24.26855469 C12.46013107 23.71835663 11.91708832 23.16815857 11.35758972 22.60128784 C10.20785235 21.44377745 9.05169188 20.29261655 7.88964844 19.14746094 C6.11276365 17.38981863 4.36717424 15.60480246 2.62231445 13.81542969 C1.50103917 12.69386409 0.37804747 11.57401128 -0.74682617 10.45605469 C-1.26786423 9.91973419 -1.78890228 9.3834137 -2.32572937 8.83084106 C-3.98301215 7.1591177 -3.98301215 7.1591177 -6.70385742 5.26074219 C-9.50859485 5.28586754 -9.50859485 5.28586754 -11.70385742 6.26074219 C-8.58290677 9.41061525 -5.45642836 12.55494352 -2.32885742 15.69824219 C-0.99467773 17.04499023 -0.99467773 17.04499023 0.36645508 18.41894531 C1.64262695 19.69995117 1.64262695 19.69995117 2.94458008 21.00683594 C3.73010254 21.79759521 4.515625 22.58835449 5.32495117 23.40307617 C7.1635856 25.31445237 7.1635856 25.31445237 9.29614258 26.26074219 C8.80114258 28.73574219 8.80114258 28.73574219 8.29614258 31.26074219 C6.97614258 30.93074219 5.65614258 30.60074219 4.29614258 30.26074219 C4.29614258 29.60074219 4.29614258 28.94074219 4.29614258 28.26074219 C3.63614258 28.26074219 2.97614258 28.26074219 2.29614258 28.26074219 C2.29614258 27.60074219 2.29614258 26.94074219 2.29614258 26.26074219 C1.63614258 26.26074219 0.97614258 26.26074219 0.29614258 26.26074219 C0.29614258 25.60074219 0.29614258 24.94074219 0.29614258 24.26074219 C-0.36385742 24.26074219 -1.02385742 24.26074219 -1.70385742 24.26074219 C-1.70385742 23.60074219 -1.70385742 22.94074219 -1.70385742 22.26074219 C-2.36385742 22.26074219 -3.02385742 22.26074219 -3.70385742 22.26074219 C-3.70385742 21.60074219 -3.70385742 20.94074219 -3.70385742 20.26074219 C-4.36385742 20.26074219 -5.02385742 20.26074219 -5.70385742 20.26074219 C-5.70385742 19.60074219 -5.70385742 18.94074219 -5.70385742 18.26074219 C-6.36385742 18.26074219 -7.02385742 18.26074219 -7.70385742 18.26074219 C-7.70385742 17.60074219 -7.70385742 16.94074219 -7.70385742 16.26074219 C-8.36385742 16.26074219 -9.02385742 16.26074219 -9.70385742 16.26074219 C-9.70385742 15.60074219 -9.70385742 14.94074219 -9.70385742 14.26074219 C-10.36385742 14.26074219 -11.02385742 14.26074219 -11.70385742 14.26074219 C-11.70385742 13.60074219 -11.70385742 12.94074219 -11.70385742 12.26074219 C-12.36385742 12.26074219 -13.02385742 12.26074219 -13.70385742 12.26074219 C-13.70385742 11.60074219 -13.70385742 10.94074219 -13.70385742 10.26074219 C-14.36385742 10.26074219 -15.02385742 10.26074219 -15.70385742 10.26074219 C-15.70385742 9.60074219 -15.70385742 8.94074219 -15.70385742 8.26074219 C-16.36385742 8.26074219 -17.02385742 8.26074219 -17.70385742 8.26074219 C-17.70385742 7.60074219 -17.70385742 6.94074219 -17.70385742 6.26074219 C-20.67451252 6.60301791 -20.67451252 6.60301791 -23.70385742 7.26074219 C-24.03385742 7.92074219 -24.36385742 8.58074219 -24.70385742 9.26074219 C-27.00836262 9.89891286 -29.31882065 10.28111542 -31.67260742 10.69824219 C-32.67807617 10.97667969 -32.67807617 10.97667969 -33.70385742 11.26074219 C-34.03385742 11.92074219 -34.36385742 12.58074219 -34.70385742 13.26074219 C-37.76635742 13.88574219 -37.76635742 13.88574219 -40.70385742 14.26074219 C-41.03385742 13.27074219 -41.36385742 12.28074219 -41.70385742 11.26074219 C-35.75335248 7.10050378 -29.66013054 4.33224614 -22.70385742 2.26074219 C-22.11113037 2.07979004 -21.51840332 1.89883789 -20.90771484 1.71240234 C-14.02111562 -0.12109053 -7.07708206 -0.04301675 0 0 Z M1.29614258 4.26074219 C2.6429668 7.26892337 4.13595772 9.33951958 6.48364258 11.64355469 C7.09981445 12.25328125 7.71598633 12.86300781 8.35083008 13.49121094 C8.9927832 14.11640625 9.63473633 14.74160156 10.29614258 15.38574219 C11.25907227 16.33513672 11.25907227 16.33513672 12.24145508 17.30371094 C13.43060115 18.47544274 14.62179061 19.64510699 15.81567383 20.81201172 C16.98299723 21.95431005 18.14126393 23.10586354 19.29614258 24.26074219 C19.40402076 21.48887231 19.48337584 18.72118681 19.54614258 15.94824219 C19.5796582 15.16255859 19.61317383 14.376875 19.64770508 13.56738281 C19.79037253 9.06946117 19.79037253 9.06946117 17.73364258 5.22949219 C14.39947825 3.9043756 11.62251921 3.97389839 8.04614258 4.07324219 C6.78286133 4.1003125 5.51958008 4.12738281 4.21801758 4.15527344 C2.77168945 4.20748047 2.77168945 4.20748047 1.29614258 4.26074219 Z M-67.70385742 60.26074219 C-68.20935036 62.5049965 -68.20935036 62.5049965 -67.70385742 65.26074219 C-66.25464269 66.95573018 -64.70931547 68.38106747 -63.01635742 69.83105469 C-61.70385742 71.26074219 -61.70385742 71.26074219 -61.70385742 74.26074219 C-63.87259994 73.75470227 -65.70353369 73.26090405 -67.70385742 72.26074219 C-67.81212031 74.67861339 -67.89125531 77.09161774 -67.95385742 79.51074219 C-67.98737305 80.19265625 -68.02088867 80.87457031 -68.05541992 81.57714844 C-68.11889929 84.84633594 -67.90935753 86.92942569 -66.17260742 89.72949219 C-62.79216549 91.82622199 -59.79546282 91.69955455 -55.95385742 91.51074219 C-55.25647461 91.49269531 -54.5590918 91.47464844 -53.84057617 91.45605469 C-52.12774203 91.40912772 -50.41561918 91.33738824 -48.70385742 91.26074219 C-49.65429116 89.92176636 -50.61444889 88.58968791 -51.57885742 87.26074219 C-52.37936523 86.14699219 -52.37936523 86.14699219 -53.19604492 85.01074219 C-53.69362305 84.43324219 -54.19120117 83.85574219 -54.70385742 83.26074219 C-55.36385742 83.26074219 -56.02385742 83.26074219 -56.70385742 83.26074219 C-56.70385742 82.60074219 -56.70385742 81.94074219 -56.70385742 81.26074219 C-57.69385742 80.60074219 -58.68385742 79.94074219 -59.70385742 79.26074219 C-60.39135742 77.13574219 -60.39135742 77.13574219 -60.70385742 75.26074219 C-54.56428417 76.89718799 -51.03599667 81.90319709 -46.96362305 86.46972656 C-45.27670493 88.25988775 -43.72596829 89.85835656 -41.70385742 91.26074219 C-38.3485403 91.37194401 -38.3485403 91.37194401 -35.70385742 90.26074219 C-36.36385742 89.93074219 -37.02385742 89.60074219 -37.70385742 89.26074219 C-38.03385742 88.27074219 -38.36385742 87.28074219 -38.70385742 86.26074219 C-39.36385742 86.26074219 -40.02385742 86.26074219 -40.70385742 86.26074219 C-41.03385742 85.27074219 -41.36385742 84.28074219 -41.70385742 83.26074219 C-43.07900284 81.55197758 -43.07900284 81.55197758 -44.70385742 80.26074219 C-45.36385742 80.26074219 -46.02385742 80.26074219 -46.70385742 80.26074219 C-46.70385742 79.60074219 -46.70385742 78.94074219 -46.70385742 78.26074219 C-47.36385742 78.26074219 -48.02385742 78.26074219 -48.70385742 78.26074219 C-48.70385742 77.60074219 -48.70385742 76.94074219 -48.70385742 76.26074219 C-49.36385742 76.26074219 -50.02385742 76.26074219 -50.70385742 76.26074219 C-50.70385742 75.60074219 -50.70385742 74.94074219 -50.70385742 74.26074219 C-52.4590769 72.52381061 -52.4590769 72.52381061 -54.64135742 70.76074219 C-58.60264896 67.46315911 -58.60264896 67.46315911 -59.70385742 65.26074219 C-60.36385742 65.26074219 -61.02385742 65.26074219 -61.70385742 65.26074219 C-61.70385742 64.60074219 -61.70385742 63.94074219 -61.70385742 63.26074219 C-62.36385742 63.26074219 -63.02385742 63.26074219 -63.70385742 63.26074219 C-63.70385742 62.60074219 -63.70385742 61.94074219 -63.70385742 61.26074219 C-65.02385742 60.93074219 -66.34385742 60.60074219 -67.70385742 60.26074219 Z " fill="#B4B4B4" transform="translate(71.703857421875,-0.2607421875)"/>
<path d="M0 0 C0.99 0.66 1.98 1.32 3 2 C3.99 1.34 4.98 0.68 6 0 C9.125 -0.1875 9.125 -0.1875 12 0 C13 1 13 1 13.1875 4.375 C13 8 13 8 11 11 C11.66 11.66 12.32 12.32 13 13 C13.3633156 15.83386167 13.3568671 17.40522151 11.875 19.875 C9.07848948 21.55290631 7.06309468 20.74875648 4 20 C4.226875 20.928125 4.45375 21.85625 4.6875 22.8125 C5 26 5 26 3.875 27.875 C1.45234498 29.32859301 -0.22032768 29.21944781 -3 29 C-3.33 29 -3.66 29 -4 29 C-3.6596875 29.86625 -3.6596875 29.86625 -3.3125 30.75 C-3 33 -3 33 -4.125 35.25 C-6 37 -6 37 -8.5 37.375 C-11 37 -11 37 -14 35 C-14.66 35.66 -15.32 36.32 -16 37 C-21.48571429 38.25714286 -21.48571429 38.25714286 -24 37 C-24.25 29.375 -24.25 29.375 -22 26 C-22.99 24.68 -23.98 23.36 -25 22 C-22.57975798 17.28052805 -22.57975798 17.28052805 -20.0625 16.0625 C-17.52665842 15.98565632 -16.14522154 16.69754407 -14 18 C-14.33 17.01 -14.66 16.02 -15 15 C-15.66 14.67 -16.32 14.34 -17 14 C-16.01 12.02 -15.02 10.04 -14 8 C-11.69 8.33 -9.38 8.66 -7 9 C-7 6.66140564 -7.60856242 4.29969577 -8 2 C-4.75366476 -0.1642235 -3.75698557 -0.37569856 0 0 Z M-3 4 C-2.71125 4.5775 -2.4225 5.155 -2.125 5.75 C-1 8 -1 8 -0.1875 10.0625 C1.42716847 12.69695908 3.2510814 13.6590641 6 15 C6.99 15 7.98 15 9 15 C8.525625 14.5875 8.05125 14.175 7.5625 13.75 C6 12 6 12 5.625 9.9375 C5.41875 9.298125 5.2125 8.65875 5 8 C2.62374655 6.81608777 2.62374655 6.81608777 0 6 C-0.99 5.34 -1.98 4.68 -3 4 Z M-7 17 C-7 17.99 -7 18.98 -7 20 C-6.01 20 -5.02 20 -4 20 C-4 19.01 -4 18.02 -4 17 C-4.99 17 -5.98 17 -7 17 Z M-20 21 C-19.525625 21.5775 -19.05125 22.155 -18.5625 22.75 C-17 25 -17 25 -16.625 27.125 C-16.41875 27.74375 -16.2125 28.3625 -16 29 C-13.62374655 30.18391223 -13.62374655 30.18391223 -11 31 C-10.01 31.66 -9.02 32.32 -8 33 C-9.46966358 29.60140297 -11.38037514 27.35036291 -14 24.75 C-14.70125 24.04359375 -15.4025 23.3371875 -16.125 22.609375 C-17.84110768 20.78289601 -17.84110768 20.78289601 -20 21 Z " fill="#B4B4B4" transform="translate(53,29)"/>
</svg>
