<svg width="18" height="17" viewBox="0 0 18 17" fill="none" xmlns="http://www.w3.org/2000/svg">
<path d="M4.82634 10.7099C4.7169 10.7099 4.60852 10.7314 4.5074 10.7733C4.40629 10.8151 4.31441 10.8765 4.23702 10.9539C4.15963 11.0313 4.09825 11.1232 4.05638 11.2243C4.01451 11.3254 3.99298 11.4338 3.99301 11.5432V13.0285C2.91888 11.8137 2.32609 10.2481 2.32634 8.62656C2.32619 8.38148 2.34086 8.13662 2.37028 7.89332C2.38377 7.78452 2.37566 7.67413 2.34641 7.56847C2.31716 7.46281 2.26735 7.36396 2.19983 7.27759C2.13231 7.19122 2.0484 7.11902 1.95293 7.06513C1.85745 7.01124 1.75228 6.97672 1.64344 6.96355C1.5346 6.95038 1.42424 6.95882 1.31866 6.98838C1.21309 7.01794 1.11439 7.06805 1.02822 7.13582C0.942042 7.2036 0.870091 7.28771 0.816484 7.38335C0.762878 7.47898 0.728671 7.58425 0.715823 7.69313C0.678075 8.00284 0.659324 8.31456 0.659673 8.62656C0.660805 10.615 1.37547 12.5371 2.67373 14.0432H1.49301C1.27199 14.0432 1.06003 14.131 0.90375 14.2873C0.74747 14.4436 0.659673 14.6555 0.659673 14.8766C0.659673 15.0976 0.74747 15.3095 0.90375 15.4658C1.06003 15.6221 1.27199 15.7099 1.49301 15.7099H4.82634C4.95667 15.7083 5.08473 15.6755 5.19984 15.6144C5.31495 15.5532 5.41378 15.4655 5.48811 15.3584C5.49783 15.3456 5.51024 15.336 5.51929 15.3225C5.52484 15.3143 5.52499 15.3044 5.53017 15.296C5.56989 15.2289 5.59964 15.1564 5.61851 15.0807C5.63084 15.0383 5.6396 14.9948 5.6447 14.9508C5.64709 14.9251 5.6597 14.9029 5.6597 14.8766V11.5432C5.65973 11.4338 5.6382 11.3254 5.59633 11.2243C5.55446 11.1232 5.49307 11.0313 5.41568 10.9539C5.33829 10.8765 5.24641 10.8151 5.14529 10.7733C5.04417 10.7314 4.93579 10.7099 4.82634 10.7099ZM6.07634 3.62656H4.59095C5.80578 2.55248 7.37144 1.9597 8.99301 1.95989C9.23796 1.9593 9.48271 1.97398 9.72583 2.00384C9.83452 2.01704 9.94474 2.0087 10.0502 1.9793C10.1557 1.9499 10.2543 1.90002 10.3405 1.8325C10.4267 1.76498 10.4987 1.68114 10.5525 1.58578C10.6063 1.49042 10.6408 1.38539 10.654 1.27671C10.6672 1.16802 10.6588 1.0578 10.6294 0.952333C10.6 0.846869 10.5502 0.748228 10.4826 0.662042C10.4151 0.575856 10.3313 0.503813 10.2359 0.450027C10.1405 0.39624 10.0355 0.361764 9.92684 0.348565C9.61697 0.311183 9.30512 0.292701 8.99301 0.293224C7.00456 0.294305 5.08252 1.00892 3.57634 2.30713V1.12656C3.57634 0.905543 3.48854 0.693582 3.33226 0.537301C3.17598 0.381021 2.96402 0.293224 2.74301 0.293224C2.52199 0.293224 2.31003 0.381021 2.15375 0.537301C1.99747 0.693582 1.90967 0.905543 1.90967 1.12656V4.45989C1.91491 4.51497 1.92589 4.56935 1.94243 4.62215L1.94263 4.62317C1.96287 4.72571 2.00282 4.82335 2.06027 4.91067L2.06979 4.92475C2.12485 5.00484 2.19387 5.07437 2.27354 5.13003C2.28265 5.1367 2.28717 5.14692 2.29663 5.15327C2.30854 5.16116 2.32201 5.16366 2.33417 5.17087C2.38143 5.19931 2.43151 5.22276 2.48361 5.24087C2.55401 5.26537 2.62741 5.28018 2.70181 5.28492C2.71625 5.28568 2.72841 5.29325 2.74301 5.29325H6.07634C6.29735 5.29325 6.50931 5.20545 6.66559 5.04917C6.82188 4.89289 6.90967 4.68093 6.90967 4.45992C6.90967 4.2389 6.82188 4.02694 6.66559 3.87066C6.50931 3.71438 6.29735 3.62658 6.07634 3.62658V3.62656ZM16.0434 12.63C16.0232 12.5274 15.9832 12.4297 15.9257 12.3424L15.9163 12.3284C15.8612 12.2483 15.7921 12.1787 15.7124 12.123C15.7033 12.1164 15.6988 12.1061 15.6894 12.0998C15.6804 12.0939 15.6697 12.0937 15.6605 12.0881C15.5548 12.0293 15.439 11.991 15.3191 11.9752C15.2927 11.9727 15.27 11.9598 15.243 11.9598H11.9097C11.6887 11.9598 11.4767 12.0476 11.3204 12.2039C11.1641 12.3602 11.0763 12.5722 11.0763 12.7932C11.0763 13.0142 11.1641 13.2262 11.3204 13.3824C11.4767 13.5387 11.6887 13.6265 11.9097 13.6265H13.395C12.1802 14.7006 10.6146 15.2934 8.99301 15.2932C8.74804 15.2935 8.50328 15.2786 8.26017 15.2484C8.04067 15.2218 7.81957 15.2834 7.64551 15.4198C7.47145 15.5561 7.35869 15.7561 7.33203 15.9756C7.30538 16.1951 7.36701 16.4162 7.50337 16.5902C7.63974 16.7643 7.83966 16.877 8.05916 16.9037C8.36904 16.9411 8.68088 16.9598 8.99301 16.9598C10.9815 16.9588 12.9035 16.2442 14.4097 14.9459V16.1266C14.4097 16.3476 14.4975 16.5595 14.6538 16.7158C14.81 16.8721 15.022 16.9599 15.243 16.9599C15.464 16.9599 15.676 16.8721 15.8323 16.7158C15.9885 16.5595 16.0763 16.3476 16.0763 16.1266V12.7932C16.0711 12.7381 16.0601 12.6838 16.0436 12.631L16.0434 12.63ZM16.493 3.20989C16.714 3.20989 16.926 3.12209 17.0823 2.96581C17.2385 2.80953 17.3263 2.59757 17.3263 2.37656C17.3263 2.15554 17.2385 1.94358 17.0823 1.7873C16.926 1.63102 16.714 1.54322 16.493 1.54322H13.1597C13.1054 1.54845 13.0519 1.55926 12.9998 1.57547L12.9943 1.57659C12.8931 1.59684 12.7967 1.63631 12.7103 1.69287L12.694 1.7039C12.6143 1.75888 12.5451 1.82768 12.4896 1.90705C12.483 1.91605 12.4729 1.92047 12.4667 1.92978C12.4608 1.93873 12.4606 1.94932 12.455 1.95842C12.3955 2.06474 12.3569 2.18147 12.3413 2.3023C12.339 2.32804 12.3263 2.35021 12.3263 2.37656V5.70989C12.3263 5.9309 12.4141 6.14287 12.5704 6.29915C12.7267 6.45543 12.9387 6.54322 13.1597 6.54322C13.3807 6.54322 13.5926 6.45543 13.7489 6.29915C13.9052 6.14287 13.993 5.9309 13.993 5.70989V4.22416C15.067 5.43913 15.6598 7.00487 15.6597 8.62652C15.6598 8.87159 15.6452 9.11645 15.6157 9.35976C15.5893 9.57911 15.651 9.79998 15.7872 9.9739C15.9235 10.1478 16.1232 10.2606 16.3425 10.2875C16.3762 10.2914 16.4102 10.2933 16.4442 10.2932C16.6477 10.2929 16.844 10.2182 16.9962 10.0831C17.1483 9.94805 17.2458 9.76195 17.2702 9.55995C17.3079 9.25025 17.3267 8.93854 17.3263 8.62656C17.3252 6.63807 16.6105 4.71603 15.3122 3.20989H16.493Z" fill="#A0A0A0"/>
</svg>
