<svg width="15" height="16" viewBox="0 0 15 16" fill="none" xmlns="http://www.w3.org/2000/svg">
<path d="M6.60647 1.61218C5.04788 1.82019 3.50393 2.66394 2.5137 3.84753C1.64944 4.87878 1.15139 5.99499 0.981473 7.28699C0.922879 7.73523 0.925809 8.54382 0.984402 9.00964C1.31546 11.579 3.18167 13.744 5.68948 14.4677C6.84085 14.7987 8.168 14.7987 9.32522 14.4647C9.73538 14.3475 10.2364 14.1483 10.5762 13.9637C10.9658 13.7557 11.3291 13.5126 11.3789 13.4247C11.502 13.2137 11.376 12.9647 11.1328 12.9384C11.0127 12.9266 10.9805 12.9384 10.752 13.0907C10.0664 13.5419 9.24612 13.8583 8.39358 14.0018C7.98636 14.0721 7.04007 14.0721 6.63577 14.0048C5.32034 13.7792 4.20999 13.2167 3.32522 12.3319C1.54983 10.5507 1.08108 7.84363 2.15335 5.60827C2.47268 4.94617 2.82132 4.45105 3.32522 3.95007C5.64554 1.62683 9.37796 1.62976 11.7071 3.953C12.6856 4.93152 13.2862 6.21765 13.4209 7.64148C13.5381 8.88367 13.1895 10.2665 12.4893 11.3475C12.3018 11.6346 12.2725 11.7548 12.3604 11.8983C12.4541 12.0448 12.627 12.0887 12.794 12.0126C12.9698 11.9335 13.5147 10.9403 13.7373 10.287C14.2383 8.82214 14.209 7.19324 13.6612 5.76941C12.794 3.52527 10.752 1.91687 8.37014 1.60632C7.93655 1.55066 7.04593 1.55359 6.60647 1.61218Z" fill="#A0A0A0"/>
<path d="M7.01653 2.82519C6.63274 2.86035 6.1845 2.95703 5.80364 3.08594C5.39056 3.22656 5.31731 3.28808 5.31731 3.49902C5.31731 3.63086 5.32903 3.65723 5.41399 3.7334C5.5429 3.84766 5.63079 3.84473 6.0556 3.70117C6.24896 3.63672 6.57122 3.55762 6.77044 3.52246C7.48528 3.39941 8.3847 3.47851 9.06732 3.72168C10.412 4.20215 11.5077 5.32715 11.9501 6.68066C12.1288 7.22852 12.1728 7.52148 12.1699 8.16894C12.1699 8.62598 12.1581 8.77832 12.1054 9.02734C11.9882 9.56641 11.8329 9.98535 11.5839 10.4336L11.4784 10.6182L11.2968 10.4453C10.9394 10.0996 10.4765 9.85645 9.96673 9.74219C9.76458 9.69824 9.51263 9.69238 7.52923 9.69238C5.19427 9.69238 5.12688 9.69531 4.73431 9.83008C4.36517 9.95605 4.08978 10.1201 3.74407 10.4189C3.50677 10.624 3.53606 10.6387 3.31341 10.1904C3.14349 9.84473 3.01458 9.46973 2.92376 9.05371C2.8681 8.7959 2.85638 8.66992 2.85931 8.13965C2.85931 7.44824 2.90032 7.18457 3.09075 6.63379C3.21966 6.26758 3.22259 6.16504 3.10833 6.03906C3.03216 5.9541 3.00579 5.94238 2.87396 5.94238C2.66302 5.94238 2.60149 6.01562 2.46087 6.42871C2.0888 7.5332 2.08294 8.70508 2.44622 9.81543C2.96771 11.4004 4.22454 12.6602 5.81829 13.1904C6.46868 13.4072 6.68548 13.4395 7.49993 13.4424C8.1386 13.4424 8.25286 13.4336 8.53997 13.375C10.6845 12.9268 12.3134 11.3008 12.7441 9.17969C12.8642 8.58496 12.8642 7.69727 12.7441 7.09961C12.2695 4.75 10.3417 3.03027 7.95403 2.82519C7.55853 2.79004 7.39739 2.79004 7.01653 2.82519ZM10.0634 10.4482C10.1923 10.4951 10.3827 10.5801 10.4882 10.6445C10.6757 10.7559 11.0742 11.0957 11.0742 11.1455C11.0742 11.1895 10.7167 11.5527 10.5029 11.7285C9.89056 12.2295 9.19915 12.5605 8.40814 12.7275C7.98919 12.8184 7.13372 12.8242 6.69427 12.7422C6.05853 12.625 5.4345 12.3672 4.88079 11.998C4.59661 11.8076 3.95501 11.2275 3.95501 11.1602C3.95501 11.1133 4.26263 10.8174 4.43255 10.7061C4.62884 10.5742 4.872 10.4658 5.11224 10.4072C5.29974 10.3604 5.5136 10.3545 7.57317 10.3604L9.82903 10.3662L10.0634 10.4482Z" fill="#A0A0A0"/>
<path d="M7.20703 4.69721C6.47461 4.79975 5.8125 5.29194 5.51074 5.96284C5.36426 6.2851 5.32031 6.49311 5.32031 6.87983C5.32031 7.30463 5.36719 7.50092 5.55762 7.89057C5.67188 8.12495 5.73633 8.20991 5.95898 8.43549C6.18457 8.65815 6.26953 8.7226 6.50391 8.83686C6.84082 9.00385 7.05176 9.05952 7.39746 9.08295C8.75391 9.16792 9.88184 7.9521 9.69727 6.60151C9.57422 5.7021 8.93848 4.97846 8.07715 4.75874C7.80762 4.68842 7.45605 4.66499 7.20703 4.69721ZM7.89258 5.38862C8.15625 5.456 8.39941 5.59663 8.59863 5.79585C9.29883 6.49604 9.17285 7.65034 8.33789 8.1894C7.86328 8.49702 7.19238 8.50581 6.72363 8.20991C6.24609 7.91108 5.97656 7.4394 5.97656 6.89741C5.97656 6.44624 6.1084 6.12104 6.41602 5.80756C6.80566 5.40913 7.3623 5.25092 7.89258 5.38862Z" fill="#A0A0A0"/>
<path d="M11.7863 12.2734C11.7336 12.2997 11.6721 12.3642 11.6457 12.4228C11.4875 12.7538 11.9123 13.0497 12.173 12.7919C12.3254 12.6367 12.2814 12.3642 12.0851 12.2734C11.965 12.2148 11.9064 12.2148 11.7863 12.2734Z" fill="#A0A0A0"/>
</svg>
