<svg width="18" height="19" viewBox="0 0 18 19" fill="none" xmlns="http://www.w3.org/2000/svg">
<path d="M8.99984 15.4583C9.16466 15.4583 9.32577 15.4094 9.46281 15.3178C9.59985 15.2262 9.70666 15.0961 9.76974 14.9438C9.83281 14.7915 9.84931 14.624 9.81716 14.4623C9.785 14.3007 9.70564 14.1522 9.58909 14.0357C9.47255 13.9191 9.32406 13.8398 9.16241 13.8076C9.00076 13.7754 8.83321 13.7919 8.68093 13.855C8.52866 13.9181 8.39851 14.0249 8.30695 14.1619C8.21538 14.299 8.1665 14.4601 8.1665 14.6249C8.1665 14.8459 8.2543 15.0579 8.41058 15.2142C8.56686 15.3705 8.77882 15.4583 8.99984 15.4583ZM13.1665 15.4583C13.3313 15.4583 13.4924 15.4094 13.6295 15.3178C13.7665 15.2262 13.8733 15.0961 13.9364 14.9438C13.9995 14.7915 14.016 14.624 13.9838 14.4623C13.9517 14.3007 13.8723 14.1522 13.7558 14.0357C13.6392 13.9191 13.4907 13.8398 13.3291 13.8076C13.1674 13.7754 12.9999 13.7919 12.8476 13.855C12.6953 13.9181 12.5652 14.0249 12.4736 14.1619C12.382 14.299 12.3332 14.4601 12.3332 14.6249C12.3332 14.8459 12.421 15.0579 12.5772 15.2142C12.7335 15.3705 12.9455 15.4583 13.1665 15.4583ZM13.1665 12.1249C13.3313 12.1249 13.4924 12.076 13.6295 11.9845C13.7665 11.8929 13.8733 11.7628 13.9364 11.6105C13.9995 11.4582 14.016 11.2907 13.9838 11.129C13.9517 10.9674 13.8723 10.8189 13.7558 10.7023C13.6392 10.5858 13.4907 10.5064 13.3291 10.4743C13.1674 10.4421 12.9999 10.4586 12.8476 10.5217C12.6953 10.5848 12.5652 10.6916 12.4736 10.8286C12.382 10.9656 12.3332 11.1268 12.3332 11.2916C12.3332 11.5126 12.421 11.7246 12.5772 11.8808C12.7335 12.0371 12.9455 12.1249 13.1665 12.1249ZM8.99984 12.1249C9.16466 12.1249 9.32577 12.076 9.46281 11.9845C9.59985 11.8929 9.70666 11.7628 9.76974 11.6105C9.83281 11.4582 9.84931 11.2907 9.81716 11.129C9.785 10.9674 9.70564 10.8189 9.58909 10.7023C9.47255 10.5858 9.32406 10.5064 9.16241 10.4743C9.00076 10.4421 8.83321 10.4586 8.68093 10.5217C8.52866 10.5848 8.39851 10.6916 8.30695 10.8286C8.21538 10.9656 8.1665 11.1268 8.1665 11.2916C8.1665 11.5126 8.2543 11.7246 8.41058 11.8808C8.56686 12.0371 8.77882 12.1249 8.99984 12.1249ZM14.8332 2.12492H13.9998V1.29159C13.9998 1.07057 13.912 0.85861 13.7558 0.70233C13.5995 0.546049 13.3875 0.458252 13.1665 0.458252C12.9455 0.458252 12.7335 0.546049 12.5772 0.70233C12.421 0.85861 12.3332 1.07057 12.3332 1.29159V2.12492H5.6665V1.29159C5.6665 1.07057 5.57871 0.85861 5.42243 0.70233C5.26615 0.546049 5.05418 0.458252 4.83317 0.458252C4.61216 0.458252 4.4002 0.546049 4.24392 0.70233C4.08764 0.85861 3.99984 1.07057 3.99984 1.29159V2.12492H3.1665C2.50346 2.12492 1.86758 2.38831 1.39874 2.85715C0.929896 3.32599 0.666504 3.96188 0.666504 4.62492V16.2916C0.666504 16.9546 0.929896 17.5905 1.39874 18.0594C1.86758 18.5282 2.50346 18.7916 3.1665 18.7916H14.8332C15.4962 18.7916 16.1321 18.5282 16.6009 18.0594C17.0698 17.5905 17.3332 16.9546 17.3332 16.2916V4.62492C17.3332 3.96188 17.0698 3.32599 16.6009 2.85715C16.1321 2.38831 15.4962 2.12492 14.8332 2.12492ZM15.6665 16.2916C15.6665 16.5126 15.5787 16.7246 15.4224 16.8808C15.2661 17.0371 15.0542 17.1249 14.8332 17.1249H3.1665C2.94549 17.1249 2.73353 17.0371 2.57725 16.8808C2.42097 16.7246 2.33317 16.5126 2.33317 16.2916V8.79158H15.6665V16.2916ZM15.6665 7.12492H2.33317V4.62492C2.33317 4.4039 2.42097 4.19194 2.57725 4.03566C2.73353 3.87938 2.94549 3.79158 3.1665 3.79158H3.99984V4.62492C3.99984 4.84593 4.08764 5.05789 4.24392 5.21417C4.4002 5.37045 4.61216 5.45825 4.83317 5.45825C5.05418 5.45825 5.26615 5.37045 5.42243 5.21417C5.57871 5.05789 5.6665 4.84593 5.6665 4.62492V3.79158H12.3332V4.62492C12.3332 4.84593 12.421 5.05789 12.5772 5.21417C12.7335 5.37045 12.9455 5.45825 13.1665 5.45825C13.3875 5.45825 13.5995 5.37045 13.7558 5.21417C13.912 5.05789 13.9998 4.84593 13.9998 4.62492V3.79158H14.8332C15.0542 3.79158 15.2661 3.87938 15.4224 4.03566C15.5787 4.19194 15.6665 4.4039 15.6665 4.62492V7.12492ZM4.83317 12.1249C4.99799 12.1249 5.1591 12.076 5.29615 11.9845C5.43319 11.8929 5.54 11.7628 5.60307 11.6105C5.66614 11.4582 5.68265 11.2907 5.65049 11.129C5.61834 10.9674 5.53897 10.8189 5.42243 10.7023C5.30588 10.5858 5.1574 10.5064 4.99575 10.4743C4.8341 10.4421 4.66654 10.4586 4.51427 10.5217C4.362 10.5848 4.23185 10.6916 4.14028 10.8286C4.04871 10.9656 3.99984 11.1268 3.99984 11.2916C3.99984 11.5126 4.08764 11.7246 4.24392 11.8808C4.4002 12.0371 4.61216 12.1249 4.83317 12.1249ZM4.83317 15.4583C4.99799 15.4583 5.1591 15.4094 5.29615 15.3178C5.43319 15.2262 5.54 15.0961 5.60307 14.9438C5.66614 14.7915 5.68265 14.624 5.65049 14.4623C5.61834 14.3007 5.53897 14.1522 5.42243 14.0357C5.30588 13.9191 5.1574 13.8398 4.99575 13.8076C4.8341 13.7754 4.66654 13.7919 4.51427 13.855C4.362 13.9181 4.23185 14.0249 4.14028 14.1619C4.04871 14.299 3.99984 14.4601 3.99984 14.6249C3.99984 14.8459 4.08764 15.0579 4.24392 15.2142C4.4002 15.3705 4.61216 15.4583 4.83317 15.4583Z" fill="#A0A0A0"/>
</svg>
