<svg width="21" height="12" viewBox="0 0 21 12" fill="none" xmlns="http://www.w3.org/2000/svg">
<path d="M1.48779 0C1.29001 0 1.09667 0.0586491 0.932223 0.16853C0.767774 0.278412 0.639602 0.434591 0.563914 0.617317C0.488226 0.800043 0.468423 1.00111 0.507008 1.19509C0.545593 1.38907 0.640834 1.56725 0.780687 1.70711C0.920539 1.84696 1.09872 1.9422 1.2927 1.98079C1.48668 2.01937 1.68775 1.99957 1.87048 1.92388C2.0532 1.84819 2.20938 1.72002 2.31926 1.55557C2.42914 1.39112 2.48779 1.19778 2.48779 1C2.48779 0.734784 2.38244 0.48043 2.1949 0.292893C2.00736 0.105357 1.75301 0 1.48779 0ZM5.48779 2H19.4878C19.753 2 20.0074 1.89464 20.1949 1.70711C20.3824 1.51957 20.4878 1.26522 20.4878 1C20.4878 0.734784 20.3824 0.48043 20.1949 0.292893C20.0074 0.105357 19.753 0 19.4878 0H5.48779C5.22258 0 4.96822 0.105357 4.78069 0.292893C4.59315 0.48043 4.48779 0.734784 4.48779 1C4.48779 1.26522 4.59315 1.51957 4.78069 1.70711C4.96822 1.89464 5.22258 2 5.48779 2ZM5.48779 5C5.29001 5 5.09667 5.05865 4.93222 5.16853C4.76777 5.27841 4.6396 5.43459 4.56391 5.61732C4.48823 5.80004 4.46842 6.00111 4.50701 6.19509C4.54559 6.38907 4.64083 6.56725 4.78069 6.70711C4.92054 6.84696 5.09872 6.9422 5.2927 6.98079C5.48668 7.01937 5.68775 6.99957 5.87048 6.92388C6.0532 6.84819 6.20938 6.72002 6.31926 6.55557C6.42914 6.39112 6.48779 6.19778 6.48779 6C6.48779 5.73478 6.38244 5.48043 6.1949 5.29289C6.00736 5.10536 5.75301 5 5.48779 5ZM9.48779 10C9.29001 10 9.09667 10.0586 8.93222 10.1685C8.76777 10.2784 8.6396 10.4346 8.56391 10.6173C8.48823 10.8 8.46842 11.0011 8.50701 11.1951C8.54559 11.3891 8.64083 11.5673 8.78069 11.7071C8.92054 11.847 9.09872 11.9422 9.2927 11.9808C9.48668 12.0194 9.68775 11.9996 9.87048 11.9239C10.0532 11.8482 10.2094 11.72 10.3193 11.5556C10.4291 11.3911 10.4878 11.1978 10.4878 11C10.4878 10.7348 10.3824 10.4804 10.1949 10.2929C10.0074 10.1054 9.75301 10 9.48779 10ZM19.4878 5H9.48779C9.22258 5 8.96822 5.10536 8.78069 5.29289C8.59315 5.48043 8.48779 5.73478 8.48779 6C8.48779 6.26522 8.59315 6.51957 8.78069 6.70711C8.96822 6.89464 9.22258 7 9.48779 7H19.4878C19.753 7 20.0074 6.89464 20.1949 6.70711C20.3824 6.51957 20.4878 6.26522 20.4878 6C20.4878 5.73478 20.3824 5.48043 20.1949 5.29289C20.0074 5.10536 19.753 5 19.4878 5ZM19.4878 10H13.4878C13.2226 10 12.9682 10.1054 12.7807 10.2929C12.5932 10.4804 12.4878 10.7348 12.4878 11C12.4878 11.2652 12.5932 11.5196 12.7807 11.7071C12.9682 11.8946 13.2226 12 13.4878 12H19.4878C19.753 12 20.0074 11.8946 20.1949 11.7071C20.3824 11.5196 20.4878 11.2652 20.4878 11C20.4878 10.7348 20.3824 10.4804 20.1949 10.2929C20.0074 10.1054 19.753 10 19.4878 10Z" fill="#A0A0A0"/>
</svg>
