<svg width="21" height="20" viewBox="0 0 21 20" fill="none" xmlns="http://www.w3.org/2000/svg">
<path d="M19.9878 0H1.98779C1.72258 0 1.46822 0.105357 1.28069 0.292893C1.09315 0.48043 0.987793 0.734784 0.987793 1V19C0.987793 19.2652 1.09315 19.5196 1.28069 19.7071C1.46822 19.8946 1.72258 20 1.98779 20H19.9878C20.253 20 20.5074 19.8946 20.6949 19.7071C20.8824 19.5196 20.9878 19.2652 20.9878 19V1C20.9878 0.734784 20.8824 0.48043 20.6949 0.292893C20.5074 0.105357 20.253 0 19.9878 0ZM9.98779 18H2.98779V14H9.98779V18ZM9.98779 12H2.98779V8H9.98779V12ZM18.9878 18H11.9878V14H18.9878V18ZM18.9878 12H11.9878V8H18.9878V12ZM18.9878 6H2.98779V2H18.9878V6Z" fill="#A0A0A0"/>
</svg>
