<svg width="18" height="22" viewBox="0 0 18 22" fill="none" xmlns="http://www.w3.org/2000/svg">
<path d="M17.4479 8.62983C17.3182 7.27166 16.8636 5.96466 16.1223 4.81926C15.381 3.67386 14.3749 2.72373 13.189 2.04916C12.0031 1.37458 10.6722 0.99539 9.30885 0.943622C7.94549 0.891853 6.5897 1.16903 5.35605 1.75173C4.1224 2.33443 3.04714 3.20553 2.22114 4.29141C1.39514 5.3773 0.842661 6.64607 0.610401 7.99049C0.37814 9.33492 0.47292 10.7155 0.88673 12.0156C1.30054 13.3157 2.02122 14.497 2.98787 15.4598L8.28787 20.7698C8.38083 20.8636 8.49143 20.938 8.61329 20.9887C8.73515 21.0395 8.86586 21.0656 8.99787 21.0656C9.12988 21.0656 9.26059 21.0395 9.38245 20.9887C9.50431 20.938 9.61491 20.8636 9.70787 20.7698L14.9879 15.4598C15.8791 14.5753 16.5622 13.5035 16.9877 12.3221C17.4132 11.1407 17.5704 9.87949 17.4479 8.62983ZM13.5879 14.0498L8.98787 18.6498L4.38787 14.0498C3.70996 13.3719 3.19067 12.5522 2.86734 11.6496C2.544 10.747 2.42465 9.78403 2.51787 8.82983C2.61169 7.86094 2.91963 6.92499 3.41944 6.08968C3.91925 5.25436 4.59843 4.54054 5.40787 3.99983C6.46881 3.29507 7.71418 2.91913 8.98787 2.91913C10.2616 2.91913 11.5069 3.29507 12.5679 3.99983C13.3749 4.53845 14.0525 5.24911 14.5522 6.08077C15.0519 6.91243 15.3612 7.84443 15.4579 8.80983C15.5541 9.76726 15.4363 10.7341 15.1129 11.6404C14.7894 12.5467 14.2685 13.3697 13.5879 14.0498ZM10.7779 5.24983C10.6849 5.1561 10.5743 5.08171 10.4524 5.03094C10.3306 4.98017 10.1999 4.95403 10.0679 4.95403C9.93586 4.95403 9.80515 4.98017 9.68329 5.03094C9.56143 5.08171 9.45083 5.1561 9.35787 5.24983L5.77787 8.82983C5.59313 9.01609 5.48897 9.26749 5.48787 9.52983V11.9998C5.48787 12.265 5.59323 12.5194 5.78076 12.7069C5.9683 12.8945 6.22265 12.9998 6.48787 12.9998H8.90787C9.03948 13.0006 9.16994 12.9754 9.29178 12.9256C9.41361 12.8758 9.52443 12.8025 9.61787 12.7098L13.1979 9.12983C13.3841 8.94247 13.4887 8.68902 13.4887 8.42483C13.4887 8.16065 13.3841 7.9072 13.1979 7.71983L10.7779 5.24983ZM8.49787 10.9998H7.49787V9.99983L10.0779 7.41983L11.0779 8.41983L8.49787 10.9998Z" fill="#A0A0A0"/>
</svg>
