<svg width="40" height="40" viewBox="0 0 40 40" fill="none" xmlns="http://www.w3.org/2000/svg">
<path d="M30.4298 0.484541C30.3126 0.757978 30.2032 1.01579 30.1798 1.06267C30.1641 1.11735 30.4766 1.32829 30.9063 1.55485C33.0235 2.67204 34.711 4.3986 35.7501 6.5236C36.5704 8.20329 36.8907 9.59392 36.8985 11.4064C36.9063 12.8517 36.7735 13.6877 36.3282 15.0314C36.1563 15.5392 36.0157 15.9611 36.0157 15.9689C36.0157 16.008 37.1954 16.5002 37.2188 16.4767C37.2344 16.4611 37.3516 16.1642 37.4844 15.8205C38.6954 12.6095 38.4688 8.84392 36.8594 5.71892C35.9376 3.92985 34.3985 2.17985 32.7813 1.10954C31.9141 0.523603 30.9454 0.000165939 30.7579 0.000165939C30.6954 0.000165939 30.5469 0.218916 30.4298 0.484541Z" fill="white"/>
<path d="M9.94531 7.95312L0 15.8203V27.9062V40H20H40V28.0859V16.1719H39.375H38.75V17.5312V18.8906L29.4219 23.7031C24.2969 26.3516 20.0547 28.5156 20 28.5156C19.9531 28.5156 15.7109 26.3516 10.5781 23.7031L1.24219 18.8828L1.26562 17.7109L1.28906 16.5312L10.6172 9.16406C15.7422 5.10938 19.9688 1.79688 20 1.79688C20.0391 1.79688 20.3984 2.0625 20.8047 2.38281C21.2188 2.70312 21.5703 2.96875 21.5859 2.96875C21.6484 2.96875 22.4453 1.95312 22.4141 1.92188C20.9062 0.726562 20.0547 0.078125 19.9844 0.0859375C19.9297 0.0859375 15.4062 3.63281 9.94531 7.95312ZM10.375 25.1172C14.8594 27.4297 18.5156 29.3281 18.5 29.3359C18.4453 29.3828 1.32812 38.2031 1.28906 38.2031C1.26562 38.2031 1.25 34.1953 1.25 29.2969V20.3828L1.74219 20.6484C2.00781 20.7969 5.89062 22.8047 10.375 25.1172ZM38.7188 38.1797C38.7031 38.1953 34.8984 36.2578 30.2656 33.8594C25.625 31.4688 21.75 29.4688 21.6484 29.4141C21.4844 29.3281 22.1562 28.9688 30.0859 24.875L38.7109 20.4297L38.7344 29.2891C38.7422 34.1641 38.7344 38.1641 38.7188 38.1797ZM28.3203 34.375L36.5703 38.6328L28.2812 38.6562C23.7266 38.6641 16.2734 38.6641 11.7188 38.6562L3.4375 38.6328L11.6953 34.3594C16.2422 32.0078 19.9844 30.0938 20.0156 30.1016C20.0469 30.1094 23.7891 32.0312 28.3203 34.375Z" fill="white"/>
<path d="M22.1953 4.34375C21.8906 4.97656 21.4922 5.72656 21.3125 6.00781C19.9922 8.10938 18.0156 9.89844 15.8281 10.9766C15.3516 11.2031 13.4688 11.9844 11.6406 12.7031C9.81251 13.4141 8.29688 14.0313 8.25782 14.0547C8.21095 14.1016 10.4063 19.8047 10.5156 19.9141C10.5313 19.9297 11.0625 19.7422 11.6875 19.5C12.3125 19.25 12.8359 19.0625 12.8516 19.0781C12.8594 19.0938 13.3203 20.25 13.8672 21.6563C14.4219 23.0703 14.9141 24.2188 14.9609 24.2188C15.1172 24.2188 18.3906 22.9063 18.4141 22.8359C18.4297 22.7969 18 21.6563 17.4609 20.2969C16.9219 18.9297 16.4766 17.7734 16.4688 17.7266C16.4219 17.5234 18.6406 16.7969 20.0781 16.5469C20.8516 16.4141 23.375 16.4141 24.1406 16.5547C25.4063 16.7734 26.6016 17.1406 27.8828 17.6875C28.25 17.8359 28.5625 17.9531 28.5781 17.9297C28.6172 17.8984 22.9063 3.35938 22.8125 3.25781C22.7813 3.21875 22.5 3.71094 22.1953 4.34375ZM24.4766 11.0859C25.4531 13.5547 26.2344 15.5859 26.2188 15.6016C26.2031 15.6172 25.9844 15.5781 25.7344 15.5156C24.5859 15.2188 23.7188 15.125 22.1094 15.1328C20.3594 15.1328 19.3984 15.2578 18.0078 15.6719C17.625 15.7813 17.25 15.8906 17.1875 15.9063C17.1016 15.9297 16.9141 15.5313 16.4219 14.2813C16.0703 13.3672 15.7813 12.5781 15.7813 12.5391C15.7813 12.4922 15.9844 12.375 16.2344 12.2656C16.8359 12.0078 18.1172 11.2266 18.8281 10.6875C20.1016 9.72656 21.4766 8.26563 22.3047 6.97656C22.4766 6.71094 22.6406 6.51563 22.6641 6.54688C22.6875 6.57813 23.5078 8.61719 24.4766 11.0859ZM15.1406 14.6719C15.4922 15.5703 15.7813 16.3359 15.7813 16.375C15.7813 16.4297 12.9531 17.5859 11.3984 18.1641C11.2891 18.2031 11.1563 17.9297 10.625 16.5859C10.2734 15.6953 9.98438 14.9297 9.97657 14.8906C9.96095 14.8281 14.2031 13.0781 14.4219 13.0547C14.4688 13.0469 14.7891 13.7813 15.1406 14.6719ZM15.9609 20.1563C16.375 21.2031 16.6875 22.0859 16.6563 22.1172C16.5547 22.2031 15.6953 22.5234 15.6641 22.4844C15.6406 22.4688 15.2813 21.5781 14.8594 20.5L14.0859 18.5547L14.6016 18.3438C14.8828 18.2344 15.1406 18.1641 15.1641 18.1875C15.1953 18.2188 15.5547 19.1016 15.9609 20.1563Z" fill="white"/>
<path d="M28.9141 3.98448C28.7813 4.28916 28.6719 4.54698 28.6719 4.5626C28.6719 4.57823 28.9297 4.73448 29.25 4.91416C31.0781 5.91416 32.4063 7.6251 32.9375 9.64854C33.1016 10.2735 33.1406 10.6173 33.1484 11.4064C33.1563 12.4376 33.0781 12.9454 32.7578 13.8907C32.6484 14.211 32.5781 14.4767 32.5938 14.4923C32.6484 14.5392 33.7734 15.0001 33.7891 14.9845C33.8047 14.9689 33.8984 14.711 34.0078 14.4142C34.6016 12.7579 34.6641 10.797 34.1719 9.07823C33.9375 8.22666 33.25 6.83604 32.7422 6.16416C32.2578 5.53135 31.3438 4.65635 30.7344 4.24229C30.2109 3.89073 29.3828 3.4376 29.25 3.4376C29.2031 3.4376 29.0547 3.6876 28.9141 3.98448Z" fill="white"/>
<path d="M27.4608 7.32009C27.1327 8.05446 27.1327 8.0779 27.5155 8.24977C27.9843 8.46071 28.7421 9.24196 29.0077 9.78884C29.3515 10.4998 29.4843 11.2498 29.3827 11.9373C29.3358 12.2576 29.2577 12.5779 29.2187 12.656C29.0468 12.9763 29.1093 13.0232 30.2812 13.492C30.328 13.5076 30.4452 13.2654 30.5468 12.9138C30.8124 12.031 30.8046 10.8357 30.5233 9.96071C30.2577 9.15602 29.8749 8.5154 29.2812 7.92165C28.8437 7.47634 27.9687 6.87477 27.7577 6.87477C27.7108 6.87477 27.578 7.0779 27.4608 7.32009Z" fill="white"/>
<path d="M7.17193 16.4686C6.89068 16.5858 6.63287 16.7029 6.60943 16.7264C6.5235 16.8045 7.48443 19.1014 7.59381 19.0779C7.94537 18.9998 8.75006 18.6326 8.72662 18.5623C8.09381 16.9842 7.78912 16.2498 7.74225 16.2576C7.71881 16.2576 7.461 16.3514 7.17193 16.4686Z" fill="white"/>
</svg>
