<?xml version="1.0" encoding="UTF-8"?>
<svg xmlns="http://www.w3.org/2000/svg" xmlns:xlink="http://www.w3.org/1999/xlink" width="17px" height="17px" viewBox="0 0 17 17" version="1.1">
<g id="surface1">
<path style=" stroke:none;fill-rule:nonzero;fill:rgb(0%,90.980392%,5.490196%);fill-opacity:1;" d="M 10.09375 0.898438 C 10.140625 0.90625 10.140625 0.90625 10.191406 0.917969 C 11.753906 1.261719 13.28125 2.113281 14.3125 3.351562 C 14.335938 3.382812 14.363281 3.414062 14.390625 3.445312 C 14.792969 3.90625 15.125 4.402344 15.40625 4.945312 C 15.417969 4.972656 15.433594 4.996094 15.445312 5.019531 C 16.003906 6.097656 16.25 7.289062 16.25 8.496094 C 16.25 8.527344 16.25 8.558594 16.25 8.589844 C 16.246094 9.101562 16.214844 9.59375 16.101562 10.09375 C 16.097656 10.125 16.089844 10.152344 16.085938 10.183594 C 15.796875 11.527344 15.136719 12.792969 14.179688 13.78125 C 14.152344 13.804688 14.128906 13.828125 14.105469 13.855469 C 12.746094 15.269531 10.898438 16.191406 8.914062 16.246094 C 8.769531 16.25 8.628906 16.25 8.484375 16.25 C 8.453125 16.25 8.421875 16.25 8.390625 16.25 C 7.886719 16.246094 7.402344 16.210938 6.90625 16.101562 C 6.875 16.097656 6.847656 16.089844 6.816406 16.085938 C 5.03125 15.699219 3.265625 14.601562 2.226562 13.082031 C 2.210938 13.0625 2.199219 13.042969 2.183594 13.023438 C 1.964844 12.710938 1.769531 12.390625 1.59375 12.054688 C 1.582031 12.03125 1.570312 12.007812 1.554688 11.980469 C 1.253906 11.398438 1.042969 10.769531 0.898438 10.125 C 0.890625 10.082031 0.890625 10.082031 0.878906 10.039062 C 0.773438 9.527344 0.75 9.015625 0.753906 8.492188 C 0.753906 8.464844 0.753906 8.433594 0.753906 8.402344 C 0.761719 6.457031 1.5 4.589844 2.855469 3.1875 C 2.878906 3.164062 2.902344 3.140625 2.925781 3.117188 C 3.238281 2.792969 3.550781 2.484375 3.917969 2.226562 C 3.9375 2.210938 3.957031 2.195312 3.976562 2.183594 C 4.914062 1.523438 5.953125 1.085938 7.070312 0.863281 C 7.117188 0.855469 7.117188 0.855469 7.160156 0.84375 C 8.101562 0.664062 9.160156 0.695312 10.09375 0.898438 Z M 8.296875 1.296875 C 7.1875 1.320312 6.050781 1.621094 5.078125 2.15625 C 5.058594 2.171875 5.035156 2.183594 5.011719 2.195312 C 4.632812 2.402344 4.289062 2.648438 3.953125 2.921875 C 3.929688 2.9375 3.910156 2.953125 3.890625 2.972656 C 2.53125 4.070312 1.582031 5.765625 1.359375 7.503906 C 1.34375 7.691406 1.335938 7.878906 1.328125 8.070312 C 1.878906 8.339844 2.421875 8.574219 3.007812 8.753906 C 3.039062 8.761719 3.070312 8.773438 3.097656 8.78125 C 3.652344 8.941406 4.226562 9.015625 4.800781 9.070312 C 4.9375 9.082031 5.078125 9.097656 5.214844 9.109375 C 5.320312 9.121094 5.429688 9.132812 5.535156 9.144531 C 6.351562 9.226562 7.164062 9.316406 7.976562 9.433594 C 8.003906 9.4375 8.03125 9.441406 8.0625 9.445312 C 8.242188 9.472656 8.421875 9.5 8.601562 9.53125 C 8.625 9.535156 8.648438 9.539062 8.675781 9.542969 C 8.976562 9.589844 9.269531 9.648438 9.5625 9.75 C 9.613281 9.765625 9.613281 9.765625 9.664062 9.785156 C 10.125 9.945312 10.53125 10.160156 10.890625 10.492188 C 10.914062 10.511719 10.9375 10.535156 10.960938 10.554688 C 11.589844 11.148438 11.898438 11.976562 12.019531 12.816406 C 12.023438 12.835938 12.027344 12.859375 12.027344 12.878906 C 12.0625 13.132812 12.058594 13.390625 12.058594 13.648438 C 12.058594 13.683594 12.058594 13.683594 12.058594 13.71875 C 12.058594 14.074219 12.046875 14.425781 11.984375 14.773438 C 12.78125 14.363281 13.53125 13.765625 14.078125 13.046875 C 14.101562 13.019531 14.128906 12.988281 14.15625 12.953125 C 14.5 12.523438 14.789062 12.046875 15.027344 11.546875 C 15.042969 11.519531 15.054688 11.492188 15.070312 11.464844 C 15.15625 11.277344 15.21875 11.089844 15.273438 10.890625 C 15.253906 10.882812 15.234375 10.878906 15.214844 10.871094 C 13.777344 10.378906 12.566406 9.441406 11.875 8.066406 C 11.832031 7.980469 11.792969 7.890625 11.753906 7.804688 C 11.742188 7.777344 11.730469 7.75 11.71875 7.726562 C 11.414062 7.019531 11.273438 6.304688 11.140625 5.550781 C 10.890625 4.128906 10.148438 2.824219 9.210938 1.746094 C 9.164062 1.695312 9.121094 1.640625 9.082031 1.585938 C 8.90625 1.371094 8.90625 1.371094 8.652344 1.285156 C 8.535156 1.289062 8.414062 1.296875 8.296875 1.296875 Z M 9.695312 1.429688 C 9.757812 1.539062 9.828125 1.636719 9.910156 1.734375 C 10.886719 2.945312 11.472656 4.324219 11.738281 5.851562 C 11.988281 7.289062 12.605469 8.710938 13.832031 9.582031 C 13.957031 9.667969 14.082031 9.75 14.210938 9.828125 C 14.246094 9.851562 14.285156 9.875 14.320312 9.898438 C 14.621094 10.078125 15.082031 10.359375 15.4375 10.359375 C 15.457031 10.304688 15.472656 10.253906 15.488281 10.199219 C 15.5 10.171875 15.507812 10.140625 15.515625 10.109375 C 15.542969 10.027344 15.542969 10.027344 15.539062 9.929688 C 15.492188 9.914062 15.492188 9.914062 15.449219 9.898438 C 14.445312 9.546875 13.535156 8.925781 12.984375 8 C 12.96875 7.984375 12.957031 7.964844 12.945312 7.941406 C 12.480469 7.195312 12.277344 6.355469 12.136719 5.496094 C 11.933594 4.269531 11.441406 3.117188 10.734375 2.089844 C 10.691406 2.023438 10.644531 1.953125 10.601562 1.882812 C 10.414062 1.589844 10.414062 1.589844 10.101562 1.445312 C 9.964844 1.429688 9.832031 1.425781 9.695312 1.429688 Z M 11.289062 1.890625 C 11.339844 2.035156 11.414062 2.15625 11.492188 2.285156 C 11.636719 2.523438 11.765625 2.769531 11.886719 3.019531 C 11.917969 3.085938 11.953125 3.15625 11.984375 3.222656 C 12.359375 3.980469 12.554688 4.753906 12.699219 5.585938 C 12.914062 6.8125 13.378906 8.03125 14.425781 8.785156 C 14.992188 9.183594 14.992188 9.183594 15.640625 9.363281 C 15.675781 9.085938 15.679688 8.8125 15.679688 8.53125 C 15.679688 8.503906 15.679688 8.476562 15.679688 8.449219 C 15.679688 7.769531 15.597656 7.128906 15.40625 6.476562 C 15.398438 6.449219 15.390625 6.425781 15.382812 6.398438 C 15.078125 5.378906 14.546875 4.480469 13.84375 3.6875 C 13.820312 3.65625 13.796875 3.628906 13.773438 3.597656 C 13.195312 2.9375 12.476562 2.46875 11.710938 2.054688 C 11.675781 2.035156 11.675781 2.035156 11.640625 2.015625 C 11.523438 1.957031 11.417969 1.910156 11.289062 1.890625 Z M 1.328125 8.699219 C 1.328125 8.863281 1.328125 9.027344 1.328125 9.195312 C 2.585938 9.707031 3.792969 9.988281 5.148438 10.105469 C 6.222656 10.199219 7.292969 10.320312 8.355469 10.492188 C 8.414062 10.5 8.46875 10.511719 8.527344 10.519531 C 9.285156 10.640625 10.042969 10.902344 10.515625 11.542969 C 11.242188 12.65625 11.128906 14.023438 10.890625 15.273438 C 10.914062 15.265625 10.9375 15.257812 10.964844 15.253906 C 11.019531 15.234375 11.078125 15.21875 11.132812 15.203125 C 11.222656 15.175781 11.304688 15.140625 11.390625 15.109375 C 11.597656 13.863281 11.695312 12.433594 10.929688 11.347656 C 10.441406 10.710938 9.828125 10.328125 9.046875 10.160156 C 9.023438 10.15625 8.996094 10.148438 8.96875 10.144531 C 8.710938 10.085938 8.449219 10.039062 8.1875 10 C 8.160156 9.996094 8.136719 9.988281 8.109375 9.984375 C 7.09375 9.824219 6.070312 9.714844 5.042969 9.625 C 3.8125 9.515625 2.648438 9.292969 1.527344 8.761719 C 1.453125 8.726562 1.453125 8.726562 1.328125 8.699219 Z M 1.460938 9.859375 C 1.597656 11.410156 2.652344 12.992188 3.820312 13.976562 C 4.164062 14.265625 4.527344 14.515625 4.914062 14.742188 C 4.933594 14.753906 4.953125 14.765625 4.972656 14.777344 C 6.027344 15.398438 7.242188 15.679688 8.457031 15.679688 C 8.484375 15.679688 8.511719 15.679688 8.539062 15.679688 C 8.984375 15.679688 9.421875 15.65625 9.859375 15.570312 C 9.894531 15.566406 9.894531 15.566406 9.929688 15.558594 C 10.101562 15.53125 10.101562 15.53125 10.257812 15.472656 C 10.394531 15.238281 10.410156 14.90625 10.460938 14.640625 C 10.464844 14.601562 10.472656 14.558594 10.480469 14.511719 C 10.613281 13.660156 10.609375 12.625 10.097656 11.882812 C 9.90625 11.644531 9.714844 11.488281 9.445312 11.347656 C 9.414062 11.332031 9.414062 11.332031 9.382812 11.316406 C 9 11.128906 8.5625 11.0625 8.144531 10.996094 C 8.121094 10.992188 8.09375 10.988281 8.070312 10.984375 C 6.894531 10.796875 5.707031 10.675781 4.523438 10.570312 C 4.039062 10.527344 3.546875 10.46875 3.070312 10.347656 C 3.027344 10.339844 3.027344 10.339844 2.984375 10.328125 C 2.53125 10.214844 2.085938 10.082031 1.65625 9.898438 C 1.5625 9.855469 1.5625 9.855469 1.460938 9.859375 Z M 1.460938 9.859375 "/>
</g>
</svg>
