<svg width="16" height="16" viewBox="0 0 16 16" fill="none" xmlns="http://www.w3.org/2000/svg">
<path d="M5.99967 8.66634H7.33301V9.99967C7.33301 10.1765 7.40325 10.3461 7.52827 10.4711C7.65329 10.5961 7.82286 10.6663 7.99967 10.6663C8.17649 10.6663 8.34606 10.5961 8.47108 10.4711C8.5961 10.3461 8.66634 10.1765 8.66634 9.99967V8.66634H9.99967C10.1765 8.66634 10.3461 8.5961 10.4711 8.47108C10.5961 8.34606 10.6663 8.17649 10.6663 7.99967C10.6663 7.82286 10.5961 7.65329 10.4711 7.52827C10.3461 7.40325 10.1765 7.33301 9.99967 7.33301H8.66634V5.99967C8.66634 5.82286 8.5961 5.65329 8.47108 5.52827C8.34606 5.40325 8.17649 5.33301 7.99967 5.33301C7.82286 5.33301 7.65329 5.40325 7.52827 5.52827C7.40325 5.65329 7.33301 5.82286 7.33301 5.99967V7.33301H5.99967C5.82286 7.33301 5.65329 7.40325 5.52827 7.52827C5.40325 7.65329 5.33301 7.82286 5.33301 7.99967C5.33301 8.17649 5.40325 8.34606 5.52827 8.47108C5.65329 8.5961 5.82286 8.66634 5.99967 8.66634ZM13.9997 1.33301H1.99967C1.82286 1.33301 1.65329 1.40325 1.52827 1.52827C1.40325 1.65329 1.33301 1.82286 1.33301 1.99967V13.9997C1.33301 14.1765 1.40325 14.3461 1.52827 14.4711C1.65329 14.5961 1.82286 14.6663 1.99967 14.6663H13.9997C14.1765 14.6663 14.3461 14.5961 14.4711 14.4711C14.5961 14.3461 14.6663 14.1765 14.6663 13.9997V1.99967C14.6663 1.82286 14.5961 1.65329 14.4711 1.52827C14.3461 1.40325 14.1765 1.33301 13.9997 1.33301ZM13.333 13.333H2.66634V2.66634H13.333V13.333Z" fill="#192335"/>
</svg>
