<svg width="20" height="21" viewBox="0 0 20 21" fill="none" xmlns="http://www.w3.org/2000/svg">
<path d="M16.1449 0.346031C15.3728 0.550344 14.7129 0.973226 13.9408 1.76672C13.2856 2.43193 13.0704 2.81204 13.0236 3.35846C12.9814 3.89063 13.0704 4.20898 13.4681 4.90744L13.6179 5.17353L12.9908 5.72945C12.1952 6.42791 12.0876 6.5562 12.0502 6.81278C11.9987 7.15964 12.1157 7.36871 12.6211 7.82485C13.2669 8.40928 13.5336 8.45679 13.9735 8.07192C14.3479 7.74882 15.0265 7.24992 15.2698 7.12163C15.4944 6.99809 15.4944 6.99809 15.6442 7.08837C15.8595 7.21191 16.4023 7.37346 16.6176 7.37346C17.1464 7.37346 17.6097 7.16439 18.2368 6.63698C19.0604 5.94802 19.6968 5.00247 19.9215 4.14246C20.0291 3.72908 20.0244 2.97835 19.9168 2.59823C19.7577 2.05656 19.5284 1.68119 19.0464 1.19654C18.5597 0.69764 18.1713 0.455315 17.6612 0.322274C17.2634 0.217742 16.5848 0.227244 16.1449 0.346031ZM17.708 1.50064C18.4474 1.87125 18.9996 2.67425 18.9996 3.37272C18.9996 3.80985 18.789 4.37528 18.4333 4.91219C18.1806 5.29231 17.3944 6.09056 17.1604 6.2046C16.903 6.32813 16.5989 6.31388 16.3368 6.16658C16.2198 6.10006 15.9109 5.93851 15.6489 5.81022C15.0031 5.49187 14.8767 5.37309 14.5725 4.74114C14.4322 4.4513 14.2637 4.11395 14.1982 3.99516C14.0625 3.73858 14.0391 3.43924 14.1467 3.18741C14.2403 2.96409 14.8627 2.30364 15.2698 1.99004C16.1964 1.28207 16.9686 1.12527 17.708 1.50064ZM14.2262 6.18084C14.2262 6.2046 14.0437 6.43267 13.8238 6.68449C13.4213 7.14539 13.4167 7.14539 13.3277 7.05036C13.2341 6.95533 13.2341 6.95533 13.412 6.78903C14.0952 6.17133 14.2262 6.07155 14.2262 6.18084Z" fill="white"/>
<path d="M8.90948 3.80453C8.46959 3.91857 8.07181 4.24642 7.85654 4.67405C7.77699 4.8261 7.74423 4.9829 7.73019 5.31075C7.71147 5.70512 7.72083 5.77164 7.83782 6.03297C8.00629 6.41784 8.35259 6.75045 8.72697 6.89299C8.95628 6.98327 9.07795 6.99752 9.38213 6.98327C10.0186 6.95001 10.5053 6.6079 10.772 6.01397C10.903 5.70987 10.9171 5.17771 10.7954 4.8166C10.6831 4.4935 10.3181 4.08962 9.99049 3.92807C9.72375 3.79028 9.18558 3.73326 8.90948 3.80453ZM9.70035 5.04467C9.92498 5.30125 9.83606 5.72413 9.51784 5.87618C9.31194 5.97596 9.21366 5.96645 9.02647 5.83816C8.73633 5.64335 8.67549 5.36302 8.858 5.08743C9.05923 4.78334 9.44765 4.75958 9.70035 5.04467Z" fill="white"/>
<path d="M0.290143 8.46585C0.0140392 8.63691 0 8.72718 0 10.3902C0 12.0865 0.0140392 12.172 0.304182 12.2955C0.533488 12.3906 0.767474 12.3431 0.912546 12.1625L1.02954 12.02V10.7371V9.45416L1.23077 9.48267C3.75314 9.85328 8.82596 10.0671 12.1439 9.94356C14.1796 9.86754 17.6145 9.61096 18.3352 9.48267L18.4849 9.45416V10.7371C18.4849 11.9582 18.4896 12.0247 18.5832 12.1387C18.6347 12.21 18.7563 12.2908 18.8593 12.3193C19.009 12.3668 19.0652 12.3621 19.2149 12.286C19.3179 12.2338 19.4208 12.1435 19.4536 12.077C19.4957 11.9914 19.5144 11.5401 19.5144 10.3759C19.5144 8.63691 19.5051 8.58464 19.2337 8.4421C19.0558 8.34707 18.8125 8.35182 17.8765 8.46585C13.9596 8.92675 9.28925 9.04078 5.19449 8.7747C4.07604 8.69867 1.86253 8.49911 1.31032 8.41834C0.800233 8.34231 0.463293 8.36132 0.290143 8.46585Z" fill="white"/>
<path d="M4.70264 10.7801C3.38764 11.0652 2.13815 12.3291 1.84333 13.6785C1.72634 14.2106 1.76845 15.0611 1.9416 15.5933C2.22239 16.4818 2.78395 17.3371 3.63566 18.1591C4.49205 18.9906 4.85707 19.1759 5.63858 19.1712C6.18143 19.1712 6.48093 19.0809 6.95359 18.7768C7.11738 18.6723 7.33732 18.5535 7.44496 18.5107L7.63683 18.4299L7.76786 18.5677C7.83805 18.6438 8.16563 18.9954 8.49322 19.347C9.22793 20.131 9.38236 20.2498 9.6959 20.2498C10.0282 20.2498 10.1732 20.1642 10.7348 19.6178C11.2683 19.1047 11.3525 18.9479 11.2917 18.6152C11.2449 18.3444 11.0998 18.1876 10.2341 17.4274C9.23729 16.5579 9.29345 16.7004 9.68654 16.0162C9.99073 15.4983 10.1077 15.1182 10.1077 14.6478C10.1077 14.0681 9.94861 13.612 9.59763 13.1701C9.24197 12.7234 8.61489 12.101 8.18903 11.7731C7.0191 10.8799 5.81641 10.5377 4.70264 10.7801ZM6.30779 11.9347C7.04718 12.1865 7.85209 12.7804 8.53065 13.5739C8.91439 14.0158 9.01734 14.2011 9.05946 14.51C9.0969 14.7903 9.0267 15.0279 8.77868 15.4508C8.66169 15.6456 8.48854 15.9972 8.39494 16.23C8.13756 16.8572 7.86613 17.1185 7.06122 17.5177C6.71492 17.6887 6.33118 17.8835 6.20483 17.9548C6.04104 18.0451 5.88661 18.0878 5.67602 18.1021C5.23613 18.1306 4.99746 17.9928 4.33762 17.3371C2.77927 15.7834 2.40958 14.3247 3.25661 13.0608C3.55143 12.6284 3.96792 12.2578 4.42186 12.0297C5.04894 11.7114 5.58711 11.6829 6.30779 11.9347ZM9.51807 18.2399L10.1498 18.8006L9.95329 19.0049C9.84566 19.1142 9.7427 19.1997 9.72866 19.1949C9.70994 19.1854 9.43852 18.8861 9.12498 18.5202L8.55873 17.8598L8.66169 17.7457C8.72252 17.684 8.7974 17.6459 8.83016 17.6555C8.86291 17.6697 9.17177 17.931 9.51807 18.2399Z" fill="white"/>
</svg>
